<?xml version="1.0" encoding="UTF-8" standalone="no"?>
<!DOCTYPE svg PUBLIC "-//W3C//DTD SVG 1.1//EN"
 "http://www.w3.org/Graphics/SVG/1.1/DTD/svg11.dtd">
<!-- Generated by graphviz version 2.44.0 (20200408.0750)
 -->
<!-- Pages: 1 -->
<svg width="289pt" height="188pt"
 viewBox="0.00 0.00 288.59 188.00" xmlns="http://www.w3.org/2000/svg" xmlns:xlink="http://www.w3.org/1999/xlink">
<g id="graph0" class="graph" transform="scale(1 1) rotate(0) translate(4 184)">
<polygon fill="white" stroke="transparent" points="-4,4 -4,-184 284.59,-184 284.59,4 -4,4"/>
<!-- 0 -->
<g id="node1" class="node">
<title>0</title>
<ellipse fill="none" stroke="black" cx="145.59" cy="-162" rx="41.13" ry="18"/>
<text text-anchor="middle" x="145.59" y="-157.8" font-family="Times,serif" font-size="14.00">safeDiv</text>
</g>
<!-- 1 -->
<g id="node2" class="node">
<title>1</title>
<ellipse fill="none" stroke="black" cx="109.59" cy="-90" rx="27" ry="18"/>
<text text-anchor="middle" x="109.59" y="-85.8" font-family="Times,serif" font-size="14.00">min</text>
</g>
<!-- 0&#45;&#45;1 -->
<g id="edge1" class="edge">
<title>0&#45;&#45;1</title>
<path fill="none" stroke="black" d="M137.24,-144.76C131.42,-133.46 123.7,-118.44 117.89,-107.15"/>
</g>
<!-- 4 -->
<g id="node3" class="node">
<title>4</title>
<ellipse fill="none" stroke="black" cx="181.59" cy="-90" rx="27" ry="18"/>
<text text-anchor="middle" x="181.59" y="-85.8" font-family="Times,serif" font-size="14.00">mul</text>
</g>
<!-- 0&#45;&#45;4 -->
<g id="edge2" class="edge">
<title>0&#45;&#45;4</title>
<path fill="none" stroke="black" d="M153.94,-144.76C159.76,-133.46 167.48,-118.44 173.29,-107.15"/>
</g>
<!-- 2 -->
<g id="node4" class="node">
<title>2</title>
<ellipse fill="none" stroke="black" cx="37.59" cy="-18" rx="37.69" ry="18"/>
<text text-anchor="middle" x="37.59" y="-13.8" font-family="Times,serif" font-size="14.00">58.897</text>
</g>
<!-- 1&#45;&#45;2 -->
<g id="edge3" class="edge">
<title>1&#45;&#45;2</title>
<path fill="none" stroke="black" d="M95.02,-74.83C82.61,-62.77 64.86,-45.51 52.39,-33.38"/>
</g>
<!-- 3 -->
<g id="node5" class="node">
<title>3</title>
<ellipse fill="none" stroke="black" cx="109.59" cy="-18" rx="27" ry="18"/>
<text text-anchor="middle" x="109.59" y="-13.8" font-family="Times,serif" font-size="14.00">X2</text>
</g>
<!-- 1&#45;&#45;3 -->
<g id="edge4" class="edge">
<title>1&#45;&#45;3</title>
<path fill="none" stroke="black" d="M109.59,-71.7C109.59,-60.85 109.59,-46.92 109.59,-36.1"/>
</g>
<!-- 5 -->
<g id="node6" class="node">
<title>5</title>
<ellipse fill="none" stroke="black" cx="181.59" cy="-18" rx="27" ry="18"/>
<text text-anchor="middle" x="181.59" y="-13.8" font-family="Times,serif" font-size="14.00">X7</text>
</g>
<!-- 4&#45;&#45;5 -->
<g id="edge5" class="edge">
<title>4&#45;&#45;5</title>
<path fill="none" stroke="black" d="M181.59,-71.7C181.59,-60.85 181.59,-46.92 181.59,-36.1"/>
</g>
<!-- 6 -->
<g id="node7" class="node">
<title>6</title>
<ellipse fill="none" stroke="black" cx="253.59" cy="-18" rx="27" ry="18"/>
<text text-anchor="middle" x="253.59" y="-13.8" font-family="Times,serif" font-size="14.00">X9</text>
</g>
<!-- 4&#45;&#45;6 -->
<g id="edge6" class="edge">
<title>4&#45;&#45;6</title>
<path fill="none" stroke="black" d="M196.16,-74.83C208.57,-62.77 226.32,-45.51 238.79,-33.38"/>
</g>
</g>
</svg>
