<?xml version="1.0" encoding="UTF-8" standalone="no"?>
<!DOCTYPE svg PUBLIC "-//W3C//DTD SVG 1.1//EN"
 "http://www.w3.org/Graphics/SVG/1.1/DTD/svg11.dtd">
<!-- Generated by graphviz version 2.44.0 (20200408.0750)
 -->
<!-- Pages: 1 -->
<svg width="710pt" height="476pt"
 viewBox="0.00 0.00 710.00 476.00" xmlns="http://www.w3.org/2000/svg" xmlns:xlink="http://www.w3.org/1999/xlink">
<g id="graph0" class="graph" transform="scale(1 1) rotate(0) translate(4 472)">
<polygon fill="white" stroke="transparent" points="-4,4 -4,-472 706,-472 706,4 -4,4"/>
<!-- 0 -->
<g id="node1" class="node">
<title>0</title>
<ellipse fill="none" stroke="black" cx="297" cy="-450" rx="27" ry="18"/>
<text text-anchor="middle" x="297" y="-445.8" font-family="Times,serif" font-size="14.00">le</text>
</g>
<!-- 1 -->
<g id="node2" class="node">
<title>1</title>
<ellipse fill="none" stroke="black" cx="207" cy="-378" rx="27" ry="18"/>
<text text-anchor="middle" x="207" y="-373.8" font-family="Times,serif" font-size="14.00">add</text>
</g>
<!-- 0&#45;&#45;1 -->
<g id="edge1" class="edge">
<title>0&#45;&#45;1</title>
<path fill="none" stroke="black" d="M280.07,-435.83C263.98,-423.32 239.92,-404.6 223.85,-392.11"/>
</g>
<!-- 10 -->
<g id="node3" class="node">
<title>10</title>
<ellipse fill="none" stroke="black" cx="351" cy="-378" rx="41.13" ry="18"/>
<text text-anchor="middle" x="351" y="-373.8" font-family="Times,serif" font-size="14.00">safeDiv</text>
</g>
<!-- 0&#45;&#45;10 -->
<g id="edge2" class="edge">
<title>0&#45;&#45;10</title>
<path fill="none" stroke="black" d="M308.98,-433.46C317.93,-421.86 330.11,-406.08 339.05,-394.49"/>
</g>
<!-- 2 -->
<g id="node4" class="node">
<title>2</title>
<ellipse fill="none" stroke="black" cx="99" cy="-306" rx="27" ry="18"/>
<text text-anchor="middle" x="99" y="-301.8" font-family="Times,serif" font-size="14.00">mul</text>
</g>
<!-- 1&#45;&#45;2 -->
<g id="edge3" class="edge">
<title>1&#45;&#45;2</title>
<path fill="none" stroke="black" d="M188.19,-364.81C168.37,-351.96 137.34,-331.85 117.6,-319.05"/>
</g>
<!-- 5 -->
<g id="node5" class="node">
<title>5</title>
<ellipse fill="none" stroke="black" cx="207" cy="-306" rx="27" ry="18"/>
<text text-anchor="middle" x="207" y="-301.8" font-family="Times,serif" font-size="14.00">mul</text>
</g>
<!-- 1&#45;&#45;5 -->
<g id="edge4" class="edge">
<title>1&#45;&#45;5</title>
<path fill="none" stroke="black" d="M207,-359.7C207,-348.85 207,-334.92 207,-324.1"/>
</g>
<!-- 11 -->
<g id="node6" class="node">
<title>11</title>
<ellipse fill="none" stroke="black" cx="351" cy="-306" rx="27" ry="18"/>
<text text-anchor="middle" x="351" y="-301.8" font-family="Times,serif" font-size="14.00">gt</text>
</g>
<!-- 10&#45;&#45;11 -->
<g id="edge5" class="edge">
<title>10&#45;&#45;11</title>
<path fill="none" stroke="black" d="M351,-359.7C351,-348.85 351,-334.92 351,-324.1"/>
</g>
<!-- 30 -->
<g id="node7" class="node">
<title>30</title>
<ellipse fill="none" stroke="black" cx="423" cy="-306" rx="27" ry="18"/>
<text text-anchor="middle" x="423" y="-301.8" font-family="Times,serif" font-size="14.00">X0</text>
</g>
<!-- 10&#45;&#45;30 -->
<g id="edge6" class="edge">
<title>10&#45;&#45;30</title>
<path fill="none" stroke="black" d="M365.57,-362.83C377.98,-350.77 395.73,-333.51 408.2,-321.38"/>
</g>
<!-- 3 -->
<g id="node8" class="node">
<title>3</title>
<ellipse fill="none" stroke="black" cx="27" cy="-234" rx="27" ry="18"/>
<text text-anchor="middle" x="27" y="-229.8" font-family="Times,serif" font-size="14.00">X7</text>
</g>
<!-- 2&#45;&#45;3 -->
<g id="edge7" class="edge">
<title>2&#45;&#45;3</title>
<path fill="none" stroke="black" d="M84.43,-290.83C72.02,-278.77 54.27,-261.51 41.8,-249.38"/>
</g>
<!-- 4 -->
<g id="node9" class="node">
<title>4</title>
<ellipse fill="none" stroke="black" cx="99" cy="-234" rx="27" ry="18"/>
<text text-anchor="middle" x="99" y="-229.8" font-family="Times,serif" font-size="14.00">X9</text>
</g>
<!-- 2&#45;&#45;4 -->
<g id="edge8" class="edge">
<title>2&#45;&#45;4</title>
<path fill="none" stroke="black" d="M99,-287.7C99,-276.85 99,-262.92 99,-252.1"/>
</g>
<!-- 6 -->
<g id="node10" class="node">
<title>6</title>
<ellipse fill="none" stroke="black" cx="171" cy="-234" rx="27" ry="18"/>
<text text-anchor="middle" x="171" y="-229.8" font-family="Times,serif" font-size="14.00">1.0</text>
</g>
<!-- 5&#45;&#45;6 -->
<g id="edge9" class="edge">
<title>5&#45;&#45;6</title>
<path fill="none" stroke="black" d="M198.65,-288.76C192.83,-277.46 185.11,-262.44 179.3,-251.15"/>
</g>
<!-- 7 -->
<g id="node11" class="node">
<title>7</title>
<ellipse fill="none" stroke="black" cx="243" cy="-234" rx="27" ry="18"/>
<text text-anchor="middle" x="243" y="-229.8" font-family="Times,serif" font-size="14.00">mul</text>
</g>
<!-- 5&#45;&#45;7 -->
<g id="edge10" class="edge">
<title>5&#45;&#45;7</title>
<path fill="none" stroke="black" d="M215.35,-288.76C221.17,-277.46 228.89,-262.44 234.7,-251.15"/>
</g>
<!-- 12 -->
<g id="node12" class="node">
<title>12</title>
<ellipse fill="none" stroke="black" cx="351" cy="-234" rx="27" ry="18"/>
<text text-anchor="middle" x="351" y="-229.8" font-family="Times,serif" font-size="14.00">min</text>
</g>
<!-- 11&#45;&#45;12 -->
<g id="edge11" class="edge">
<title>11&#45;&#45;12</title>
<path fill="none" stroke="black" d="M351,-287.7C351,-276.85 351,-262.92 351,-252.1"/>
</g>
<!-- 23 -->
<g id="node13" class="node">
<title>23</title>
<ellipse fill="none" stroke="black" cx="459" cy="-234" rx="27" ry="18"/>
<text text-anchor="middle" x="459" y="-229.8" font-family="Times,serif" font-size="14.00">le</text>
</g>
<!-- 11&#45;&#45;23 -->
<g id="edge12" class="edge">
<title>11&#45;&#45;23</title>
<path fill="none" stroke="black" d="M369.81,-292.81C389.63,-279.96 420.66,-259.85 440.4,-247.05"/>
</g>
<!-- 8 -->
<g id="node14" class="node">
<title>8</title>
<ellipse fill="none" stroke="black" cx="171" cy="-162" rx="27" ry="18"/>
<text text-anchor="middle" x="171" y="-157.8" font-family="Times,serif" font-size="14.00">X0</text>
</g>
<!-- 7&#45;&#45;8 -->
<g id="edge13" class="edge">
<title>7&#45;&#45;8</title>
<path fill="none" stroke="black" d="M228.43,-218.83C216.02,-206.77 198.27,-189.51 185.8,-177.38"/>
</g>
<!-- 9 -->
<g id="node15" class="node">
<title>9</title>
<ellipse fill="none" stroke="black" cx="243" cy="-162" rx="27" ry="18"/>
<text text-anchor="middle" x="243" y="-157.8" font-family="Times,serif" font-size="14.00">X8</text>
</g>
<!-- 7&#45;&#45;9 -->
<g id="edge14" class="edge">
<title>7&#45;&#45;9</title>
<path fill="none" stroke="black" d="M243,-215.7C243,-204.85 243,-190.92 243,-180.1"/>
</g>
<!-- 13 -->
<g id="node16" class="node">
<title>13</title>
<ellipse fill="none" stroke="black" cx="315" cy="-162" rx="27" ry="18"/>
<text text-anchor="middle" x="315" y="-157.8" font-family="Times,serif" font-size="14.00">sub</text>
</g>
<!-- 12&#45;&#45;13 -->
<g id="edge15" class="edge">
<title>12&#45;&#45;13</title>
<path fill="none" stroke="black" d="M342.65,-216.76C336.83,-205.46 329.11,-190.44 323.3,-179.15"/>
</g>
<!-- 16 -->
<g id="node17" class="node">
<title>16</title>
<ellipse fill="none" stroke="black" cx="387" cy="-162" rx="27" ry="18"/>
<text text-anchor="middle" x="387" y="-157.8" font-family="Times,serif" font-size="14.00">mul</text>
</g>
<!-- 12&#45;&#45;16 -->
<g id="edge16" class="edge">
<title>12&#45;&#45;16</title>
<path fill="none" stroke="black" d="M359.35,-216.76C365.17,-205.46 372.89,-190.44 378.7,-179.15"/>
</g>
<!-- 24 -->
<g id="node18" class="node">
<title>24</title>
<ellipse fill="none" stroke="black" cx="459" cy="-162" rx="27" ry="18"/>
<text text-anchor="middle" x="459" y="-157.8" font-family="Times,serif" font-size="14.00">X2</text>
</g>
<!-- 23&#45;&#45;24 -->
<g id="edge17" class="edge">
<title>23&#45;&#45;24</title>
<path fill="none" stroke="black" d="M459,-215.7C459,-204.85 459,-190.92 459,-180.1"/>
</g>
<!-- 25 -->
<g id="node19" class="node">
<title>25</title>
<ellipse fill="none" stroke="black" cx="531" cy="-162" rx="41.13" ry="18"/>
<text text-anchor="middle" x="531" y="-157.8" font-family="Times,serif" font-size="14.00">safeDiv</text>
</g>
<!-- 23&#45;&#45;25 -->
<g id="edge18" class="edge">
<title>23&#45;&#45;25</title>
<path fill="none" stroke="black" d="M473.57,-218.83C485.98,-206.77 503.73,-189.51 516.2,-177.38"/>
</g>
<!-- 14 -->
<g id="node20" class="node">
<title>14</title>
<ellipse fill="none" stroke="black" cx="243" cy="-90" rx="27" ry="18"/>
<text text-anchor="middle" x="243" y="-85.8" font-family="Times,serif" font-size="14.00">X1</text>
</g>
<!-- 13&#45;&#45;14 -->
<g id="edge19" class="edge">
<title>13&#45;&#45;14</title>
<path fill="none" stroke="black" d="M300.43,-146.83C288.02,-134.77 270.27,-117.51 257.8,-105.38"/>
</g>
<!-- 15 -->
<g id="node21" class="node">
<title>15</title>
<ellipse fill="none" stroke="black" cx="315" cy="-90" rx="27" ry="18"/>
<text text-anchor="middle" x="315" y="-85.8" font-family="Times,serif" font-size="14.00">X7</text>
</g>
<!-- 13&#45;&#45;15 -->
<g id="edge20" class="edge">
<title>13&#45;&#45;15</title>
<path fill="none" stroke="black" d="M315,-143.7C315,-132.85 315,-118.92 315,-108.1"/>
</g>
<!-- 17 -->
<g id="node22" class="node">
<title>17</title>
<ellipse fill="none" stroke="black" cx="387" cy="-90" rx="41.13" ry="18"/>
<text text-anchor="middle" x="387" y="-85.8" font-family="Times,serif" font-size="14.00">safeDiv</text>
</g>
<!-- 16&#45;&#45;17 -->
<g id="edge21" class="edge">
<title>16&#45;&#45;17</title>
<path fill="none" stroke="black" d="M387,-143.7C387,-132.85 387,-118.92 387,-108.1"/>
</g>
<!-- 20 -->
<g id="node23" class="node">
<title>20</title>
<ellipse fill="none" stroke="black" cx="459" cy="-90" rx="27" ry="18"/>
<text text-anchor="middle" x="459" y="-85.8" font-family="Times,serif" font-size="14.00">sub</text>
</g>
<!-- 16&#45;&#45;20 -->
<g id="edge22" class="edge">
<title>16&#45;&#45;20</title>
<path fill="none" stroke="black" d="M401.57,-146.83C413.98,-134.77 431.73,-117.51 444.2,-105.38"/>
</g>
<!-- 26 -->
<g id="node24" class="node">
<title>26</title>
<ellipse fill="none" stroke="black" cx="531" cy="-90" rx="27" ry="18"/>
<text text-anchor="middle" x="531" y="-85.8" font-family="Times,serif" font-size="14.00">X5</text>
</g>
<!-- 25&#45;&#45;26 -->
<g id="edge23" class="edge">
<title>25&#45;&#45;26</title>
<path fill="none" stroke="black" d="M531,-143.7C531,-132.85 531,-118.92 531,-108.1"/>
</g>
<!-- 27 -->
<g id="node25" class="node">
<title>27</title>
<ellipse fill="none" stroke="black" cx="603" cy="-90" rx="27" ry="18"/>
<text text-anchor="middle" x="603" y="-85.8" font-family="Times,serif" font-size="14.00">eq</text>
</g>
<!-- 25&#45;&#45;27 -->
<g id="edge24" class="edge">
<title>25&#45;&#45;27</title>
<path fill="none" stroke="black" d="M545.57,-146.83C557.98,-134.77 575.73,-117.51 588.2,-105.38"/>
</g>
<!-- 18 -->
<g id="node26" class="node">
<title>18</title>
<ellipse fill="none" stroke="black" cx="315" cy="-18" rx="27" ry="18"/>
<text text-anchor="middle" x="315" y="-13.8" font-family="Times,serif" font-size="14.00">X4</text>
</g>
<!-- 17&#45;&#45;18 -->
<g id="edge25" class="edge">
<title>17&#45;&#45;18</title>
<path fill="none" stroke="black" d="M372.43,-74.83C360.02,-62.77 342.27,-45.51 329.8,-33.38"/>
</g>
<!-- 19 -->
<g id="node27" class="node">
<title>19</title>
<ellipse fill="none" stroke="black" cx="387" cy="-18" rx="27" ry="18"/>
<text text-anchor="middle" x="387" y="-13.8" font-family="Times,serif" font-size="14.00">X9</text>
</g>
<!-- 17&#45;&#45;19 -->
<g id="edge26" class="edge">
<title>17&#45;&#45;19</title>
<path fill="none" stroke="black" d="M387,-71.7C387,-60.85 387,-46.92 387,-36.1"/>
</g>
<!-- 21 -->
<g id="node28" class="node">
<title>21</title>
<ellipse fill="none" stroke="black" cx="459" cy="-18" rx="27" ry="18"/>
<text text-anchor="middle" x="459" y="-13.8" font-family="Times,serif" font-size="14.00">X1</text>
</g>
<!-- 20&#45;&#45;21 -->
<g id="edge27" class="edge">
<title>20&#45;&#45;21</title>
<path fill="none" stroke="black" d="M459,-71.7C459,-60.85 459,-46.92 459,-36.1"/>
</g>
<!-- 22 -->
<g id="node29" class="node">
<title>22</title>
<ellipse fill="none" stroke="black" cx="531" cy="-18" rx="27" ry="18"/>
<text text-anchor="middle" x="531" y="-13.8" font-family="Times,serif" font-size="14.00">X3</text>
</g>
<!-- 20&#45;&#45;22 -->
<g id="edge28" class="edge">
<title>20&#45;&#45;22</title>
<path fill="none" stroke="black" d="M473.57,-74.83C485.98,-62.77 503.73,-45.51 516.2,-33.38"/>
</g>
<!-- 28 -->
<g id="node30" class="node">
<title>28</title>
<ellipse fill="none" stroke="black" cx="603" cy="-18" rx="27" ry="18"/>
<text text-anchor="middle" x="603" y="-13.8" font-family="Times,serif" font-size="14.00">X8</text>
</g>
<!-- 27&#45;&#45;28 -->
<g id="edge29" class="edge">
<title>27&#45;&#45;28</title>
<path fill="none" stroke="black" d="M603,-71.7C603,-60.85 603,-46.92 603,-36.1"/>
</g>
<!-- 29 -->
<g id="node31" class="node">
<title>29</title>
<ellipse fill="none" stroke="black" cx="675" cy="-18" rx="27" ry="18"/>
<text text-anchor="middle" x="675" y="-13.8" font-family="Times,serif" font-size="14.00">X8</text>
</g>
<!-- 27&#45;&#45;29 -->
<g id="edge30" class="edge">
<title>27&#45;&#45;29</title>
<path fill="none" stroke="black" d="M617.57,-74.83C629.98,-62.77 647.73,-45.51 660.2,-33.38"/>
</g>
</g>
</svg>
