<?xml version="1.0" encoding="UTF-8" standalone="no"?>
<!DOCTYPE svg PUBLIC "-//W3C//DTD SVG 1.1//EN"
 "http://www.w3.org/Graphics/SVG/1.1/DTD/svg11.dtd">
<!-- Generated by graphviz version 2.40.1 (20161225.0304)
 -->
<!-- Pages: 1 -->
<svg width="710pt" height="476pt"
 viewBox="0.00 0.00 710.00 476.00" xmlns="http://www.w3.org/2000/svg" xmlns:xlink="http://www.w3.org/1999/xlink">
<g id="graph0" class="graph" transform="scale(1 1) rotate(0) translate(4 472)">
<polygon fill="#ffffff" stroke="transparent" points="-4,4 -4,-472 706,-472 706,4 -4,4"/>
<!-- 0 -->
<g id="node1" class="node">
<title>0</title>
<ellipse fill="none" stroke="#000000" cx="297" cy="-450" rx="27" ry="18"/>
<text text-anchor="middle" x="297" y="-445.8" font-family="Times,serif" font-size="14.00" fill="#000000">le</text>
</g>
<!-- 1 -->
<g id="node2" class="node">
<title>1</title>
<ellipse fill="none" stroke="#000000" cx="207" cy="-378" rx="27" ry="18"/>
<text text-anchor="middle" x="207" y="-373.8" font-family="Times,serif" font-size="14.00" fill="#000000">add</text>
</g>
<!-- 0&#45;&#45;1 -->
<g id="edge1" class="edge">
<title>0&#45;&#45;1</title>
<path fill="none" stroke="#000000" d="M279.65,-436.12C263.71,-423.37 240.22,-404.58 224.3,-391.84"/>
</g>
<!-- 10 -->
<g id="node3" class="node">
<title>10</title>
<ellipse fill="none" stroke="#000000" cx="351" cy="-378" rx="41.1277" ry="18"/>
<text text-anchor="middle" x="351" y="-373.8" font-family="Times,serif" font-size="14.00" fill="#000000">safeDiv</text>
</g>
<!-- 0&#45;&#45;10 -->
<g id="edge2" class="edge">
<title>0&#45;&#45;10</title>
<path fill="none" stroke="#000000" d="M309.25,-433.66C318.09,-421.88 329.97,-406.04 338.8,-394.27"/>
</g>
<!-- 2 -->
<g id="node4" class="node">
<title>2</title>
<ellipse fill="none" stroke="#000000" cx="99" cy="-306" rx="27" ry="18"/>
<text text-anchor="middle" x="99" y="-301.8" font-family="Times,serif" font-size="14.00" fill="#000000">mul</text>
</g>
<!-- 1&#45;&#45;2 -->
<g id="edge3" class="edge">
<title>1&#45;&#45;2</title>
<path fill="none" stroke="#000000" d="M187.69,-365.13C168.03,-352.02 137.74,-331.83 118.14,-318.76"/>
</g>
<!-- 5 -->
<g id="node5" class="node">
<title>5</title>
<ellipse fill="none" stroke="#000000" cx="207" cy="-306" rx="27" ry="18"/>
<text text-anchor="middle" x="207" y="-301.8" font-family="Times,serif" font-size="14.00" fill="#000000">mul</text>
</g>
<!-- 1&#45;&#45;5 -->
<g id="edge4" class="edge">
<title>1&#45;&#45;5</title>
<path fill="none" stroke="#000000" d="M207,-359.83C207,-349 207,-335.29 207,-324.41"/>
</g>
<!-- 11 -->
<g id="node6" class="node">
<title>11</title>
<ellipse fill="none" stroke="#000000" cx="351" cy="-306" rx="27" ry="18"/>
<text text-anchor="middle" x="351" y="-301.8" font-family="Times,serif" font-size="14.00" fill="#000000">gt</text>
</g>
<!-- 10&#45;&#45;11 -->
<g id="edge5" class="edge">
<title>10&#45;&#45;11</title>
<path fill="none" stroke="#000000" d="M351,-359.83C351,-349 351,-335.29 351,-324.41"/>
</g>
<!-- 30 -->
<g id="node7" class="node">
<title>30</title>
<ellipse fill="none" stroke="#000000" cx="423" cy="-306" rx="27" ry="18"/>
<text text-anchor="middle" x="423" y="-301.8" font-family="Times,serif" font-size="14.00" fill="#000000">X0</text>
</g>
<!-- 10&#45;&#45;30 -->
<g id="edge6" class="edge">
<title>10&#45;&#45;30</title>
<path fill="none" stroke="#000000" d="M366.27,-362.73C378.49,-350.51 395.54,-333.46 407.75,-321.25"/>
</g>
<!-- 3 -->
<g id="node8" class="node">
<title>3</title>
<ellipse fill="none" stroke="#000000" cx="27" cy="-234" rx="27" ry="18"/>
<text text-anchor="middle" x="27" y="-229.8" font-family="Times,serif" font-size="14.00" fill="#000000">X7</text>
</g>
<!-- 2&#45;&#45;3 -->
<g id="edge7" class="edge">
<title>2&#45;&#45;3</title>
<path fill="none" stroke="#000000" d="M83.731,-290.73C71.512,-278.51 54.46,-261.46 42.247,-249.25"/>
</g>
<!-- 4 -->
<g id="node9" class="node">
<title>4</title>
<ellipse fill="none" stroke="#000000" cx="99" cy="-234" rx="27" ry="18"/>
<text text-anchor="middle" x="99" y="-229.8" font-family="Times,serif" font-size="14.00" fill="#000000">X9</text>
</g>
<!-- 2&#45;&#45;4 -->
<g id="edge8" class="edge">
<title>2&#45;&#45;4</title>
<path fill="none" stroke="#000000" d="M99,-287.83C99,-277 99,-263.29 99,-252.41"/>
</g>
<!-- 6 -->
<g id="node10" class="node">
<title>6</title>
<ellipse fill="none" stroke="#000000" cx="171" cy="-234" rx="27" ry="18"/>
<text text-anchor="middle" x="171" y="-229.8" font-family="Times,serif" font-size="14.00" fill="#000000">1.0</text>
</g>
<!-- 5&#45;&#45;6 -->
<g id="edge9" class="edge">
<title>5&#45;&#45;6</title>
<path fill="none" stroke="#000000" d="M198.29,-288.57C192.63,-277.25 185.28,-262.56 179.63,-251.27"/>
</g>
<!-- 7 -->
<g id="node11" class="node">
<title>7</title>
<ellipse fill="none" stroke="#000000" cx="243" cy="-234" rx="27" ry="18"/>
<text text-anchor="middle" x="243" y="-229.8" font-family="Times,serif" font-size="14.00" fill="#000000">mul</text>
</g>
<!-- 5&#45;&#45;7 -->
<g id="edge10" class="edge">
<title>5&#45;&#45;7</title>
<path fill="none" stroke="#000000" d="M215.71,-288.57C221.37,-277.25 228.72,-262.56 234.37,-251.27"/>
</g>
<!-- 12 -->
<g id="node12" class="node">
<title>12</title>
<ellipse fill="none" stroke="#000000" cx="351" cy="-234" rx="27" ry="18"/>
<text text-anchor="middle" x="351" y="-229.8" font-family="Times,serif" font-size="14.00" fill="#000000">min</text>
</g>
<!-- 11&#45;&#45;12 -->
<g id="edge11" class="edge">
<title>11&#45;&#45;12</title>
<path fill="none" stroke="#000000" d="M351,-287.83C351,-277 351,-263.29 351,-252.41"/>
</g>
<!-- 23 -->
<g id="node13" class="node">
<title>23</title>
<ellipse fill="none" stroke="#000000" cx="459" cy="-234" rx="27" ry="18"/>
<text text-anchor="middle" x="459" y="-229.8" font-family="Times,serif" font-size="14.00" fill="#000000">le</text>
</g>
<!-- 11&#45;&#45;23 -->
<g id="edge12" class="edge">
<title>11&#45;&#45;23</title>
<path fill="none" stroke="#000000" d="M370.31,-293.13C389.97,-280.02 420.26,-259.83 439.86,-246.76"/>
</g>
<!-- 8 -->
<g id="node14" class="node">
<title>8</title>
<ellipse fill="none" stroke="#000000" cx="171" cy="-162" rx="27" ry="18"/>
<text text-anchor="middle" x="171" y="-157.8" font-family="Times,serif" font-size="14.00" fill="#000000">X0</text>
</g>
<!-- 7&#45;&#45;8 -->
<g id="edge13" class="edge">
<title>7&#45;&#45;8</title>
<path fill="none" stroke="#000000" d="M227.73,-218.73C215.51,-206.51 198.46,-189.46 186.25,-177.25"/>
</g>
<!-- 9 -->
<g id="node15" class="node">
<title>9</title>
<ellipse fill="none" stroke="#000000" cx="243" cy="-162" rx="27" ry="18"/>
<text text-anchor="middle" x="243" y="-157.8" font-family="Times,serif" font-size="14.00" fill="#000000">X8</text>
</g>
<!-- 7&#45;&#45;9 -->
<g id="edge14" class="edge">
<title>7&#45;&#45;9</title>
<path fill="none" stroke="#000000" d="M243,-215.83C243,-205 243,-191.29 243,-180.41"/>
</g>
<!-- 13 -->
<g id="node16" class="node">
<title>13</title>
<ellipse fill="none" stroke="#000000" cx="315" cy="-162" rx="27" ry="18"/>
<text text-anchor="middle" x="315" y="-157.8" font-family="Times,serif" font-size="14.00" fill="#000000">sub</text>
</g>
<!-- 12&#45;&#45;13 -->
<g id="edge15" class="edge">
<title>12&#45;&#45;13</title>
<path fill="none" stroke="#000000" d="M342.29,-216.57C336.63,-205.25 329.28,-190.56 323.63,-179.27"/>
</g>
<!-- 16 -->
<g id="node17" class="node">
<title>16</title>
<ellipse fill="none" stroke="#000000" cx="387" cy="-162" rx="27" ry="18"/>
<text text-anchor="middle" x="387" y="-157.8" font-family="Times,serif" font-size="14.00" fill="#000000">mul</text>
</g>
<!-- 12&#45;&#45;16 -->
<g id="edge16" class="edge">
<title>12&#45;&#45;16</title>
<path fill="none" stroke="#000000" d="M359.71,-216.57C365.37,-205.25 372.72,-190.56 378.37,-179.27"/>
</g>
<!-- 24 -->
<g id="node18" class="node">
<title>24</title>
<ellipse fill="none" stroke="#000000" cx="459" cy="-162" rx="27" ry="18"/>
<text text-anchor="middle" x="459" y="-157.8" font-family="Times,serif" font-size="14.00" fill="#000000">X2</text>
</g>
<!-- 23&#45;&#45;24 -->
<g id="edge17" class="edge">
<title>23&#45;&#45;24</title>
<path fill="none" stroke="#000000" d="M459,-215.83C459,-205 459,-191.29 459,-180.41"/>
</g>
<!-- 25 -->
<g id="node19" class="node">
<title>25</title>
<ellipse fill="none" stroke="#000000" cx="531" cy="-162" rx="41.1277" ry="18"/>
<text text-anchor="middle" x="531" y="-157.8" font-family="Times,serif" font-size="14.00" fill="#000000">safeDiv</text>
</g>
<!-- 23&#45;&#45;25 -->
<g id="edge18" class="edge">
<title>23&#45;&#45;25</title>
<path fill="none" stroke="#000000" d="M474.27,-218.73C486.49,-206.51 503.54,-189.46 515.75,-177.25"/>
</g>
<!-- 14 -->
<g id="node20" class="node">
<title>14</title>
<ellipse fill="none" stroke="#000000" cx="243" cy="-90" rx="27" ry="18"/>
<text text-anchor="middle" x="243" y="-85.8" font-family="Times,serif" font-size="14.00" fill="#000000">X1</text>
</g>
<!-- 13&#45;&#45;14 -->
<g id="edge19" class="edge">
<title>13&#45;&#45;14</title>
<path fill="none" stroke="#000000" d="M299.73,-146.73C287.51,-134.51 270.46,-117.46 258.25,-105.25"/>
</g>
<!-- 15 -->
<g id="node21" class="node">
<title>15</title>
<ellipse fill="none" stroke="#000000" cx="315" cy="-90" rx="27" ry="18"/>
<text text-anchor="middle" x="315" y="-85.8" font-family="Times,serif" font-size="14.00" fill="#000000">X7</text>
</g>
<!-- 13&#45;&#45;15 -->
<g id="edge20" class="edge">
<title>13&#45;&#45;15</title>
<path fill="none" stroke="#000000" d="M315,-143.83C315,-133 315,-119.29 315,-108.41"/>
</g>
<!-- 17 -->
<g id="node22" class="node">
<title>17</title>
<ellipse fill="none" stroke="#000000" cx="387" cy="-90" rx="41.1277" ry="18"/>
<text text-anchor="middle" x="387" y="-85.8" font-family="Times,serif" font-size="14.00" fill="#000000">safeDiv</text>
</g>
<!-- 16&#45;&#45;17 -->
<g id="edge21" class="edge">
<title>16&#45;&#45;17</title>
<path fill="none" stroke="#000000" d="M387,-143.83C387,-133 387,-119.29 387,-108.41"/>
</g>
<!-- 20 -->
<g id="node23" class="node">
<title>20</title>
<ellipse fill="none" stroke="#000000" cx="459" cy="-90" rx="27" ry="18"/>
<text text-anchor="middle" x="459" y="-85.8" font-family="Times,serif" font-size="14.00" fill="#000000">sub</text>
</g>
<!-- 16&#45;&#45;20 -->
<g id="edge22" class="edge">
<title>16&#45;&#45;20</title>
<path fill="none" stroke="#000000" d="M402.27,-146.73C414.49,-134.51 431.54,-117.46 443.75,-105.25"/>
</g>
<!-- 26 -->
<g id="node24" class="node">
<title>26</title>
<ellipse fill="none" stroke="#000000" cx="531" cy="-90" rx="27" ry="18"/>
<text text-anchor="middle" x="531" y="-85.8" font-family="Times,serif" font-size="14.00" fill="#000000">X5</text>
</g>
<!-- 25&#45;&#45;26 -->
<g id="edge23" class="edge">
<title>25&#45;&#45;26</title>
<path fill="none" stroke="#000000" d="M531,-143.83C531,-133 531,-119.29 531,-108.41"/>
</g>
<!-- 27 -->
<g id="node25" class="node">
<title>27</title>
<ellipse fill="none" stroke="#000000" cx="603" cy="-90" rx="27" ry="18"/>
<text text-anchor="middle" x="603" y="-85.8" font-family="Times,serif" font-size="14.00" fill="#000000">eq</text>
</g>
<!-- 25&#45;&#45;27 -->
<g id="edge24" class="edge">
<title>25&#45;&#45;27</title>
<path fill="none" stroke="#000000" d="M546.27,-146.73C558.49,-134.51 575.54,-117.46 587.75,-105.25"/>
</g>
<!-- 18 -->
<g id="node26" class="node">
<title>18</title>
<ellipse fill="none" stroke="#000000" cx="315" cy="-18" rx="27" ry="18"/>
<text text-anchor="middle" x="315" y="-13.8" font-family="Times,serif" font-size="14.00" fill="#000000">X4</text>
</g>
<!-- 17&#45;&#45;18 -->
<g id="edge25" class="edge">
<title>17&#45;&#45;18</title>
<path fill="none" stroke="#000000" d="M371.73,-74.731C359.51,-62.512 342.46,-45.46 330.25,-33.247"/>
</g>
<!-- 19 -->
<g id="node27" class="node">
<title>19</title>
<ellipse fill="none" stroke="#000000" cx="387" cy="-18" rx="27" ry="18"/>
<text text-anchor="middle" x="387" y="-13.8" font-family="Times,serif" font-size="14.00" fill="#000000">X9</text>
</g>
<!-- 17&#45;&#45;19 -->
<g id="edge26" class="edge">
<title>17&#45;&#45;19</title>
<path fill="none" stroke="#000000" d="M387,-71.831C387,-61 387,-47.288 387,-36.413"/>
</g>
<!-- 21 -->
<g id="node28" class="node">
<title>21</title>
<ellipse fill="none" stroke="#000000" cx="459" cy="-18" rx="27" ry="18"/>
<text text-anchor="middle" x="459" y="-13.8" font-family="Times,serif" font-size="14.00" fill="#000000">X1</text>
</g>
<!-- 20&#45;&#45;21 -->
<g id="edge27" class="edge">
<title>20&#45;&#45;21</title>
<path fill="none" stroke="#000000" d="M459,-71.831C459,-61 459,-47.288 459,-36.413"/>
</g>
<!-- 22 -->
<g id="node29" class="node">
<title>22</title>
<ellipse fill="none" stroke="#000000" cx="531" cy="-18" rx="27" ry="18"/>
<text text-anchor="middle" x="531" y="-13.8" font-family="Times,serif" font-size="14.00" fill="#000000">X3</text>
</g>
<!-- 20&#45;&#45;22 -->
<g id="edge28" class="edge">
<title>20&#45;&#45;22</title>
<path fill="none" stroke="#000000" d="M474.27,-74.731C486.49,-62.512 503.54,-45.46 515.75,-33.247"/>
</g>
<!-- 28 -->
<g id="node30" class="node">
<title>28</title>
<ellipse fill="none" stroke="#000000" cx="603" cy="-18" rx="27" ry="18"/>
<text text-anchor="middle" x="603" y="-13.8" font-family="Times,serif" font-size="14.00" fill="#000000">X8</text>
</g>
<!-- 27&#45;&#45;28 -->
<g id="edge29" class="edge">
<title>27&#45;&#45;28</title>
<path fill="none" stroke="#000000" d="M603,-71.831C603,-61 603,-47.288 603,-36.413"/>
</g>
<!-- 29 -->
<g id="node31" class="node">
<title>29</title>
<ellipse fill="none" stroke="#000000" cx="675" cy="-18" rx="27" ry="18"/>
<text text-anchor="middle" x="675" y="-13.8" font-family="Times,serif" font-size="14.00" fill="#000000">X8</text>
</g>
<!-- 27&#45;&#45;29 -->
<g id="edge30" class="edge">
<title>27&#45;&#45;29</title>
<path fill="none" stroke="#000000" d="M618.27,-74.731C630.49,-62.512 647.54,-45.46 659.75,-33.247"/>
</g>
</g>
</svg>
