<?xml version="1.0" encoding="UTF-8" standalone="no"?>
<!DOCTYPE svg PUBLIC "-//W3C//DTD SVG 1.1//EN"
 "http://www.w3.org/Graphics/SVG/1.1/DTD/svg11.dtd">
<!-- Generated by graphviz version 2.40.1 (20161225.0304)
 -->
<!-- Pages: 1 -->
<svg width="566pt" height="260pt"
 viewBox="0.00 0.00 566.00 260.00" xmlns="http://www.w3.org/2000/svg" xmlns:xlink="http://www.w3.org/1999/xlink">
<g id="graph0" class="graph" transform="scale(1 1) rotate(0) translate(4 256)">
<polygon fill="#ffffff" stroke="transparent" points="-4,4 -4,-256 562,-256 562,4 -4,4"/>
<!-- 0 -->
<g id="node1" class="node">
<title>0</title>
<ellipse fill="none" stroke="#000000" cx="279" cy="-234" rx="27" ry="18"/>
<text text-anchor="middle" x="279" y="-229.8" font-family="Times,serif" font-size="14.00" fill="#000000">ne</text>
</g>
<!-- 1 -->
<g id="node2" class="node">
<title>1</title>
<ellipse fill="none" stroke="#000000" cx="207" cy="-162" rx="27" ry="18"/>
<text text-anchor="middle" x="207" y="-157.8" font-family="Times,serif" font-size="14.00" fill="#000000">eq</text>
</g>
<!-- 0&#45;&#45;1 -->
<g id="edge1" class="edge">
<title>0&#45;&#45;1</title>
<path fill="none" stroke="#000000" d="M263.73,-218.73C251.51,-206.51 234.46,-189.46 222.25,-177.25"/>
</g>
<!-- 8 -->
<g id="node3" class="node">
<title>8</title>
<ellipse fill="none" stroke="#000000" cx="351" cy="-162" rx="27" ry="18"/>
<text text-anchor="middle" x="351" y="-157.8" font-family="Times,serif" font-size="14.00" fill="#000000">ge</text>
</g>
<!-- 0&#45;&#45;8 -->
<g id="edge2" class="edge">
<title>0&#45;&#45;8</title>
<path fill="none" stroke="#000000" d="M294.27,-218.73C306.49,-206.51 323.54,-189.46 335.75,-177.25"/>
</g>
<!-- 2 -->
<g id="node4" class="node">
<title>2</title>
<ellipse fill="none" stroke="#000000" cx="99" cy="-90" rx="27" ry="18"/>
<text text-anchor="middle" x="99" y="-85.8" font-family="Times,serif" font-size="14.00" fill="#000000">eq</text>
</g>
<!-- 1&#45;&#45;2 -->
<g id="edge3" class="edge">
<title>1&#45;&#45;2</title>
<path fill="none" stroke="#000000" d="M187.69,-149.13C168.03,-136.02 137.74,-115.83 118.14,-102.76"/>
</g>
<!-- 5 -->
<g id="node5" class="node">
<title>5</title>
<ellipse fill="none" stroke="#000000" cx="207" cy="-90" rx="27" ry="18"/>
<text text-anchor="middle" x="207" y="-85.8" font-family="Times,serif" font-size="14.00" fill="#000000">lt</text>
</g>
<!-- 1&#45;&#45;5 -->
<g id="edge4" class="edge">
<title>1&#45;&#45;5</title>
<path fill="none" stroke="#000000" d="M207,-143.83C207,-133 207,-119.29 207,-108.41"/>
</g>
<!-- 9 -->
<g id="node6" class="node">
<title>9</title>
<ellipse fill="none" stroke="#000000" cx="351" cy="-90" rx="27" ry="18"/>
<text text-anchor="middle" x="351" y="-85.8" font-family="Times,serif" font-size="14.00" fill="#000000">eq</text>
</g>
<!-- 8&#45;&#45;9 -->
<g id="edge5" class="edge">
<title>8&#45;&#45;9</title>
<path fill="none" stroke="#000000" d="M351,-143.83C351,-133 351,-119.29 351,-108.41"/>
</g>
<!-- 12 -->
<g id="node7" class="node">
<title>12</title>
<ellipse fill="none" stroke="#000000" cx="459" cy="-90" rx="27" ry="18"/>
<text text-anchor="middle" x="459" y="-85.8" font-family="Times,serif" font-size="14.00" fill="#000000">lt</text>
</g>
<!-- 8&#45;&#45;12 -->
<g id="edge6" class="edge">
<title>8&#45;&#45;12</title>
<path fill="none" stroke="#000000" d="M370.31,-149.13C389.97,-136.02 420.26,-115.83 439.86,-102.76"/>
</g>
<!-- 3 -->
<g id="node8" class="node">
<title>3</title>
<ellipse fill="none" stroke="#000000" cx="27" cy="-18" rx="27" ry="18"/>
<text text-anchor="middle" x="27" y="-13.8" font-family="Times,serif" font-size="14.00" fill="#000000">X6</text>
</g>
<!-- 2&#45;&#45;3 -->
<g id="edge7" class="edge">
<title>2&#45;&#45;3</title>
<path fill="none" stroke="#000000" d="M83.731,-74.731C71.512,-62.512 54.46,-45.46 42.247,-33.247"/>
</g>
<!-- 4 -->
<g id="node9" class="node">
<title>4</title>
<ellipse fill="none" stroke="#000000" cx="99" cy="-18" rx="27" ry="18"/>
<text text-anchor="middle" x="99" y="-13.8" font-family="Times,serif" font-size="14.00" fill="#000000">X1</text>
</g>
<!-- 2&#45;&#45;4 -->
<g id="edge8" class="edge">
<title>2&#45;&#45;4</title>
<path fill="none" stroke="#000000" d="M99,-71.831C99,-61 99,-47.288 99,-36.413"/>
</g>
<!-- 6 -->
<g id="node10" class="node">
<title>6</title>
<ellipse fill="none" stroke="#000000" cx="171" cy="-18" rx="27" ry="18"/>
<text text-anchor="middle" x="171" y="-13.8" font-family="Times,serif" font-size="14.00" fill="#000000">X6</text>
</g>
<!-- 5&#45;&#45;6 -->
<g id="edge9" class="edge">
<title>5&#45;&#45;6</title>
<path fill="none" stroke="#000000" d="M198.29,-72.571C192.63,-61.251 185.28,-46.557 179.63,-35.269"/>
</g>
<!-- 7 -->
<g id="node11" class="node">
<title>7</title>
<ellipse fill="none" stroke="#000000" cx="243" cy="-18" rx="27" ry="18"/>
<text text-anchor="middle" x="243" y="-13.8" font-family="Times,serif" font-size="14.00" fill="#000000">X8</text>
</g>
<!-- 5&#45;&#45;7 -->
<g id="edge10" class="edge">
<title>5&#45;&#45;7</title>
<path fill="none" stroke="#000000" d="M215.71,-72.571C221.37,-61.251 228.72,-46.557 234.37,-35.269"/>
</g>
<!-- 10 -->
<g id="node12" class="node">
<title>10</title>
<ellipse fill="none" stroke="#000000" cx="315" cy="-18" rx="27" ry="18"/>
<text text-anchor="middle" x="315" y="-13.8" font-family="Times,serif" font-size="14.00" fill="#000000">X3</text>
</g>
<!-- 9&#45;&#45;10 -->
<g id="edge11" class="edge">
<title>9&#45;&#45;10</title>
<path fill="none" stroke="#000000" d="M342.29,-72.571C336.63,-61.251 329.28,-46.557 323.63,-35.269"/>
</g>
<!-- 11 -->
<g id="node13" class="node">
<title>11</title>
<ellipse fill="none" stroke="#000000" cx="387" cy="-18" rx="27" ry="18"/>
<text text-anchor="middle" x="387" y="-13.8" font-family="Times,serif" font-size="14.00" fill="#000000">X5</text>
</g>
<!-- 9&#45;&#45;11 -->
<g id="edge12" class="edge">
<title>9&#45;&#45;11</title>
<path fill="none" stroke="#000000" d="M359.71,-72.571C365.37,-61.251 372.72,-46.557 378.37,-35.269"/>
</g>
<!-- 13 -->
<g id="node14" class="node">
<title>13</title>
<ellipse fill="none" stroke="#000000" cx="459" cy="-18" rx="27" ry="18"/>
<text text-anchor="middle" x="459" y="-13.8" font-family="Times,serif" font-size="14.00" fill="#000000">X7</text>
</g>
<!-- 12&#45;&#45;13 -->
<g id="edge13" class="edge">
<title>12&#45;&#45;13</title>
<path fill="none" stroke="#000000" d="M459,-71.831C459,-61 459,-47.288 459,-36.413"/>
</g>
<!-- 14 -->
<g id="node15" class="node">
<title>14</title>
<ellipse fill="none" stroke="#000000" cx="531" cy="-18" rx="27" ry="18"/>
<text text-anchor="middle" x="531" y="-13.8" font-family="Times,serif" font-size="14.00" fill="#000000">X2</text>
</g>
<!-- 12&#45;&#45;14 -->
<g id="edge14" class="edge">
<title>12&#45;&#45;14</title>
<path fill="none" stroke="#000000" d="M474.27,-74.731C486.49,-62.512 503.54,-45.46 515.75,-33.247"/>
</g>
</g>
</svg>
