<?xml version="1.0" encoding="UTF-8" standalone="no"?>
<!DOCTYPE svg PUBLIC "-//W3C//DTD SVG 1.1//EN"
 "http://www.w3.org/Graphics/SVG/1.1/DTD/svg11.dtd">
<!-- Generated by graphviz version 2.44.0 (20200408.0750)
 -->
<!-- Pages: 1 -->
<svg width="422pt" height="404pt"
 viewBox="0.00 0.00 422.00 404.00" xmlns="http://www.w3.org/2000/svg" xmlns:xlink="http://www.w3.org/1999/xlink">
<g id="graph0" class="graph" transform="scale(1 1) rotate(0) translate(4 400)">
<polygon fill="white" stroke="transparent" points="-4,4 -4,-400 418,-400 418,4 -4,4"/>
<!-- 0 -->
<g id="node1" class="node">
<title>0</title>
<ellipse fill="none" stroke="black" cx="135" cy="-378" rx="27" ry="18"/>
<text text-anchor="middle" x="135" y="-373.8" font-family="Times,serif" font-size="14.00">mul</text>
</g>
<!-- 1 -->
<g id="node2" class="node">
<title>1</title>
<ellipse fill="none" stroke="black" cx="99" cy="-306" rx="41.13" ry="18"/>
<text text-anchor="middle" x="99" y="-301.8" font-family="Times,serif" font-size="14.00">safeDiv</text>
</g>
<!-- 0&#45;&#45;1 -->
<g id="edge1" class="edge">
<title>0&#45;&#45;1</title>
<path fill="none" stroke="black" d="M126.65,-360.76C120.83,-349.46 113.11,-334.44 107.3,-323.15"/>
</g>
<!-- 4 -->
<g id="node3" class="node">
<title>4</title>
<ellipse fill="none" stroke="black" cx="171" cy="-306" rx="27" ry="18"/>
<text text-anchor="middle" x="171" y="-301.8" font-family="Times,serif" font-size="14.00">add</text>
</g>
<!-- 0&#45;&#45;4 -->
<g id="edge2" class="edge">
<title>0&#45;&#45;4</title>
<path fill="none" stroke="black" d="M143.35,-360.76C149.17,-349.46 156.89,-334.44 162.7,-323.15"/>
</g>
<!-- 2 -->
<g id="node4" class="node">
<title>2</title>
<ellipse fill="none" stroke="black" cx="27" cy="-234" rx="27" ry="18"/>
<text text-anchor="middle" x="27" y="-229.8" font-family="Times,serif" font-size="14.00">X8</text>
</g>
<!-- 1&#45;&#45;2 -->
<g id="edge3" class="edge">
<title>1&#45;&#45;2</title>
<path fill="none" stroke="black" d="M84.43,-290.83C72.02,-278.77 54.27,-261.51 41.8,-249.38"/>
</g>
<!-- 3 -->
<g id="node5" class="node">
<title>3</title>
<ellipse fill="none" stroke="black" cx="99" cy="-234" rx="27" ry="18"/>
<text text-anchor="middle" x="99" y="-229.8" font-family="Times,serif" font-size="14.00">X6</text>
</g>
<!-- 1&#45;&#45;3 -->
<g id="edge4" class="edge">
<title>1&#45;&#45;3</title>
<path fill="none" stroke="black" d="M99,-287.7C99,-276.85 99,-262.92 99,-252.1"/>
</g>
<!-- 5 -->
<g id="node6" class="node">
<title>5</title>
<ellipse fill="none" stroke="black" cx="171" cy="-234" rx="27" ry="18"/>
<text text-anchor="middle" x="171" y="-229.8" font-family="Times,serif" font-size="14.00">X5</text>
</g>
<!-- 4&#45;&#45;5 -->
<g id="edge5" class="edge">
<title>4&#45;&#45;5</title>
<path fill="none" stroke="black" d="M171,-287.7C171,-276.85 171,-262.92 171,-252.1"/>
</g>
<!-- 6 -->
<g id="node7" class="node">
<title>6</title>
<ellipse fill="none" stroke="black" cx="243" cy="-234" rx="27" ry="18"/>
<text text-anchor="middle" x="243" y="-229.8" font-family="Times,serif" font-size="14.00">mul</text>
</g>
<!-- 4&#45;&#45;6 -->
<g id="edge6" class="edge">
<title>4&#45;&#45;6</title>
<path fill="none" stroke="black" d="M185.57,-290.83C197.98,-278.77 215.73,-261.51 228.2,-249.38"/>
</g>
<!-- 7 -->
<g id="node8" class="node">
<title>7</title>
<ellipse fill="none" stroke="black" cx="207" cy="-162" rx="27" ry="18"/>
<text text-anchor="middle" x="207" y="-157.8" font-family="Times,serif" font-size="14.00">gt</text>
</g>
<!-- 6&#45;&#45;7 -->
<g id="edge7" class="edge">
<title>6&#45;&#45;7</title>
<path fill="none" stroke="black" d="M234.65,-216.76C228.83,-205.46 221.11,-190.44 215.3,-179.15"/>
</g>
<!-- 10 -->
<g id="node9" class="node">
<title>10</title>
<ellipse fill="none" stroke="black" cx="279" cy="-162" rx="27" ry="18"/>
<text text-anchor="middle" x="279" y="-157.8" font-family="Times,serif" font-size="14.00">lt</text>
</g>
<!-- 6&#45;&#45;10 -->
<g id="edge8" class="edge">
<title>6&#45;&#45;10</title>
<path fill="none" stroke="black" d="M251.35,-216.76C257.17,-205.46 264.89,-190.44 270.7,-179.15"/>
</g>
<!-- 8 -->
<g id="node10" class="node">
<title>8</title>
<ellipse fill="none" stroke="black" cx="135" cy="-90" rx="27" ry="18"/>
<text text-anchor="middle" x="135" y="-85.8" font-family="Times,serif" font-size="14.00">X5</text>
</g>
<!-- 7&#45;&#45;8 -->
<g id="edge9" class="edge">
<title>7&#45;&#45;8</title>
<path fill="none" stroke="black" d="M192.43,-146.83C180.02,-134.77 162.27,-117.51 149.8,-105.38"/>
</g>
<!-- 9 -->
<g id="node11" class="node">
<title>9</title>
<ellipse fill="none" stroke="black" cx="207" cy="-90" rx="37.69" ry="18"/>
<text text-anchor="middle" x="207" y="-85.8" font-family="Times,serif" font-size="14.00">18.808</text>
</g>
<!-- 7&#45;&#45;9 -->
<g id="edge10" class="edge">
<title>7&#45;&#45;9</title>
<path fill="none" stroke="black" d="M207,-143.7C207,-132.85 207,-118.92 207,-108.1"/>
</g>
<!-- 11 -->
<g id="node12" class="node">
<title>11</title>
<ellipse fill="none" stroke="black" cx="279" cy="-90" rx="37.69" ry="18"/>
<text text-anchor="middle" x="279" y="-85.8" font-family="Times,serif" font-size="14.00">90.159</text>
</g>
<!-- 10&#45;&#45;11 -->
<g id="edge11" class="edge">
<title>10&#45;&#45;11</title>
<path fill="none" stroke="black" d="M279,-143.7C279,-132.85 279,-118.92 279,-108.1"/>
</g>
<!-- 12 -->
<g id="node13" class="node">
<title>12</title>
<ellipse fill="none" stroke="black" cx="351" cy="-90" rx="27" ry="18"/>
<text text-anchor="middle" x="351" y="-85.8" font-family="Times,serif" font-size="14.00">ge</text>
</g>
<!-- 10&#45;&#45;12 -->
<g id="edge12" class="edge">
<title>10&#45;&#45;12</title>
<path fill="none" stroke="black" d="M293.57,-146.83C305.98,-134.77 323.73,-117.51 336.2,-105.38"/>
</g>
<!-- 13 -->
<g id="node14" class="node">
<title>13</title>
<ellipse fill="none" stroke="black" cx="315" cy="-18" rx="27" ry="18"/>
<text text-anchor="middle" x="315" y="-13.8" font-family="Times,serif" font-size="14.00">X3</text>
</g>
<!-- 12&#45;&#45;13 -->
<g id="edge13" class="edge">
<title>12&#45;&#45;13</title>
<path fill="none" stroke="black" d="M342.65,-72.77C336.83,-61.46 329.11,-46.44 323.3,-35.15"/>
</g>
<!-- 14 -->
<g id="node15" class="node">
<title>14</title>
<ellipse fill="none" stroke="black" cx="387" cy="-18" rx="27" ry="18"/>
<text text-anchor="middle" x="387" y="-13.8" font-family="Times,serif" font-size="14.00">X2</text>
</g>
<!-- 12&#45;&#45;14 -->
<g id="edge14" class="edge">
<title>12&#45;&#45;14</title>
<path fill="none" stroke="black" d="M359.35,-72.77C365.17,-61.46 372.89,-46.44 378.7,-35.15"/>
</g>
</g>
</svg>
