<?xml version="1.0" encoding="utf-8" standalone="no"?>
<!DOCTYPE svg PUBLIC "-//W3C//DTD SVG 1.1//EN"
  "http://www.w3.org/Graphics/SVG/1.1/DTD/svg11.dtd">
<!-- Created with matplotlib (https://matplotlib.org/) -->
<svg height="864pt" version="1.1" viewBox="0 0 1152 864" width="1152pt" xmlns="http://www.w3.org/2000/svg" xmlns:xlink="http://www.w3.org/1999/xlink">
 <metadata>
  <rdf:RDF xmlns:cc="http://creativecommons.org/ns#" xmlns:dc="http://purl.org/dc/elements/1.1/" xmlns:rdf="http://www.w3.org/1999/02/22-rdf-syntax-ns#">
   <cc:Work>
    <dc:type rdf:resource="http://purl.org/dc/dcmitype/StillImage"/>
    <dc:date>2020-12-18T16:59:10.216368</dc:date>
    <dc:format>image/svg+xml</dc:format>
    <dc:creator>
     <cc:Agent>
      <dc:title>Matplotlib v3.3.3, https://matplotlib.org/</dc:title>
     </cc:Agent>
    </dc:creator>
   </cc:Work>
  </rdf:RDF>
 </metadata>
 <defs>
  <style type="text/css">*{stroke-linecap:butt;stroke-linejoin:round;}</style>
 </defs>
 <g id="figure_1">
  <g id="patch_1">
   <path d="M 0 864 
L 1152 864 
L 1152 0 
L 0 0 
z
" style="fill:#ffffff;"/>
  </g>
  <g id="axes_1">
   <g id="patch_2">
    <path d="M 144 768.96 
L 1036.8 768.96 
L 1036.8 103.68 
L 144 103.68 
z
" style="fill:#ffffff;"/>
   </g>
   <g id="matplotlib.axis_1">
    <g id="xtick_1">
     <g id="line2d_1">
      <defs>
       <path d="M 0 0 
L 0 3.5 
" id="m7a2f2bf15e" style="stroke:#000000;stroke-width:0.8;"/>
      </defs>
      <g>
       <use style="stroke:#000000;stroke-width:0.8;" x="184.581818" xlink:href="#m7a2f2bf15e" y="768.96"/>
      </g>
     </g>
     <g id="text_1">
      <!-- 0.0 -->
      <g transform="translate(170.269006 789.637187)scale(0.18 -0.18)">
       <defs>
        <path d="M 31.78125 66.40625 
Q 24.171875 66.40625 20.328125 58.90625 
Q 16.5 51.421875 16.5 36.375 
Q 16.5 21.390625 20.328125 13.890625 
Q 24.171875 6.390625 31.78125 6.390625 
Q 39.453125 6.390625 43.28125 13.890625 
Q 47.125 21.390625 47.125 36.375 
Q 47.125 51.421875 43.28125 58.90625 
Q 39.453125 66.40625 31.78125 66.40625 
z
M 31.78125 74.21875 
Q 44.046875 74.21875 50.515625 64.515625 
Q 56.984375 54.828125 56.984375 36.375 
Q 56.984375 17.96875 50.515625 8.265625 
Q 44.046875 -1.421875 31.78125 -1.421875 
Q 19.53125 -1.421875 13.0625 8.265625 
Q 6.59375 17.96875 6.59375 36.375 
Q 6.59375 54.828125 13.0625 64.515625 
Q 19.53125 74.21875 31.78125 74.21875 
z
" id="DejaVuSans-48"/>
        <path d="M 10.6875 12.40625 
L 21 12.40625 
L 21 0 
L 10.6875 0 
z
" id="DejaVuSans-46"/>
       </defs>
       <use xlink:href="#DejaVuSans-48"/>
       <use x="63.623047" xlink:href="#DejaVuSans-46"/>
       <use x="95.410156" xlink:href="#DejaVuSans-48"/>
      </g>
     </g>
    </g>
    <g id="xtick_2">
     <g id="line2d_2">
      <g>
       <use style="stroke:#000000;stroke-width:0.8;" x="265.745455" xlink:href="#m7a2f2bf15e" y="768.96"/>
      </g>
     </g>
     <g id="text_2">
      <!-- 0.1 -->
      <g transform="translate(251.432642 789.637187)scale(0.18 -0.18)">
       <defs>
        <path d="M 12.40625 8.296875 
L 28.515625 8.296875 
L 28.515625 63.921875 
L 10.984375 60.40625 
L 10.984375 69.390625 
L 28.421875 72.90625 
L 38.28125 72.90625 
L 38.28125 8.296875 
L 54.390625 8.296875 
L 54.390625 0 
L 12.40625 0 
z
" id="DejaVuSans-49"/>
       </defs>
       <use xlink:href="#DejaVuSans-48"/>
       <use x="63.623047" xlink:href="#DejaVuSans-46"/>
       <use x="95.410156" xlink:href="#DejaVuSans-49"/>
      </g>
     </g>
    </g>
    <g id="xtick_3">
     <g id="line2d_3">
      <g>
       <use style="stroke:#000000;stroke-width:0.8;" x="346.909091" xlink:href="#m7a2f2bf15e" y="768.96"/>
      </g>
     </g>
     <g id="text_3">
      <!-- 0.2 -->
      <g transform="translate(332.596278 789.637187)scale(0.18 -0.18)">
       <defs>
        <path d="M 19.1875 8.296875 
L 53.609375 8.296875 
L 53.609375 0 
L 7.328125 0 
L 7.328125 8.296875 
Q 12.9375 14.109375 22.625 23.890625 
Q 32.328125 33.6875 34.8125 36.53125 
Q 39.546875 41.84375 41.421875 45.53125 
Q 43.3125 49.21875 43.3125 52.78125 
Q 43.3125 58.59375 39.234375 62.25 
Q 35.15625 65.921875 28.609375 65.921875 
Q 23.96875 65.921875 18.8125 64.3125 
Q 13.671875 62.703125 7.8125 59.421875 
L 7.8125 69.390625 
Q 13.765625 71.78125 18.9375 73 
Q 24.125 74.21875 28.421875 74.21875 
Q 39.75 74.21875 46.484375 68.546875 
Q 53.21875 62.890625 53.21875 53.421875 
Q 53.21875 48.921875 51.53125 44.890625 
Q 49.859375 40.875 45.40625 35.40625 
Q 44.1875 33.984375 37.640625 27.21875 
Q 31.109375 20.453125 19.1875 8.296875 
z
" id="DejaVuSans-50"/>
       </defs>
       <use xlink:href="#DejaVuSans-48"/>
       <use x="63.623047" xlink:href="#DejaVuSans-46"/>
       <use x="95.410156" xlink:href="#DejaVuSans-50"/>
      </g>
     </g>
    </g>
    <g id="xtick_4">
     <g id="line2d_4">
      <g>
       <use style="stroke:#000000;stroke-width:0.8;" x="428.072727" xlink:href="#m7a2f2bf15e" y="768.96"/>
      </g>
     </g>
     <g id="text_4">
      <!-- 0.3 -->
      <g transform="translate(413.759915 789.637187)scale(0.18 -0.18)">
       <defs>
        <path d="M 40.578125 39.3125 
Q 47.65625 37.796875 51.625 33 
Q 55.609375 28.21875 55.609375 21.1875 
Q 55.609375 10.40625 48.1875 4.484375 
Q 40.765625 -1.421875 27.09375 -1.421875 
Q 22.515625 -1.421875 17.65625 -0.515625 
Q 12.796875 0.390625 7.625 2.203125 
L 7.625 11.71875 
Q 11.71875 9.328125 16.59375 8.109375 
Q 21.484375 6.890625 26.8125 6.890625 
Q 36.078125 6.890625 40.9375 10.546875 
Q 45.796875 14.203125 45.796875 21.1875 
Q 45.796875 27.640625 41.28125 31.265625 
Q 36.765625 34.90625 28.71875 34.90625 
L 20.21875 34.90625 
L 20.21875 43.015625 
L 29.109375 43.015625 
Q 36.375 43.015625 40.234375 45.921875 
Q 44.09375 48.828125 44.09375 54.296875 
Q 44.09375 59.90625 40.109375 62.90625 
Q 36.140625 65.921875 28.71875 65.921875 
Q 24.65625 65.921875 20.015625 65.03125 
Q 15.375 64.15625 9.8125 62.3125 
L 9.8125 71.09375 
Q 15.4375 72.65625 20.34375 73.4375 
Q 25.25 74.21875 29.59375 74.21875 
Q 40.828125 74.21875 47.359375 69.109375 
Q 53.90625 64.015625 53.90625 55.328125 
Q 53.90625 49.265625 50.4375 45.09375 
Q 46.96875 40.921875 40.578125 39.3125 
z
" id="DejaVuSans-51"/>
       </defs>
       <use xlink:href="#DejaVuSans-48"/>
       <use x="63.623047" xlink:href="#DejaVuSans-46"/>
       <use x="95.410156" xlink:href="#DejaVuSans-51"/>
      </g>
     </g>
    </g>
    <g id="xtick_5">
     <g id="line2d_5">
      <g>
       <use style="stroke:#000000;stroke-width:0.8;" x="509.236364" xlink:href="#m7a2f2bf15e" y="768.96"/>
      </g>
     </g>
     <g id="text_5">
      <!-- 0.4 -->
      <g transform="translate(494.923551 789.637187)scale(0.18 -0.18)">
       <defs>
        <path d="M 37.796875 64.3125 
L 12.890625 25.390625 
L 37.796875 25.390625 
z
M 35.203125 72.90625 
L 47.609375 72.90625 
L 47.609375 25.390625 
L 58.015625 25.390625 
L 58.015625 17.1875 
L 47.609375 17.1875 
L 47.609375 0 
L 37.796875 0 
L 37.796875 17.1875 
L 4.890625 17.1875 
L 4.890625 26.703125 
z
" id="DejaVuSans-52"/>
       </defs>
       <use xlink:href="#DejaVuSans-48"/>
       <use x="63.623047" xlink:href="#DejaVuSans-46"/>
       <use x="95.410156" xlink:href="#DejaVuSans-52"/>
      </g>
     </g>
    </g>
    <g id="xtick_6">
     <g id="line2d_6">
      <g>
       <use style="stroke:#000000;stroke-width:0.8;" x="590.4" xlink:href="#m7a2f2bf15e" y="768.96"/>
      </g>
     </g>
     <g id="text_6">
      <!-- 0.5 -->
      <g transform="translate(576.087187 789.637187)scale(0.18 -0.18)">
       <defs>
        <path d="M 10.796875 72.90625 
L 49.515625 72.90625 
L 49.515625 64.59375 
L 19.828125 64.59375 
L 19.828125 46.734375 
Q 21.96875 47.46875 24.109375 47.828125 
Q 26.265625 48.1875 28.421875 48.1875 
Q 40.625 48.1875 47.75 41.5 
Q 54.890625 34.8125 54.890625 23.390625 
Q 54.890625 11.625 47.5625 5.09375 
Q 40.234375 -1.421875 26.90625 -1.421875 
Q 22.3125 -1.421875 17.546875 -0.640625 
Q 12.796875 0.140625 7.71875 1.703125 
L 7.71875 11.625 
Q 12.109375 9.234375 16.796875 8.0625 
Q 21.484375 6.890625 26.703125 6.890625 
Q 35.15625 6.890625 40.078125 11.328125 
Q 45.015625 15.765625 45.015625 23.390625 
Q 45.015625 31 40.078125 35.4375 
Q 35.15625 39.890625 26.703125 39.890625 
Q 22.75 39.890625 18.8125 39.015625 
Q 14.890625 38.140625 10.796875 36.28125 
z
" id="DejaVuSans-53"/>
       </defs>
       <use xlink:href="#DejaVuSans-48"/>
       <use x="63.623047" xlink:href="#DejaVuSans-46"/>
       <use x="95.410156" xlink:href="#DejaVuSans-53"/>
      </g>
     </g>
    </g>
    <g id="xtick_7">
     <g id="line2d_7">
      <g>
       <use style="stroke:#000000;stroke-width:0.8;" x="671.563636" xlink:href="#m7a2f2bf15e" y="768.96"/>
      </g>
     </g>
     <g id="text_7">
      <!-- 0.6 -->
      <g transform="translate(657.250824 789.637187)scale(0.18 -0.18)">
       <defs>
        <path d="M 33.015625 40.375 
Q 26.375 40.375 22.484375 35.828125 
Q 18.609375 31.296875 18.609375 23.390625 
Q 18.609375 15.53125 22.484375 10.953125 
Q 26.375 6.390625 33.015625 6.390625 
Q 39.65625 6.390625 43.53125 10.953125 
Q 47.40625 15.53125 47.40625 23.390625 
Q 47.40625 31.296875 43.53125 35.828125 
Q 39.65625 40.375 33.015625 40.375 
z
M 52.59375 71.296875 
L 52.59375 62.3125 
Q 48.875 64.0625 45.09375 64.984375 
Q 41.3125 65.921875 37.59375 65.921875 
Q 27.828125 65.921875 22.671875 59.328125 
Q 17.53125 52.734375 16.796875 39.40625 
Q 19.671875 43.65625 24.015625 45.921875 
Q 28.375 48.1875 33.59375 48.1875 
Q 44.578125 48.1875 50.953125 41.515625 
Q 57.328125 34.859375 57.328125 23.390625 
Q 57.328125 12.15625 50.6875 5.359375 
Q 44.046875 -1.421875 33.015625 -1.421875 
Q 20.359375 -1.421875 13.671875 8.265625 
Q 6.984375 17.96875 6.984375 36.375 
Q 6.984375 53.65625 15.1875 63.9375 
Q 23.390625 74.21875 37.203125 74.21875 
Q 40.921875 74.21875 44.703125 73.484375 
Q 48.484375 72.75 52.59375 71.296875 
z
" id="DejaVuSans-54"/>
       </defs>
       <use xlink:href="#DejaVuSans-48"/>
       <use x="63.623047" xlink:href="#DejaVuSans-46"/>
       <use x="95.410156" xlink:href="#DejaVuSans-54"/>
      </g>
     </g>
    </g>
    <g id="xtick_8">
     <g id="line2d_8">
      <g>
       <use style="stroke:#000000;stroke-width:0.8;" x="752.727273" xlink:href="#m7a2f2bf15e" y="768.96"/>
      </g>
     </g>
     <g id="text_8">
      <!-- 0.7 -->
      <g transform="translate(738.41446 789.637187)scale(0.18 -0.18)">
       <defs>
        <path d="M 8.203125 72.90625 
L 55.078125 72.90625 
L 55.078125 68.703125 
L 28.609375 0 
L 18.3125 0 
L 43.21875 64.59375 
L 8.203125 64.59375 
z
" id="DejaVuSans-55"/>
       </defs>
       <use xlink:href="#DejaVuSans-48"/>
       <use x="63.623047" xlink:href="#DejaVuSans-46"/>
       <use x="95.410156" xlink:href="#DejaVuSans-55"/>
      </g>
     </g>
    </g>
    <g id="xtick_9">
     <g id="line2d_9">
      <g>
       <use style="stroke:#000000;stroke-width:0.8;" x="833.890909" xlink:href="#m7a2f2bf15e" y="768.96"/>
      </g>
     </g>
     <g id="text_9">
      <!-- 0.8 -->
      <g transform="translate(819.578097 789.637187)scale(0.18 -0.18)">
       <defs>
        <path d="M 31.78125 34.625 
Q 24.75 34.625 20.71875 30.859375 
Q 16.703125 27.09375 16.703125 20.515625 
Q 16.703125 13.921875 20.71875 10.15625 
Q 24.75 6.390625 31.78125 6.390625 
Q 38.8125 6.390625 42.859375 10.171875 
Q 46.921875 13.96875 46.921875 20.515625 
Q 46.921875 27.09375 42.890625 30.859375 
Q 38.875 34.625 31.78125 34.625 
z
M 21.921875 38.8125 
Q 15.578125 40.375 12.03125 44.71875 
Q 8.5 49.078125 8.5 55.328125 
Q 8.5 64.0625 14.71875 69.140625 
Q 20.953125 74.21875 31.78125 74.21875 
Q 42.671875 74.21875 48.875 69.140625 
Q 55.078125 64.0625 55.078125 55.328125 
Q 55.078125 49.078125 51.53125 44.71875 
Q 48 40.375 41.703125 38.8125 
Q 48.828125 37.15625 52.796875 32.3125 
Q 56.78125 27.484375 56.78125 20.515625 
Q 56.78125 9.90625 50.3125 4.234375 
Q 43.84375 -1.421875 31.78125 -1.421875 
Q 19.734375 -1.421875 13.25 4.234375 
Q 6.78125 9.90625 6.78125 20.515625 
Q 6.78125 27.484375 10.78125 32.3125 
Q 14.796875 37.15625 21.921875 38.8125 
z
M 18.3125 54.390625 
Q 18.3125 48.734375 21.84375 45.5625 
Q 25.390625 42.390625 31.78125 42.390625 
Q 38.140625 42.390625 41.71875 45.5625 
Q 45.3125 48.734375 45.3125 54.390625 
Q 45.3125 60.0625 41.71875 63.234375 
Q 38.140625 66.40625 31.78125 66.40625 
Q 25.390625 66.40625 21.84375 63.234375 
Q 18.3125 60.0625 18.3125 54.390625 
z
" id="DejaVuSans-56"/>
       </defs>
       <use xlink:href="#DejaVuSans-48"/>
       <use x="63.623047" xlink:href="#DejaVuSans-46"/>
       <use x="95.410156" xlink:href="#DejaVuSans-56"/>
      </g>
     </g>
    </g>
    <g id="xtick_10">
     <g id="line2d_10">
      <g>
       <use style="stroke:#000000;stroke-width:0.8;" x="915.054545" xlink:href="#m7a2f2bf15e" y="768.96"/>
      </g>
     </g>
     <g id="text_10">
      <!-- 0.9 -->
      <g transform="translate(900.741733 789.637187)scale(0.18 -0.18)">
       <defs>
        <path d="M 10.984375 1.515625 
L 10.984375 10.5 
Q 14.703125 8.734375 18.5 7.8125 
Q 22.3125 6.890625 25.984375 6.890625 
Q 35.75 6.890625 40.890625 13.453125 
Q 46.046875 20.015625 46.78125 33.40625 
Q 43.953125 29.203125 39.59375 26.953125 
Q 35.25 24.703125 29.984375 24.703125 
Q 19.046875 24.703125 12.671875 31.3125 
Q 6.296875 37.9375 6.296875 49.421875 
Q 6.296875 60.640625 12.9375 67.421875 
Q 19.578125 74.21875 30.609375 74.21875 
Q 43.265625 74.21875 49.921875 64.515625 
Q 56.59375 54.828125 56.59375 36.375 
Q 56.59375 19.140625 48.40625 8.859375 
Q 40.234375 -1.421875 26.421875 -1.421875 
Q 22.703125 -1.421875 18.890625 -0.6875 
Q 15.09375 0.046875 10.984375 1.515625 
z
M 30.609375 32.421875 
Q 37.25 32.421875 41.125 36.953125 
Q 45.015625 41.5 45.015625 49.421875 
Q 45.015625 57.28125 41.125 61.84375 
Q 37.25 66.40625 30.609375 66.40625 
Q 23.96875 66.40625 20.09375 61.84375 
Q 16.21875 57.28125 16.21875 49.421875 
Q 16.21875 41.5 20.09375 36.953125 
Q 23.96875 32.421875 30.609375 32.421875 
z
" id="DejaVuSans-57"/>
       </defs>
       <use xlink:href="#DejaVuSans-48"/>
       <use x="63.623047" xlink:href="#DejaVuSans-46"/>
       <use x="95.410156" xlink:href="#DejaVuSans-57"/>
      </g>
     </g>
    </g>
    <g id="xtick_11">
     <g id="line2d_11">
      <g>
       <use style="stroke:#000000;stroke-width:0.8;" x="996.218182" xlink:href="#m7a2f2bf15e" y="768.96"/>
      </g>
     </g>
     <g id="text_11">
      <!-- 1.0 -->
      <g transform="translate(981.905369 789.637187)scale(0.18 -0.18)">
       <use xlink:href="#DejaVuSans-49"/>
       <use x="63.623047" xlink:href="#DejaVuSans-46"/>
       <use x="95.410156" xlink:href="#DejaVuSans-48"/>
      </g>
     </g>
    </g>
    <g id="text_12">
     <!-- Recall -->
     <g transform="translate(554.59875 815.616875)scale(0.24 -0.24)">
      <defs>
       <path d="M 44.390625 34.1875 
Q 47.5625 33.109375 50.5625 29.59375 
Q 53.5625 26.078125 56.59375 19.921875 
L 66.609375 0 
L 56 0 
L 46.6875 18.703125 
Q 43.0625 26.03125 39.671875 28.421875 
Q 36.28125 30.8125 30.421875 30.8125 
L 19.671875 30.8125 
L 19.671875 0 
L 9.8125 0 
L 9.8125 72.90625 
L 32.078125 72.90625 
Q 44.578125 72.90625 50.734375 67.671875 
Q 56.890625 62.453125 56.890625 51.90625 
Q 56.890625 45.015625 53.6875 40.46875 
Q 50.484375 35.9375 44.390625 34.1875 
z
M 19.671875 64.796875 
L 19.671875 38.921875 
L 32.078125 38.921875 
Q 39.203125 38.921875 42.84375 42.21875 
Q 46.484375 45.515625 46.484375 51.90625 
Q 46.484375 58.296875 42.84375 61.546875 
Q 39.203125 64.796875 32.078125 64.796875 
z
" id="DejaVuSans-82"/>
       <path d="M 56.203125 29.59375 
L 56.203125 25.203125 
L 14.890625 25.203125 
Q 15.484375 15.921875 20.484375 11.0625 
Q 25.484375 6.203125 34.421875 6.203125 
Q 39.59375 6.203125 44.453125 7.46875 
Q 49.3125 8.734375 54.109375 11.28125 
L 54.109375 2.78125 
Q 49.265625 0.734375 44.1875 -0.34375 
Q 39.109375 -1.421875 33.890625 -1.421875 
Q 20.796875 -1.421875 13.15625 6.1875 
Q 5.515625 13.8125 5.515625 26.8125 
Q 5.515625 40.234375 12.765625 48.109375 
Q 20.015625 56 32.328125 56 
Q 43.359375 56 49.78125 48.890625 
Q 56.203125 41.796875 56.203125 29.59375 
z
M 47.21875 32.234375 
Q 47.125 39.59375 43.09375 43.984375 
Q 39.0625 48.390625 32.421875 48.390625 
Q 24.90625 48.390625 20.390625 44.140625 
Q 15.875 39.890625 15.1875 32.171875 
z
" id="DejaVuSans-101"/>
       <path d="M 48.78125 52.59375 
L 48.78125 44.1875 
Q 44.96875 46.296875 41.140625 47.34375 
Q 37.3125 48.390625 33.40625 48.390625 
Q 24.65625 48.390625 19.8125 42.84375 
Q 14.984375 37.3125 14.984375 27.296875 
Q 14.984375 17.28125 19.8125 11.734375 
Q 24.65625 6.203125 33.40625 6.203125 
Q 37.3125 6.203125 41.140625 7.25 
Q 44.96875 8.296875 48.78125 10.40625 
L 48.78125 2.09375 
Q 45.015625 0.34375 40.984375 -0.53125 
Q 36.96875 -1.421875 32.421875 -1.421875 
Q 20.0625 -1.421875 12.78125 6.34375 
Q 5.515625 14.109375 5.515625 27.296875 
Q 5.515625 40.671875 12.859375 48.328125 
Q 20.21875 56 33.015625 56 
Q 37.15625 56 41.109375 55.140625 
Q 45.0625 54.296875 48.78125 52.59375 
z
" id="DejaVuSans-99"/>
       <path d="M 34.28125 27.484375 
Q 23.390625 27.484375 19.1875 25 
Q 14.984375 22.515625 14.984375 16.5 
Q 14.984375 11.71875 18.140625 8.90625 
Q 21.296875 6.109375 26.703125 6.109375 
Q 34.1875 6.109375 38.703125 11.40625 
Q 43.21875 16.703125 43.21875 25.484375 
L 43.21875 27.484375 
z
M 52.203125 31.203125 
L 52.203125 0 
L 43.21875 0 
L 43.21875 8.296875 
Q 40.140625 3.328125 35.546875 0.953125 
Q 30.953125 -1.421875 24.3125 -1.421875 
Q 15.921875 -1.421875 10.953125 3.296875 
Q 6 8.015625 6 15.921875 
Q 6 25.140625 12.171875 29.828125 
Q 18.359375 34.515625 30.609375 34.515625 
L 43.21875 34.515625 
L 43.21875 35.40625 
Q 43.21875 41.609375 39.140625 45 
Q 35.0625 48.390625 27.6875 48.390625 
Q 23 48.390625 18.546875 47.265625 
Q 14.109375 46.140625 10.015625 43.890625 
L 10.015625 52.203125 
Q 14.9375 54.109375 19.578125 55.046875 
Q 24.21875 56 28.609375 56 
Q 40.484375 56 46.34375 49.84375 
Q 52.203125 43.703125 52.203125 31.203125 
z
" id="DejaVuSans-97"/>
       <path d="M 9.421875 75.984375 
L 18.40625 75.984375 
L 18.40625 0 
L 9.421875 0 
z
" id="DejaVuSans-108"/>
      </defs>
      <use xlink:href="#DejaVuSans-82"/>
      <use x="64.982422" xlink:href="#DejaVuSans-101"/>
      <use x="126.505859" xlink:href="#DejaVuSans-99"/>
      <use x="181.486328" xlink:href="#DejaVuSans-97"/>
      <use x="242.765625" xlink:href="#DejaVuSans-108"/>
      <use x="270.548828" xlink:href="#DejaVuSans-108"/>
     </g>
    </g>
   </g>
   <g id="matplotlib.axis_2">
    <g id="ytick_1">
     <g id="line2d_12">
      <defs>
       <path d="M 0 0 
L -3.5 0 
" id="m271d1f2bff" style="stroke:#000000;stroke-width:0.8;"/>
      </defs>
      <g>
       <use style="stroke:#000000;stroke-width:0.8;" x="144" xlink:href="#m271d1f2bff" y="768.96"/>
      </g>
     </g>
     <g id="text_13">
      <!-- 0.0 -->
      <g transform="translate(108.374375 775.798594)scale(0.18 -0.18)">
       <use xlink:href="#DejaVuSans-48"/>
       <use x="63.623047" xlink:href="#DejaVuSans-46"/>
       <use x="95.410156" xlink:href="#DejaVuSans-48"/>
      </g>
     </g>
    </g>
    <g id="ytick_2">
     <g id="line2d_13">
      <g>
       <use style="stroke:#000000;stroke-width:0.8;" x="144" xlink:href="#m271d1f2bff" y="704.578065"/>
      </g>
     </g>
     <g id="text_14">
      <!-- 0.1 -->
      <g transform="translate(108.374375 711.416658)scale(0.18 -0.18)">
       <use xlink:href="#DejaVuSans-48"/>
       <use x="63.623047" xlink:href="#DejaVuSans-46"/>
       <use x="95.410156" xlink:href="#DejaVuSans-49"/>
      </g>
     </g>
    </g>
    <g id="ytick_3">
     <g id="line2d_14">
      <g>
       <use style="stroke:#000000;stroke-width:0.8;" x="144" xlink:href="#m271d1f2bff" y="640.196129"/>
      </g>
     </g>
     <g id="text_15">
      <!-- 0.2 -->
      <g transform="translate(108.374375 647.034723)scale(0.18 -0.18)">
       <use xlink:href="#DejaVuSans-48"/>
       <use x="63.623047" xlink:href="#DejaVuSans-46"/>
       <use x="95.410156" xlink:href="#DejaVuSans-50"/>
      </g>
     </g>
    </g>
    <g id="ytick_4">
     <g id="line2d_15">
      <g>
       <use style="stroke:#000000;stroke-width:0.8;" x="144" xlink:href="#m271d1f2bff" y="575.814194"/>
      </g>
     </g>
     <g id="text_16">
      <!-- 0.3 -->
      <g transform="translate(108.374375 582.652787)scale(0.18 -0.18)">
       <use xlink:href="#DejaVuSans-48"/>
       <use x="63.623047" xlink:href="#DejaVuSans-46"/>
       <use x="95.410156" xlink:href="#DejaVuSans-51"/>
      </g>
     </g>
    </g>
    <g id="ytick_5">
     <g id="line2d_16">
      <g>
       <use style="stroke:#000000;stroke-width:0.8;" x="144" xlink:href="#m271d1f2bff" y="511.432258"/>
      </g>
     </g>
     <g id="text_17">
      <!-- 0.4 -->
      <g transform="translate(108.374375 518.270852)scale(0.18 -0.18)">
       <use xlink:href="#DejaVuSans-48"/>
       <use x="63.623047" xlink:href="#DejaVuSans-46"/>
       <use x="95.410156" xlink:href="#DejaVuSans-52"/>
      </g>
     </g>
    </g>
    <g id="ytick_6">
     <g id="line2d_17">
      <g>
       <use style="stroke:#000000;stroke-width:0.8;" x="144" xlink:href="#m271d1f2bff" y="447.050323"/>
      </g>
     </g>
     <g id="text_18">
      <!-- 0.5 -->
      <g transform="translate(108.374375 453.888916)scale(0.18 -0.18)">
       <use xlink:href="#DejaVuSans-48"/>
       <use x="63.623047" xlink:href="#DejaVuSans-46"/>
       <use x="95.410156" xlink:href="#DejaVuSans-53"/>
      </g>
     </g>
    </g>
    <g id="ytick_7">
     <g id="line2d_18">
      <g>
       <use style="stroke:#000000;stroke-width:0.8;" x="144" xlink:href="#m271d1f2bff" y="382.668387"/>
      </g>
     </g>
     <g id="text_19">
      <!-- 0.6 -->
      <g transform="translate(108.374375 389.506981)scale(0.18 -0.18)">
       <use xlink:href="#DejaVuSans-48"/>
       <use x="63.623047" xlink:href="#DejaVuSans-46"/>
       <use x="95.410156" xlink:href="#DejaVuSans-54"/>
      </g>
     </g>
    </g>
    <g id="ytick_8">
     <g id="line2d_19">
      <g>
       <use style="stroke:#000000;stroke-width:0.8;" x="144" xlink:href="#m271d1f2bff" y="318.286452"/>
      </g>
     </g>
     <g id="text_20">
      <!-- 0.7 -->
      <g transform="translate(108.374375 325.125045)scale(0.18 -0.18)">
       <use xlink:href="#DejaVuSans-48"/>
       <use x="63.623047" xlink:href="#DejaVuSans-46"/>
       <use x="95.410156" xlink:href="#DejaVuSans-55"/>
      </g>
     </g>
    </g>
    <g id="ytick_9">
     <g id="line2d_20">
      <g>
       <use style="stroke:#000000;stroke-width:0.8;" x="144" xlink:href="#m271d1f2bff" y="253.904516"/>
      </g>
     </g>
     <g id="text_21">
      <!-- 0.8 -->
      <g transform="translate(108.374375 260.74311)scale(0.18 -0.18)">
       <use xlink:href="#DejaVuSans-48"/>
       <use x="63.623047" xlink:href="#DejaVuSans-46"/>
       <use x="95.410156" xlink:href="#DejaVuSans-56"/>
      </g>
     </g>
    </g>
    <g id="ytick_10">
     <g id="line2d_21">
      <g>
       <use style="stroke:#000000;stroke-width:0.8;" x="144" xlink:href="#m271d1f2bff" y="189.522581"/>
      </g>
     </g>
     <g id="text_22">
      <!-- 0.9 -->
      <g transform="translate(108.374375 196.361174)scale(0.18 -0.18)">
       <use xlink:href="#DejaVuSans-48"/>
       <use x="63.623047" xlink:href="#DejaVuSans-46"/>
       <use x="95.410156" xlink:href="#DejaVuSans-57"/>
      </g>
     </g>
    </g>
    <g id="ytick_11">
     <g id="line2d_22">
      <g>
       <use style="stroke:#000000;stroke-width:0.8;" x="144" xlink:href="#m271d1f2bff" y="125.140645"/>
      </g>
     </g>
     <g id="text_23">
      <!-- 1.0 -->
      <g transform="translate(108.374375 131.979239)scale(0.18 -0.18)">
       <use xlink:href="#DejaVuSans-49"/>
       <use x="63.623047" xlink:href="#DejaVuSans-46"/>
       <use x="95.410156" xlink:href="#DejaVuSans-48"/>
      </g>
     </g>
    </g>
    <g id="text_24">
     <!-- Precision -->
     <g transform="translate(99.383125 489.856875)rotate(-90)scale(0.24 -0.24)">
      <defs>
       <path d="M 19.671875 64.796875 
L 19.671875 37.40625 
L 32.078125 37.40625 
Q 38.96875 37.40625 42.71875 40.96875 
Q 46.484375 44.53125 46.484375 51.125 
Q 46.484375 57.671875 42.71875 61.234375 
Q 38.96875 64.796875 32.078125 64.796875 
z
M 9.8125 72.90625 
L 32.078125 72.90625 
Q 44.34375 72.90625 50.609375 67.359375 
Q 56.890625 61.8125 56.890625 51.125 
Q 56.890625 40.328125 50.609375 34.8125 
Q 44.34375 29.296875 32.078125 29.296875 
L 19.671875 29.296875 
L 19.671875 0 
L 9.8125 0 
z
" id="DejaVuSans-80"/>
       <path d="M 41.109375 46.296875 
Q 39.59375 47.171875 37.8125 47.578125 
Q 36.03125 48 33.890625 48 
Q 26.265625 48 22.1875 43.046875 
Q 18.109375 38.09375 18.109375 28.8125 
L 18.109375 0 
L 9.078125 0 
L 9.078125 54.6875 
L 18.109375 54.6875 
L 18.109375 46.1875 
Q 20.953125 51.171875 25.484375 53.578125 
Q 30.03125 56 36.53125 56 
Q 37.453125 56 38.578125 55.875 
Q 39.703125 55.765625 41.0625 55.515625 
z
" id="DejaVuSans-114"/>
       <path d="M 9.421875 54.6875 
L 18.40625 54.6875 
L 18.40625 0 
L 9.421875 0 
z
M 9.421875 75.984375 
L 18.40625 75.984375 
L 18.40625 64.59375 
L 9.421875 64.59375 
z
" id="DejaVuSans-105"/>
       <path d="M 44.28125 53.078125 
L 44.28125 44.578125 
Q 40.484375 46.53125 36.375 47.5 
Q 32.28125 48.484375 27.875 48.484375 
Q 21.1875 48.484375 17.84375 46.4375 
Q 14.5 44.390625 14.5 40.28125 
Q 14.5 37.15625 16.890625 35.375 
Q 19.28125 33.59375 26.515625 31.984375 
L 29.59375 31.296875 
Q 39.15625 29.25 43.1875 25.515625 
Q 47.21875 21.78125 47.21875 15.09375 
Q 47.21875 7.46875 41.1875 3.015625 
Q 35.15625 -1.421875 24.609375 -1.421875 
Q 20.21875 -1.421875 15.453125 -0.5625 
Q 10.6875 0.296875 5.421875 2 
L 5.421875 11.28125 
Q 10.40625 8.6875 15.234375 7.390625 
Q 20.0625 6.109375 24.8125 6.109375 
Q 31.15625 6.109375 34.5625 8.28125 
Q 37.984375 10.453125 37.984375 14.40625 
Q 37.984375 18.0625 35.515625 20.015625 
Q 33.0625 21.96875 24.703125 23.78125 
L 21.578125 24.515625 
Q 13.234375 26.265625 9.515625 29.90625 
Q 5.8125 33.546875 5.8125 39.890625 
Q 5.8125 47.609375 11.28125 51.796875 
Q 16.75 56 26.8125 56 
Q 31.78125 56 36.171875 55.265625 
Q 40.578125 54.546875 44.28125 53.078125 
z
" id="DejaVuSans-115"/>
       <path d="M 30.609375 48.390625 
Q 23.390625 48.390625 19.1875 42.75 
Q 14.984375 37.109375 14.984375 27.296875 
Q 14.984375 17.484375 19.15625 11.84375 
Q 23.34375 6.203125 30.609375 6.203125 
Q 37.796875 6.203125 41.984375 11.859375 
Q 46.1875 17.53125 46.1875 27.296875 
Q 46.1875 37.015625 41.984375 42.703125 
Q 37.796875 48.390625 30.609375 48.390625 
z
M 30.609375 56 
Q 42.328125 56 49.015625 48.375 
Q 55.71875 40.765625 55.71875 27.296875 
Q 55.71875 13.875 49.015625 6.21875 
Q 42.328125 -1.421875 30.609375 -1.421875 
Q 18.84375 -1.421875 12.171875 6.21875 
Q 5.515625 13.875 5.515625 27.296875 
Q 5.515625 40.765625 12.171875 48.375 
Q 18.84375 56 30.609375 56 
z
" id="DejaVuSans-111"/>
       <path d="M 54.890625 33.015625 
L 54.890625 0 
L 45.90625 0 
L 45.90625 32.71875 
Q 45.90625 40.484375 42.875 44.328125 
Q 39.84375 48.1875 33.796875 48.1875 
Q 26.515625 48.1875 22.3125 43.546875 
Q 18.109375 38.921875 18.109375 30.90625 
L 18.109375 0 
L 9.078125 0 
L 9.078125 54.6875 
L 18.109375 54.6875 
L 18.109375 46.1875 
Q 21.34375 51.125 25.703125 53.5625 
Q 30.078125 56 35.796875 56 
Q 45.21875 56 50.046875 50.171875 
Q 54.890625 44.34375 54.890625 33.015625 
z
" id="DejaVuSans-110"/>
      </defs>
      <use xlink:href="#DejaVuSans-80"/>
      <use x="58.552734" xlink:href="#DejaVuSans-114"/>
      <use x="97.416016" xlink:href="#DejaVuSans-101"/>
      <use x="158.939453" xlink:href="#DejaVuSans-99"/>
      <use x="213.919922" xlink:href="#DejaVuSans-105"/>
      <use x="241.703125" xlink:href="#DejaVuSans-115"/>
      <use x="293.802734" xlink:href="#DejaVuSans-105"/>
      <use x="321.585938" xlink:href="#DejaVuSans-111"/>
      <use x="382.767578" xlink:href="#DejaVuSans-110"/>
     </g>
    </g>
   </g>
   <g id="line2d_23">
    <path clip-path="url(#p97ccd189f0)" d="M 996.218182 417.146145 
L 988.101818 418.750571 
L 988.101818 320.100027 
L 979.985455 321.482718 
L 979.985455 290.972903 
L 971.869091 292.238798 
L 971.869091 265.327118 
L 963.752727 266.466845 
L 963.752727 226.796333 
L 955.636364 227.695941 
L 955.636364 212.934194 
L 939.403636 214.56 
L 939.403636 198.72 
L 931.287273 199.427494 
L 931.287273 182.510687 
L 923.170909 183.084387 
L 923.170909 177.166452 
L 915.054545 177.697327 
L 915.054545 171.601836 
L 874.472727 174.1269 
L 874.472727 167.590273 
L 866.356364 168.061935 
L 866.356364 161.310272 
L 850.123636 162.141758 
L 850.123636 147.863681 
L 809.541818 149.283871 
L 809.541818 141.439869 
L 760.843636 142.779532 
L 712.145455 144.359133 
L 712.145455 134.895484 
L 655.330909 136.052838 
L 639.098182 136.435722 
L 639.098182 125.140645 
L 184.581818 125.140645 
L 184.581818 125.140645 
" style="fill:none;stroke:#1f77b4;stroke-linecap:square;stroke-width:1.5;"/>
   </g>
   <g id="line2d_24">
    <path clip-path="url(#p97ccd189f0)" d="M 996.218182 249.750843 
L 988.101818 250.763934 
L 988.101818 246.516425 
L 988.101818 242.19871 
L 988.101818 237.809032 
L 988.101818 233.345579 
L 988.101818 228.806473 
L 988.101818 224.189777 
L 988.101818 219.493482 
L 988.101818 214.715512 
L 988.101818 209.853718 
L 988.101818 204.905875 
L 979.985455 205.618065 
L 971.869091 206.343086 
L 971.869091 201.228387 
L 963.752727 201.92644 
L 963.752727 196.676129 
L 963.752727 191.327682 
L 963.752727 185.87832 
L 963.752727 180.325161 
L 955.636364 180.855782 
L 947.52 181.396705 
L 947.52 175.636281 
L 947.52 169.761789 
L 939.403636 170.208 
L 931.287273 170.663226 
L 931.287273 164.558157 
L 931.287273 158.32721 
L 931.287273 151.966452 
L 931.287273 145.471783 
L 923.170909 145.688071 
L 915.054545 145.909011 
L 906.938182 146.134755 
L 898.821818 146.365459 
L 890.705455 146.60129 
L 890.705455 139.608496 
L 882.589091 139.772903 
L 874.472727 139.94109 
L 866.356364 140.113188 
L 858.24 140.289336 
L 850.123636 140.469677 
L 842.007273 140.654365 
L 833.890909 140.843556 
L 825.774545 141.037419 
L 817.658182 141.236129 
L 817.658182 133.290257 
L 809.541818 133.394739 
L 801.425455 133.501935 
L 793.309091 133.611952 
L 785.192727 133.724903 
L 777.076364 133.840907 
L 768.96 133.960088 
L 760.843636 134.082581 
L 752.727273 134.208523 
L 744.610909 134.338065 
L 736.494545 134.47136 
L 728.378182 134.608577 
L 720.261818 134.749889 
L 712.145455 134.895484 
L 704.029091 135.045558 
L 695.912727 135.200323 
L 687.796364 135.36 
L 679.68 135.524828 
L 671.563636 135.695061 
L 663.447273 135.870968 
L 655.330909 136.052838 
L 647.214545 136.240979 
L 639.098182 136.435722 
L 630.981818 136.637419 
L 622.865455 136.846452 
L 614.749091 137.063226 
L 606.632727 137.28818 
L 598.516364 137.521787 
L 590.4 137.764554 
L 582.283636 138.017032 
L 574.167273 138.279816 
L 566.050909 138.553548 
L 557.934545 138.838929 
L 549.818182 139.136718 
L 541.701818 139.447742 
L 533.585455 139.772903 
L 525.469091 140.113188 
L 517.352727 140.469677 
L 509.236364 140.843556 
L 501.12 141.236129 
L 493.003636 141.648834 
L 484.887273 142.08326 
L 476.770909 142.541168 
L 468.654545 143.024516 
L 460.538182 143.535484 
L 452.421818 144.076509 
L 444.305455 144.650323 
L 436.189091 145.26 
L 428.072727 145.909011 
L 419.956364 146.60129 
L 411.84 147.341313 
L 403.723636 148.134194 
L 395.607273 148.985806 
L 387.490909 149.902928 
L 379.374545 150.893419 
L 371.258182 151.966452 
L 363.141818 153.132791 
L 355.025455 154.405161 
L 346.909091 155.79871 
L 346.909091 125.140645 
L 338.792727 125.140645 
L 330.676364 125.140645 
L 322.56 125.140645 
L 314.443636 125.140645 
L 306.327273 125.140645 
L 298.210909 125.140645 
L 290.094545 125.140645 
L 281.978182 125.140645 
L 273.861818 125.140645 
L 265.745455 125.140645 
L 257.629091 125.140645 
L 249.512727 125.140645 
L 241.396364 125.140645 
L 233.28 125.140645 
L 225.163636 125.140645 
L 217.047273 125.140645 
L 208.930909 125.140645 
L 200.814545 125.140645 
L 192.698182 125.140645 
L 184.581818 125.140645 
" style="fill:none;stroke:#ff7f0e;stroke-linecap:square;stroke-width:1.5;"/>
   </g>
   <g id="line2d_25">
    <path clip-path="url(#p97ccd189f0)" d="M 996.218182 447.050323 
L 963.752727 453.619908 
L 963.752727 452.002779 
L 947.52 455.389952 
L 947.52 453.756774 
L 931.287273 457.215891 
L 931.287273 455.566452 
L 915.054545 459.100417 
L 915.054545 457.434506 
L 898.821818 461.046396 
L 898.821818 455.942855 
L 890.705455 457.780645 
L 890.705455 454.284248 
L 882.589091 456.143816 
L 882.589091 450.750434 
L 866.356364 454.536594 
L 866.356364 452.697861 
L 858.24 454.624668 
L 858.24 452.764696 
L 850.123636 454.714839 
L 850.123636 450.928752 
L 833.890909 454.901778 
L 833.890909 451.024516 
L 809.541818 457.173268 
L 809.541818 444.946338 
L 793.309091 449.182175 
L 793.309091 442.700192 
L 777.076364 447.050323 
L 777.076364 444.830256 
L 768.96 447.050323 
L 768.96 442.516383 
L 760.843636 444.767275 
L 760.843636 442.451613 
L 752.727273 444.734426 
L 752.727273 435.127742 
L 728.378182 442.172903 
L 704.029091 449.545746 
L 704.029091 441.940645 
L 687.796364 447.050323 
L 687.796364 444.433171 
L 671.563636 449.710733 
L 671.563636 447.050323 
L 663.447273 449.755446 
L 663.447273 447.050323 
L 647.214545 452.600489 
L 630.981818 458.345399 
L 630.981818 452.79871 
L 622.865455 455.750584 
L 622.865455 452.903226 
L 606.632727 458.972903 
L 606.632727 453.12409 
L 598.516364 456.247742 
L 598.516364 443.863098 
L 590.4 447.050323 
L 590.4 443.79871 
L 574.167273 450.368979 
L 566.050909 453.756774 
L 566.050909 432.743226 
L 557.934545 436.199435 
L 557.934545 428.549766 
L 549.818182 432.077779 
L 549.818182 428.114459 
L 533.585455 435.415033 
L 525.469091 439.198867 
L 525.469091 426.676292 
L 517.352727 430.542134 
L 517.352727 407.362828 
L 501.12 415.312749 
L 501.12 394.19948 
L 493.003636 398.276129 
L 484.887273 402.478213 
L 484.887273 396.751935 
L 476.770909 401.063226 
L 468.654545 405.51359 
L 468.654545 399.555452 
L 460.538182 404.129032 
L 460.538182 391.548654 
L 452.421818 396.222479 
L 452.421818 382.668387 
L 444.305455 387.437419 
L 436.189091 392.386415 
L 428.072727 397.525757 
L 419.956364 402.866641 
L 419.956364 387.924055 
L 411.84 393.39871 
L 403.723636 399.106328 
L 395.607273 405.062104 
L 387.490909 411.282581 
L 379.374545 417.785806 
L 379.374545 392.090134 
L 371.258182 398.763871 
L 371.258182 389.271663 
L 363.141818 396.222479 
L 355.025455 403.549015 
L 346.909091 411.282581 
L 346.909091 390.242732 
L 338.792727 398.276129 
L 338.792727 386.692258 
L 330.676364 395.129407 
L 330.676364 382.668387 
L 322.56 391.548654 
L 314.443636 401.063226 
L 314.443636 387.437419 
L 306.327273 397.525757 
L 306.327273 382.668387 
L 298.210909 393.39871 
L 290.094545 405.062104 
L 281.978182 417.785806 
L 273.861818 431.72129 
L 273.861818 414.859355 
L 265.745455 430.107708 
L 265.745455 411.282581 
L 257.629091 428.114459 
L 257.629091 382.668387 
L 249.512727 401.063226 
L 241.396364 422.28804 
L 241.396364 318.286452 
L 233.28 339.747097 
L 233.28 286.095484 
L 225.163636 309.089032 
L 217.047273 339.747097 
L 217.047273 125.140645 
L 184.581818 125.140645 
L 184.581818 125.140645 
" style="fill:none;stroke:#2ca02c;stroke-linecap:square;stroke-width:1.5;"/>
   </g>
   <g id="line2d_26">
    <path clip-path="url(#p97ccd189f0)" d="M 996.218182 445.432686 
L 988.101818 447.050323 
L 988.101818 442.097866 
L 971.869091 445.382397 
L 971.869091 435.000228 
L 963.752727 436.666139 
L 963.752727 433.05425 
L 955.636364 434.736838 
L 955.636364 429.166452 
L 947.52 430.86492 
L 947.52 415.047606 
L 939.403636 416.752941 
L 939.403636 410.425868 
L 931.287273 412.144454 
L 931.287273 409.981935 
L 923.170909 411.718773 
L 923.170909 400.484772 
L 898.821818 405.779851 
L 898.821818 396.222479 
L 890.705455 398.017723 
L 890.705455 393.038632 
L 874.472727 396.683502 
L 874.472727 394.133663 
L 858.24 397.869677 
L 858.24 392.643053 
L 833.890909 398.416486 
L 825.774545 400.396746 
L 825.774545 394.976698 
L 809.541818 399.004102 
L 809.541818 396.222479 
L 793.309091 400.361133 
L 793.309091 397.525757 
L 785.192727 399.637269 
L 785.192727 393.821163 
L 777.076364 395.953548 
L 777.076364 392.969497 
L 768.96 395.129407 
L 768.96 392.090134 
L 744.610909 398.763871 
L 736.494545 401.063226 
L 736.494545 397.945457 
L 728.378182 400.277122 
L 728.378182 390.574941 
L 712.145455 395.314839 
L 695.912727 400.227097 
L 679.68 405.32129 
L 679.68 401.922798 
L 663.447273 407.194839 
L 663.447273 392.867506 
L 647.214545 398.276129 
L 647.214545 394.493641 
L 639.098182 397.270476 
L 639.098182 372.763474 
L 630.981818 375.514839 
L 630.981818 361.947764 
L 614.749091 367.519696 
L 614.749091 357.846436 
L 598.516364 363.592258 
L 590.4 366.572903 
L 590.4 356.255285 
L 574.167273 362.33725 
L 557.934545 368.747969 
L 541.701818 375.514839 
L 533.585455 379.041236 
L 533.585455 367.739243 
L 525.469091 371.306869 
L 525.469091 365.371748 
L 509.236364 372.763474 
L 509.236364 360.185806 
L 501.12 363.976857 
L 501.12 350.477419 
L 493.003636 354.296687 
L 484.887273 358.247653 
L 484.887273 343.579355 
L 476.770909 347.550968 
L 468.654545 351.669677 
L 460.538182 355.94381 
L 452.421818 360.382333 
L 444.305455 364.994915 
L 444.305455 356.915613 
L 436.189091 361.645714 
L 428.072727 366.572903 
L 428.072727 358.011476 
L 419.956364 363.073885 
L 411.84 368.36129 
L 411.84 349.728792 
L 403.723636 355.076129 
L 395.607273 360.684312 
L 395.607273 350.477419 
L 387.490909 356.255285 
L 379.374545 362.33725 
L 379.374545 351.347446 
L 371.258182 357.630968 
L 371.258182 320.237419 
L 363.141818 326.334194 
L 363.141818 296.825806 
L 355.025455 302.745984 
L 346.909091 309.089032 
L 338.792727 315.901935 
L 330.676364 323.238908 
L 322.56 331.162839 
L 314.443636 339.747097 
L 306.327273 349.077812 
L 306.327273 329.992258 
L 298.210909 339.747097 
L 298.210909 318.286452 
L 290.094545 328.45202 
L 281.978182 339.747097 
L 273.861818 352.371006 
L 265.745455 366.572903 
L 257.629091 382.668387 
L 257.629091 286.095484 
L 249.512727 300.727742 
L 241.396364 318.286452 
L 233.28 339.747097 
L 225.163636 366.572903 
L 217.047273 401.063226 
L 217.047273 339.747097 
L 208.930909 382.668387 
L 200.814545 447.050323 
L 192.698182 554.353548 
L 192.698182 125.140645 
L 184.581818 125.140645 
L 184.581818 125.140645 
" style="fill:none;stroke:#d62728;stroke-linecap:square;stroke-width:1.5;"/>
   </g>
   <g id="line2d_27">
    <path clip-path="url(#p97ccd189f0)" d="M 996.218182 447.050323 
L 842.007273 450.97605 
L 825.774545 442.923275 
L 809.541818 438.466065 
L 809.541818 436.247984 
L 793.309091 433.637419 
L 663.447273 449.755446 
L 630.981818 455.596597 
L 590.4 453.362277 
L 525.469091 450.837495 
L 501.12 447.050323 
L 436.189091 447.050323 
L 403.723636 458.547097 
L 403.723636 452.903226 
L 330.676364 447.050323 
L 330.676364 437.852903 
L 306.327273 457.434506 
L 290.094545 470.043871 
L 241.396364 359.256774 
L 241.396364 318.286452 
L 184.581818 125.140645 
" style="fill:none;stroke:#9467bd;stroke-linecap:square;stroke-width:1.5;"/>
   </g>
   <g id="line2d_28">
    <path clip-path="url(#p97ccd189f0)" d="M 996.218182 435.374842 
L 988.101818 436.990645 
L 988.101818 428.114459 
L 979.985455 429.743351 
L 979.985455 422.28804 
L 971.869091 423.929738 
L 971.869091 422.012903 
L 963.752727 423.671407 
L 963.752727 415.779097 
L 947.52 419.139079 
L 947.52 388.337237 
L 939.403636 390.003038 
L 939.403636 385.144615 
L 931.287273 386.82206 
L 931.287273 374.084129 
L 923.170909 375.754891 
L 923.170909 370.405161 
L 915.054545 372.085055 
L 915.054545 360.905479 
L 898.821818 364.273548 
L 898.821818 361.362135 
L 890.705455 363.073885 
L 890.705455 360.111213 
L 882.589091 361.838937 
L 882.589091 349.501935 
L 874.472727 351.214617 
L 874.472727 348.001191 
L 866.356364 349.728792 
L 866.356364 346.453548 
L 858.24 348.19617 
L 858.24 334.512793 
L 850.123636 336.228958 
L 850.123636 332.652669 
L 842.007273 334.381935 
L 842.007273 330.730019 
L 809.541818 326.334194 
L 801.425455 328.146748 
L 801.425455 320.058431 
L 793.309091 321.863226 
L 793.309091 317.684751 
L 785.192727 319.501205 
L 785.192727 315.220645 
L 777.076364 317.048337 
L 777.076364 294.224516 
L 760.843636 297.710782 
L 760.843636 292.801935 
L 752.727273 294.566791 
L 752.727273 250.944427 
L 728.378182 255.437419 
L 728.378182 249.2504 
L 712.145455 252.314839 
L 695.912727 255.534439 
L 695.912727 242.19871 
L 679.68 245.320258 
L 663.447273 248.61285 
L 647.214545 252.09094 
L 630.981818 255.770659 
L 630.981818 248.223757 
L 622.865455 250.060818 
L 622.865455 242.19871 
L 614.749091 243.999603 
L 614.749091 235.797097 
L 606.632727 237.553548 
L 606.632727 220.130386 
L 598.516364 221.713548 
L 598.516364 202.842981 
L 590.4 204.20618 
L 590.4 183.669677 
L 582.283636 184.753548 
L 582.283636 173.730785 
L 566.050909 175.636281 
L 549.818182 177.697327 
L 541.701818 178.792258 
L 541.701818 166.235498 
L 533.585455 167.128864 
L 533.585455 153.754839 
L 509.236364 155.79871 
L 493.003636 157.331613 
L 476.770909 159.025874 
L 468.654545 159.941691 
L 468.654545 143.024516 
L 444.305455 144.650323 
L 428.072727 145.909011 
L 411.84 147.341313 
L 395.607273 148.985806 
L 379.374545 150.893419 
L 363.141818 153.132791 
L 355.025455 154.405161 
L 346.909091 155.79871 
L 338.792727 157.331613 
L 330.676364 159.025874 
L 322.56 160.908387 
L 314.443636 163.012372 
L 306.327273 165.379355 
L 298.210909 168.061935 
L 290.094545 171.127742 
L 281.978182 174.665211 
L 273.861818 178.792258 
L 265.745455 183.669677 
L 257.629091 189.522581 
L 249.512727 196.676129 
L 241.396364 205.618065 
L 241.396364 125.140645 
L 184.581818 125.140645 
L 184.581818 125.140645 
" style="fill:none;stroke:#8c564b;stroke-linecap:square;stroke-width:1.5;"/>
   </g>
   <g id="line2d_29">
    <path clip-path="url(#p97ccd189f0)" d="M 996.218182 438.796228 
L 988.101818 440.41301 
L 988.101818 433.496231 
L 971.869091 436.776609 
L 971.869091 425.825509 
L 963.752727 427.486751 
L 963.752727 423.671407 
L 955.636364 425.348547 
L 955.636364 423.407239 
L 947.52 425.101935 
L 947.52 408.727742 
L 939.403636 410.425868 
L 939.403636 406.08 
L 923.170909 409.527109 
L 923.170909 407.308387 
L 915.054545 409.060982 
L 915.054545 402.227456 
L 906.938182 403.99234 
L 906.938182 401.652804 
L 898.821818 403.436753 
L 898.821818 398.658672 
L 890.705455 400.458132 
L 890.705455 398.017723 
L 874.472727 401.680502 
L 874.472727 383.575175 
L 850.123636 389.152899 
L 842.007273 391.066031 
L 842.007273 388.307681 
L 825.774545 392.206452 
L 825.774545 374.683031 
L 809.541818 378.612832 
L 809.541818 372.367277 
L 801.425455 374.361041 
L 801.425455 371.152919 
L 793.309091 373.169413 
L 793.309091 366.572903 
L 785.192727 368.601746 
L 785.192727 347.343785 
L 777.076364 349.327742 
L 777.076364 329.718758 
L 768.96 331.64874 
L 768.96 300.727742 
L 760.843636 302.519447 
L 760.843636 297.710782 
L 752.727273 299.508387 
L 752.727273 294.566791 
L 736.494545 298.210364 
L 736.494545 293.09352 
L 720.261818 296.825806 
L 704.029091 300.727742 
L 695.912727 302.745984 
L 695.912727 297.324891 
L 687.796364 299.350588 
L 687.796364 293.76 
L 679.68 295.791558 
L 679.68 278.047742 
L 663.447273 281.968437 
L 647.214545 286.095484 
L 647.214545 279.65729 
L 630.981818 283.890623 
L 614.749091 288.362453 
L 598.516364 293.09352 
L 598.516364 278.888551 
L 590.4 281.218065 
L 590.4 265.976129 
L 582.283636 268.211613 
L 582.283636 260.135026 
L 566.050909 264.634839 
L 566.050909 256.086955 
L 557.934545 258.34465 
L 557.934545 249.386486 
L 541.701818 253.904516 
L 525.469091 258.76353 
L 517.352727 261.333201 
L 517.352727 241.028129 
L 509.236364 243.39318 
L 509.236364 209.117083 
L 493.003636 212.934194 
L 476.770909 217.114839 
L 460.538182 221.713548 
L 452.421818 224.189777 
L 452.421818 209.853718 
L 444.305455 212.143261 
L 436.189091 214.56 
L 428.072727 217.114839 
L 428.072727 200.884099 
L 419.956364 203.179355 
L 411.84 205.618065 
L 403.723636 208.21411 
L 395.607273 210.983226 
L 387.490909 213.943315 
L 387.490909 194.12129 
L 379.374545 196.676129 
L 371.258182 199.427494 
L 371.258182 176.646194 
L 363.141818 178.792258 
L 355.025455 181.124937 
L 346.909091 183.669677 
L 338.792727 186.456774 
L 330.676364 189.522581 
L 322.56 192.911104 
L 314.443636 196.676129 
L 306.327273 200.884099 
L 298.210909 205.618065 
L 290.094545 210.983226 
L 281.978182 217.114839 
L 273.861818 224.189777 
L 265.745455 232.443871 
L 257.629091 242.19871 
L 249.512727 253.904516 
L 241.396364 268.211613 
L 233.28 286.095484 
L 225.163636 309.089032 
L 225.163636 232.443871 
L 217.047273 253.904516 
L 208.930909 286.095484 
L 200.814545 339.747097 
L 200.814545 125.140645 
L 184.581818 125.140645 
L 184.581818 125.140645 
" style="fill:none;stroke:#e377c2;stroke-linecap:square;stroke-width:1.5;"/>
   </g>
   <g id="line2d_30">
    <path clip-path="url(#p97ccd189f0)" d="M 996.218182 342.589566 
L 988.101818 344.039226 
L 988.101818 278.666799 
L 979.985455 279.856924 
L 979.985455 234.26257 
L 971.869091 235.195236 
L 971.869091 225.91237 
L 963.752727 226.796333 
L 963.752727 217.114839 
L 955.636364 217.943435 
L 955.636364 207.833039 
L 947.52 208.59871 
L 947.52 192.588387 
L 931.287273 193.898052 
L 931.287273 182.510687 
L 906.938182 184.266912 
L 906.938182 178.239149 
L 898.821818 178.792258 
L 898.821818 172.579966 
L 890.705455 173.08464 
L 890.705455 166.677378 
L 882.589091 167.128864 
L 882.589091 160.515335 
L 866.356364 161.310272 
L 866.356364 154.405161 
L 825.774545 156.168084 
L 785.192727 158.157022 
L 752.727273 159.941691 
L 752.727273 151.598975 
L 728.378182 152.732903 
L 728.378182 143.802076 
L 720.261818 144.076509 
L 720.261818 134.749889 
L 663.447273 135.870968 
L 614.749091 137.063226 
L 574.167273 138.279816 
L 541.701818 139.447742 
L 509.236364 140.843556 
L 484.887273 142.08326 
L 468.654545 143.024516 
L 468.654545 125.140645 
L 184.581818 125.140645 
L 184.581818 125.140645 
" style="fill:none;stroke:#7f7f7f;stroke-linecap:square;stroke-width:1.5;"/>
   </g>
   <g id="line2d_31">
    <path clip-path="url(#p97ccd189f0)" d="M 184.581818 447.050323 
L 996.218182 447.050323 
" style="fill:none;stroke:#000000;stroke-dasharray:5.55,2.4;stroke-dashoffset:0;stroke-width:1.5;"/>
   </g>
   <g id="patch_3">
    <path d="M 144 768.96 
L 144 103.68 
" style="fill:none;stroke:#000000;stroke-linecap:square;stroke-linejoin:miter;stroke-width:0.8;"/>
   </g>
   <g id="patch_4">
    <path d="M 1036.8 768.96 
L 1036.8 103.68 
" style="fill:none;stroke:#000000;stroke-linecap:square;stroke-linejoin:miter;stroke-width:0.8;"/>
   </g>
   <g id="patch_5">
    <path d="M 144 768.96 
L 1036.8 768.96 
" style="fill:none;stroke:#000000;stroke-linecap:square;stroke-linejoin:miter;stroke-width:0.8;"/>
   </g>
   <g id="patch_6">
    <path d="M 144 103.68 
L 1036.8 103.68 
" style="fill:none;stroke:#000000;stroke-linecap:square;stroke-linejoin:miter;stroke-width:0.8;"/>
   </g>
   <g id="legend_1">
    <g id="patch_7">
     <path d="M 511.135 760.96 
L 1025.6 760.96 
Q 1028.8 760.96 1028.8 757.76 
L 1028.8 567.92 
Q 1028.8 564.72 1025.6 564.72 
L 511.135 564.72 
Q 507.935 564.72 507.935 567.92 
L 507.935 757.76 
Q 507.935 760.96 511.135 760.96 
z
" style="fill:#ffffff;opacity:0.8;stroke:#cccccc;stroke-linejoin:miter;"/>
    </g>
    <g id="line2d_32">
     <path d="M 514.335 577.6775 
L 546.335 577.6775 
" style="fill:none;stroke:#1f77b4;stroke-linecap:square;stroke-width:1.5;"/>
    </g>
    <g id="line2d_33"/>
    <g id="text_25">
     <!-- GradientBoostingClassifier, f1_score=0.897, auprc=0.968 -->
     <g transform="translate(559.135 583.2775)scale(0.16 -0.16)">
      <defs>
       <path d="M 59.515625 10.40625 
L 59.515625 29.984375 
L 43.40625 29.984375 
L 43.40625 38.09375 
L 69.28125 38.09375 
L 69.28125 6.78125 
Q 63.578125 2.734375 56.6875 0.65625 
Q 49.8125 -1.421875 42 -1.421875 
Q 24.90625 -1.421875 15.25 8.5625 
Q 5.609375 18.5625 5.609375 36.375 
Q 5.609375 54.25 15.25 64.234375 
Q 24.90625 74.21875 42 74.21875 
Q 49.125 74.21875 55.546875 72.453125 
Q 61.96875 70.703125 67.390625 67.28125 
L 67.390625 56.78125 
Q 61.921875 61.421875 55.765625 63.765625 
Q 49.609375 66.109375 42.828125 66.109375 
Q 29.4375 66.109375 22.71875 58.640625 
Q 16.015625 51.171875 16.015625 36.375 
Q 16.015625 21.625 22.71875 14.15625 
Q 29.4375 6.6875 42.828125 6.6875 
Q 48.046875 6.6875 52.140625 7.59375 
Q 56.25 8.5 59.515625 10.40625 
z
" id="DejaVuSans-71"/>
       <path d="M 45.40625 46.390625 
L 45.40625 75.984375 
L 54.390625 75.984375 
L 54.390625 0 
L 45.40625 0 
L 45.40625 8.203125 
Q 42.578125 3.328125 38.25 0.953125 
Q 33.9375 -1.421875 27.875 -1.421875 
Q 17.96875 -1.421875 11.734375 6.484375 
Q 5.515625 14.40625 5.515625 27.296875 
Q 5.515625 40.1875 11.734375 48.09375 
Q 17.96875 56 27.875 56 
Q 33.9375 56 38.25 53.625 
Q 42.578125 51.265625 45.40625 46.390625 
z
M 14.796875 27.296875 
Q 14.796875 17.390625 18.875 11.75 
Q 22.953125 6.109375 30.078125 6.109375 
Q 37.203125 6.109375 41.296875 11.75 
Q 45.40625 17.390625 45.40625 27.296875 
Q 45.40625 37.203125 41.296875 42.84375 
Q 37.203125 48.484375 30.078125 48.484375 
Q 22.953125 48.484375 18.875 42.84375 
Q 14.796875 37.203125 14.796875 27.296875 
z
" id="DejaVuSans-100"/>
       <path d="M 18.3125 70.21875 
L 18.3125 54.6875 
L 36.8125 54.6875 
L 36.8125 47.703125 
L 18.3125 47.703125 
L 18.3125 18.015625 
Q 18.3125 11.328125 20.140625 9.421875 
Q 21.96875 7.515625 27.59375 7.515625 
L 36.8125 7.515625 
L 36.8125 0 
L 27.59375 0 
Q 17.1875 0 13.234375 3.875 
Q 9.28125 7.765625 9.28125 18.015625 
L 9.28125 47.703125 
L 2.6875 47.703125 
L 2.6875 54.6875 
L 9.28125 54.6875 
L 9.28125 70.21875 
z
" id="DejaVuSans-116"/>
       <path d="M 19.671875 34.8125 
L 19.671875 8.109375 
L 35.5 8.109375 
Q 43.453125 8.109375 47.28125 11.40625 
Q 51.125 14.703125 51.125 21.484375 
Q 51.125 28.328125 47.28125 31.5625 
Q 43.453125 34.8125 35.5 34.8125 
z
M 19.671875 64.796875 
L 19.671875 42.828125 
L 34.28125 42.828125 
Q 41.5 42.828125 45.03125 45.53125 
Q 48.578125 48.25 48.578125 53.8125 
Q 48.578125 59.328125 45.03125 62.0625 
Q 41.5 64.796875 34.28125 64.796875 
z
M 9.8125 72.90625 
L 35.015625 72.90625 
Q 46.296875 72.90625 52.390625 68.21875 
Q 58.5 63.53125 58.5 54.890625 
Q 58.5 48.1875 55.375 44.234375 
Q 52.25 40.28125 46.1875 39.3125 
Q 53.46875 37.75 57.5 32.78125 
Q 61.53125 27.828125 61.53125 20.40625 
Q 61.53125 10.640625 54.890625 5.3125 
Q 48.25 0 35.984375 0 
L 9.8125 0 
z
" id="DejaVuSans-66"/>
       <path d="M 45.40625 27.984375 
Q 45.40625 37.75 41.375 43.109375 
Q 37.359375 48.484375 30.078125 48.484375 
Q 22.859375 48.484375 18.828125 43.109375 
Q 14.796875 37.75 14.796875 27.984375 
Q 14.796875 18.265625 18.828125 12.890625 
Q 22.859375 7.515625 30.078125 7.515625 
Q 37.359375 7.515625 41.375 12.890625 
Q 45.40625 18.265625 45.40625 27.984375 
z
M 54.390625 6.78125 
Q 54.390625 -7.171875 48.1875 -13.984375 
Q 42 -20.796875 29.203125 -20.796875 
Q 24.46875 -20.796875 20.265625 -20.09375 
Q 16.0625 -19.390625 12.109375 -17.921875 
L 12.109375 -9.1875 
Q 16.0625 -11.328125 19.921875 -12.34375 
Q 23.78125 -13.375 27.78125 -13.375 
Q 36.625 -13.375 41.015625 -8.765625 
Q 45.40625 -4.15625 45.40625 5.171875 
L 45.40625 9.625 
Q 42.625 4.78125 38.28125 2.390625 
Q 33.9375 0 27.875 0 
Q 17.828125 0 11.671875 7.65625 
Q 5.515625 15.328125 5.515625 27.984375 
Q 5.515625 40.671875 11.671875 48.328125 
Q 17.828125 56 27.875 56 
Q 33.9375 56 38.28125 53.609375 
Q 42.625 51.21875 45.40625 46.390625 
L 45.40625 54.6875 
L 54.390625 54.6875 
z
" id="DejaVuSans-103"/>
       <path d="M 64.40625 67.28125 
L 64.40625 56.890625 
Q 59.421875 61.53125 53.78125 63.8125 
Q 48.140625 66.109375 41.796875 66.109375 
Q 29.296875 66.109375 22.65625 58.46875 
Q 16.015625 50.828125 16.015625 36.375 
Q 16.015625 21.96875 22.65625 14.328125 
Q 29.296875 6.6875 41.796875 6.6875 
Q 48.140625 6.6875 53.78125 8.984375 
Q 59.421875 11.28125 64.40625 15.921875 
L 64.40625 5.609375 
Q 59.234375 2.09375 53.4375 0.328125 
Q 47.65625 -1.421875 41.21875 -1.421875 
Q 24.65625 -1.421875 15.125 8.703125 
Q 5.609375 18.84375 5.609375 36.375 
Q 5.609375 53.953125 15.125 64.078125 
Q 24.65625 74.21875 41.21875 74.21875 
Q 47.75 74.21875 53.53125 72.484375 
Q 59.328125 70.75 64.40625 67.28125 
z
" id="DejaVuSans-67"/>
       <path d="M 37.109375 75.984375 
L 37.109375 68.5 
L 28.515625 68.5 
Q 23.6875 68.5 21.796875 66.546875 
Q 19.921875 64.59375 19.921875 59.515625 
L 19.921875 54.6875 
L 34.71875 54.6875 
L 34.71875 47.703125 
L 19.921875 47.703125 
L 19.921875 0 
L 10.890625 0 
L 10.890625 47.703125 
L 2.296875 47.703125 
L 2.296875 54.6875 
L 10.890625 54.6875 
L 10.890625 58.5 
Q 10.890625 67.625 15.140625 71.796875 
Q 19.390625 75.984375 28.609375 75.984375 
z
" id="DejaVuSans-102"/>
       <path d="M 11.71875 12.40625 
L 22.015625 12.40625 
L 22.015625 4 
L 14.015625 -11.625 
L 7.71875 -11.625 
L 11.71875 4 
z
" id="DejaVuSans-44"/>
       <path id="DejaVuSans-32"/>
       <path d="M 50.984375 -16.609375 
L 50.984375 -23.578125 
L -0.984375 -23.578125 
L -0.984375 -16.609375 
z
" id="DejaVuSans-95"/>
       <path d="M 10.59375 45.40625 
L 73.1875 45.40625 
L 73.1875 37.203125 
L 10.59375 37.203125 
z
M 10.59375 25.484375 
L 73.1875 25.484375 
L 73.1875 17.1875 
L 10.59375 17.1875 
z
" id="DejaVuSans-61"/>
       <path d="M 8.5 21.578125 
L 8.5 54.6875 
L 17.484375 54.6875 
L 17.484375 21.921875 
Q 17.484375 14.15625 20.5 10.265625 
Q 23.53125 6.390625 29.59375 6.390625 
Q 36.859375 6.390625 41.078125 11.03125 
Q 45.3125 15.671875 45.3125 23.6875 
L 45.3125 54.6875 
L 54.296875 54.6875 
L 54.296875 0 
L 45.3125 0 
L 45.3125 8.40625 
Q 42.046875 3.421875 37.71875 1 
Q 33.40625 -1.421875 27.6875 -1.421875 
Q 18.265625 -1.421875 13.375 4.4375 
Q 8.5 10.296875 8.5 21.578125 
z
M 31.109375 56 
z
" id="DejaVuSans-117"/>
       <path d="M 18.109375 8.203125 
L 18.109375 -20.796875 
L 9.078125 -20.796875 
L 9.078125 54.6875 
L 18.109375 54.6875 
L 18.109375 46.390625 
Q 20.953125 51.265625 25.265625 53.625 
Q 29.59375 56 35.59375 56 
Q 45.5625 56 51.78125 48.09375 
Q 58.015625 40.1875 58.015625 27.296875 
Q 58.015625 14.40625 51.78125 6.484375 
Q 45.5625 -1.421875 35.59375 -1.421875 
Q 29.59375 -1.421875 25.265625 0.953125 
Q 20.953125 3.328125 18.109375 8.203125 
z
M 48.6875 27.296875 
Q 48.6875 37.203125 44.609375 42.84375 
Q 40.53125 48.484375 33.40625 48.484375 
Q 26.265625 48.484375 22.1875 42.84375 
Q 18.109375 37.203125 18.109375 27.296875 
Q 18.109375 17.390625 22.1875 11.75 
Q 26.265625 6.109375 33.40625 6.109375 
Q 40.53125 6.109375 44.609375 11.75 
Q 48.6875 17.390625 48.6875 27.296875 
z
" id="DejaVuSans-112"/>
      </defs>
      <use xlink:href="#DejaVuSans-71"/>
      <use x="77.490234" xlink:href="#DejaVuSans-114"/>
      <use x="118.603516" xlink:href="#DejaVuSans-97"/>
      <use x="179.882812" xlink:href="#DejaVuSans-100"/>
      <use x="243.359375" xlink:href="#DejaVuSans-105"/>
      <use x="271.142578" xlink:href="#DejaVuSans-101"/>
      <use x="332.666016" xlink:href="#DejaVuSans-110"/>
      <use x="396.044922" xlink:href="#DejaVuSans-116"/>
      <use x="435.253906" xlink:href="#DejaVuSans-66"/>
      <use x="503.857422" xlink:href="#DejaVuSans-111"/>
      <use x="565.039062" xlink:href="#DejaVuSans-111"/>
      <use x="626.220703" xlink:href="#DejaVuSans-115"/>
      <use x="678.320312" xlink:href="#DejaVuSans-116"/>
      <use x="717.529297" xlink:href="#DejaVuSans-105"/>
      <use x="745.3125" xlink:href="#DejaVuSans-110"/>
      <use x="808.691406" xlink:href="#DejaVuSans-103"/>
      <use x="872.167969" xlink:href="#DejaVuSans-67"/>
      <use x="941.992188" xlink:href="#DejaVuSans-108"/>
      <use x="969.775391" xlink:href="#DejaVuSans-97"/>
      <use x="1031.054688" xlink:href="#DejaVuSans-115"/>
      <use x="1083.154297" xlink:href="#DejaVuSans-115"/>
      <use x="1135.253906" xlink:href="#DejaVuSans-105"/>
      <use x="1163.037109" xlink:href="#DejaVuSans-102"/>
      <use x="1198.242188" xlink:href="#DejaVuSans-105"/>
      <use x="1226.025391" xlink:href="#DejaVuSans-101"/>
      <use x="1287.548828" xlink:href="#DejaVuSans-114"/>
      <use x="1328.662109" xlink:href="#DejaVuSans-44"/>
      <use x="1360.449219" xlink:href="#DejaVuSans-32"/>
      <use x="1392.236328" xlink:href="#DejaVuSans-102"/>
      <use x="1427.441406" xlink:href="#DejaVuSans-49"/>
      <use x="1491.064453" xlink:href="#DejaVuSans-95"/>
      <use x="1541.064453" xlink:href="#DejaVuSans-115"/>
      <use x="1593.164062" xlink:href="#DejaVuSans-99"/>
      <use x="1648.144531" xlink:href="#DejaVuSans-111"/>
      <use x="1709.326172" xlink:href="#DejaVuSans-114"/>
      <use x="1748.189453" xlink:href="#DejaVuSans-101"/>
      <use x="1809.712891" xlink:href="#DejaVuSans-61"/>
      <use x="1893.501953" xlink:href="#DejaVuSans-48"/>
      <use x="1957.125" xlink:href="#DejaVuSans-46"/>
      <use x="1988.912109" xlink:href="#DejaVuSans-56"/>
      <use x="2052.535156" xlink:href="#DejaVuSans-57"/>
      <use x="2116.158203" xlink:href="#DejaVuSans-55"/>
      <use x="2179.78125" xlink:href="#DejaVuSans-44"/>
      <use x="2211.568359" xlink:href="#DejaVuSans-32"/>
      <use x="2243.355469" xlink:href="#DejaVuSans-97"/>
      <use x="2304.634766" xlink:href="#DejaVuSans-117"/>
      <use x="2368.013672" xlink:href="#DejaVuSans-112"/>
      <use x="2431.490234" xlink:href="#DejaVuSans-114"/>
      <use x="2470.353516" xlink:href="#DejaVuSans-99"/>
      <use x="2525.333984" xlink:href="#DejaVuSans-61"/>
      <use x="2609.123047" xlink:href="#DejaVuSans-48"/>
      <use x="2672.746094" xlink:href="#DejaVuSans-46"/>
      <use x="2704.533203" xlink:href="#DejaVuSans-57"/>
      <use x="2768.15625" xlink:href="#DejaVuSans-54"/>
      <use x="2831.779297" xlink:href="#DejaVuSans-56"/>
     </g>
    </g>
    <g id="line2d_34">
     <path d="M 514.335 601.6075 
L 546.335 601.6075 
" style="fill:none;stroke:#ff7f0e;stroke-linecap:square;stroke-width:1.5;"/>
    </g>
    <g id="line2d_35"/>
    <g id="text_26">
     <!-- XGBClassifier, f1_score=0.935, auprc=0.974 -->
     <g transform="translate(559.135 607.2075)scale(0.16 -0.16)">
      <defs>
       <path d="M 6.296875 72.90625 
L 16.890625 72.90625 
L 35.015625 45.796875 
L 53.21875 72.90625 
L 63.8125 72.90625 
L 40.375 37.890625 
L 65.375 0 
L 54.78125 0 
L 34.28125 31 
L 13.625 0 
L 2.984375 0 
L 29 38.921875 
z
" id="DejaVuSans-88"/>
      </defs>
      <use xlink:href="#DejaVuSans-88"/>
      <use x="68.505859" xlink:href="#DejaVuSans-71"/>
      <use x="145.996094" xlink:href="#DejaVuSans-66"/>
      <use x="212.849609" xlink:href="#DejaVuSans-67"/>
      <use x="282.673828" xlink:href="#DejaVuSans-108"/>
      <use x="310.457031" xlink:href="#DejaVuSans-97"/>
      <use x="371.736328" xlink:href="#DejaVuSans-115"/>
      <use x="423.835938" xlink:href="#DejaVuSans-115"/>
      <use x="475.935547" xlink:href="#DejaVuSans-105"/>
      <use x="503.71875" xlink:href="#DejaVuSans-102"/>
      <use x="538.923828" xlink:href="#DejaVuSans-105"/>
      <use x="566.707031" xlink:href="#DejaVuSans-101"/>
      <use x="628.230469" xlink:href="#DejaVuSans-114"/>
      <use x="669.34375" xlink:href="#DejaVuSans-44"/>
      <use x="701.130859" xlink:href="#DejaVuSans-32"/>
      <use x="732.917969" xlink:href="#DejaVuSans-102"/>
      <use x="768.123047" xlink:href="#DejaVuSans-49"/>
      <use x="831.746094" xlink:href="#DejaVuSans-95"/>
      <use x="881.746094" xlink:href="#DejaVuSans-115"/>
      <use x="933.845703" xlink:href="#DejaVuSans-99"/>
      <use x="988.826172" xlink:href="#DejaVuSans-111"/>
      <use x="1050.007812" xlink:href="#DejaVuSans-114"/>
      <use x="1088.871094" xlink:href="#DejaVuSans-101"/>
      <use x="1150.394531" xlink:href="#DejaVuSans-61"/>
      <use x="1234.183594" xlink:href="#DejaVuSans-48"/>
      <use x="1297.806641" xlink:href="#DejaVuSans-46"/>
      <use x="1329.59375" xlink:href="#DejaVuSans-57"/>
      <use x="1393.216797" xlink:href="#DejaVuSans-51"/>
      <use x="1456.839844" xlink:href="#DejaVuSans-53"/>
      <use x="1520.462891" xlink:href="#DejaVuSans-44"/>
      <use x="1552.25" xlink:href="#DejaVuSans-32"/>
      <use x="1584.037109" xlink:href="#DejaVuSans-97"/>
      <use x="1645.316406" xlink:href="#DejaVuSans-117"/>
      <use x="1708.695312" xlink:href="#DejaVuSans-112"/>
      <use x="1772.171875" xlink:href="#DejaVuSans-114"/>
      <use x="1811.035156" xlink:href="#DejaVuSans-99"/>
      <use x="1866.015625" xlink:href="#DejaVuSans-61"/>
      <use x="1949.804688" xlink:href="#DejaVuSans-48"/>
      <use x="2013.427734" xlink:href="#DejaVuSans-46"/>
      <use x="2045.214844" xlink:href="#DejaVuSans-57"/>
      <use x="2108.837891" xlink:href="#DejaVuSans-55"/>
      <use x="2172.460938" xlink:href="#DejaVuSans-52"/>
     </g>
    </g>
    <g id="line2d_36">
     <path d="M 514.335 625.5375 
L 546.335 625.5375 
" style="fill:none;stroke:#2ca02c;stroke-linecap:square;stroke-width:1.5;"/>
    </g>
    <g id="line2d_37"/>
    <g id="text_27">
     <!-- LogisticRegression, f1_score=0.502, auprc=0.549 -->
     <g transform="translate(559.135 631.1375)scale(0.16 -0.16)">
      <defs>
       <path d="M 9.8125 72.90625 
L 19.671875 72.90625 
L 19.671875 8.296875 
L 55.171875 8.296875 
L 55.171875 0 
L 9.8125 0 
z
" id="DejaVuSans-76"/>
      </defs>
      <use xlink:href="#DejaVuSans-76"/>
      <use x="53.962891" xlink:href="#DejaVuSans-111"/>
      <use x="115.144531" xlink:href="#DejaVuSans-103"/>
      <use x="178.621094" xlink:href="#DejaVuSans-105"/>
      <use x="206.404297" xlink:href="#DejaVuSans-115"/>
      <use x="258.503906" xlink:href="#DejaVuSans-116"/>
      <use x="297.712891" xlink:href="#DejaVuSans-105"/>
      <use x="325.496094" xlink:href="#DejaVuSans-99"/>
      <use x="380.476562" xlink:href="#DejaVuSans-82"/>
      <use x="445.458984" xlink:href="#DejaVuSans-101"/>
      <use x="506.982422" xlink:href="#DejaVuSans-103"/>
      <use x="570.458984" xlink:href="#DejaVuSans-114"/>
      <use x="609.322266" xlink:href="#DejaVuSans-101"/>
      <use x="670.845703" xlink:href="#DejaVuSans-115"/>
      <use x="722.945312" xlink:href="#DejaVuSans-115"/>
      <use x="775.044922" xlink:href="#DejaVuSans-105"/>
      <use x="802.828125" xlink:href="#DejaVuSans-111"/>
      <use x="864.009766" xlink:href="#DejaVuSans-110"/>
      <use x="927.388672" xlink:href="#DejaVuSans-44"/>
      <use x="959.175781" xlink:href="#DejaVuSans-32"/>
      <use x="990.962891" xlink:href="#DejaVuSans-102"/>
      <use x="1026.167969" xlink:href="#DejaVuSans-49"/>
      <use x="1089.791016" xlink:href="#DejaVuSans-95"/>
      <use x="1139.791016" xlink:href="#DejaVuSans-115"/>
      <use x="1191.890625" xlink:href="#DejaVuSans-99"/>
      <use x="1246.871094" xlink:href="#DejaVuSans-111"/>
      <use x="1308.052734" xlink:href="#DejaVuSans-114"/>
      <use x="1346.916016" xlink:href="#DejaVuSans-101"/>
      <use x="1408.439453" xlink:href="#DejaVuSans-61"/>
      <use x="1492.228516" xlink:href="#DejaVuSans-48"/>
      <use x="1555.851562" xlink:href="#DejaVuSans-46"/>
      <use x="1587.638672" xlink:href="#DejaVuSans-53"/>
      <use x="1651.261719" xlink:href="#DejaVuSans-48"/>
      <use x="1714.884766" xlink:href="#DejaVuSans-50"/>
      <use x="1778.507812" xlink:href="#DejaVuSans-44"/>
      <use x="1810.294922" xlink:href="#DejaVuSans-32"/>
      <use x="1842.082031" xlink:href="#DejaVuSans-97"/>
      <use x="1903.361328" xlink:href="#DejaVuSans-117"/>
      <use x="1966.740234" xlink:href="#DejaVuSans-112"/>
      <use x="2030.216797" xlink:href="#DejaVuSans-114"/>
      <use x="2069.080078" xlink:href="#DejaVuSans-99"/>
      <use x="2124.060547" xlink:href="#DejaVuSans-61"/>
      <use x="2207.849609" xlink:href="#DejaVuSans-48"/>
      <use x="2271.472656" xlink:href="#DejaVuSans-46"/>
      <use x="2303.259766" xlink:href="#DejaVuSans-53"/>
      <use x="2366.882812" xlink:href="#DejaVuSans-52"/>
      <use x="2430.505859" xlink:href="#DejaVuSans-57"/>
     </g>
    </g>
    <g id="line2d_38">
     <path d="M 514.335 649.4675 
L 546.335 649.4675 
" style="fill:none;stroke:#d62728;stroke-linecap:square;stroke-width:1.5;"/>
    </g>
    <g id="line2d_39"/>
    <g id="text_28">
     <!-- KNeighborsClassifier, f1_score=0.586, auprc=0.613 -->
     <g transform="translate(559.135 655.0675)scale(0.16 -0.16)">
      <defs>
       <path d="M 9.8125 72.90625 
L 19.671875 72.90625 
L 19.671875 42.09375 
L 52.390625 72.90625 
L 65.09375 72.90625 
L 28.90625 38.921875 
L 67.671875 0 
L 54.6875 0 
L 19.671875 35.109375 
L 19.671875 0 
L 9.8125 0 
z
" id="DejaVuSans-75"/>
       <path d="M 9.8125 72.90625 
L 23.09375 72.90625 
L 55.421875 11.921875 
L 55.421875 72.90625 
L 64.984375 72.90625 
L 64.984375 0 
L 51.703125 0 
L 19.390625 60.984375 
L 19.390625 0 
L 9.8125 0 
z
" id="DejaVuSans-78"/>
       <path d="M 54.890625 33.015625 
L 54.890625 0 
L 45.90625 0 
L 45.90625 32.71875 
Q 45.90625 40.484375 42.875 44.328125 
Q 39.84375 48.1875 33.796875 48.1875 
Q 26.515625 48.1875 22.3125 43.546875 
Q 18.109375 38.921875 18.109375 30.90625 
L 18.109375 0 
L 9.078125 0 
L 9.078125 75.984375 
L 18.109375 75.984375 
L 18.109375 46.1875 
Q 21.34375 51.125 25.703125 53.5625 
Q 30.078125 56 35.796875 56 
Q 45.21875 56 50.046875 50.171875 
Q 54.890625 44.34375 54.890625 33.015625 
z
" id="DejaVuSans-104"/>
       <path d="M 48.6875 27.296875 
Q 48.6875 37.203125 44.609375 42.84375 
Q 40.53125 48.484375 33.40625 48.484375 
Q 26.265625 48.484375 22.1875 42.84375 
Q 18.109375 37.203125 18.109375 27.296875 
Q 18.109375 17.390625 22.1875 11.75 
Q 26.265625 6.109375 33.40625 6.109375 
Q 40.53125 6.109375 44.609375 11.75 
Q 48.6875 17.390625 48.6875 27.296875 
z
M 18.109375 46.390625 
Q 20.953125 51.265625 25.265625 53.625 
Q 29.59375 56 35.59375 56 
Q 45.5625 56 51.78125 48.09375 
Q 58.015625 40.1875 58.015625 27.296875 
Q 58.015625 14.40625 51.78125 6.484375 
Q 45.5625 -1.421875 35.59375 -1.421875 
Q 29.59375 -1.421875 25.265625 0.953125 
Q 20.953125 3.328125 18.109375 8.203125 
L 18.109375 0 
L 9.078125 0 
L 9.078125 75.984375 
L 18.109375 75.984375 
z
" id="DejaVuSans-98"/>
      </defs>
      <use xlink:href="#DejaVuSans-75"/>
      <use x="65.576172" xlink:href="#DejaVuSans-78"/>
      <use x="140.380859" xlink:href="#DejaVuSans-101"/>
      <use x="201.904297" xlink:href="#DejaVuSans-105"/>
      <use x="229.6875" xlink:href="#DejaVuSans-103"/>
      <use x="293.164062" xlink:href="#DejaVuSans-104"/>
      <use x="356.542969" xlink:href="#DejaVuSans-98"/>
      <use x="420.019531" xlink:href="#DejaVuSans-111"/>
      <use x="481.201172" xlink:href="#DejaVuSans-114"/>
      <use x="522.314453" xlink:href="#DejaVuSans-115"/>
      <use x="574.414062" xlink:href="#DejaVuSans-67"/>
      <use x="644.238281" xlink:href="#DejaVuSans-108"/>
      <use x="672.021484" xlink:href="#DejaVuSans-97"/>
      <use x="733.300781" xlink:href="#DejaVuSans-115"/>
      <use x="785.400391" xlink:href="#DejaVuSans-115"/>
      <use x="837.5" xlink:href="#DejaVuSans-105"/>
      <use x="865.283203" xlink:href="#DejaVuSans-102"/>
      <use x="900.488281" xlink:href="#DejaVuSans-105"/>
      <use x="928.271484" xlink:href="#DejaVuSans-101"/>
      <use x="989.794922" xlink:href="#DejaVuSans-114"/>
      <use x="1030.908203" xlink:href="#DejaVuSans-44"/>
      <use x="1062.695312" xlink:href="#DejaVuSans-32"/>
      <use x="1094.482422" xlink:href="#DejaVuSans-102"/>
      <use x="1129.6875" xlink:href="#DejaVuSans-49"/>
      <use x="1193.310547" xlink:href="#DejaVuSans-95"/>
      <use x="1243.310547" xlink:href="#DejaVuSans-115"/>
      <use x="1295.410156" xlink:href="#DejaVuSans-99"/>
      <use x="1350.390625" xlink:href="#DejaVuSans-111"/>
      <use x="1411.572266" xlink:href="#DejaVuSans-114"/>
      <use x="1450.435547" xlink:href="#DejaVuSans-101"/>
      <use x="1511.958984" xlink:href="#DejaVuSans-61"/>
      <use x="1595.748047" xlink:href="#DejaVuSans-48"/>
      <use x="1659.371094" xlink:href="#DejaVuSans-46"/>
      <use x="1691.158203" xlink:href="#DejaVuSans-53"/>
      <use x="1754.78125" xlink:href="#DejaVuSans-56"/>
      <use x="1818.404297" xlink:href="#DejaVuSans-54"/>
      <use x="1882.027344" xlink:href="#DejaVuSans-44"/>
      <use x="1913.814453" xlink:href="#DejaVuSans-32"/>
      <use x="1945.601562" xlink:href="#DejaVuSans-97"/>
      <use x="2006.880859" xlink:href="#DejaVuSans-117"/>
      <use x="2070.259766" xlink:href="#DejaVuSans-112"/>
      <use x="2133.736328" xlink:href="#DejaVuSans-114"/>
      <use x="2172.599609" xlink:href="#DejaVuSans-99"/>
      <use x="2227.580078" xlink:href="#DejaVuSans-61"/>
      <use x="2311.369141" xlink:href="#DejaVuSans-48"/>
      <use x="2374.992188" xlink:href="#DejaVuSans-46"/>
      <use x="2406.779297" xlink:href="#DejaVuSans-54"/>
      <use x="2470.402344" xlink:href="#DejaVuSans-49"/>
      <use x="2534.025391" xlink:href="#DejaVuSans-51"/>
     </g>
    </g>
    <g id="line2d_40">
     <path d="M 514.335 673.3975 
L 546.335 673.3975 
" style="fill:none;stroke:#9467bd;stroke-linecap:square;stroke-width:1.5;"/>
    </g>
    <g id="line2d_41"/>
    <g id="text_29">
     <!-- DecisionTreeClassifier, f1_score=0.495, auprc=0.526 -->
     <g transform="translate(559.135 678.9975)scale(0.16 -0.16)">
      <defs>
       <path d="M 19.671875 64.796875 
L 19.671875 8.109375 
L 31.59375 8.109375 
Q 46.6875 8.109375 53.6875 14.9375 
Q 60.6875 21.78125 60.6875 36.53125 
Q 60.6875 51.171875 53.6875 57.984375 
Q 46.6875 64.796875 31.59375 64.796875 
z
M 9.8125 72.90625 
L 30.078125 72.90625 
Q 51.265625 72.90625 61.171875 64.09375 
Q 71.09375 55.28125 71.09375 36.53125 
Q 71.09375 17.671875 61.125 8.828125 
Q 51.171875 0 30.078125 0 
L 9.8125 0 
z
" id="DejaVuSans-68"/>
       <path d="M -0.296875 72.90625 
L 61.375 72.90625 
L 61.375 64.59375 
L 35.5 64.59375 
L 35.5 0 
L 25.59375 0 
L 25.59375 64.59375 
L -0.296875 64.59375 
z
" id="DejaVuSans-84"/>
      </defs>
      <use xlink:href="#DejaVuSans-68"/>
      <use x="77.001953" xlink:href="#DejaVuSans-101"/>
      <use x="138.525391" xlink:href="#DejaVuSans-99"/>
      <use x="193.505859" xlink:href="#DejaVuSans-105"/>
      <use x="221.289062" xlink:href="#DejaVuSans-115"/>
      <use x="273.388672" xlink:href="#DejaVuSans-105"/>
      <use x="301.171875" xlink:href="#DejaVuSans-111"/>
      <use x="362.353516" xlink:href="#DejaVuSans-110"/>
      <use x="425.732422" xlink:href="#DejaVuSans-84"/>
      <use x="472.066406" xlink:href="#DejaVuSans-114"/>
      <use x="510.929688" xlink:href="#DejaVuSans-101"/>
      <use x="572.453125" xlink:href="#DejaVuSans-101"/>
      <use x="633.976562" xlink:href="#DejaVuSans-67"/>
      <use x="703.800781" xlink:href="#DejaVuSans-108"/>
      <use x="731.583984" xlink:href="#DejaVuSans-97"/>
      <use x="792.863281" xlink:href="#DejaVuSans-115"/>
      <use x="844.962891" xlink:href="#DejaVuSans-115"/>
      <use x="897.0625" xlink:href="#DejaVuSans-105"/>
      <use x="924.845703" xlink:href="#DejaVuSans-102"/>
      <use x="960.050781" xlink:href="#DejaVuSans-105"/>
      <use x="987.833984" xlink:href="#DejaVuSans-101"/>
      <use x="1049.357422" xlink:href="#DejaVuSans-114"/>
      <use x="1090.470703" xlink:href="#DejaVuSans-44"/>
      <use x="1122.257812" xlink:href="#DejaVuSans-32"/>
      <use x="1154.044922" xlink:href="#DejaVuSans-102"/>
      <use x="1189.25" xlink:href="#DejaVuSans-49"/>
      <use x="1252.873047" xlink:href="#DejaVuSans-95"/>
      <use x="1302.873047" xlink:href="#DejaVuSans-115"/>
      <use x="1354.972656" xlink:href="#DejaVuSans-99"/>
      <use x="1409.953125" xlink:href="#DejaVuSans-111"/>
      <use x="1471.134766" xlink:href="#DejaVuSans-114"/>
      <use x="1509.998047" xlink:href="#DejaVuSans-101"/>
      <use x="1571.521484" xlink:href="#DejaVuSans-61"/>
      <use x="1655.310547" xlink:href="#DejaVuSans-48"/>
      <use x="1718.933594" xlink:href="#DejaVuSans-46"/>
      <use x="1750.720703" xlink:href="#DejaVuSans-52"/>
      <use x="1814.34375" xlink:href="#DejaVuSans-57"/>
      <use x="1877.966797" xlink:href="#DejaVuSans-53"/>
      <use x="1941.589844" xlink:href="#DejaVuSans-44"/>
      <use x="1973.376953" xlink:href="#DejaVuSans-32"/>
      <use x="2005.164062" xlink:href="#DejaVuSans-97"/>
      <use x="2066.443359" xlink:href="#DejaVuSans-117"/>
      <use x="2129.822266" xlink:href="#DejaVuSans-112"/>
      <use x="2193.298828" xlink:href="#DejaVuSans-114"/>
      <use x="2232.162109" xlink:href="#DejaVuSans-99"/>
      <use x="2287.142578" xlink:href="#DejaVuSans-61"/>
      <use x="2370.931641" xlink:href="#DejaVuSans-48"/>
      <use x="2434.554688" xlink:href="#DejaVuSans-46"/>
      <use x="2466.341797" xlink:href="#DejaVuSans-53"/>
      <use x="2529.964844" xlink:href="#DejaVuSans-50"/>
      <use x="2593.587891" xlink:href="#DejaVuSans-54"/>
     </g>
    </g>
    <g id="line2d_42">
     <path d="M 514.335 697.3275 
L 546.335 697.3275 
" style="fill:none;stroke:#8c564b;stroke-linecap:square;stroke-width:1.5;"/>
    </g>
    <g id="line2d_43"/>
    <g id="text_30">
     <!-- SVC, f1_score=0.723, auprc=0.830 -->
     <g transform="translate(559.135 702.9275)scale(0.16 -0.16)">
      <defs>
       <path d="M 53.515625 70.515625 
L 53.515625 60.890625 
Q 47.90625 63.578125 42.921875 64.890625 
Q 37.9375 66.21875 33.296875 66.21875 
Q 25.25 66.21875 20.875 63.09375 
Q 16.5 59.96875 16.5 54.203125 
Q 16.5 49.359375 19.40625 46.890625 
Q 22.3125 44.4375 30.421875 42.921875 
L 36.375 41.703125 
Q 47.40625 39.59375 52.65625 34.296875 
Q 57.90625 29 57.90625 20.125 
Q 57.90625 9.515625 50.796875 4.046875 
Q 43.703125 -1.421875 29.984375 -1.421875 
Q 24.8125 -1.421875 18.96875 -0.25 
Q 13.140625 0.921875 6.890625 3.21875 
L 6.890625 13.375 
Q 12.890625 10.015625 18.65625 8.296875 
Q 24.421875 6.59375 29.984375 6.59375 
Q 38.421875 6.59375 43.015625 9.90625 
Q 47.609375 13.234375 47.609375 19.390625 
Q 47.609375 24.75 44.3125 27.78125 
Q 41.015625 30.8125 33.5 32.328125 
L 27.484375 33.5 
Q 16.453125 35.6875 11.515625 40.375 
Q 6.59375 45.0625 6.59375 53.421875 
Q 6.59375 63.09375 13.40625 68.65625 
Q 20.21875 74.21875 32.171875 74.21875 
Q 37.3125 74.21875 42.625 73.28125 
Q 47.953125 72.359375 53.515625 70.515625 
z
" id="DejaVuSans-83"/>
       <path d="M 28.609375 0 
L 0.78125 72.90625 
L 11.078125 72.90625 
L 34.1875 11.53125 
L 57.328125 72.90625 
L 67.578125 72.90625 
L 39.796875 0 
z
" id="DejaVuSans-86"/>
      </defs>
      <use xlink:href="#DejaVuSans-83"/>
      <use x="63.476562" xlink:href="#DejaVuSans-86"/>
      <use x="131.884766" xlink:href="#DejaVuSans-67"/>
      <use x="201.708984" xlink:href="#DejaVuSans-44"/>
      <use x="233.496094" xlink:href="#DejaVuSans-32"/>
      <use x="265.283203" xlink:href="#DejaVuSans-102"/>
      <use x="300.488281" xlink:href="#DejaVuSans-49"/>
      <use x="364.111328" xlink:href="#DejaVuSans-95"/>
      <use x="414.111328" xlink:href="#DejaVuSans-115"/>
      <use x="466.210938" xlink:href="#DejaVuSans-99"/>
      <use x="521.191406" xlink:href="#DejaVuSans-111"/>
      <use x="582.373047" xlink:href="#DejaVuSans-114"/>
      <use x="621.236328" xlink:href="#DejaVuSans-101"/>
      <use x="682.759766" xlink:href="#DejaVuSans-61"/>
      <use x="766.548828" xlink:href="#DejaVuSans-48"/>
      <use x="830.171875" xlink:href="#DejaVuSans-46"/>
      <use x="861.958984" xlink:href="#DejaVuSans-55"/>
      <use x="925.582031" xlink:href="#DejaVuSans-50"/>
      <use x="989.205078" xlink:href="#DejaVuSans-51"/>
      <use x="1052.828125" xlink:href="#DejaVuSans-44"/>
      <use x="1084.615234" xlink:href="#DejaVuSans-32"/>
      <use x="1116.402344" xlink:href="#DejaVuSans-97"/>
      <use x="1177.681641" xlink:href="#DejaVuSans-117"/>
      <use x="1241.060547" xlink:href="#DejaVuSans-112"/>
      <use x="1304.537109" xlink:href="#DejaVuSans-114"/>
      <use x="1343.400391" xlink:href="#DejaVuSans-99"/>
      <use x="1398.380859" xlink:href="#DejaVuSans-61"/>
      <use x="1482.169922" xlink:href="#DejaVuSans-48"/>
      <use x="1545.792969" xlink:href="#DejaVuSans-46"/>
      <use x="1577.580078" xlink:href="#DejaVuSans-56"/>
      <use x="1641.203125" xlink:href="#DejaVuSans-51"/>
      <use x="1704.826172" xlink:href="#DejaVuSans-48"/>
     </g>
    </g>
    <g id="line2d_44">
     <path d="M 514.335 721.2575 
L 546.335 721.2575 
" style="fill:none;stroke:#e377c2;stroke-linecap:square;stroke-width:1.5;"/>
    </g>
    <g id="line2d_45"/>
    <g id="text_31">
     <!-- RandomForestClassifier, f1_score=0.714, auprc=0.750 -->
     <g transform="translate(559.135 726.8575)scale(0.16 -0.16)">
      <defs>
       <path d="M 52 44.1875 
Q 55.375 50.25 60.0625 53.125 
Q 64.75 56 71.09375 56 
Q 79.640625 56 84.28125 50.015625 
Q 88.921875 44.046875 88.921875 33.015625 
L 88.921875 0 
L 79.890625 0 
L 79.890625 32.71875 
Q 79.890625 40.578125 77.09375 44.375 
Q 74.3125 48.1875 68.609375 48.1875 
Q 61.625 48.1875 57.5625 43.546875 
Q 53.515625 38.921875 53.515625 30.90625 
L 53.515625 0 
L 44.484375 0 
L 44.484375 32.71875 
Q 44.484375 40.625 41.703125 44.40625 
Q 38.921875 48.1875 33.109375 48.1875 
Q 26.21875 48.1875 22.15625 43.53125 
Q 18.109375 38.875 18.109375 30.90625 
L 18.109375 0 
L 9.078125 0 
L 9.078125 54.6875 
L 18.109375 54.6875 
L 18.109375 46.1875 
Q 21.1875 51.21875 25.484375 53.609375 
Q 29.78125 56 35.6875 56 
Q 41.65625 56 45.828125 52.96875 
Q 50 49.953125 52 44.1875 
z
" id="DejaVuSans-109"/>
       <path d="M 9.8125 72.90625 
L 51.703125 72.90625 
L 51.703125 64.59375 
L 19.671875 64.59375 
L 19.671875 43.109375 
L 48.578125 43.109375 
L 48.578125 34.8125 
L 19.671875 34.8125 
L 19.671875 0 
L 9.8125 0 
z
" id="DejaVuSans-70"/>
      </defs>
      <use xlink:href="#DejaVuSans-82"/>
      <use x="67.232422" xlink:href="#DejaVuSans-97"/>
      <use x="128.511719" xlink:href="#DejaVuSans-110"/>
      <use x="191.890625" xlink:href="#DejaVuSans-100"/>
      <use x="255.367188" xlink:href="#DejaVuSans-111"/>
      <use x="316.548828" xlink:href="#DejaVuSans-109"/>
      <use x="413.960938" xlink:href="#DejaVuSans-70"/>
      <use x="467.855469" xlink:href="#DejaVuSans-111"/>
      <use x="529.037109" xlink:href="#DejaVuSans-114"/>
      <use x="567.900391" xlink:href="#DejaVuSans-101"/>
      <use x="629.423828" xlink:href="#DejaVuSans-115"/>
      <use x="681.523438" xlink:href="#DejaVuSans-116"/>
      <use x="720.732422" xlink:href="#DejaVuSans-67"/>
      <use x="790.556641" xlink:href="#DejaVuSans-108"/>
      <use x="818.339844" xlink:href="#DejaVuSans-97"/>
      <use x="879.619141" xlink:href="#DejaVuSans-115"/>
      <use x="931.71875" xlink:href="#DejaVuSans-115"/>
      <use x="983.818359" xlink:href="#DejaVuSans-105"/>
      <use x="1011.601562" xlink:href="#DejaVuSans-102"/>
      <use x="1046.806641" xlink:href="#DejaVuSans-105"/>
      <use x="1074.589844" xlink:href="#DejaVuSans-101"/>
      <use x="1136.113281" xlink:href="#DejaVuSans-114"/>
      <use x="1177.226562" xlink:href="#DejaVuSans-44"/>
      <use x="1209.013672" xlink:href="#DejaVuSans-32"/>
      <use x="1240.800781" xlink:href="#DejaVuSans-102"/>
      <use x="1276.005859" xlink:href="#DejaVuSans-49"/>
      <use x="1339.628906" xlink:href="#DejaVuSans-95"/>
      <use x="1389.628906" xlink:href="#DejaVuSans-115"/>
      <use x="1441.728516" xlink:href="#DejaVuSans-99"/>
      <use x="1496.708984" xlink:href="#DejaVuSans-111"/>
      <use x="1557.890625" xlink:href="#DejaVuSans-114"/>
      <use x="1596.753906" xlink:href="#DejaVuSans-101"/>
      <use x="1658.277344" xlink:href="#DejaVuSans-61"/>
      <use x="1742.066406" xlink:href="#DejaVuSans-48"/>
      <use x="1805.689453" xlink:href="#DejaVuSans-46"/>
      <use x="1837.476562" xlink:href="#DejaVuSans-55"/>
      <use x="1901.099609" xlink:href="#DejaVuSans-49"/>
      <use x="1964.722656" xlink:href="#DejaVuSans-52"/>
      <use x="2028.345703" xlink:href="#DejaVuSans-44"/>
      <use x="2060.132812" xlink:href="#DejaVuSans-32"/>
      <use x="2091.919922" xlink:href="#DejaVuSans-97"/>
      <use x="2153.199219" xlink:href="#DejaVuSans-117"/>
      <use x="2216.578125" xlink:href="#DejaVuSans-112"/>
      <use x="2280.054688" xlink:href="#DejaVuSans-114"/>
      <use x="2318.917969" xlink:href="#DejaVuSans-99"/>
      <use x="2373.898438" xlink:href="#DejaVuSans-61"/>
      <use x="2457.6875" xlink:href="#DejaVuSans-48"/>
      <use x="2521.310547" xlink:href="#DejaVuSans-46"/>
      <use x="2553.097656" xlink:href="#DejaVuSans-55"/>
      <use x="2616.720703" xlink:href="#DejaVuSans-53"/>
      <use x="2680.34375" xlink:href="#DejaVuSans-48"/>
     </g>
    </g>
    <g id="line2d_46">
     <path d="M 514.335 745.1875 
L 546.335 745.1875 
" style="fill:none;stroke:#7f7f7f;stroke-linecap:square;stroke-width:1.5;"/>
    </g>
    <g id="line2d_47"/>
    <g id="text_32">
     <!-- LGBMClassifier, f1_score=0.897, auprc=0.965 -->
     <g transform="translate(559.135 750.7875)scale(0.16 -0.16)">
      <defs>
       <path d="M 9.8125 72.90625 
L 24.515625 72.90625 
L 43.109375 23.296875 
L 61.8125 72.90625 
L 76.515625 72.90625 
L 76.515625 0 
L 66.890625 0 
L 66.890625 64.015625 
L 48.09375 14.015625 
L 38.1875 14.015625 
L 19.390625 64.015625 
L 19.390625 0 
L 9.8125 0 
z
" id="DejaVuSans-77"/>
      </defs>
      <use xlink:href="#DejaVuSans-76"/>
      <use x="55.712891" xlink:href="#DejaVuSans-71"/>
      <use x="133.203125" xlink:href="#DejaVuSans-66"/>
      <use x="201.806641" xlink:href="#DejaVuSans-77"/>
      <use x="288.085938" xlink:href="#DejaVuSans-67"/>
      <use x="357.910156" xlink:href="#DejaVuSans-108"/>
      <use x="385.693359" xlink:href="#DejaVuSans-97"/>
      <use x="446.972656" xlink:href="#DejaVuSans-115"/>
      <use x="499.072266" xlink:href="#DejaVuSans-115"/>
      <use x="551.171875" xlink:href="#DejaVuSans-105"/>
      <use x="578.955078" xlink:href="#DejaVuSans-102"/>
      <use x="614.160156" xlink:href="#DejaVuSans-105"/>
      <use x="641.943359" xlink:href="#DejaVuSans-101"/>
      <use x="703.466797" xlink:href="#DejaVuSans-114"/>
      <use x="744.580078" xlink:href="#DejaVuSans-44"/>
      <use x="776.367188" xlink:href="#DejaVuSans-32"/>
      <use x="808.154297" xlink:href="#DejaVuSans-102"/>
      <use x="843.359375" xlink:href="#DejaVuSans-49"/>
      <use x="906.982422" xlink:href="#DejaVuSans-95"/>
      <use x="956.982422" xlink:href="#DejaVuSans-115"/>
      <use x="1009.082031" xlink:href="#DejaVuSans-99"/>
      <use x="1064.0625" xlink:href="#DejaVuSans-111"/>
      <use x="1125.244141" xlink:href="#DejaVuSans-114"/>
      <use x="1164.107422" xlink:href="#DejaVuSans-101"/>
      <use x="1225.630859" xlink:href="#DejaVuSans-61"/>
      <use x="1309.419922" xlink:href="#DejaVuSans-48"/>
      <use x="1373.042969" xlink:href="#DejaVuSans-46"/>
      <use x="1404.830078" xlink:href="#DejaVuSans-56"/>
      <use x="1468.453125" xlink:href="#DejaVuSans-57"/>
      <use x="1532.076172" xlink:href="#DejaVuSans-55"/>
      <use x="1595.699219" xlink:href="#DejaVuSans-44"/>
      <use x="1627.486328" xlink:href="#DejaVuSans-32"/>
      <use x="1659.273438" xlink:href="#DejaVuSans-97"/>
      <use x="1720.552734" xlink:href="#DejaVuSans-117"/>
      <use x="1783.931641" xlink:href="#DejaVuSans-112"/>
      <use x="1847.408203" xlink:href="#DejaVuSans-114"/>
      <use x="1886.271484" xlink:href="#DejaVuSans-99"/>
      <use x="1941.251953" xlink:href="#DejaVuSans-61"/>
      <use x="2025.041016" xlink:href="#DejaVuSans-48"/>
      <use x="2088.664062" xlink:href="#DejaVuSans-46"/>
      <use x="2120.451172" xlink:href="#DejaVuSans-57"/>
      <use x="2184.074219" xlink:href="#DejaVuSans-54"/>
      <use x="2247.697266" xlink:href="#DejaVuSans-53"/>
     </g>
    </g>
   </g>
  </g>
 </g>
 <defs>
  <clipPath id="p97ccd189f0">
   <rect height="665.28" width="892.8" x="144" y="103.68"/>
  </clipPath>
 </defs>
</svg>
