<?xml version="1.0" encoding="UTF-8" standalone="no"?>
<!DOCTYPE svg PUBLIC "-//W3C//DTD SVG 1.1//EN"
 "http://www.w3.org/Graphics/SVG/1.1/DTD/svg11.dtd">
<!-- Generated by graphviz version 2.44.0 (20200408.0750)
 -->
<!-- Pages: 1 -->
<svg width="602pt" height="404pt"
 viewBox="0.00 0.00 602.00 404.00" xmlns="http://www.w3.org/2000/svg" xmlns:xlink="http://www.w3.org/1999/xlink">
<g id="graph0" class="graph" transform="scale(1 1) rotate(0) translate(4 400)">
<polygon fill="white" stroke="transparent" points="-4,4 -4,-400 598,-400 598,4 -4,4"/>
<!-- 0 -->
<g id="node1" class="node">
<title>0</title>
<ellipse fill="none" stroke="black" cx="279" cy="-378" rx="27" ry="18"/>
<text text-anchor="middle" x="279" y="-373.8" font-family="Times,serif" font-size="14.00">ne</text>
</g>
<!-- 1 -->
<g id="node2" class="node">
<title>1</title>
<ellipse fill="none" stroke="black" cx="225" cy="-306" rx="27" ry="18"/>
<text text-anchor="middle" x="225" y="-301.8" font-family="Times,serif" font-size="14.00">le</text>
</g>
<!-- 0&#45;&#45;1 -->
<g id="edge1" class="edge">
<title>0&#45;&#45;1</title>
<path fill="none" stroke="black" d="M267.02,-361.46C258.07,-349.86 245.89,-334.08 236.95,-322.49"/>
</g>
<!-- 8 -->
<g id="node3" class="node">
<title>8</title>
<ellipse fill="none" stroke="black" cx="333" cy="-306" rx="27" ry="18"/>
<text text-anchor="middle" x="333" y="-301.8" font-family="Times,serif" font-size="14.00">sub</text>
</g>
<!-- 0&#45;&#45;8 -->
<g id="edge2" class="edge">
<title>0&#45;&#45;8</title>
<path fill="none" stroke="black" d="M290.98,-361.46C299.93,-349.86 312.11,-334.08 321.05,-322.49"/>
</g>
<!-- 2 -->
<g id="node4" class="node">
<title>2</title>
<ellipse fill="none" stroke="black" cx="99" cy="-234" rx="41.13" ry="18"/>
<text text-anchor="middle" x="99" y="-229.8" font-family="Times,serif" font-size="14.00">safeDiv</text>
</g>
<!-- 1&#45;&#45;2 -->
<g id="edge3" class="edge">
<title>1&#45;&#45;2</title>
<path fill="none" stroke="black" d="M204.76,-293.75C181.24,-280.69 142.69,-259.27 119.19,-246.22"/>
</g>
<!-- 5 -->
<g id="node5" class="node">
<title>5</title>
<ellipse fill="none" stroke="black" cx="225" cy="-234" rx="27" ry="18"/>
<text text-anchor="middle" x="225" y="-229.8" font-family="Times,serif" font-size="14.00">ge</text>
</g>
<!-- 1&#45;&#45;5 -->
<g id="edge4" class="edge">
<title>1&#45;&#45;5</title>
<path fill="none" stroke="black" d="M225,-287.7C225,-276.85 225,-262.92 225,-252.1"/>
</g>
<!-- 9 -->
<g id="node6" class="node">
<title>9</title>
<ellipse fill="none" stroke="black" cx="333" cy="-234" rx="27" ry="18"/>
<text text-anchor="middle" x="333" y="-229.8" font-family="Times,serif" font-size="14.00">ne</text>
</g>
<!-- 8&#45;&#45;9 -->
<g id="edge5" class="edge">
<title>8&#45;&#45;9</title>
<path fill="none" stroke="black" d="M333,-287.7C333,-276.85 333,-262.92 333,-252.1"/>
</g>
<!-- 12 -->
<g id="node7" class="node">
<title>12</title>
<ellipse fill="none" stroke="black" cx="459" cy="-234" rx="27.83" ry="18"/>
<text text-anchor="middle" x="459" y="-229.8" font-family="Times,serif" font-size="14.00">max</text>
</g>
<!-- 8&#45;&#45;12 -->
<g id="edge6" class="edge">
<title>8&#45;&#45;12</title>
<path fill="none" stroke="black" d="M353.24,-293.75C376.76,-280.69 415.31,-259.27 438.81,-246.22"/>
</g>
<!-- 3 -->
<g id="node8" class="node">
<title>3</title>
<ellipse fill="none" stroke="black" cx="27" cy="-162" rx="27" ry="18"/>
<text text-anchor="middle" x="27" y="-157.8" font-family="Times,serif" font-size="14.00">X2</text>
</g>
<!-- 2&#45;&#45;3 -->
<g id="edge7" class="edge">
<title>2&#45;&#45;3</title>
<path fill="none" stroke="black" d="M84.43,-218.83C72.02,-206.77 54.27,-189.51 41.8,-177.38"/>
</g>
<!-- 4 -->
<g id="node9" class="node">
<title>4</title>
<ellipse fill="none" stroke="black" cx="99" cy="-162" rx="27" ry="18"/>
<text text-anchor="middle" x="99" y="-157.8" font-family="Times,serif" font-size="14.00">X5</text>
</g>
<!-- 2&#45;&#45;4 -->
<g id="edge8" class="edge">
<title>2&#45;&#45;4</title>
<path fill="none" stroke="black" d="M99,-215.7C99,-204.85 99,-190.92 99,-180.1"/>
</g>
<!-- 6 -->
<g id="node10" class="node">
<title>6</title>
<ellipse fill="none" stroke="black" cx="171" cy="-162" rx="27" ry="18"/>
<text text-anchor="middle" x="171" y="-157.8" font-family="Times,serif" font-size="14.00">0.0</text>
</g>
<!-- 5&#45;&#45;6 -->
<g id="edge9" class="edge">
<title>5&#45;&#45;6</title>
<path fill="none" stroke="black" d="M213.02,-217.46C204.07,-205.86 191.89,-190.08 182.95,-178.49"/>
</g>
<!-- 7 -->
<g id="node11" class="node">
<title>7</title>
<ellipse fill="none" stroke="black" cx="243" cy="-162" rx="27" ry="18"/>
<text text-anchor="middle" x="243" y="-157.8" font-family="Times,serif" font-size="14.00">X4</text>
</g>
<!-- 5&#45;&#45;7 -->
<g id="edge10" class="edge">
<title>5&#45;&#45;7</title>
<path fill="none" stroke="black" d="M229.36,-216.05C232.19,-205.05 235.86,-190.76 238.68,-179.79"/>
</g>
<!-- 10 -->
<g id="node12" class="node">
<title>10</title>
<ellipse fill="none" stroke="black" cx="315" cy="-162" rx="27" ry="18"/>
<text text-anchor="middle" x="315" y="-157.8" font-family="Times,serif" font-size="14.00">X5</text>
</g>
<!-- 9&#45;&#45;10 -->
<g id="edge11" class="edge">
<title>9&#45;&#45;10</title>
<path fill="none" stroke="black" d="M328.64,-216.05C325.81,-205.05 322.14,-190.76 319.32,-179.79"/>
</g>
<!-- 11 -->
<g id="node13" class="node">
<title>11</title>
<ellipse fill="none" stroke="black" cx="387" cy="-162" rx="37.69" ry="18"/>
<text text-anchor="middle" x="387" y="-157.8" font-family="Times,serif" font-size="14.00">12.661</text>
</g>
<!-- 9&#45;&#45;11 -->
<g id="edge12" class="edge">
<title>9&#45;&#45;11</title>
<path fill="none" stroke="black" d="M344.98,-217.46C353.93,-205.86 366.11,-190.08 375.05,-178.49"/>
</g>
<!-- 13 -->
<g id="node14" class="node">
<title>13</title>
<ellipse fill="none" stroke="black" cx="459" cy="-162" rx="27" ry="18"/>
<text text-anchor="middle" x="459" y="-157.8" font-family="Times,serif" font-size="14.00">ge</text>
</g>
<!-- 12&#45;&#45;13 -->
<g id="edge13" class="edge">
<title>12&#45;&#45;13</title>
<path fill="none" stroke="black" d="M459,-215.7C459,-204.85 459,-190.92 459,-180.1"/>
</g>
<!-- 20 -->
<g id="node15" class="node">
<title>20</title>
<ellipse fill="none" stroke="black" cx="531" cy="-162" rx="27" ry="18"/>
<text text-anchor="middle" x="531" y="-157.8" font-family="Times,serif" font-size="14.00">X7</text>
</g>
<!-- 12&#45;&#45;20 -->
<g id="edge14" class="edge">
<title>12&#45;&#45;20</title>
<path fill="none" stroke="black" d="M473.57,-218.83C485.98,-206.77 503.73,-189.51 516.2,-177.38"/>
</g>
<!-- 14 -->
<g id="node16" class="node">
<title>14</title>
<ellipse fill="none" stroke="black" cx="423" cy="-90" rx="27.83" ry="18"/>
<text text-anchor="middle" x="423" y="-85.8" font-family="Times,serif" font-size="14.00">max</text>
</g>
<!-- 13&#45;&#45;14 -->
<g id="edge15" class="edge">
<title>13&#45;&#45;14</title>
<path fill="none" stroke="black" d="M450.65,-144.76C444.83,-133.46 437.11,-118.44 431.3,-107.15"/>
</g>
<!-- 17 -->
<g id="node17" class="node">
<title>17</title>
<ellipse fill="none" stroke="black" cx="495" cy="-90" rx="27" ry="18"/>
<text text-anchor="middle" x="495" y="-85.8" font-family="Times,serif" font-size="14.00">min</text>
</g>
<!-- 13&#45;&#45;17 -->
<g id="edge16" class="edge">
<title>13&#45;&#45;17</title>
<path fill="none" stroke="black" d="M467.35,-144.76C473.17,-133.46 480.89,-118.44 486.7,-107.15"/>
</g>
<!-- 15 -->
<g id="node18" class="node">
<title>15</title>
<ellipse fill="none" stroke="black" cx="351" cy="-18" rx="27" ry="18"/>
<text text-anchor="middle" x="351" y="-13.8" font-family="Times,serif" font-size="14.00">X3</text>
</g>
<!-- 14&#45;&#45;15 -->
<g id="edge17" class="edge">
<title>14&#45;&#45;15</title>
<path fill="none" stroke="black" d="M408.43,-74.83C396.02,-62.77 378.27,-45.51 365.8,-33.38"/>
</g>
<!-- 16 -->
<g id="node19" class="node">
<title>16</title>
<ellipse fill="none" stroke="black" cx="423" cy="-18" rx="27" ry="18"/>
<text text-anchor="middle" x="423" y="-13.8" font-family="Times,serif" font-size="14.00">X5</text>
</g>
<!-- 14&#45;&#45;16 -->
<g id="edge18" class="edge">
<title>14&#45;&#45;16</title>
<path fill="none" stroke="black" d="M423,-71.7C423,-60.85 423,-46.92 423,-36.1"/>
</g>
<!-- 18 -->
<g id="node20" class="node">
<title>18</title>
<ellipse fill="none" stroke="black" cx="495" cy="-18" rx="27" ry="18"/>
<text text-anchor="middle" x="495" y="-13.8" font-family="Times,serif" font-size="14.00">X5</text>
</g>
<!-- 17&#45;&#45;18 -->
<g id="edge19" class="edge">
<title>17&#45;&#45;18</title>
<path fill="none" stroke="black" d="M495,-71.7C495,-60.85 495,-46.92 495,-36.1"/>
</g>
<!-- 19 -->
<g id="node21" class="node">
<title>19</title>
<ellipse fill="none" stroke="black" cx="567" cy="-18" rx="27" ry="18"/>
<text text-anchor="middle" x="567" y="-13.8" font-family="Times,serif" font-size="14.00">X9</text>
</g>
<!-- 17&#45;&#45;19 -->
<g id="edge20" class="edge">
<title>17&#45;&#45;19</title>
<path fill="none" stroke="black" d="M509.57,-74.83C521.98,-62.77 539.73,-45.51 552.2,-33.38"/>
</g>
</g>
</svg>
