<?xml version="1.0" encoding="UTF-8" standalone="no"?>
<!DOCTYPE svg PUBLIC "-//W3C//DTD SVG 1.1//EN"
 "http://www.w3.org/Graphics/SVG/1.1/DTD/svg11.dtd">
<!-- Generated by graphviz version 2.40.1 (20161225.0304)
 -->
<!-- Pages: 1 -->
<svg width="602pt" height="404pt"
 viewBox="0.00 0.00 602.00 404.00" xmlns="http://www.w3.org/2000/svg" xmlns:xlink="http://www.w3.org/1999/xlink">
<g id="graph0" class="graph" transform="scale(1 1) rotate(0) translate(4 400)">
<polygon fill="#ffffff" stroke="transparent" points="-4,4 -4,-400 598,-400 598,4 -4,4"/>
<!-- 0 -->
<g id="node1" class="node">
<title>0</title>
<ellipse fill="none" stroke="#000000" cx="279" cy="-378" rx="27" ry="18"/>
<text text-anchor="middle" x="279" y="-373.8" font-family="Times,serif" font-size="14.00" fill="#000000">ne</text>
</g>
<!-- 1 -->
<g id="node2" class="node">
<title>1</title>
<ellipse fill="none" stroke="#000000" cx="225" cy="-306" rx="27" ry="18"/>
<text text-anchor="middle" x="225" y="-301.8" font-family="Times,serif" font-size="14.00" fill="#000000">le</text>
</g>
<!-- 0&#45;&#45;1 -->
<g id="edge1" class="edge">
<title>0&#45;&#45;1</title>
<path fill="none" stroke="#000000" d="M266.75,-361.66C257.91,-349.88 246.03,-334.04 237.2,-322.27"/>
</g>
<!-- 8 -->
<g id="node3" class="node">
<title>8</title>
<ellipse fill="none" stroke="#000000" cx="333" cy="-306" rx="27" ry="18"/>
<text text-anchor="middle" x="333" y="-301.8" font-family="Times,serif" font-size="14.00" fill="#000000">sub</text>
</g>
<!-- 0&#45;&#45;8 -->
<g id="edge2" class="edge">
<title>0&#45;&#45;8</title>
<path fill="none" stroke="#000000" d="M291.25,-361.66C300.09,-349.88 311.97,-334.04 320.8,-322.27"/>
</g>
<!-- 2 -->
<g id="node4" class="node">
<title>2</title>
<ellipse fill="none" stroke="#000000" cx="99" cy="-234" rx="41.1277" ry="18"/>
<text text-anchor="middle" x="99" y="-229.8" font-family="Times,serif" font-size="14.00" fill="#000000">safeDiv</text>
</g>
<!-- 1&#45;&#45;2 -->
<g id="edge3" class="edge">
<title>1&#45;&#45;2</title>
<path fill="none" stroke="#000000" d="M204.48,-294.27C181.05,-280.88 142.94,-259.11 119.52,-245.72"/>
</g>
<!-- 5 -->
<g id="node5" class="node">
<title>5</title>
<ellipse fill="none" stroke="#000000" cx="225" cy="-234" rx="27" ry="18"/>
<text text-anchor="middle" x="225" y="-229.8" font-family="Times,serif" font-size="14.00" fill="#000000">ge</text>
</g>
<!-- 1&#45;&#45;5 -->
<g id="edge4" class="edge">
<title>1&#45;&#45;5</title>
<path fill="none" stroke="#000000" d="M225,-287.83C225,-277 225,-263.29 225,-252.41"/>
</g>
<!-- 9 -->
<g id="node6" class="node">
<title>9</title>
<ellipse fill="none" stroke="#000000" cx="333" cy="-234" rx="27" ry="18"/>
<text text-anchor="middle" x="333" y="-229.8" font-family="Times,serif" font-size="14.00" fill="#000000">ne</text>
</g>
<!-- 8&#45;&#45;9 -->
<g id="edge5" class="edge">
<title>8&#45;&#45;9</title>
<path fill="none" stroke="#000000" d="M333,-287.83C333,-277 333,-263.29 333,-252.41"/>
</g>
<!-- 12 -->
<g id="node7" class="node">
<title>12</title>
<ellipse fill="none" stroke="#000000" cx="459" cy="-234" rx="27.8286" ry="18"/>
<text text-anchor="middle" x="459" y="-229.8" font-family="Times,serif" font-size="14.00" fill="#000000">max</text>
</g>
<!-- 8&#45;&#45;12 -->
<g id="edge6" class="edge">
<title>8&#45;&#45;12</title>
<path fill="none" stroke="#000000" d="M353.52,-294.27C376.95,-280.88 415.06,-259.11 438.48,-245.72"/>
</g>
<!-- 3 -->
<g id="node8" class="node">
<title>3</title>
<ellipse fill="none" stroke="#000000" cx="27" cy="-162" rx="27" ry="18"/>
<text text-anchor="middle" x="27" y="-157.8" font-family="Times,serif" font-size="14.00" fill="#000000">X2</text>
</g>
<!-- 2&#45;&#45;3 -->
<g id="edge7" class="edge">
<title>2&#45;&#45;3</title>
<path fill="none" stroke="#000000" d="M83.731,-218.73C71.512,-206.51 54.46,-189.46 42.247,-177.25"/>
</g>
<!-- 4 -->
<g id="node9" class="node">
<title>4</title>
<ellipse fill="none" stroke="#000000" cx="99" cy="-162" rx="27" ry="18"/>
<text text-anchor="middle" x="99" y="-157.8" font-family="Times,serif" font-size="14.00" fill="#000000">X5</text>
</g>
<!-- 2&#45;&#45;4 -->
<g id="edge8" class="edge">
<title>2&#45;&#45;4</title>
<path fill="none" stroke="#000000" d="M99,-215.83C99,-205 99,-191.29 99,-180.41"/>
</g>
<!-- 6 -->
<g id="node10" class="node">
<title>6</title>
<ellipse fill="none" stroke="#000000" cx="171" cy="-162" rx="27" ry="18"/>
<text text-anchor="middle" x="171" y="-157.8" font-family="Times,serif" font-size="14.00" fill="#000000">0.0</text>
</g>
<!-- 5&#45;&#45;6 -->
<g id="edge9" class="edge">
<title>5&#45;&#45;6</title>
<path fill="none" stroke="#000000" d="M212.75,-217.66C203.91,-205.88 192.03,-190.04 183.2,-178.27"/>
</g>
<!-- 7 -->
<g id="node11" class="node">
<title>7</title>
<ellipse fill="none" stroke="#000000" cx="243" cy="-162" rx="27" ry="18"/>
<text text-anchor="middle" x="243" y="-157.8" font-family="Times,serif" font-size="14.00" fill="#000000">X4</text>
</g>
<!-- 5&#45;&#45;7 -->
<g id="edge10" class="edge">
<title>5&#45;&#45;7</title>
<path fill="none" stroke="#000000" d="M229.45,-216.2C232.22,-205.13 235.77,-190.93 238.54,-179.84"/>
</g>
<!-- 10 -->
<g id="node12" class="node">
<title>10</title>
<ellipse fill="none" stroke="#000000" cx="315" cy="-162" rx="27" ry="18"/>
<text text-anchor="middle" x="315" y="-157.8" font-family="Times,serif" font-size="14.00" fill="#000000">X5</text>
</g>
<!-- 9&#45;&#45;10 -->
<g id="edge11" class="edge">
<title>9&#45;&#45;10</title>
<path fill="none" stroke="#000000" d="M328.55,-216.2C325.78,-205.13 322.23,-190.93 319.46,-179.84"/>
</g>
<!-- 11 -->
<g id="node13" class="node">
<title>11</title>
<ellipse fill="none" stroke="#000000" cx="387" cy="-162" rx="37.6864" ry="18"/>
<text text-anchor="middle" x="387" y="-157.8" font-family="Times,serif" font-size="14.00" fill="#000000">12.661</text>
</g>
<!-- 9&#45;&#45;11 -->
<g id="edge12" class="edge">
<title>9&#45;&#45;11</title>
<path fill="none" stroke="#000000" d="M345.25,-217.66C354.09,-205.88 365.97,-190.04 374.8,-178.27"/>
</g>
<!-- 13 -->
<g id="node14" class="node">
<title>13</title>
<ellipse fill="none" stroke="#000000" cx="459" cy="-162" rx="27" ry="18"/>
<text text-anchor="middle" x="459" y="-157.8" font-family="Times,serif" font-size="14.00" fill="#000000">ge</text>
</g>
<!-- 12&#45;&#45;13 -->
<g id="edge13" class="edge">
<title>12&#45;&#45;13</title>
<path fill="none" stroke="#000000" d="M459,-215.83C459,-205 459,-191.29 459,-180.41"/>
</g>
<!-- 20 -->
<g id="node15" class="node">
<title>20</title>
<ellipse fill="none" stroke="#000000" cx="531" cy="-162" rx="27" ry="18"/>
<text text-anchor="middle" x="531" y="-157.8" font-family="Times,serif" font-size="14.00" fill="#000000">X7</text>
</g>
<!-- 12&#45;&#45;20 -->
<g id="edge14" class="edge">
<title>12&#45;&#45;20</title>
<path fill="none" stroke="#000000" d="M474.27,-218.73C486.49,-206.51 503.54,-189.46 515.75,-177.25"/>
</g>
<!-- 14 -->
<g id="node16" class="node">
<title>14</title>
<ellipse fill="none" stroke="#000000" cx="423" cy="-90" rx="27.8286" ry="18"/>
<text text-anchor="middle" x="423" y="-85.8" font-family="Times,serif" font-size="14.00" fill="#000000">max</text>
</g>
<!-- 13&#45;&#45;14 -->
<g id="edge15" class="edge">
<title>13&#45;&#45;14</title>
<path fill="none" stroke="#000000" d="M450.29,-144.57C444.63,-133.25 437.28,-118.56 431.63,-107.27"/>
</g>
<!-- 17 -->
<g id="node17" class="node">
<title>17</title>
<ellipse fill="none" stroke="#000000" cx="495" cy="-90" rx="27" ry="18"/>
<text text-anchor="middle" x="495" y="-85.8" font-family="Times,serif" font-size="14.00" fill="#000000">min</text>
</g>
<!-- 13&#45;&#45;17 -->
<g id="edge16" class="edge">
<title>13&#45;&#45;17</title>
<path fill="none" stroke="#000000" d="M467.71,-144.57C473.37,-133.25 480.72,-118.56 486.37,-107.27"/>
</g>
<!-- 15 -->
<g id="node18" class="node">
<title>15</title>
<ellipse fill="none" stroke="#000000" cx="351" cy="-18" rx="27" ry="18"/>
<text text-anchor="middle" x="351" y="-13.8" font-family="Times,serif" font-size="14.00" fill="#000000">X3</text>
</g>
<!-- 14&#45;&#45;15 -->
<g id="edge17" class="edge">
<title>14&#45;&#45;15</title>
<path fill="none" stroke="#000000" d="M407.73,-74.731C395.51,-62.512 378.46,-45.46 366.25,-33.247"/>
</g>
<!-- 16 -->
<g id="node19" class="node">
<title>16</title>
<ellipse fill="none" stroke="#000000" cx="423" cy="-18" rx="27" ry="18"/>
<text text-anchor="middle" x="423" y="-13.8" font-family="Times,serif" font-size="14.00" fill="#000000">X5</text>
</g>
<!-- 14&#45;&#45;16 -->
<g id="edge18" class="edge">
<title>14&#45;&#45;16</title>
<path fill="none" stroke="#000000" d="M423,-71.831C423,-61 423,-47.288 423,-36.413"/>
</g>
<!-- 18 -->
<g id="node20" class="node">
<title>18</title>
<ellipse fill="none" stroke="#000000" cx="495" cy="-18" rx="27" ry="18"/>
<text text-anchor="middle" x="495" y="-13.8" font-family="Times,serif" font-size="14.00" fill="#000000">X5</text>
</g>
<!-- 17&#45;&#45;18 -->
<g id="edge19" class="edge">
<title>17&#45;&#45;18</title>
<path fill="none" stroke="#000000" d="M495,-71.831C495,-61 495,-47.288 495,-36.413"/>
</g>
<!-- 19 -->
<g id="node21" class="node">
<title>19</title>
<ellipse fill="none" stroke="#000000" cx="567" cy="-18" rx="27" ry="18"/>
<text text-anchor="middle" x="567" y="-13.8" font-family="Times,serif" font-size="14.00" fill="#000000">X9</text>
</g>
<!-- 17&#45;&#45;19 -->
<g id="edge20" class="edge">
<title>17&#45;&#45;19</title>
<path fill="none" stroke="#000000" d="M510.27,-74.731C522.49,-62.512 539.54,-45.46 551.75,-33.247"/>
</g>
</g>
</svg>
