<?xml version="1.0" encoding="UTF-8" standalone="no"?>
<!DOCTYPE svg PUBLIC "-//W3C//DTD SVG 1.1//EN"
 "http://www.w3.org/Graphics/SVG/1.1/DTD/svg11.dtd">
<!-- Generated by graphviz version 2.40.1 (20161225.0304)
 -->
<!-- Pages: 1 -->
<svg width="289pt" height="188pt"
 viewBox="0.00 0.00 288.59 188.00" xmlns="http://www.w3.org/2000/svg" xmlns:xlink="http://www.w3.org/1999/xlink">
<g id="graph0" class="graph" transform="scale(1 1) rotate(0) translate(4 184)">
<polygon fill="#ffffff" stroke="transparent" points="-4,4 -4,-184 284.5931,-184 284.5931,4 -4,4"/>
<!-- 0 -->
<g id="node1" class="node">
<title>0</title>
<ellipse fill="none" stroke="#000000" cx="145.5931" cy="-162" rx="41.1277" ry="18"/>
<text text-anchor="middle" x="145.5931" y="-157.8" font-family="Times,serif" font-size="14.00" fill="#000000">safeDiv</text>
</g>
<!-- 1 -->
<g id="node2" class="node">
<title>1</title>
<ellipse fill="none" stroke="#000000" cx="109.5931" cy="-90" rx="27" ry="18"/>
<text text-anchor="middle" x="109.5931" y="-85.8" font-family="Times,serif" font-size="14.00" fill="#000000">min</text>
</g>
<!-- 0&#45;&#45;1 -->
<g id="edge1" class="edge">
<title>0&#45;&#45;1</title>
<path fill="none" stroke="#000000" d="M136.8831,-144.57C131.2231,-133.25 123.8731,-118.56 118.2231,-107.27"/>
</g>
<!-- 4 -->
<g id="node3" class="node">
<title>4</title>
<ellipse fill="none" stroke="#000000" cx="181.5931" cy="-90" rx="27" ry="18"/>
<text text-anchor="middle" x="181.5931" y="-85.8" font-family="Times,serif" font-size="14.00" fill="#000000">mul</text>
</g>
<!-- 0&#45;&#45;4 -->
<g id="edge2" class="edge">
<title>0&#45;&#45;4</title>
<path fill="none" stroke="#000000" d="M154.3031,-144.57C159.9631,-133.25 167.3131,-118.56 172.9631,-107.27"/>
</g>
<!-- 2 -->
<g id="node4" class="node">
<title>2</title>
<ellipse fill="none" stroke="#000000" cx="37.5931" cy="-18" rx="37.6864" ry="18"/>
<text text-anchor="middle" x="37.5931" y="-13.8" font-family="Times,serif" font-size="14.00" fill="#000000">58.897</text>
</g>
<!-- 1&#45;&#45;2 -->
<g id="edge3" class="edge">
<title>1&#45;&#45;2</title>
<path fill="none" stroke="#000000" d="M94.3241,-74.731C82.1051,-62.512 65.0531,-45.46 52.8401,-33.247"/>
</g>
<!-- 3 -->
<g id="node5" class="node">
<title>3</title>
<ellipse fill="none" stroke="#000000" cx="109.5931" cy="-18" rx="27" ry="18"/>
<text text-anchor="middle" x="109.5931" y="-13.8" font-family="Times,serif" font-size="14.00" fill="#000000">X2</text>
</g>
<!-- 1&#45;&#45;3 -->
<g id="edge4" class="edge">
<title>1&#45;&#45;3</title>
<path fill="none" stroke="#000000" d="M109.5931,-71.831C109.5931,-61 109.5931,-47.288 109.5931,-36.413"/>
</g>
<!-- 5 -->
<g id="node6" class="node">
<title>5</title>
<ellipse fill="none" stroke="#000000" cx="181.5931" cy="-18" rx="27" ry="18"/>
<text text-anchor="middle" x="181.5931" y="-13.8" font-family="Times,serif" font-size="14.00" fill="#000000">X7</text>
</g>
<!-- 4&#45;&#45;5 -->
<g id="edge5" class="edge">
<title>4&#45;&#45;5</title>
<path fill="none" stroke="#000000" d="M181.5931,-71.831C181.5931,-61 181.5931,-47.288 181.5931,-36.413"/>
</g>
<!-- 6 -->
<g id="node7" class="node">
<title>6</title>
<ellipse fill="none" stroke="#000000" cx="253.5931" cy="-18" rx="27" ry="18"/>
<text text-anchor="middle" x="253.5931" y="-13.8" font-family="Times,serif" font-size="14.00" fill="#000000">X9</text>
</g>
<!-- 4&#45;&#45;6 -->
<g id="edge6" class="edge">
<title>4&#45;&#45;6</title>
<path fill="none" stroke="#000000" d="M196.8631,-74.731C209.0831,-62.512 226.1331,-45.46 238.3431,-33.247"/>
</g>
</g>
</svg>
