<?xml version="1.0" encoding="UTF-8" standalone="no"?>
<!DOCTYPE svg PUBLIC "-//W3C//DTD SVG 1.1//EN"
 "http://www.w3.org/Graphics/SVG/1.1/DTD/svg11.dtd">
<!-- Generated by graphviz version 2.44.0 (20200408.0750)
 -->
<!-- Pages: 1 -->
<svg width="350pt" height="332pt"
 viewBox="0.00 0.00 350.00 332.00" xmlns="http://www.w3.org/2000/svg" xmlns:xlink="http://www.w3.org/1999/xlink">
<g id="graph0" class="graph" transform="scale(1 1) rotate(0) translate(4 328)">
<polygon fill="white" stroke="transparent" points="-4,4 -4,-328 346,-328 346,4 -4,4"/>
<!-- 0 -->
<g id="node1" class="node">
<title>0</title>
<ellipse fill="none" stroke="black" cx="135" cy="-306" rx="41.13" ry="18"/>
<text text-anchor="middle" x="135" y="-301.8" font-family="Times,serif" font-size="14.00">safeDiv</text>
</g>
<!-- 1 -->
<g id="node2" class="node">
<title>1</title>
<ellipse fill="none" stroke="black" cx="99" cy="-234" rx="27" ry="18"/>
<text text-anchor="middle" x="99" y="-229.8" font-family="Times,serif" font-size="14.00">add</text>
</g>
<!-- 0&#45;&#45;1 -->
<g id="edge1" class="edge">
<title>0&#45;&#45;1</title>
<path fill="none" stroke="black" d="M126.65,-288.76C120.83,-277.46 113.11,-262.44 107.3,-251.15"/>
</g>
<!-- 6 -->
<g id="node3" class="node">
<title>6</title>
<ellipse fill="none" stroke="black" cx="171" cy="-234" rx="41.13" ry="18"/>
<text text-anchor="middle" x="171" y="-229.8" font-family="Times,serif" font-size="14.00">safeDiv</text>
</g>
<!-- 0&#45;&#45;6 -->
<g id="edge2" class="edge">
<title>0&#45;&#45;6</title>
<path fill="none" stroke="black" d="M143.35,-288.76C149.17,-277.46 156.89,-262.44 162.7,-251.15"/>
</g>
<!-- 2 -->
<g id="node4" class="node">
<title>2</title>
<ellipse fill="none" stroke="black" cx="27" cy="-162" rx="27" ry="18"/>
<text text-anchor="middle" x="27" y="-157.8" font-family="Times,serif" font-size="14.00">X3</text>
</g>
<!-- 1&#45;&#45;2 -->
<g id="edge3" class="edge">
<title>1&#45;&#45;2</title>
<path fill="none" stroke="black" d="M84.43,-218.83C72.02,-206.77 54.27,-189.51 41.8,-177.38"/>
</g>
<!-- 3 -->
<g id="node5" class="node">
<title>3</title>
<ellipse fill="none" stroke="black" cx="99" cy="-162" rx="27" ry="18"/>
<text text-anchor="middle" x="99" y="-157.8" font-family="Times,serif" font-size="14.00">ne</text>
</g>
<!-- 1&#45;&#45;3 -->
<g id="edge4" class="edge">
<title>1&#45;&#45;3</title>
<path fill="none" stroke="black" d="M99,-215.7C99,-204.85 99,-190.92 99,-180.1"/>
</g>
<!-- 7 -->
<g id="node6" class="node">
<title>7</title>
<ellipse fill="none" stroke="black" cx="171" cy="-162" rx="27" ry="18"/>
<text text-anchor="middle" x="171" y="-157.8" font-family="Times,serif" font-size="14.00">add</text>
</g>
<!-- 6&#45;&#45;7 -->
<g id="edge5" class="edge">
<title>6&#45;&#45;7</title>
<path fill="none" stroke="black" d="M171,-215.7C171,-204.85 171,-190.92 171,-180.1"/>
</g>
<!-- 14 -->
<g id="node7" class="node">
<title>14</title>
<ellipse fill="none" stroke="black" cx="243" cy="-162" rx="27" ry="18"/>
<text text-anchor="middle" x="243" y="-157.8" font-family="Times,serif" font-size="14.00">X0</text>
</g>
<!-- 6&#45;&#45;14 -->
<g id="edge6" class="edge">
<title>6&#45;&#45;14</title>
<path fill="none" stroke="black" d="M185.57,-218.83C197.98,-206.77 215.73,-189.51 228.2,-177.38"/>
</g>
<!-- 4 -->
<g id="node8" class="node">
<title>4</title>
<ellipse fill="none" stroke="black" cx="27" cy="-90" rx="27" ry="18"/>
<text text-anchor="middle" x="27" y="-85.8" font-family="Times,serif" font-size="14.00">X3</text>
</g>
<!-- 3&#45;&#45;4 -->
<g id="edge7" class="edge">
<title>3&#45;&#45;4</title>
<path fill="none" stroke="black" d="M84.43,-146.83C72.02,-134.77 54.27,-117.51 41.8,-105.38"/>
</g>
<!-- 5 -->
<g id="node9" class="node">
<title>5</title>
<ellipse fill="none" stroke="black" cx="99" cy="-90" rx="27" ry="18"/>
<text text-anchor="middle" x="99" y="-85.8" font-family="Times,serif" font-size="14.00">X5</text>
</g>
<!-- 3&#45;&#45;5 -->
<g id="edge8" class="edge">
<title>3&#45;&#45;5</title>
<path fill="none" stroke="black" d="M99,-143.7C99,-132.85 99,-118.92 99,-108.1"/>
</g>
<!-- 8 -->
<g id="node10" class="node">
<title>8</title>
<ellipse fill="none" stroke="black" cx="171" cy="-90" rx="27" ry="18"/>
<text text-anchor="middle" x="171" y="-85.8" font-family="Times,serif" font-size="14.00">gt</text>
</g>
<!-- 7&#45;&#45;8 -->
<g id="edge9" class="edge">
<title>7&#45;&#45;8</title>
<path fill="none" stroke="black" d="M171,-143.7C171,-132.85 171,-118.92 171,-108.1"/>
</g>
<!-- 11 -->
<g id="node11" class="node">
<title>11</title>
<ellipse fill="none" stroke="black" cx="243" cy="-90" rx="27" ry="18"/>
<text text-anchor="middle" x="243" y="-85.8" font-family="Times,serif" font-size="14.00">sub</text>
</g>
<!-- 7&#45;&#45;11 -->
<g id="edge10" class="edge">
<title>7&#45;&#45;11</title>
<path fill="none" stroke="black" d="M185.57,-146.83C197.98,-134.77 215.73,-117.51 228.2,-105.38"/>
</g>
<!-- 9 -->
<g id="node12" class="node">
<title>9</title>
<ellipse fill="none" stroke="black" cx="99" cy="-18" rx="27" ry="18"/>
<text text-anchor="middle" x="99" y="-13.8" font-family="Times,serif" font-size="14.00">X7</text>
</g>
<!-- 8&#45;&#45;9 -->
<g id="edge11" class="edge">
<title>8&#45;&#45;9</title>
<path fill="none" stroke="black" d="M156.43,-74.83C144.02,-62.77 126.27,-45.51 113.8,-33.38"/>
</g>
<!-- 10 -->
<g id="node13" class="node">
<title>10</title>
<ellipse fill="none" stroke="black" cx="171" cy="-18" rx="27" ry="18"/>
<text text-anchor="middle" x="171" y="-13.8" font-family="Times,serif" font-size="14.00">X8</text>
</g>
<!-- 8&#45;&#45;10 -->
<g id="edge12" class="edge">
<title>8&#45;&#45;10</title>
<path fill="none" stroke="black" d="M171,-71.7C171,-60.85 171,-46.92 171,-36.1"/>
</g>
<!-- 12 -->
<g id="node14" class="node">
<title>12</title>
<ellipse fill="none" stroke="black" cx="243" cy="-18" rx="27" ry="18"/>
<text text-anchor="middle" x="243" y="-13.8" font-family="Times,serif" font-size="14.00">X7</text>
</g>
<!-- 11&#45;&#45;12 -->
<g id="edge13" class="edge">
<title>11&#45;&#45;12</title>
<path fill="none" stroke="black" d="M243,-71.7C243,-60.85 243,-46.92 243,-36.1"/>
</g>
<!-- 13 -->
<g id="node15" class="node">
<title>13</title>
<ellipse fill="none" stroke="black" cx="315" cy="-18" rx="27" ry="18"/>
<text text-anchor="middle" x="315" y="-13.8" font-family="Times,serif" font-size="14.00">X9</text>
</g>
<!-- 11&#45;&#45;13 -->
<g id="edge14" class="edge">
<title>11&#45;&#45;13</title>
<path fill="none" stroke="black" d="M257.57,-74.83C269.98,-62.77 287.73,-45.51 300.2,-33.38"/>
</g>
</g>
</svg>
