<?xml version="1.0" encoding="utf-8" standalone="no"?>
<!DOCTYPE svg PUBLIC "-//W3C//DTD SVG 1.1//EN"
  "http://www.w3.org/Graphics/SVG/1.1/DTD/svg11.dtd">
<!-- Created with matplotlib (https://matplotlib.org/) -->
<svg height="864pt" version="1.1" viewBox="0 0 1152 864" width="1152pt" xmlns="http://www.w3.org/2000/svg" xmlns:xlink="http://www.w3.org/1999/xlink">
 <metadata>
  <rdf:RDF xmlns:cc="http://creativecommons.org/ns#" xmlns:dc="http://purl.org/dc/elements/1.1/" xmlns:rdf="http://www.w3.org/1999/02/22-rdf-syntax-ns#">
   <cc:Work>
    <dc:type rdf:resource="http://purl.org/dc/dcmitype/StillImage"/>
    <dc:date>2020-12-18T16:57:06.110024</dc:date>
    <dc:format>image/svg+xml</dc:format>
    <dc:creator>
     <cc:Agent>
      <dc:title>Matplotlib v3.3.3, https://matplotlib.org/</dc:title>
     </cc:Agent>
    </dc:creator>
   </cc:Work>
  </rdf:RDF>
 </metadata>
 <defs>
  <style type="text/css">*{stroke-linecap:butt;stroke-linejoin:round;}</style>
 </defs>
 <g id="figure_1">
  <g id="patch_1">
   <path d="M 0 864 
L 1152 864 
L 1152 0 
L 0 0 
z
" style="fill:#ffffff;"/>
  </g>
  <g id="axes_1">
   <g id="patch_2">
    <path d="M 144 768.96 
L 1036.8 768.96 
L 1036.8 103.68 
L 144 103.68 
z
" style="fill:#ffffff;"/>
   </g>
   <g id="matplotlib.axis_1">
    <g id="xtick_1">
     <g id="line2d_1">
      <defs>
       <path d="M 0 0 
L 0 3.5 
" id="mf88a20f333" style="stroke:#000000;stroke-width:0.8;"/>
      </defs>
      <g>
       <use style="stroke:#000000;stroke-width:0.8;" x="184.581818" xlink:href="#mf88a20f333" y="768.96"/>
      </g>
     </g>
     <g id="text_1">
      <!-- 0.0 -->
      <g transform="translate(170.269006 789.637187)scale(0.18 -0.18)">
       <defs>
        <path d="M 31.78125 66.40625 
Q 24.171875 66.40625 20.328125 58.90625 
Q 16.5 51.421875 16.5 36.375 
Q 16.5 21.390625 20.328125 13.890625 
Q 24.171875 6.390625 31.78125 6.390625 
Q 39.453125 6.390625 43.28125 13.890625 
Q 47.125 21.390625 47.125 36.375 
Q 47.125 51.421875 43.28125 58.90625 
Q 39.453125 66.40625 31.78125 66.40625 
z
M 31.78125 74.21875 
Q 44.046875 74.21875 50.515625 64.515625 
Q 56.984375 54.828125 56.984375 36.375 
Q 56.984375 17.96875 50.515625 8.265625 
Q 44.046875 -1.421875 31.78125 -1.421875 
Q 19.53125 -1.421875 13.0625 8.265625 
Q 6.59375 17.96875 6.59375 36.375 
Q 6.59375 54.828125 13.0625 64.515625 
Q 19.53125 74.21875 31.78125 74.21875 
z
" id="DejaVuSans-48"/>
        <path d="M 10.6875 12.40625 
L 21 12.40625 
L 21 0 
L 10.6875 0 
z
" id="DejaVuSans-46"/>
       </defs>
       <use xlink:href="#DejaVuSans-48"/>
       <use x="63.623047" xlink:href="#DejaVuSans-46"/>
       <use x="95.410156" xlink:href="#DejaVuSans-48"/>
      </g>
     </g>
    </g>
    <g id="xtick_2">
     <g id="line2d_2">
      <g>
       <use style="stroke:#000000;stroke-width:0.8;" x="265.745455" xlink:href="#mf88a20f333" y="768.96"/>
      </g>
     </g>
     <g id="text_2">
      <!-- 0.1 -->
      <g transform="translate(251.432642 789.637187)scale(0.18 -0.18)">
       <defs>
        <path d="M 12.40625 8.296875 
L 28.515625 8.296875 
L 28.515625 63.921875 
L 10.984375 60.40625 
L 10.984375 69.390625 
L 28.421875 72.90625 
L 38.28125 72.90625 
L 38.28125 8.296875 
L 54.390625 8.296875 
L 54.390625 0 
L 12.40625 0 
z
" id="DejaVuSans-49"/>
       </defs>
       <use xlink:href="#DejaVuSans-48"/>
       <use x="63.623047" xlink:href="#DejaVuSans-46"/>
       <use x="95.410156" xlink:href="#DejaVuSans-49"/>
      </g>
     </g>
    </g>
    <g id="xtick_3">
     <g id="line2d_3">
      <g>
       <use style="stroke:#000000;stroke-width:0.8;" x="346.909091" xlink:href="#mf88a20f333" y="768.96"/>
      </g>
     </g>
     <g id="text_3">
      <!-- 0.2 -->
      <g transform="translate(332.596278 789.637187)scale(0.18 -0.18)">
       <defs>
        <path d="M 19.1875 8.296875 
L 53.609375 8.296875 
L 53.609375 0 
L 7.328125 0 
L 7.328125 8.296875 
Q 12.9375 14.109375 22.625 23.890625 
Q 32.328125 33.6875 34.8125 36.53125 
Q 39.546875 41.84375 41.421875 45.53125 
Q 43.3125 49.21875 43.3125 52.78125 
Q 43.3125 58.59375 39.234375 62.25 
Q 35.15625 65.921875 28.609375 65.921875 
Q 23.96875 65.921875 18.8125 64.3125 
Q 13.671875 62.703125 7.8125 59.421875 
L 7.8125 69.390625 
Q 13.765625 71.78125 18.9375 73 
Q 24.125 74.21875 28.421875 74.21875 
Q 39.75 74.21875 46.484375 68.546875 
Q 53.21875 62.890625 53.21875 53.421875 
Q 53.21875 48.921875 51.53125 44.890625 
Q 49.859375 40.875 45.40625 35.40625 
Q 44.1875 33.984375 37.640625 27.21875 
Q 31.109375 20.453125 19.1875 8.296875 
z
" id="DejaVuSans-50"/>
       </defs>
       <use xlink:href="#DejaVuSans-48"/>
       <use x="63.623047" xlink:href="#DejaVuSans-46"/>
       <use x="95.410156" xlink:href="#DejaVuSans-50"/>
      </g>
     </g>
    </g>
    <g id="xtick_4">
     <g id="line2d_4">
      <g>
       <use style="stroke:#000000;stroke-width:0.8;" x="428.072727" xlink:href="#mf88a20f333" y="768.96"/>
      </g>
     </g>
     <g id="text_4">
      <!-- 0.3 -->
      <g transform="translate(413.759915 789.637187)scale(0.18 -0.18)">
       <defs>
        <path d="M 40.578125 39.3125 
Q 47.65625 37.796875 51.625 33 
Q 55.609375 28.21875 55.609375 21.1875 
Q 55.609375 10.40625 48.1875 4.484375 
Q 40.765625 -1.421875 27.09375 -1.421875 
Q 22.515625 -1.421875 17.65625 -0.515625 
Q 12.796875 0.390625 7.625 2.203125 
L 7.625 11.71875 
Q 11.71875 9.328125 16.59375 8.109375 
Q 21.484375 6.890625 26.8125 6.890625 
Q 36.078125 6.890625 40.9375 10.546875 
Q 45.796875 14.203125 45.796875 21.1875 
Q 45.796875 27.640625 41.28125 31.265625 
Q 36.765625 34.90625 28.71875 34.90625 
L 20.21875 34.90625 
L 20.21875 43.015625 
L 29.109375 43.015625 
Q 36.375 43.015625 40.234375 45.921875 
Q 44.09375 48.828125 44.09375 54.296875 
Q 44.09375 59.90625 40.109375 62.90625 
Q 36.140625 65.921875 28.71875 65.921875 
Q 24.65625 65.921875 20.015625 65.03125 
Q 15.375 64.15625 9.8125 62.3125 
L 9.8125 71.09375 
Q 15.4375 72.65625 20.34375 73.4375 
Q 25.25 74.21875 29.59375 74.21875 
Q 40.828125 74.21875 47.359375 69.109375 
Q 53.90625 64.015625 53.90625 55.328125 
Q 53.90625 49.265625 50.4375 45.09375 
Q 46.96875 40.921875 40.578125 39.3125 
z
" id="DejaVuSans-51"/>
       </defs>
       <use xlink:href="#DejaVuSans-48"/>
       <use x="63.623047" xlink:href="#DejaVuSans-46"/>
       <use x="95.410156" xlink:href="#DejaVuSans-51"/>
      </g>
     </g>
    </g>
    <g id="xtick_5">
     <g id="line2d_5">
      <g>
       <use style="stroke:#000000;stroke-width:0.8;" x="509.236364" xlink:href="#mf88a20f333" y="768.96"/>
      </g>
     </g>
     <g id="text_5">
      <!-- 0.4 -->
      <g transform="translate(494.923551 789.637187)scale(0.18 -0.18)">
       <defs>
        <path d="M 37.796875 64.3125 
L 12.890625 25.390625 
L 37.796875 25.390625 
z
M 35.203125 72.90625 
L 47.609375 72.90625 
L 47.609375 25.390625 
L 58.015625 25.390625 
L 58.015625 17.1875 
L 47.609375 17.1875 
L 47.609375 0 
L 37.796875 0 
L 37.796875 17.1875 
L 4.890625 17.1875 
L 4.890625 26.703125 
z
" id="DejaVuSans-52"/>
       </defs>
       <use xlink:href="#DejaVuSans-48"/>
       <use x="63.623047" xlink:href="#DejaVuSans-46"/>
       <use x="95.410156" xlink:href="#DejaVuSans-52"/>
      </g>
     </g>
    </g>
    <g id="xtick_6">
     <g id="line2d_6">
      <g>
       <use style="stroke:#000000;stroke-width:0.8;" x="590.4" xlink:href="#mf88a20f333" y="768.96"/>
      </g>
     </g>
     <g id="text_6">
      <!-- 0.5 -->
      <g transform="translate(576.087187 789.637187)scale(0.18 -0.18)">
       <defs>
        <path d="M 10.796875 72.90625 
L 49.515625 72.90625 
L 49.515625 64.59375 
L 19.828125 64.59375 
L 19.828125 46.734375 
Q 21.96875 47.46875 24.109375 47.828125 
Q 26.265625 48.1875 28.421875 48.1875 
Q 40.625 48.1875 47.75 41.5 
Q 54.890625 34.8125 54.890625 23.390625 
Q 54.890625 11.625 47.5625 5.09375 
Q 40.234375 -1.421875 26.90625 -1.421875 
Q 22.3125 -1.421875 17.546875 -0.640625 
Q 12.796875 0.140625 7.71875 1.703125 
L 7.71875 11.625 
Q 12.109375 9.234375 16.796875 8.0625 
Q 21.484375 6.890625 26.703125 6.890625 
Q 35.15625 6.890625 40.078125 11.328125 
Q 45.015625 15.765625 45.015625 23.390625 
Q 45.015625 31 40.078125 35.4375 
Q 35.15625 39.890625 26.703125 39.890625 
Q 22.75 39.890625 18.8125 39.015625 
Q 14.890625 38.140625 10.796875 36.28125 
z
" id="DejaVuSans-53"/>
       </defs>
       <use xlink:href="#DejaVuSans-48"/>
       <use x="63.623047" xlink:href="#DejaVuSans-46"/>
       <use x="95.410156" xlink:href="#DejaVuSans-53"/>
      </g>
     </g>
    </g>
    <g id="xtick_7">
     <g id="line2d_7">
      <g>
       <use style="stroke:#000000;stroke-width:0.8;" x="671.563636" xlink:href="#mf88a20f333" y="768.96"/>
      </g>
     </g>
     <g id="text_7">
      <!-- 0.6 -->
      <g transform="translate(657.250824 789.637187)scale(0.18 -0.18)">
       <defs>
        <path d="M 33.015625 40.375 
Q 26.375 40.375 22.484375 35.828125 
Q 18.609375 31.296875 18.609375 23.390625 
Q 18.609375 15.53125 22.484375 10.953125 
Q 26.375 6.390625 33.015625 6.390625 
Q 39.65625 6.390625 43.53125 10.953125 
Q 47.40625 15.53125 47.40625 23.390625 
Q 47.40625 31.296875 43.53125 35.828125 
Q 39.65625 40.375 33.015625 40.375 
z
M 52.59375 71.296875 
L 52.59375 62.3125 
Q 48.875 64.0625 45.09375 64.984375 
Q 41.3125 65.921875 37.59375 65.921875 
Q 27.828125 65.921875 22.671875 59.328125 
Q 17.53125 52.734375 16.796875 39.40625 
Q 19.671875 43.65625 24.015625 45.921875 
Q 28.375 48.1875 33.59375 48.1875 
Q 44.578125 48.1875 50.953125 41.515625 
Q 57.328125 34.859375 57.328125 23.390625 
Q 57.328125 12.15625 50.6875 5.359375 
Q 44.046875 -1.421875 33.015625 -1.421875 
Q 20.359375 -1.421875 13.671875 8.265625 
Q 6.984375 17.96875 6.984375 36.375 
Q 6.984375 53.65625 15.1875 63.9375 
Q 23.390625 74.21875 37.203125 74.21875 
Q 40.921875 74.21875 44.703125 73.484375 
Q 48.484375 72.75 52.59375 71.296875 
z
" id="DejaVuSans-54"/>
       </defs>
       <use xlink:href="#DejaVuSans-48"/>
       <use x="63.623047" xlink:href="#DejaVuSans-46"/>
       <use x="95.410156" xlink:href="#DejaVuSans-54"/>
      </g>
     </g>
    </g>
    <g id="xtick_8">
     <g id="line2d_8">
      <g>
       <use style="stroke:#000000;stroke-width:0.8;" x="752.727273" xlink:href="#mf88a20f333" y="768.96"/>
      </g>
     </g>
     <g id="text_8">
      <!-- 0.7 -->
      <g transform="translate(738.41446 789.637187)scale(0.18 -0.18)">
       <defs>
        <path d="M 8.203125 72.90625 
L 55.078125 72.90625 
L 55.078125 68.703125 
L 28.609375 0 
L 18.3125 0 
L 43.21875 64.59375 
L 8.203125 64.59375 
z
" id="DejaVuSans-55"/>
       </defs>
       <use xlink:href="#DejaVuSans-48"/>
       <use x="63.623047" xlink:href="#DejaVuSans-46"/>
       <use x="95.410156" xlink:href="#DejaVuSans-55"/>
      </g>
     </g>
    </g>
    <g id="xtick_9">
     <g id="line2d_9">
      <g>
       <use style="stroke:#000000;stroke-width:0.8;" x="833.890909" xlink:href="#mf88a20f333" y="768.96"/>
      </g>
     </g>
     <g id="text_9">
      <!-- 0.8 -->
      <g transform="translate(819.578097 789.637187)scale(0.18 -0.18)">
       <defs>
        <path d="M 31.78125 34.625 
Q 24.75 34.625 20.71875 30.859375 
Q 16.703125 27.09375 16.703125 20.515625 
Q 16.703125 13.921875 20.71875 10.15625 
Q 24.75 6.390625 31.78125 6.390625 
Q 38.8125 6.390625 42.859375 10.171875 
Q 46.921875 13.96875 46.921875 20.515625 
Q 46.921875 27.09375 42.890625 30.859375 
Q 38.875 34.625 31.78125 34.625 
z
M 21.921875 38.8125 
Q 15.578125 40.375 12.03125 44.71875 
Q 8.5 49.078125 8.5 55.328125 
Q 8.5 64.0625 14.71875 69.140625 
Q 20.953125 74.21875 31.78125 74.21875 
Q 42.671875 74.21875 48.875 69.140625 
Q 55.078125 64.0625 55.078125 55.328125 
Q 55.078125 49.078125 51.53125 44.71875 
Q 48 40.375 41.703125 38.8125 
Q 48.828125 37.15625 52.796875 32.3125 
Q 56.78125 27.484375 56.78125 20.515625 
Q 56.78125 9.90625 50.3125 4.234375 
Q 43.84375 -1.421875 31.78125 -1.421875 
Q 19.734375 -1.421875 13.25 4.234375 
Q 6.78125 9.90625 6.78125 20.515625 
Q 6.78125 27.484375 10.78125 32.3125 
Q 14.796875 37.15625 21.921875 38.8125 
z
M 18.3125 54.390625 
Q 18.3125 48.734375 21.84375 45.5625 
Q 25.390625 42.390625 31.78125 42.390625 
Q 38.140625 42.390625 41.71875 45.5625 
Q 45.3125 48.734375 45.3125 54.390625 
Q 45.3125 60.0625 41.71875 63.234375 
Q 38.140625 66.40625 31.78125 66.40625 
Q 25.390625 66.40625 21.84375 63.234375 
Q 18.3125 60.0625 18.3125 54.390625 
z
" id="DejaVuSans-56"/>
       </defs>
       <use xlink:href="#DejaVuSans-48"/>
       <use x="63.623047" xlink:href="#DejaVuSans-46"/>
       <use x="95.410156" xlink:href="#DejaVuSans-56"/>
      </g>
     </g>
    </g>
    <g id="xtick_10">
     <g id="line2d_10">
      <g>
       <use style="stroke:#000000;stroke-width:0.8;" x="915.054545" xlink:href="#mf88a20f333" y="768.96"/>
      </g>
     </g>
     <g id="text_10">
      <!-- 0.9 -->
      <g transform="translate(900.741733 789.637187)scale(0.18 -0.18)">
       <defs>
        <path d="M 10.984375 1.515625 
L 10.984375 10.5 
Q 14.703125 8.734375 18.5 7.8125 
Q 22.3125 6.890625 25.984375 6.890625 
Q 35.75 6.890625 40.890625 13.453125 
Q 46.046875 20.015625 46.78125 33.40625 
Q 43.953125 29.203125 39.59375 26.953125 
Q 35.25 24.703125 29.984375 24.703125 
Q 19.046875 24.703125 12.671875 31.3125 
Q 6.296875 37.9375 6.296875 49.421875 
Q 6.296875 60.640625 12.9375 67.421875 
Q 19.578125 74.21875 30.609375 74.21875 
Q 43.265625 74.21875 49.921875 64.515625 
Q 56.59375 54.828125 56.59375 36.375 
Q 56.59375 19.140625 48.40625 8.859375 
Q 40.234375 -1.421875 26.421875 -1.421875 
Q 22.703125 -1.421875 18.890625 -0.6875 
Q 15.09375 0.046875 10.984375 1.515625 
z
M 30.609375 32.421875 
Q 37.25 32.421875 41.125 36.953125 
Q 45.015625 41.5 45.015625 49.421875 
Q 45.015625 57.28125 41.125 61.84375 
Q 37.25 66.40625 30.609375 66.40625 
Q 23.96875 66.40625 20.09375 61.84375 
Q 16.21875 57.28125 16.21875 49.421875 
Q 16.21875 41.5 20.09375 36.953125 
Q 23.96875 32.421875 30.609375 32.421875 
z
" id="DejaVuSans-57"/>
       </defs>
       <use xlink:href="#DejaVuSans-48"/>
       <use x="63.623047" xlink:href="#DejaVuSans-46"/>
       <use x="95.410156" xlink:href="#DejaVuSans-57"/>
      </g>
     </g>
    </g>
    <g id="xtick_11">
     <g id="line2d_11">
      <g>
       <use style="stroke:#000000;stroke-width:0.8;" x="996.218182" xlink:href="#mf88a20f333" y="768.96"/>
      </g>
     </g>
     <g id="text_11">
      <!-- 1.0 -->
      <g transform="translate(981.905369 789.637187)scale(0.18 -0.18)">
       <use xlink:href="#DejaVuSans-49"/>
       <use x="63.623047" xlink:href="#DejaVuSans-46"/>
       <use x="95.410156" xlink:href="#DejaVuSans-48"/>
      </g>
     </g>
    </g>
    <g id="text_12">
     <!-- Recall -->
     <g transform="translate(554.59875 815.616875)scale(0.24 -0.24)">
      <defs>
       <path d="M 44.390625 34.1875 
Q 47.5625 33.109375 50.5625 29.59375 
Q 53.5625 26.078125 56.59375 19.921875 
L 66.609375 0 
L 56 0 
L 46.6875 18.703125 
Q 43.0625 26.03125 39.671875 28.421875 
Q 36.28125 30.8125 30.421875 30.8125 
L 19.671875 30.8125 
L 19.671875 0 
L 9.8125 0 
L 9.8125 72.90625 
L 32.078125 72.90625 
Q 44.578125 72.90625 50.734375 67.671875 
Q 56.890625 62.453125 56.890625 51.90625 
Q 56.890625 45.015625 53.6875 40.46875 
Q 50.484375 35.9375 44.390625 34.1875 
z
M 19.671875 64.796875 
L 19.671875 38.921875 
L 32.078125 38.921875 
Q 39.203125 38.921875 42.84375 42.21875 
Q 46.484375 45.515625 46.484375 51.90625 
Q 46.484375 58.296875 42.84375 61.546875 
Q 39.203125 64.796875 32.078125 64.796875 
z
" id="DejaVuSans-82"/>
       <path d="M 56.203125 29.59375 
L 56.203125 25.203125 
L 14.890625 25.203125 
Q 15.484375 15.921875 20.484375 11.0625 
Q 25.484375 6.203125 34.421875 6.203125 
Q 39.59375 6.203125 44.453125 7.46875 
Q 49.3125 8.734375 54.109375 11.28125 
L 54.109375 2.78125 
Q 49.265625 0.734375 44.1875 -0.34375 
Q 39.109375 -1.421875 33.890625 -1.421875 
Q 20.796875 -1.421875 13.15625 6.1875 
Q 5.515625 13.8125 5.515625 26.8125 
Q 5.515625 40.234375 12.765625 48.109375 
Q 20.015625 56 32.328125 56 
Q 43.359375 56 49.78125 48.890625 
Q 56.203125 41.796875 56.203125 29.59375 
z
M 47.21875 32.234375 
Q 47.125 39.59375 43.09375 43.984375 
Q 39.0625 48.390625 32.421875 48.390625 
Q 24.90625 48.390625 20.390625 44.140625 
Q 15.875 39.890625 15.1875 32.171875 
z
" id="DejaVuSans-101"/>
       <path d="M 48.78125 52.59375 
L 48.78125 44.1875 
Q 44.96875 46.296875 41.140625 47.34375 
Q 37.3125 48.390625 33.40625 48.390625 
Q 24.65625 48.390625 19.8125 42.84375 
Q 14.984375 37.3125 14.984375 27.296875 
Q 14.984375 17.28125 19.8125 11.734375 
Q 24.65625 6.203125 33.40625 6.203125 
Q 37.3125 6.203125 41.140625 7.25 
Q 44.96875 8.296875 48.78125 10.40625 
L 48.78125 2.09375 
Q 45.015625 0.34375 40.984375 -0.53125 
Q 36.96875 -1.421875 32.421875 -1.421875 
Q 20.0625 -1.421875 12.78125 6.34375 
Q 5.515625 14.109375 5.515625 27.296875 
Q 5.515625 40.671875 12.859375 48.328125 
Q 20.21875 56 33.015625 56 
Q 37.15625 56 41.109375 55.140625 
Q 45.0625 54.296875 48.78125 52.59375 
z
" id="DejaVuSans-99"/>
       <path d="M 34.28125 27.484375 
Q 23.390625 27.484375 19.1875 25 
Q 14.984375 22.515625 14.984375 16.5 
Q 14.984375 11.71875 18.140625 8.90625 
Q 21.296875 6.109375 26.703125 6.109375 
Q 34.1875 6.109375 38.703125 11.40625 
Q 43.21875 16.703125 43.21875 25.484375 
L 43.21875 27.484375 
z
M 52.203125 31.203125 
L 52.203125 0 
L 43.21875 0 
L 43.21875 8.296875 
Q 40.140625 3.328125 35.546875 0.953125 
Q 30.953125 -1.421875 24.3125 -1.421875 
Q 15.921875 -1.421875 10.953125 3.296875 
Q 6 8.015625 6 15.921875 
Q 6 25.140625 12.171875 29.828125 
Q 18.359375 34.515625 30.609375 34.515625 
L 43.21875 34.515625 
L 43.21875 35.40625 
Q 43.21875 41.609375 39.140625 45 
Q 35.0625 48.390625 27.6875 48.390625 
Q 23 48.390625 18.546875 47.265625 
Q 14.109375 46.140625 10.015625 43.890625 
L 10.015625 52.203125 
Q 14.9375 54.109375 19.578125 55.046875 
Q 24.21875 56 28.609375 56 
Q 40.484375 56 46.34375 49.84375 
Q 52.203125 43.703125 52.203125 31.203125 
z
" id="DejaVuSans-97"/>
       <path d="M 9.421875 75.984375 
L 18.40625 75.984375 
L 18.40625 0 
L 9.421875 0 
z
" id="DejaVuSans-108"/>
      </defs>
      <use xlink:href="#DejaVuSans-82"/>
      <use x="64.982422" xlink:href="#DejaVuSans-101"/>
      <use x="126.505859" xlink:href="#DejaVuSans-99"/>
      <use x="181.486328" xlink:href="#DejaVuSans-97"/>
      <use x="242.765625" xlink:href="#DejaVuSans-108"/>
      <use x="270.548828" xlink:href="#DejaVuSans-108"/>
     </g>
    </g>
   </g>
   <g id="matplotlib.axis_2">
    <g id="ytick_1">
     <g id="line2d_12">
      <defs>
       <path d="M 0 0 
L -3.5 0 
" id="m66dd731dcf" style="stroke:#000000;stroke-width:0.8;"/>
      </defs>
      <g>
       <use style="stroke:#000000;stroke-width:0.8;" x="144" xlink:href="#m66dd731dcf" y="768.96"/>
      </g>
     </g>
     <g id="text_13">
      <!-- 0.0 -->
      <g transform="translate(108.374375 775.798594)scale(0.18 -0.18)">
       <use xlink:href="#DejaVuSans-48"/>
       <use x="63.623047" xlink:href="#DejaVuSans-46"/>
       <use x="95.410156" xlink:href="#DejaVuSans-48"/>
      </g>
     </g>
    </g>
    <g id="ytick_2">
     <g id="line2d_13">
      <g>
       <use style="stroke:#000000;stroke-width:0.8;" x="144" xlink:href="#m66dd731dcf" y="704.41791"/>
      </g>
     </g>
     <g id="text_14">
      <!-- 0.1 -->
      <g transform="translate(108.374375 711.256504)scale(0.18 -0.18)">
       <use xlink:href="#DejaVuSans-48"/>
       <use x="63.623047" xlink:href="#DejaVuSans-46"/>
       <use x="95.410156" xlink:href="#DejaVuSans-49"/>
      </g>
     </g>
    </g>
    <g id="ytick_3">
     <g id="line2d_14">
      <g>
       <use style="stroke:#000000;stroke-width:0.8;" x="144" xlink:href="#m66dd731dcf" y="639.875821"/>
      </g>
     </g>
     <g id="text_15">
      <!-- 0.2 -->
      <g transform="translate(108.374375 646.714415)scale(0.18 -0.18)">
       <use xlink:href="#DejaVuSans-48"/>
       <use x="63.623047" xlink:href="#DejaVuSans-46"/>
       <use x="95.410156" xlink:href="#DejaVuSans-50"/>
      </g>
     </g>
    </g>
    <g id="ytick_4">
     <g id="line2d_15">
      <g>
       <use style="stroke:#000000;stroke-width:0.8;" x="144" xlink:href="#m66dd731dcf" y="575.333731"/>
      </g>
     </g>
     <g id="text_16">
      <!-- 0.3 -->
      <g transform="translate(108.374375 582.172325)scale(0.18 -0.18)">
       <use xlink:href="#DejaVuSans-48"/>
       <use x="63.623047" xlink:href="#DejaVuSans-46"/>
       <use x="95.410156" xlink:href="#DejaVuSans-51"/>
      </g>
     </g>
    </g>
    <g id="ytick_5">
     <g id="line2d_16">
      <g>
       <use style="stroke:#000000;stroke-width:0.8;" x="144" xlink:href="#m66dd731dcf" y="510.791642"/>
      </g>
     </g>
     <g id="text_17">
      <!-- 0.4 -->
      <g transform="translate(108.374375 517.630236)scale(0.18 -0.18)">
       <use xlink:href="#DejaVuSans-48"/>
       <use x="63.623047" xlink:href="#DejaVuSans-46"/>
       <use x="95.410156" xlink:href="#DejaVuSans-52"/>
      </g>
     </g>
    </g>
    <g id="ytick_6">
     <g id="line2d_17">
      <g>
       <use style="stroke:#000000;stroke-width:0.8;" x="144" xlink:href="#m66dd731dcf" y="446.249552"/>
      </g>
     </g>
     <g id="text_18">
      <!-- 0.5 -->
      <g transform="translate(108.374375 453.088146)scale(0.18 -0.18)">
       <use xlink:href="#DejaVuSans-48"/>
       <use x="63.623047" xlink:href="#DejaVuSans-46"/>
       <use x="95.410156" xlink:href="#DejaVuSans-53"/>
      </g>
     </g>
    </g>
    <g id="ytick_7">
     <g id="line2d_18">
      <g>
       <use style="stroke:#000000;stroke-width:0.8;" x="144" xlink:href="#m66dd731dcf" y="381.707463"/>
      </g>
     </g>
     <g id="text_19">
      <!-- 0.6 -->
      <g transform="translate(108.374375 388.546056)scale(0.18 -0.18)">
       <use xlink:href="#DejaVuSans-48"/>
       <use x="63.623047" xlink:href="#DejaVuSans-46"/>
       <use x="95.410156" xlink:href="#DejaVuSans-54"/>
      </g>
     </g>
    </g>
    <g id="ytick_8">
     <g id="line2d_19">
      <g>
       <use style="stroke:#000000;stroke-width:0.8;" x="144" xlink:href="#m66dd731dcf" y="317.165373"/>
      </g>
     </g>
     <g id="text_20">
      <!-- 0.7 -->
      <g transform="translate(108.374375 324.003967)scale(0.18 -0.18)">
       <use xlink:href="#DejaVuSans-48"/>
       <use x="63.623047" xlink:href="#DejaVuSans-46"/>
       <use x="95.410156" xlink:href="#DejaVuSans-55"/>
      </g>
     </g>
    </g>
    <g id="ytick_9">
     <g id="line2d_20">
      <g>
       <use style="stroke:#000000;stroke-width:0.8;" x="144" xlink:href="#m66dd731dcf" y="252.623284"/>
      </g>
     </g>
     <g id="text_21">
      <!-- 0.8 -->
      <g transform="translate(108.374375 259.461877)scale(0.18 -0.18)">
       <use xlink:href="#DejaVuSans-48"/>
       <use x="63.623047" xlink:href="#DejaVuSans-46"/>
       <use x="95.410156" xlink:href="#DejaVuSans-56"/>
      </g>
     </g>
    </g>
    <g id="ytick_10">
     <g id="line2d_21">
      <g>
       <use style="stroke:#000000;stroke-width:0.8;" x="144" xlink:href="#m66dd731dcf" y="188.081194"/>
      </g>
     </g>
     <g id="text_22">
      <!-- 0.9 -->
      <g transform="translate(108.374375 194.919788)scale(0.18 -0.18)">
       <use xlink:href="#DejaVuSans-48"/>
       <use x="63.623047" xlink:href="#DejaVuSans-46"/>
       <use x="95.410156" xlink:href="#DejaVuSans-57"/>
      </g>
     </g>
    </g>
    <g id="ytick_11">
     <g id="line2d_22">
      <g>
       <use style="stroke:#000000;stroke-width:0.8;" x="144" xlink:href="#m66dd731dcf" y="123.539104"/>
      </g>
     </g>
     <g id="text_23">
      <!-- 1.0 -->
      <g transform="translate(108.374375 130.377698)scale(0.18 -0.18)">
       <use xlink:href="#DejaVuSans-49"/>
       <use x="63.623047" xlink:href="#DejaVuSans-46"/>
       <use x="95.410156" xlink:href="#DejaVuSans-48"/>
      </g>
     </g>
    </g>
    <g id="text_24">
     <!-- Precision -->
     <g transform="translate(99.383125 489.856875)rotate(-90)scale(0.24 -0.24)">
      <defs>
       <path d="M 19.671875 64.796875 
L 19.671875 37.40625 
L 32.078125 37.40625 
Q 38.96875 37.40625 42.71875 40.96875 
Q 46.484375 44.53125 46.484375 51.125 
Q 46.484375 57.671875 42.71875 61.234375 
Q 38.96875 64.796875 32.078125 64.796875 
z
M 9.8125 72.90625 
L 32.078125 72.90625 
Q 44.34375 72.90625 50.609375 67.359375 
Q 56.890625 61.8125 56.890625 51.125 
Q 56.890625 40.328125 50.609375 34.8125 
Q 44.34375 29.296875 32.078125 29.296875 
L 19.671875 29.296875 
L 19.671875 0 
L 9.8125 0 
z
" id="DejaVuSans-80"/>
       <path d="M 41.109375 46.296875 
Q 39.59375 47.171875 37.8125 47.578125 
Q 36.03125 48 33.890625 48 
Q 26.265625 48 22.1875 43.046875 
Q 18.109375 38.09375 18.109375 28.8125 
L 18.109375 0 
L 9.078125 0 
L 9.078125 54.6875 
L 18.109375 54.6875 
L 18.109375 46.1875 
Q 20.953125 51.171875 25.484375 53.578125 
Q 30.03125 56 36.53125 56 
Q 37.453125 56 38.578125 55.875 
Q 39.703125 55.765625 41.0625 55.515625 
z
" id="DejaVuSans-114"/>
       <path d="M 9.421875 54.6875 
L 18.40625 54.6875 
L 18.40625 0 
L 9.421875 0 
z
M 9.421875 75.984375 
L 18.40625 75.984375 
L 18.40625 64.59375 
L 9.421875 64.59375 
z
" id="DejaVuSans-105"/>
       <path d="M 44.28125 53.078125 
L 44.28125 44.578125 
Q 40.484375 46.53125 36.375 47.5 
Q 32.28125 48.484375 27.875 48.484375 
Q 21.1875 48.484375 17.84375 46.4375 
Q 14.5 44.390625 14.5 40.28125 
Q 14.5 37.15625 16.890625 35.375 
Q 19.28125 33.59375 26.515625 31.984375 
L 29.59375 31.296875 
Q 39.15625 29.25 43.1875 25.515625 
Q 47.21875 21.78125 47.21875 15.09375 
Q 47.21875 7.46875 41.1875 3.015625 
Q 35.15625 -1.421875 24.609375 -1.421875 
Q 20.21875 -1.421875 15.453125 -0.5625 
Q 10.6875 0.296875 5.421875 2 
L 5.421875 11.28125 
Q 10.40625 8.6875 15.234375 7.390625 
Q 20.0625 6.109375 24.8125 6.109375 
Q 31.15625 6.109375 34.5625 8.28125 
Q 37.984375 10.453125 37.984375 14.40625 
Q 37.984375 18.0625 35.515625 20.015625 
Q 33.0625 21.96875 24.703125 23.78125 
L 21.578125 24.515625 
Q 13.234375 26.265625 9.515625 29.90625 
Q 5.8125 33.546875 5.8125 39.890625 
Q 5.8125 47.609375 11.28125 51.796875 
Q 16.75 56 26.8125 56 
Q 31.78125 56 36.171875 55.265625 
Q 40.578125 54.546875 44.28125 53.078125 
z
" id="DejaVuSans-115"/>
       <path d="M 30.609375 48.390625 
Q 23.390625 48.390625 19.1875 42.75 
Q 14.984375 37.109375 14.984375 27.296875 
Q 14.984375 17.484375 19.15625 11.84375 
Q 23.34375 6.203125 30.609375 6.203125 
Q 37.796875 6.203125 41.984375 11.859375 
Q 46.1875 17.53125 46.1875 27.296875 
Q 46.1875 37.015625 41.984375 42.703125 
Q 37.796875 48.390625 30.609375 48.390625 
z
M 30.609375 56 
Q 42.328125 56 49.015625 48.375 
Q 55.71875 40.765625 55.71875 27.296875 
Q 55.71875 13.875 49.015625 6.21875 
Q 42.328125 -1.421875 30.609375 -1.421875 
Q 18.84375 -1.421875 12.171875 6.21875 
Q 5.515625 13.875 5.515625 27.296875 
Q 5.515625 40.765625 12.171875 48.375 
Q 18.84375 56 30.609375 56 
z
" id="DejaVuSans-111"/>
       <path d="M 54.890625 33.015625 
L 54.890625 0 
L 45.90625 0 
L 45.90625 32.71875 
Q 45.90625 40.484375 42.875 44.328125 
Q 39.84375 48.1875 33.796875 48.1875 
Q 26.515625 48.1875 22.3125 43.546875 
Q 18.109375 38.921875 18.109375 30.90625 
L 18.109375 0 
L 9.078125 0 
L 9.078125 54.6875 
L 18.109375 54.6875 
L 18.109375 46.1875 
Q 21.34375 51.125 25.703125 53.5625 
Q 30.078125 56 35.796875 56 
Q 45.21875 56 50.046875 50.171875 
Q 54.890625 44.34375 54.890625 33.015625 
z
" id="DejaVuSans-110"/>
      </defs>
      <use xlink:href="#DejaVuSans-80"/>
      <use x="58.552734" xlink:href="#DejaVuSans-114"/>
      <use x="97.416016" xlink:href="#DejaVuSans-101"/>
      <use x="158.939453" xlink:href="#DejaVuSans-99"/>
      <use x="213.919922" xlink:href="#DejaVuSans-105"/>
      <use x="241.703125" xlink:href="#DejaVuSans-115"/>
      <use x="293.802734" xlink:href="#DejaVuSans-105"/>
      <use x="321.585938" xlink:href="#DejaVuSans-111"/>
      <use x="382.767578" xlink:href="#DejaVuSans-110"/>
     </g>
    </g>
   </g>
   <g id="line2d_23">
    <path clip-path="url(#p9b0ad0bdfd)" d="M 996.218182 395.884338 
L 988.101818 397.46774 
L 988.101818 388.622687 
L 979.985455 390.210013 
L 979.985455 383.28166 
L 963.752727 386.488358 
L 963.752727 344.573658 
L 955.636364 346.098034 
L 955.636364 340.183881 
L 947.52 341.709548 
L 947.52 329.325477 
L 939.403636 330.827567 
L 939.403636 324.336716 
L 923.170909 327.356229 
L 923.170909 320.614187 
L 915.054545 322.130149 
L 915.054545 315.148433 
L 906.938182 316.657168 
L 906.938182 298.120166 
L 882.589091 302.52137 
L 874.472727 304.038168 
L 874.472727 300.064478 
L 850.123636 304.709882 
L 850.123636 296.419701 
L 842.007273 297.977184 
L 842.007273 293.695522 
L 817.658182 298.466263 
L 809.541818 300.116519 
L 809.541818 256.615578 
L 785.192727 260.862699 
L 768.96 263.847995 
L 768.96 252.623284 
L 752.727273 255.557015 
L 752.727273 237.43691 
L 744.610909 238.792836 
L 744.610909 225.861929 
L 736.494545 227.125174 
L 736.494545 213.407837 
L 712.145455 216.955287 
L 712.145455 209.595224 
L 687.796364 213.180896 
L 663.447273 217.078365 
L 663.447273 191.992836 
L 655.330909 193.04597 
L 655.330909 174.762985 
L 630.981818 177.324179 
L 606.632727 180.154973 
L 598.516364 181.16597 
L 598.516364 170.478806 
L 590.4 171.34806 
L 590.4 148.362985 
L 582.283636 148.849728 
L 582.283636 136.447522 
L 549.818182 137.569994 
L 549.818182 123.539104 
L 184.581818 123.539104 
L 184.581818 123.539104 
" style="fill:none;stroke:#1f77b4;stroke-linecap:square;stroke-width:1.5;"/>
   </g>
   <g id="line2d_24">
    <path clip-path="url(#p9b0ad0bdfd)" d="M 996.218182 389.30065 
L 988.101818 390.873203 
L 988.101818 367.094159 
L 979.985455 368.635647 
L 979.985455 355.553152 
L 971.869091 357.07956 
L 971.869091 345.947656 
L 963.752727 347.46064 
L 963.752727 344.573658 
L 955.636364 346.098034 
L 955.636364 337.16433 
L 947.52 338.679403 
L 947.52 312.797863 
L 939.403636 314.231642 
L 939.403636 303.656564 
L 931.287273 305.063731 
L 931.287273 290.099336 
L 923.170909 291.453484 
L 923.170909 283.560814 
L 915.054545 284.894328 
L 915.054545 280.82655 
L 906.938182 282.159494 
L 906.938182 273.766382 
L 898.821818 275.072706 
L 898.821818 266.331338 
L 874.472727 270.225672 
L 874.472727 260.989851 
L 866.356364 262.274437 
L 866.356364 247.658507 
L 858.24 248.86355 
L 858.24 243.764565 
L 850.123636 244.954917 
L 850.123636 239.714866 
L 842.007273 240.888358 
L 842.007273 230.000283 
L 817.658182 233.39798 
L 809.541818 234.579259 
L 809.541818 228.770772 
L 785.192727 232.317907 
L 777.076364 233.55403 
L 777.076364 201.300658 
L 768.96 202.24897 
L 768.96 180.728298 
L 744.610909 182.985766 
L 720.261818 185.428779 
L 695.912727 188.081194 
L 671.563636 190.971138 
L 671.563636 173.186866 
L 655.330909 174.762985 
L 655.330909 155.281116 
L 639.098182 156.357116 
L 639.098182 145.794997 
L 630.981818 146.185452 
L 630.981818 135.064478 
L 606.632727 135.716857 
L 606.632727 123.539104 
L 184.581818 123.539104 
L 184.581818 123.539104 
" style="fill:none;stroke:#ff7f0e;stroke-linecap:square;stroke-width:1.5;"/>
   </g>
   <g id="line2d_25">
    <path clip-path="url(#p9b0ad0bdfd)" d="M 996.218182 444.627892 
L 988.101818 446.249552 
L 988.101818 444.611428 
L 979.985455 446.249552 
L 979.985455 436.058696 
L 947.52 442.779547 
L 939.403636 444.505171 
L 939.403636 442.74183 
L 931.287273 444.486107 
L 931.287273 442.703284 
L 906.938182 448.052404 
L 906.938182 442.582388 
L 898.821818 444.405493 
L 898.821818 442.540237 
L 890.705455 444.384174 
L 890.705455 440.587965 
L 882.589091 442.452959 
L 882.589091 438.56597 
L 874.472727 440.452359 
L 874.472727 438.473397 
L 858.24 442.314059 
L 858.24 438.281393 
L 833.890909 444.219927 
L 833.890909 440.083111 
L 817.658182 444.167549 
L 817.658182 442.058507 
L 793.309091 448.386708 
L 785.192727 450.552358 
L 785.192727 448.415394 
L 777.076364 450.610504 
L 777.076364 448.444861 
L 768.96 450.670243 
L 768.96 439.383372 
L 744.610909 446.249552 
L 720.261818 453.420896 
L 720.261818 448.675947 
L 712.145455 451.139104 
L 712.145455 448.712991 
L 704.029091 451.214328 
L 704.029091 448.751184 
L 687.796364 453.872634 
L 671.563636 459.15797 
L 663.447273 461.864574 
L 663.447273 459.367863 
L 655.330909 462.120558 
L 655.330909 454.38511 
L 647.214545 457.188889 
L 647.214545 454.524179 
L 630.981818 460.280441 
L 630.981818 457.572726 
L 614.749091 463.537612 
L 614.749091 460.786059 
L 598.516364 466.974076 
L 598.516364 464.17791 
L 582.283636 470.605058 
L 574.167273 473.910448 
L 574.167273 468.18133 
L 557.934545 475.005929 
L 549.818182 478.520597 
L 549.818182 475.586866 
L 533.585455 482.845582 
L 533.585455 470.539586 
L 517.352727 478.16597 
L 517.352727 474.934925 
L 509.236364 478.883193 
L 509.236364 472.214761 
L 501.12 476.269129 
L 501.12 472.825707 
L 484.887273 481.242251 
L 484.887273 477.733498 
L 476.770909 482.106269 
L 476.770909 471.073433 
L 460.538182 480.219073 
L 460.538182 468.353008 
L 452.421818 473.14209 
L 444.305455 478.066075 
L 444.305455 465.23252 
L 436.189091 470.332421 
L 428.072727 475.586866 
L 428.072727 466.418955 
L 419.956364 471.861493 
L 411.84 477.479596 
L 403.723636 483.281899 
L 403.723636 457.774925 
L 395.607273 463.85194 
L 395.607273 458.201791 
L 387.490909 464.516181 
L 379.374545 471.073433 
L 371.258182 477.887831 
L 371.258182 472.066388 
L 363.141818 479.17919 
L 355.025455 486.588358 
L 355.025455 480.580451 
L 346.909091 488.342219 
L 346.909091 482.106269 
L 338.792727 490.255522 
L 338.792727 483.774023 
L 330.676364 492.351045 
L 330.676364 485.604485 
L 322.56 494.656119 
L 322.56 472.415264 
L 314.443636 482.106269 
L 306.327273 492.351045 
L 306.327273 456.659567 
L 298.210909 467.763582 
L 298.210909 434.297313 
L 290.094545 446.249552 
L 290.094545 433.341134 
L 281.978182 446.249552 
L 273.861818 460.280441 
L 265.745455 475.586866 
L 265.745455 410.392836 
L 257.629091 427.266585 
L 249.512727 446.249552 
L 249.512727 299.562985 
L 241.396364 317.165373 
L 233.28 338.679403 
L 225.163636 365.57194 
L 225.163636 307.945075 
L 217.047273 338.679403 
L 208.930909 381.707463 
L 208.930909 123.539104 
L 184.581818 123.539104 
L 184.581818 123.539104 
" style="fill:none;stroke:#2ca02c;stroke-linecap:square;stroke-width:1.5;"/>
   </g>
   <g id="line2d_26">
    <path clip-path="url(#p9b0ad0bdfd)" d="M 996.218182 418.187774 
L 979.985455 421.425672 
L 979.985455 417.564179 
L 955.636364 422.547655 
L 955.636364 418.588657 
L 947.52 420.284344 
L 947.52 403.480698 
L 939.403636 405.177313 
L 939.403636 384.189851 
L 931.287273 385.871468 
L 931.287273 350.799983 
L 915.054545 354.046567 
L 915.054545 341.843231 
L 890.705455 346.767384 
L 890.705455 343.568955 
L 882.589091 345.248572 
L 882.589091 341.989254 
L 874.472727 343.682666 
L 874.472727 330.073791 
L 866.356364 331.739393 
L 866.356364 324.571842 
L 858.24 326.23327 
L 858.24 314.977506 
L 850.123636 316.613731 
L 850.123636 312.714195 
L 825.774545 317.736542 
L 825.774545 313.707761 
L 801.425455 318.941761 
L 793.309091 320.751045 
L 793.309091 316.562176 
L 785.192727 318.383148 
L 785.192727 314.09194 
L 777.076364 315.924179 
L 777.076364 297.802746 
L 768.96 299.562985 
L 768.96 294.77322 
L 752.727273 298.340597 
L 752.727273 283.159326 
L 736.494545 286.667463 
L 728.378182 288.48 
L 728.378182 283.081348 
L 720.261818 284.894328 
L 720.261818 273.636987 
L 704.029091 277.210746 
L 695.912727 279.062212 
L 695.912727 266.96597 
L 687.796364 268.758806 
L 687.796364 249.270448 
L 671.563636 252.623284 
L 671.563636 238.477072 
L 655.330909 241.714761 
L 639.098182 245.140143 
L 622.865455 248.770025 
L 606.632727 252.623284 
L 598.516364 254.640224 
L 598.516364 246.476418 
L 582.283636 250.507149 
L 566.050909 254.811151 
L 549.818182 259.417188 
L 549.818182 231.109254 
L 541.701818 233.138879 
L 541.701818 222.834627 
L 525.469091 226.806448 
L 525.469091 215.74209 
L 517.352727 217.662985 
L 517.352727 205.933261 
L 501.12 209.595224 
L 484.887273 213.597834 
L 476.770909 215.74209 
L 476.770909 202.24897 
L 460.538182 206.285373 
L 460.538182 175.870528 
L 444.305455 178.860896 
L 428.072727 182.213731 
L 419.956364 184.047313 
L 411.84 185.999191 
L 411.84 166.567164 
L 395.607273 169.640597 
L 387.490909 171.34806 
L 379.374545 173.186866 
L 371.258182 175.172776 
L 371.258182 150.431642 
L 355.025455 152.876418 
L 346.909091 154.273433 
L 338.792727 155.810149 
L 330.676364 157.508625 
L 322.56 159.395821 
L 314.443636 161.50504 
L 306.327273 163.87791 
L 298.210909 166.567164 
L 290.094545 169.640597 
L 290.094545 123.539104 
L 184.581818 123.539104 
L 184.581818 123.539104 
" style="fill:none;stroke:#d62728;stroke-linecap:square;stroke-width:1.5;"/>
   </g>
   <g id="line2d_27">
    <path clip-path="url(#p9b0ad0bdfd)" d="M 996.218182 446.249552 
L 955.636364 442.816462 
L 955.636364 439.309543 
L 931.287273 442.703284 
L 923.170909 440.840997 
L 906.938182 438.830921 
L 890.705455 436.701906 
L 882.589091 432.558806 
L 842.007273 440.160676 
L 744.610909 434.117581 
L 736.494545 433.93236 
L 687.796364 438.248467 
L 687.796364 432.69029 
L 639.098182 424.735522 
L 630.981818 427.631642 
L 557.934545 439.078209 
L 533.585455 442.452959 
L 484.887273 446.249552 
L 484.887273 437.285373 
L 395.607273 433.341134 
L 371.258182 453.115732 
L 355.025455 467.763582 
L 346.909091 468.764235 
L 330.676364 471.073433 
L 306.327273 500.034627 
L 298.210909 510.791642 
L 298.210909 503.198455 
L 290.094545 479.633392 
L 265.745455 520.721194 
L 184.581818 123.539104 
" style="fill:none;stroke:#9467bd;stroke-linecap:square;stroke-width:1.5;"/>
   </g>
   <g id="line2d_28">
    <path clip-path="url(#p9b0ad0bdfd)" d="M 996.218182 421.959519 
L 988.101818 423.572602 
L 988.101818 401.737766 
L 979.985455 403.345851 
L 979.985455 380.915535 
L 971.869091 382.504279 
L 971.869091 365.05144 
L 963.752727 366.619701 
L 963.752727 347.46064 
L 955.636364 348.994349 
L 955.636364 334.10195 
L 931.287273 338.679403 
L 931.287273 325.835206 
L 915.054545 328.900299 
L 915.054545 300.50935 
L 898.821818 303.410502 
L 898.821818 287.629163 
L 882.589091 290.458302 
L 882.589091 277.754717 
L 874.472727 279.131642 
L 874.472727 256.242466 
L 850.123636 260.070448 
L 842.007273 261.395995 
L 842.007273 246.169075 
L 817.658182 249.961754 
L 817.658182 233.39798 
L 809.541818 234.579259 
L 809.541818 228.770772 
L 793.309091 231.109254 
L 793.309091 218.885373 
L 768.96 222.250536 
L 768.96 215.74209 
L 760.843636 216.852969 
L 760.843636 210.119956 
L 736.494545 213.407837 
L 728.378182 214.56 
L 728.378182 192.384 
L 704.029091 195.252537 
L 679.68 198.370513 
L 679.68 189.979491 
L 655.330909 193.04597 
L 630.981818 196.409206 
L 614.749091 198.838209 
L 614.749091 189.175128 
L 598.516364 191.478146 
L 582.283636 193.948657 
L 574.167273 195.252537 
L 574.167273 184.427868 
L 566.050909 185.598806 
L 566.050909 174.160351 
L 549.818182 176.226525 
L 533.585455 178.468542 
L 533.585455 165.631772 
L 517.352727 167.545075 
L 517.352727 153.558681 
L 493.003636 155.810149 
L 476.770909 157.508625 
L 468.654545 158.42672 
L 468.654545 141.467463 
L 444.305455 143.097313 
L 428.072727 144.359133 
L 411.84 145.794997 
L 395.607273 147.443582 
L 387.490909 148.362985 
L 387.490909 123.539104 
L 184.581818 123.539104 
L 184.581818 123.539104 
" style="fill:none;stroke:#8c564b;stroke-linecap:square;stroke-width:1.5;"/>
   </g>
   <g id="line2d_29">
    <path clip-path="url(#p9b0ad0bdfd)" d="M 996.218182 380.152232 
L 988.101818 381.707463 
L 988.101818 374.536119 
L 979.985455 376.095107 
L 979.985455 358.237612 
L 971.869091 359.771589 
L 971.869091 348.786665 
L 963.752727 350.308608 
L 963.752727 347.46064 
L 947.52 350.549213 
L 947.52 322.860263 
L 939.403636 324.336716 
L 939.403636 314.231642 
L 931.287273 315.68731 
L 931.287273 305.063731 
L 923.170909 306.493059 
L 923.170909 302.822687 
L 898.821818 307.195457 
L 898.821818 303.410502 
L 882.589091 306.408358 
L 882.589091 302.52137 
L 874.472727 304.038168 
L 874.472727 270.225672 
L 866.356364 271.57142 
L 866.356364 252.623284 
L 850.123636 255.129772 
L 850.123636 239.714866 
L 842.007273 240.888358 
L 842.007273 235.499872 
L 817.658182 239.035475 
L 817.658182 233.39798 
L 809.541818 234.579259 
L 809.541818 222.834627 
L 801.425455 223.93791 
L 801.425455 205.144045 
L 793.309091 206.09294 
L 793.309091 199.470975 
L 785.192727 200.374925 
L 785.192727 193.524503 
L 760.843636 196.148955 
L 752.727273 197.068067 
L 752.727273 189.736119 
L 728.378182 192.384 
L 728.378182 176.587397 
L 720.261818 177.324179 
L 720.261818 168.99128 
L 695.912727 170.996523 
L 671.563636 173.186866 
L 663.447273 173.962612 
L 663.447273 164.518209 
L 655.330909 165.179162 
L 655.330909 145.053134 
L 622.865455 146.589851 
L 598.516364 147.89461 
L 598.516364 135.951045 
L 566.050909 136.985373 
L 566.050909 123.539104 
L 184.581818 123.539104 
L 184.581818 123.539104 
" style="fill:none;stroke:#e377c2;stroke-linecap:square;stroke-width:1.5;"/>
   </g>
   <g id="line2d_30">
    <path clip-path="url(#p9b0ad0bdfd)" d="M 996.218182 365.57194 
L 988.101818 367.094159 
L 988.101818 356.723428 
L 971.869091 359.771589 
L 971.869091 348.786665 
L 955.636364 351.851258 
L 955.636364 343.161493 
L 939.403636 346.254766 
L 939.403636 334.00244 
L 931.287273 335.538669 
L 931.287273 332.351747 
L 915.054545 335.468354 
L 915.054545 332.209018 
L 906.938182 333.789851 
L 906.938182 323.669615 
L 898.821818 325.233134 
L 898.821818 321.739222 
L 882.589091 324.910424 
L 882.589091 317.690106 
L 874.472727 319.281507 
L 874.472727 300.064478 
L 866.356364 301.586248 
L 866.356364 293.386709 
L 858.24 294.889785 
L 858.24 272.94209 
L 850.123636 274.338379 
L 850.123636 260.070448 
L 833.890909 262.747533 
L 833.890909 247.407761 
L 825.774545 248.671727 
L 825.774545 243.30793 
L 817.658182 244.555522 
L 817.658182 239.035475 
L 793.309091 242.801661 
L 777.076364 245.45194 
L 777.076364 239.569827 
L 752.727273 243.617411 
L 752.727273 237.43691 
L 736.494545 240.181435 
L 736.494545 227.125174 
L 712.145455 231.109254 
L 695.912727 233.940047 
L 695.912727 226.806448 
L 679.68 229.63569 
L 671.563636 231.109254 
L 671.563636 223.533891 
L 663.447273 224.962388 
L 663.447273 208.962458 
L 647.214545 211.551045 
L 630.981818 214.301418 
L 622.865455 215.74209 
L 622.865455 206.81922 
L 614.749091 208.184468 
L 614.749091 198.838209 
L 606.632727 200.114465 
L 606.632727 190.306783 
L 598.516364 191.478146 
L 598.516364 170.478806 
L 574.167273 173.186866 
L 574.167273 149.35594 
L 566.050909 149.882814 
L 566.050909 136.985373 
L 533.585455 138.207761 
L 517.352727 138.906269 
L 517.352727 123.539104 
L 184.581818 123.539104 
L 184.581818 123.539104 
" style="fill:none;stroke:#7f7f7f;stroke-linecap:square;stroke-width:1.5;"/>
   </g>
   <g id="line2d_31">
    <path clip-path="url(#p9b0ad0bdfd)" d="M 184.581818 446.249552 
L 996.218182 446.249552 
" style="fill:none;stroke:#000000;stroke-dasharray:5.55,2.4;stroke-dashoffset:0;stroke-width:1.5;"/>
   </g>
   <g id="patch_3">
    <path d="M 144 768.96 
L 144 103.68 
" style="fill:none;stroke:#000000;stroke-linecap:square;stroke-linejoin:miter;stroke-width:0.8;"/>
   </g>
   <g id="patch_4">
    <path d="M 1036.8 768.96 
L 1036.8 103.68 
" style="fill:none;stroke:#000000;stroke-linecap:square;stroke-linejoin:miter;stroke-width:0.8;"/>
   </g>
   <g id="patch_5">
    <path d="M 144 768.96 
L 1036.8 768.96 
" style="fill:none;stroke:#000000;stroke-linecap:square;stroke-linejoin:miter;stroke-width:0.8;"/>
   </g>
   <g id="patch_6">
    <path d="M 144 103.68 
L 1036.8 103.68 
" style="fill:none;stroke:#000000;stroke-linecap:square;stroke-linejoin:miter;stroke-width:0.8;"/>
   </g>
   <g id="legend_1">
    <g id="patch_7">
     <path d="M 511.135 760.96 
L 1025.6 760.96 
Q 1028.8 760.96 1028.8 757.76 
L 1028.8 567.92 
Q 1028.8 564.72 1025.6 564.72 
L 511.135 564.72 
Q 507.935 564.72 507.935 567.92 
L 507.935 757.76 
Q 507.935 760.96 511.135 760.96 
z
" style="fill:#ffffff;opacity:0.8;stroke:#cccccc;stroke-linejoin:miter;"/>
    </g>
    <g id="line2d_32">
     <path d="M 514.335 577.6775 
L 546.335 577.6775 
" style="fill:none;stroke:#1f77b4;stroke-linecap:square;stroke-width:1.5;"/>
    </g>
    <g id="line2d_33"/>
    <g id="text_25">
     <!-- GradientBoostingClassifier, f1_score=0.755, auprc=0.889 -->
     <g transform="translate(559.135 583.2775)scale(0.16 -0.16)">
      <defs>
       <path d="M 59.515625 10.40625 
L 59.515625 29.984375 
L 43.40625 29.984375 
L 43.40625 38.09375 
L 69.28125 38.09375 
L 69.28125 6.78125 
Q 63.578125 2.734375 56.6875 0.65625 
Q 49.8125 -1.421875 42 -1.421875 
Q 24.90625 -1.421875 15.25 8.5625 
Q 5.609375 18.5625 5.609375 36.375 
Q 5.609375 54.25 15.25 64.234375 
Q 24.90625 74.21875 42 74.21875 
Q 49.125 74.21875 55.546875 72.453125 
Q 61.96875 70.703125 67.390625 67.28125 
L 67.390625 56.78125 
Q 61.921875 61.421875 55.765625 63.765625 
Q 49.609375 66.109375 42.828125 66.109375 
Q 29.4375 66.109375 22.71875 58.640625 
Q 16.015625 51.171875 16.015625 36.375 
Q 16.015625 21.625 22.71875 14.15625 
Q 29.4375 6.6875 42.828125 6.6875 
Q 48.046875 6.6875 52.140625 7.59375 
Q 56.25 8.5 59.515625 10.40625 
z
" id="DejaVuSans-71"/>
       <path d="M 45.40625 46.390625 
L 45.40625 75.984375 
L 54.390625 75.984375 
L 54.390625 0 
L 45.40625 0 
L 45.40625 8.203125 
Q 42.578125 3.328125 38.25 0.953125 
Q 33.9375 -1.421875 27.875 -1.421875 
Q 17.96875 -1.421875 11.734375 6.484375 
Q 5.515625 14.40625 5.515625 27.296875 
Q 5.515625 40.1875 11.734375 48.09375 
Q 17.96875 56 27.875 56 
Q 33.9375 56 38.25 53.625 
Q 42.578125 51.265625 45.40625 46.390625 
z
M 14.796875 27.296875 
Q 14.796875 17.390625 18.875 11.75 
Q 22.953125 6.109375 30.078125 6.109375 
Q 37.203125 6.109375 41.296875 11.75 
Q 45.40625 17.390625 45.40625 27.296875 
Q 45.40625 37.203125 41.296875 42.84375 
Q 37.203125 48.484375 30.078125 48.484375 
Q 22.953125 48.484375 18.875 42.84375 
Q 14.796875 37.203125 14.796875 27.296875 
z
" id="DejaVuSans-100"/>
       <path d="M 18.3125 70.21875 
L 18.3125 54.6875 
L 36.8125 54.6875 
L 36.8125 47.703125 
L 18.3125 47.703125 
L 18.3125 18.015625 
Q 18.3125 11.328125 20.140625 9.421875 
Q 21.96875 7.515625 27.59375 7.515625 
L 36.8125 7.515625 
L 36.8125 0 
L 27.59375 0 
Q 17.1875 0 13.234375 3.875 
Q 9.28125 7.765625 9.28125 18.015625 
L 9.28125 47.703125 
L 2.6875 47.703125 
L 2.6875 54.6875 
L 9.28125 54.6875 
L 9.28125 70.21875 
z
" id="DejaVuSans-116"/>
       <path d="M 19.671875 34.8125 
L 19.671875 8.109375 
L 35.5 8.109375 
Q 43.453125 8.109375 47.28125 11.40625 
Q 51.125 14.703125 51.125 21.484375 
Q 51.125 28.328125 47.28125 31.5625 
Q 43.453125 34.8125 35.5 34.8125 
z
M 19.671875 64.796875 
L 19.671875 42.828125 
L 34.28125 42.828125 
Q 41.5 42.828125 45.03125 45.53125 
Q 48.578125 48.25 48.578125 53.8125 
Q 48.578125 59.328125 45.03125 62.0625 
Q 41.5 64.796875 34.28125 64.796875 
z
M 9.8125 72.90625 
L 35.015625 72.90625 
Q 46.296875 72.90625 52.390625 68.21875 
Q 58.5 63.53125 58.5 54.890625 
Q 58.5 48.1875 55.375 44.234375 
Q 52.25 40.28125 46.1875 39.3125 
Q 53.46875 37.75 57.5 32.78125 
Q 61.53125 27.828125 61.53125 20.40625 
Q 61.53125 10.640625 54.890625 5.3125 
Q 48.25 0 35.984375 0 
L 9.8125 0 
z
" id="DejaVuSans-66"/>
       <path d="M 45.40625 27.984375 
Q 45.40625 37.75 41.375 43.109375 
Q 37.359375 48.484375 30.078125 48.484375 
Q 22.859375 48.484375 18.828125 43.109375 
Q 14.796875 37.75 14.796875 27.984375 
Q 14.796875 18.265625 18.828125 12.890625 
Q 22.859375 7.515625 30.078125 7.515625 
Q 37.359375 7.515625 41.375 12.890625 
Q 45.40625 18.265625 45.40625 27.984375 
z
M 54.390625 6.78125 
Q 54.390625 -7.171875 48.1875 -13.984375 
Q 42 -20.796875 29.203125 -20.796875 
Q 24.46875 -20.796875 20.265625 -20.09375 
Q 16.0625 -19.390625 12.109375 -17.921875 
L 12.109375 -9.1875 
Q 16.0625 -11.328125 19.921875 -12.34375 
Q 23.78125 -13.375 27.78125 -13.375 
Q 36.625 -13.375 41.015625 -8.765625 
Q 45.40625 -4.15625 45.40625 5.171875 
L 45.40625 9.625 
Q 42.625 4.78125 38.28125 2.390625 
Q 33.9375 0 27.875 0 
Q 17.828125 0 11.671875 7.65625 
Q 5.515625 15.328125 5.515625 27.984375 
Q 5.515625 40.671875 11.671875 48.328125 
Q 17.828125 56 27.875 56 
Q 33.9375 56 38.28125 53.609375 
Q 42.625 51.21875 45.40625 46.390625 
L 45.40625 54.6875 
L 54.390625 54.6875 
z
" id="DejaVuSans-103"/>
       <path d="M 64.40625 67.28125 
L 64.40625 56.890625 
Q 59.421875 61.53125 53.78125 63.8125 
Q 48.140625 66.109375 41.796875 66.109375 
Q 29.296875 66.109375 22.65625 58.46875 
Q 16.015625 50.828125 16.015625 36.375 
Q 16.015625 21.96875 22.65625 14.328125 
Q 29.296875 6.6875 41.796875 6.6875 
Q 48.140625 6.6875 53.78125 8.984375 
Q 59.421875 11.28125 64.40625 15.921875 
L 64.40625 5.609375 
Q 59.234375 2.09375 53.4375 0.328125 
Q 47.65625 -1.421875 41.21875 -1.421875 
Q 24.65625 -1.421875 15.125 8.703125 
Q 5.609375 18.84375 5.609375 36.375 
Q 5.609375 53.953125 15.125 64.078125 
Q 24.65625 74.21875 41.21875 74.21875 
Q 47.75 74.21875 53.53125 72.484375 
Q 59.328125 70.75 64.40625 67.28125 
z
" id="DejaVuSans-67"/>
       <path d="M 37.109375 75.984375 
L 37.109375 68.5 
L 28.515625 68.5 
Q 23.6875 68.5 21.796875 66.546875 
Q 19.921875 64.59375 19.921875 59.515625 
L 19.921875 54.6875 
L 34.71875 54.6875 
L 34.71875 47.703125 
L 19.921875 47.703125 
L 19.921875 0 
L 10.890625 0 
L 10.890625 47.703125 
L 2.296875 47.703125 
L 2.296875 54.6875 
L 10.890625 54.6875 
L 10.890625 58.5 
Q 10.890625 67.625 15.140625 71.796875 
Q 19.390625 75.984375 28.609375 75.984375 
z
" id="DejaVuSans-102"/>
       <path d="M 11.71875 12.40625 
L 22.015625 12.40625 
L 22.015625 4 
L 14.015625 -11.625 
L 7.71875 -11.625 
L 11.71875 4 
z
" id="DejaVuSans-44"/>
       <path id="DejaVuSans-32"/>
       <path d="M 50.984375 -16.609375 
L 50.984375 -23.578125 
L -0.984375 -23.578125 
L -0.984375 -16.609375 
z
" id="DejaVuSans-95"/>
       <path d="M 10.59375 45.40625 
L 73.1875 45.40625 
L 73.1875 37.203125 
L 10.59375 37.203125 
z
M 10.59375 25.484375 
L 73.1875 25.484375 
L 73.1875 17.1875 
L 10.59375 17.1875 
z
" id="DejaVuSans-61"/>
       <path d="M 8.5 21.578125 
L 8.5 54.6875 
L 17.484375 54.6875 
L 17.484375 21.921875 
Q 17.484375 14.15625 20.5 10.265625 
Q 23.53125 6.390625 29.59375 6.390625 
Q 36.859375 6.390625 41.078125 11.03125 
Q 45.3125 15.671875 45.3125 23.6875 
L 45.3125 54.6875 
L 54.296875 54.6875 
L 54.296875 0 
L 45.3125 0 
L 45.3125 8.40625 
Q 42.046875 3.421875 37.71875 1 
Q 33.40625 -1.421875 27.6875 -1.421875 
Q 18.265625 -1.421875 13.375 4.4375 
Q 8.5 10.296875 8.5 21.578125 
z
M 31.109375 56 
z
" id="DejaVuSans-117"/>
       <path d="M 18.109375 8.203125 
L 18.109375 -20.796875 
L 9.078125 -20.796875 
L 9.078125 54.6875 
L 18.109375 54.6875 
L 18.109375 46.390625 
Q 20.953125 51.265625 25.265625 53.625 
Q 29.59375 56 35.59375 56 
Q 45.5625 56 51.78125 48.09375 
Q 58.015625 40.1875 58.015625 27.296875 
Q 58.015625 14.40625 51.78125 6.484375 
Q 45.5625 -1.421875 35.59375 -1.421875 
Q 29.59375 -1.421875 25.265625 0.953125 
Q 20.953125 3.328125 18.109375 8.203125 
z
M 48.6875 27.296875 
Q 48.6875 37.203125 44.609375 42.84375 
Q 40.53125 48.484375 33.40625 48.484375 
Q 26.265625 48.484375 22.1875 42.84375 
Q 18.109375 37.203125 18.109375 27.296875 
Q 18.109375 17.390625 22.1875 11.75 
Q 26.265625 6.109375 33.40625 6.109375 
Q 40.53125 6.109375 44.609375 11.75 
Q 48.6875 17.390625 48.6875 27.296875 
z
" id="DejaVuSans-112"/>
      </defs>
      <use xlink:href="#DejaVuSans-71"/>
      <use x="77.490234" xlink:href="#DejaVuSans-114"/>
      <use x="118.603516" xlink:href="#DejaVuSans-97"/>
      <use x="179.882812" xlink:href="#DejaVuSans-100"/>
      <use x="243.359375" xlink:href="#DejaVuSans-105"/>
      <use x="271.142578" xlink:href="#DejaVuSans-101"/>
      <use x="332.666016" xlink:href="#DejaVuSans-110"/>
      <use x="396.044922" xlink:href="#DejaVuSans-116"/>
      <use x="435.253906" xlink:href="#DejaVuSans-66"/>
      <use x="503.857422" xlink:href="#DejaVuSans-111"/>
      <use x="565.039062" xlink:href="#DejaVuSans-111"/>
      <use x="626.220703" xlink:href="#DejaVuSans-115"/>
      <use x="678.320312" xlink:href="#DejaVuSans-116"/>
      <use x="717.529297" xlink:href="#DejaVuSans-105"/>
      <use x="745.3125" xlink:href="#DejaVuSans-110"/>
      <use x="808.691406" xlink:href="#DejaVuSans-103"/>
      <use x="872.167969" xlink:href="#DejaVuSans-67"/>
      <use x="941.992188" xlink:href="#DejaVuSans-108"/>
      <use x="969.775391" xlink:href="#DejaVuSans-97"/>
      <use x="1031.054688" xlink:href="#DejaVuSans-115"/>
      <use x="1083.154297" xlink:href="#DejaVuSans-115"/>
      <use x="1135.253906" xlink:href="#DejaVuSans-105"/>
      <use x="1163.037109" xlink:href="#DejaVuSans-102"/>
      <use x="1198.242188" xlink:href="#DejaVuSans-105"/>
      <use x="1226.025391" xlink:href="#DejaVuSans-101"/>
      <use x="1287.548828" xlink:href="#DejaVuSans-114"/>
      <use x="1328.662109" xlink:href="#DejaVuSans-44"/>
      <use x="1360.449219" xlink:href="#DejaVuSans-32"/>
      <use x="1392.236328" xlink:href="#DejaVuSans-102"/>
      <use x="1427.441406" xlink:href="#DejaVuSans-49"/>
      <use x="1491.064453" xlink:href="#DejaVuSans-95"/>
      <use x="1541.064453" xlink:href="#DejaVuSans-115"/>
      <use x="1593.164062" xlink:href="#DejaVuSans-99"/>
      <use x="1648.144531" xlink:href="#DejaVuSans-111"/>
      <use x="1709.326172" xlink:href="#DejaVuSans-114"/>
      <use x="1748.189453" xlink:href="#DejaVuSans-101"/>
      <use x="1809.712891" xlink:href="#DejaVuSans-61"/>
      <use x="1893.501953" xlink:href="#DejaVuSans-48"/>
      <use x="1957.125" xlink:href="#DejaVuSans-46"/>
      <use x="1988.912109" xlink:href="#DejaVuSans-55"/>
      <use x="2052.535156" xlink:href="#DejaVuSans-53"/>
      <use x="2116.158203" xlink:href="#DejaVuSans-53"/>
      <use x="2179.78125" xlink:href="#DejaVuSans-44"/>
      <use x="2211.568359" xlink:href="#DejaVuSans-32"/>
      <use x="2243.355469" xlink:href="#DejaVuSans-97"/>
      <use x="2304.634766" xlink:href="#DejaVuSans-117"/>
      <use x="2368.013672" xlink:href="#DejaVuSans-112"/>
      <use x="2431.490234" xlink:href="#DejaVuSans-114"/>
      <use x="2470.353516" xlink:href="#DejaVuSans-99"/>
      <use x="2525.333984" xlink:href="#DejaVuSans-61"/>
      <use x="2609.123047" xlink:href="#DejaVuSans-48"/>
      <use x="2672.746094" xlink:href="#DejaVuSans-46"/>
      <use x="2704.533203" xlink:href="#DejaVuSans-56"/>
      <use x="2768.15625" xlink:href="#DejaVuSans-56"/>
      <use x="2831.779297" xlink:href="#DejaVuSans-57"/>
     </g>
    </g>
    <g id="line2d_34">
     <path d="M 514.335 601.6075 
L 546.335 601.6075 
" style="fill:none;stroke:#ff7f0e;stroke-linecap:square;stroke-width:1.5;"/>
    </g>
    <g id="line2d_35"/>
    <g id="text_26">
     <!-- XGBClassifier, f1_score=0.816, auprc=0.919 -->
     <g transform="translate(559.135 607.2075)scale(0.16 -0.16)">
      <defs>
       <path d="M 6.296875 72.90625 
L 16.890625 72.90625 
L 35.015625 45.796875 
L 53.21875 72.90625 
L 63.8125 72.90625 
L 40.375 37.890625 
L 65.375 0 
L 54.78125 0 
L 34.28125 31 
L 13.625 0 
L 2.984375 0 
L 29 38.921875 
z
" id="DejaVuSans-88"/>
      </defs>
      <use xlink:href="#DejaVuSans-88"/>
      <use x="68.505859" xlink:href="#DejaVuSans-71"/>
      <use x="145.996094" xlink:href="#DejaVuSans-66"/>
      <use x="212.849609" xlink:href="#DejaVuSans-67"/>
      <use x="282.673828" xlink:href="#DejaVuSans-108"/>
      <use x="310.457031" xlink:href="#DejaVuSans-97"/>
      <use x="371.736328" xlink:href="#DejaVuSans-115"/>
      <use x="423.835938" xlink:href="#DejaVuSans-115"/>
      <use x="475.935547" xlink:href="#DejaVuSans-105"/>
      <use x="503.71875" xlink:href="#DejaVuSans-102"/>
      <use x="538.923828" xlink:href="#DejaVuSans-105"/>
      <use x="566.707031" xlink:href="#DejaVuSans-101"/>
      <use x="628.230469" xlink:href="#DejaVuSans-114"/>
      <use x="669.34375" xlink:href="#DejaVuSans-44"/>
      <use x="701.130859" xlink:href="#DejaVuSans-32"/>
      <use x="732.917969" xlink:href="#DejaVuSans-102"/>
      <use x="768.123047" xlink:href="#DejaVuSans-49"/>
      <use x="831.746094" xlink:href="#DejaVuSans-95"/>
      <use x="881.746094" xlink:href="#DejaVuSans-115"/>
      <use x="933.845703" xlink:href="#DejaVuSans-99"/>
      <use x="988.826172" xlink:href="#DejaVuSans-111"/>
      <use x="1050.007812" xlink:href="#DejaVuSans-114"/>
      <use x="1088.871094" xlink:href="#DejaVuSans-101"/>
      <use x="1150.394531" xlink:href="#DejaVuSans-61"/>
      <use x="1234.183594" xlink:href="#DejaVuSans-48"/>
      <use x="1297.806641" xlink:href="#DejaVuSans-46"/>
      <use x="1329.59375" xlink:href="#DejaVuSans-56"/>
      <use x="1393.216797" xlink:href="#DejaVuSans-49"/>
      <use x="1456.839844" xlink:href="#DejaVuSans-54"/>
      <use x="1520.462891" xlink:href="#DejaVuSans-44"/>
      <use x="1552.25" xlink:href="#DejaVuSans-32"/>
      <use x="1584.037109" xlink:href="#DejaVuSans-97"/>
      <use x="1645.316406" xlink:href="#DejaVuSans-117"/>
      <use x="1708.695312" xlink:href="#DejaVuSans-112"/>
      <use x="1772.171875" xlink:href="#DejaVuSans-114"/>
      <use x="1811.035156" xlink:href="#DejaVuSans-99"/>
      <use x="1866.015625" xlink:href="#DejaVuSans-61"/>
      <use x="1949.804688" xlink:href="#DejaVuSans-48"/>
      <use x="2013.427734" xlink:href="#DejaVuSans-46"/>
      <use x="2045.214844" xlink:href="#DejaVuSans-57"/>
      <use x="2108.837891" xlink:href="#DejaVuSans-49"/>
      <use x="2172.460938" xlink:href="#DejaVuSans-57"/>
     </g>
    </g>
    <g id="line2d_36">
     <path d="M 514.335 625.5375 
L 546.335 625.5375 
" style="fill:none;stroke:#2ca02c;stroke-linecap:square;stroke-width:1.5;"/>
    </g>
    <g id="line2d_37"/>
    <g id="text_27">
     <!-- LogisticRegression, f1_score=0.512, auprc=0.506 -->
     <g transform="translate(559.135 631.1375)scale(0.16 -0.16)">
      <defs>
       <path d="M 9.8125 72.90625 
L 19.671875 72.90625 
L 19.671875 8.296875 
L 55.171875 8.296875 
L 55.171875 0 
L 9.8125 0 
z
" id="DejaVuSans-76"/>
      </defs>
      <use xlink:href="#DejaVuSans-76"/>
      <use x="53.962891" xlink:href="#DejaVuSans-111"/>
      <use x="115.144531" xlink:href="#DejaVuSans-103"/>
      <use x="178.621094" xlink:href="#DejaVuSans-105"/>
      <use x="206.404297" xlink:href="#DejaVuSans-115"/>
      <use x="258.503906" xlink:href="#DejaVuSans-116"/>
      <use x="297.712891" xlink:href="#DejaVuSans-105"/>
      <use x="325.496094" xlink:href="#DejaVuSans-99"/>
      <use x="380.476562" xlink:href="#DejaVuSans-82"/>
      <use x="445.458984" xlink:href="#DejaVuSans-101"/>
      <use x="506.982422" xlink:href="#DejaVuSans-103"/>
      <use x="570.458984" xlink:href="#DejaVuSans-114"/>
      <use x="609.322266" xlink:href="#DejaVuSans-101"/>
      <use x="670.845703" xlink:href="#DejaVuSans-115"/>
      <use x="722.945312" xlink:href="#DejaVuSans-115"/>
      <use x="775.044922" xlink:href="#DejaVuSans-105"/>
      <use x="802.828125" xlink:href="#DejaVuSans-111"/>
      <use x="864.009766" xlink:href="#DejaVuSans-110"/>
      <use x="927.388672" xlink:href="#DejaVuSans-44"/>
      <use x="959.175781" xlink:href="#DejaVuSans-32"/>
      <use x="990.962891" xlink:href="#DejaVuSans-102"/>
      <use x="1026.167969" xlink:href="#DejaVuSans-49"/>
      <use x="1089.791016" xlink:href="#DejaVuSans-95"/>
      <use x="1139.791016" xlink:href="#DejaVuSans-115"/>
      <use x="1191.890625" xlink:href="#DejaVuSans-99"/>
      <use x="1246.871094" xlink:href="#DejaVuSans-111"/>
      <use x="1308.052734" xlink:href="#DejaVuSans-114"/>
      <use x="1346.916016" xlink:href="#DejaVuSans-101"/>
      <use x="1408.439453" xlink:href="#DejaVuSans-61"/>
      <use x="1492.228516" xlink:href="#DejaVuSans-48"/>
      <use x="1555.851562" xlink:href="#DejaVuSans-46"/>
      <use x="1587.638672" xlink:href="#DejaVuSans-53"/>
      <use x="1651.261719" xlink:href="#DejaVuSans-49"/>
      <use x="1714.884766" xlink:href="#DejaVuSans-50"/>
      <use x="1778.507812" xlink:href="#DejaVuSans-44"/>
      <use x="1810.294922" xlink:href="#DejaVuSans-32"/>
      <use x="1842.082031" xlink:href="#DejaVuSans-97"/>
      <use x="1903.361328" xlink:href="#DejaVuSans-117"/>
      <use x="1966.740234" xlink:href="#DejaVuSans-112"/>
      <use x="2030.216797" xlink:href="#DejaVuSans-114"/>
      <use x="2069.080078" xlink:href="#DejaVuSans-99"/>
      <use x="2124.060547" xlink:href="#DejaVuSans-61"/>
      <use x="2207.849609" xlink:href="#DejaVuSans-48"/>
      <use x="2271.472656" xlink:href="#DejaVuSans-46"/>
      <use x="2303.259766" xlink:href="#DejaVuSans-53"/>
      <use x="2366.882812" xlink:href="#DejaVuSans-48"/>
      <use x="2430.505859" xlink:href="#DejaVuSans-54"/>
     </g>
    </g>
    <g id="line2d_38">
     <path d="M 514.335 649.4675 
L 546.335 649.4675 
" style="fill:none;stroke:#d62728;stroke-linecap:square;stroke-width:1.5;"/>
    </g>
    <g id="line2d_39"/>
    <g id="text_28">
     <!-- KNeighborsClassifier, f1_score=0.753, auprc=0.813 -->
     <g transform="translate(559.135 655.0675)scale(0.16 -0.16)">
      <defs>
       <path d="M 9.8125 72.90625 
L 19.671875 72.90625 
L 19.671875 42.09375 
L 52.390625 72.90625 
L 65.09375 72.90625 
L 28.90625 38.921875 
L 67.671875 0 
L 54.6875 0 
L 19.671875 35.109375 
L 19.671875 0 
L 9.8125 0 
z
" id="DejaVuSans-75"/>
       <path d="M 9.8125 72.90625 
L 23.09375 72.90625 
L 55.421875 11.921875 
L 55.421875 72.90625 
L 64.984375 72.90625 
L 64.984375 0 
L 51.703125 0 
L 19.390625 60.984375 
L 19.390625 0 
L 9.8125 0 
z
" id="DejaVuSans-78"/>
       <path d="M 54.890625 33.015625 
L 54.890625 0 
L 45.90625 0 
L 45.90625 32.71875 
Q 45.90625 40.484375 42.875 44.328125 
Q 39.84375 48.1875 33.796875 48.1875 
Q 26.515625 48.1875 22.3125 43.546875 
Q 18.109375 38.921875 18.109375 30.90625 
L 18.109375 0 
L 9.078125 0 
L 9.078125 75.984375 
L 18.109375 75.984375 
L 18.109375 46.1875 
Q 21.34375 51.125 25.703125 53.5625 
Q 30.078125 56 35.796875 56 
Q 45.21875 56 50.046875 50.171875 
Q 54.890625 44.34375 54.890625 33.015625 
z
" id="DejaVuSans-104"/>
       <path d="M 48.6875 27.296875 
Q 48.6875 37.203125 44.609375 42.84375 
Q 40.53125 48.484375 33.40625 48.484375 
Q 26.265625 48.484375 22.1875 42.84375 
Q 18.109375 37.203125 18.109375 27.296875 
Q 18.109375 17.390625 22.1875 11.75 
Q 26.265625 6.109375 33.40625 6.109375 
Q 40.53125 6.109375 44.609375 11.75 
Q 48.6875 17.390625 48.6875 27.296875 
z
M 18.109375 46.390625 
Q 20.953125 51.265625 25.265625 53.625 
Q 29.59375 56 35.59375 56 
Q 45.5625 56 51.78125 48.09375 
Q 58.015625 40.1875 58.015625 27.296875 
Q 58.015625 14.40625 51.78125 6.484375 
Q 45.5625 -1.421875 35.59375 -1.421875 
Q 29.59375 -1.421875 25.265625 0.953125 
Q 20.953125 3.328125 18.109375 8.203125 
L 18.109375 0 
L 9.078125 0 
L 9.078125 75.984375 
L 18.109375 75.984375 
z
" id="DejaVuSans-98"/>
      </defs>
      <use xlink:href="#DejaVuSans-75"/>
      <use x="65.576172" xlink:href="#DejaVuSans-78"/>
      <use x="140.380859" xlink:href="#DejaVuSans-101"/>
      <use x="201.904297" xlink:href="#DejaVuSans-105"/>
      <use x="229.6875" xlink:href="#DejaVuSans-103"/>
      <use x="293.164062" xlink:href="#DejaVuSans-104"/>
      <use x="356.542969" xlink:href="#DejaVuSans-98"/>
      <use x="420.019531" xlink:href="#DejaVuSans-111"/>
      <use x="481.201172" xlink:href="#DejaVuSans-114"/>
      <use x="522.314453" xlink:href="#DejaVuSans-115"/>
      <use x="574.414062" xlink:href="#DejaVuSans-67"/>
      <use x="644.238281" xlink:href="#DejaVuSans-108"/>
      <use x="672.021484" xlink:href="#DejaVuSans-97"/>
      <use x="733.300781" xlink:href="#DejaVuSans-115"/>
      <use x="785.400391" xlink:href="#DejaVuSans-115"/>
      <use x="837.5" xlink:href="#DejaVuSans-105"/>
      <use x="865.283203" xlink:href="#DejaVuSans-102"/>
      <use x="900.488281" xlink:href="#DejaVuSans-105"/>
      <use x="928.271484" xlink:href="#DejaVuSans-101"/>
      <use x="989.794922" xlink:href="#DejaVuSans-114"/>
      <use x="1030.908203" xlink:href="#DejaVuSans-44"/>
      <use x="1062.695312" xlink:href="#DejaVuSans-32"/>
      <use x="1094.482422" xlink:href="#DejaVuSans-102"/>
      <use x="1129.6875" xlink:href="#DejaVuSans-49"/>
      <use x="1193.310547" xlink:href="#DejaVuSans-95"/>
      <use x="1243.310547" xlink:href="#DejaVuSans-115"/>
      <use x="1295.410156" xlink:href="#DejaVuSans-99"/>
      <use x="1350.390625" xlink:href="#DejaVuSans-111"/>
      <use x="1411.572266" xlink:href="#DejaVuSans-114"/>
      <use x="1450.435547" xlink:href="#DejaVuSans-101"/>
      <use x="1511.958984" xlink:href="#DejaVuSans-61"/>
      <use x="1595.748047" xlink:href="#DejaVuSans-48"/>
      <use x="1659.371094" xlink:href="#DejaVuSans-46"/>
      <use x="1691.158203" xlink:href="#DejaVuSans-55"/>
      <use x="1754.78125" xlink:href="#DejaVuSans-53"/>
      <use x="1818.404297" xlink:href="#DejaVuSans-51"/>
      <use x="1882.027344" xlink:href="#DejaVuSans-44"/>
      <use x="1913.814453" xlink:href="#DejaVuSans-32"/>
      <use x="1945.601562" xlink:href="#DejaVuSans-97"/>
      <use x="2006.880859" xlink:href="#DejaVuSans-117"/>
      <use x="2070.259766" xlink:href="#DejaVuSans-112"/>
      <use x="2133.736328" xlink:href="#DejaVuSans-114"/>
      <use x="2172.599609" xlink:href="#DejaVuSans-99"/>
      <use x="2227.580078" xlink:href="#DejaVuSans-61"/>
      <use x="2311.369141" xlink:href="#DejaVuSans-48"/>
      <use x="2374.992188" xlink:href="#DejaVuSans-46"/>
      <use x="2406.779297" xlink:href="#DejaVuSans-56"/>
      <use x="2470.402344" xlink:href="#DejaVuSans-49"/>
      <use x="2534.025391" xlink:href="#DejaVuSans-51"/>
     </g>
    </g>
    <g id="line2d_40">
     <path d="M 514.335 673.3975 
L 546.335 673.3975 
" style="fill:none;stroke:#9467bd;stroke-linecap:square;stroke-width:1.5;"/>
    </g>
    <g id="line2d_41"/>
    <g id="text_29">
     <!-- DecisionTreeClassifier, f1_score=0.561, auprc=0.523 -->
     <g transform="translate(559.135 678.9975)scale(0.16 -0.16)">
      <defs>
       <path d="M 19.671875 64.796875 
L 19.671875 8.109375 
L 31.59375 8.109375 
Q 46.6875 8.109375 53.6875 14.9375 
Q 60.6875 21.78125 60.6875 36.53125 
Q 60.6875 51.171875 53.6875 57.984375 
Q 46.6875 64.796875 31.59375 64.796875 
z
M 9.8125 72.90625 
L 30.078125 72.90625 
Q 51.265625 72.90625 61.171875 64.09375 
Q 71.09375 55.28125 71.09375 36.53125 
Q 71.09375 17.671875 61.125 8.828125 
Q 51.171875 0 30.078125 0 
L 9.8125 0 
z
" id="DejaVuSans-68"/>
       <path d="M -0.296875 72.90625 
L 61.375 72.90625 
L 61.375 64.59375 
L 35.5 64.59375 
L 35.5 0 
L 25.59375 0 
L 25.59375 64.59375 
L -0.296875 64.59375 
z
" id="DejaVuSans-84"/>
      </defs>
      <use xlink:href="#DejaVuSans-68"/>
      <use x="77.001953" xlink:href="#DejaVuSans-101"/>
      <use x="138.525391" xlink:href="#DejaVuSans-99"/>
      <use x="193.505859" xlink:href="#DejaVuSans-105"/>
      <use x="221.289062" xlink:href="#DejaVuSans-115"/>
      <use x="273.388672" xlink:href="#DejaVuSans-105"/>
      <use x="301.171875" xlink:href="#DejaVuSans-111"/>
      <use x="362.353516" xlink:href="#DejaVuSans-110"/>
      <use x="425.732422" xlink:href="#DejaVuSans-84"/>
      <use x="472.066406" xlink:href="#DejaVuSans-114"/>
      <use x="510.929688" xlink:href="#DejaVuSans-101"/>
      <use x="572.453125" xlink:href="#DejaVuSans-101"/>
      <use x="633.976562" xlink:href="#DejaVuSans-67"/>
      <use x="703.800781" xlink:href="#DejaVuSans-108"/>
      <use x="731.583984" xlink:href="#DejaVuSans-97"/>
      <use x="792.863281" xlink:href="#DejaVuSans-115"/>
      <use x="844.962891" xlink:href="#DejaVuSans-115"/>
      <use x="897.0625" xlink:href="#DejaVuSans-105"/>
      <use x="924.845703" xlink:href="#DejaVuSans-102"/>
      <use x="960.050781" xlink:href="#DejaVuSans-105"/>
      <use x="987.833984" xlink:href="#DejaVuSans-101"/>
      <use x="1049.357422" xlink:href="#DejaVuSans-114"/>
      <use x="1090.470703" xlink:href="#DejaVuSans-44"/>
      <use x="1122.257812" xlink:href="#DejaVuSans-32"/>
      <use x="1154.044922" xlink:href="#DejaVuSans-102"/>
      <use x="1189.25" xlink:href="#DejaVuSans-49"/>
      <use x="1252.873047" xlink:href="#DejaVuSans-95"/>
      <use x="1302.873047" xlink:href="#DejaVuSans-115"/>
      <use x="1354.972656" xlink:href="#DejaVuSans-99"/>
      <use x="1409.953125" xlink:href="#DejaVuSans-111"/>
      <use x="1471.134766" xlink:href="#DejaVuSans-114"/>
      <use x="1509.998047" xlink:href="#DejaVuSans-101"/>
      <use x="1571.521484" xlink:href="#DejaVuSans-61"/>
      <use x="1655.310547" xlink:href="#DejaVuSans-48"/>
      <use x="1718.933594" xlink:href="#DejaVuSans-46"/>
      <use x="1750.720703" xlink:href="#DejaVuSans-53"/>
      <use x="1814.34375" xlink:href="#DejaVuSans-54"/>
      <use x="1877.966797" xlink:href="#DejaVuSans-49"/>
      <use x="1941.589844" xlink:href="#DejaVuSans-44"/>
      <use x="1973.376953" xlink:href="#DejaVuSans-32"/>
      <use x="2005.164062" xlink:href="#DejaVuSans-97"/>
      <use x="2066.443359" xlink:href="#DejaVuSans-117"/>
      <use x="2129.822266" xlink:href="#DejaVuSans-112"/>
      <use x="2193.298828" xlink:href="#DejaVuSans-114"/>
      <use x="2232.162109" xlink:href="#DejaVuSans-99"/>
      <use x="2287.142578" xlink:href="#DejaVuSans-61"/>
      <use x="2370.931641" xlink:href="#DejaVuSans-48"/>
      <use x="2434.554688" xlink:href="#DejaVuSans-46"/>
      <use x="2466.341797" xlink:href="#DejaVuSans-53"/>
      <use x="2529.964844" xlink:href="#DejaVuSans-50"/>
      <use x="2593.587891" xlink:href="#DejaVuSans-51"/>
     </g>
    </g>
    <g id="line2d_42">
     <path d="M 514.335 697.3275 
L 546.335 697.3275 
" style="fill:none;stroke:#8c564b;stroke-linecap:square;stroke-width:1.5;"/>
    </g>
    <g id="line2d_43"/>
    <g id="text_30">
     <!-- SVC, f1_score=0.810, auprc=0.887 -->
     <g transform="translate(559.135 702.9275)scale(0.16 -0.16)">
      <defs>
       <path d="M 53.515625 70.515625 
L 53.515625 60.890625 
Q 47.90625 63.578125 42.921875 64.890625 
Q 37.9375 66.21875 33.296875 66.21875 
Q 25.25 66.21875 20.875 63.09375 
Q 16.5 59.96875 16.5 54.203125 
Q 16.5 49.359375 19.40625 46.890625 
Q 22.3125 44.4375 30.421875 42.921875 
L 36.375 41.703125 
Q 47.40625 39.59375 52.65625 34.296875 
Q 57.90625 29 57.90625 20.125 
Q 57.90625 9.515625 50.796875 4.046875 
Q 43.703125 -1.421875 29.984375 -1.421875 
Q 24.8125 -1.421875 18.96875 -0.25 
Q 13.140625 0.921875 6.890625 3.21875 
L 6.890625 13.375 
Q 12.890625 10.015625 18.65625 8.296875 
Q 24.421875 6.59375 29.984375 6.59375 
Q 38.421875 6.59375 43.015625 9.90625 
Q 47.609375 13.234375 47.609375 19.390625 
Q 47.609375 24.75 44.3125 27.78125 
Q 41.015625 30.8125 33.5 32.328125 
L 27.484375 33.5 
Q 16.453125 35.6875 11.515625 40.375 
Q 6.59375 45.0625 6.59375 53.421875 
Q 6.59375 63.09375 13.40625 68.65625 
Q 20.21875 74.21875 32.171875 74.21875 
Q 37.3125 74.21875 42.625 73.28125 
Q 47.953125 72.359375 53.515625 70.515625 
z
" id="DejaVuSans-83"/>
       <path d="M 28.609375 0 
L 0.78125 72.90625 
L 11.078125 72.90625 
L 34.1875 11.53125 
L 57.328125 72.90625 
L 67.578125 72.90625 
L 39.796875 0 
z
" id="DejaVuSans-86"/>
      </defs>
      <use xlink:href="#DejaVuSans-83"/>
      <use x="63.476562" xlink:href="#DejaVuSans-86"/>
      <use x="131.884766" xlink:href="#DejaVuSans-67"/>
      <use x="201.708984" xlink:href="#DejaVuSans-44"/>
      <use x="233.496094" xlink:href="#DejaVuSans-32"/>
      <use x="265.283203" xlink:href="#DejaVuSans-102"/>
      <use x="300.488281" xlink:href="#DejaVuSans-49"/>
      <use x="364.111328" xlink:href="#DejaVuSans-95"/>
      <use x="414.111328" xlink:href="#DejaVuSans-115"/>
      <use x="466.210938" xlink:href="#DejaVuSans-99"/>
      <use x="521.191406" xlink:href="#DejaVuSans-111"/>
      <use x="582.373047" xlink:href="#DejaVuSans-114"/>
      <use x="621.236328" xlink:href="#DejaVuSans-101"/>
      <use x="682.759766" xlink:href="#DejaVuSans-61"/>
      <use x="766.548828" xlink:href="#DejaVuSans-48"/>
      <use x="830.171875" xlink:href="#DejaVuSans-46"/>
      <use x="861.958984" xlink:href="#DejaVuSans-56"/>
      <use x="925.582031" xlink:href="#DejaVuSans-49"/>
      <use x="989.205078" xlink:href="#DejaVuSans-48"/>
      <use x="1052.828125" xlink:href="#DejaVuSans-44"/>
      <use x="1084.615234" xlink:href="#DejaVuSans-32"/>
      <use x="1116.402344" xlink:href="#DejaVuSans-97"/>
      <use x="1177.681641" xlink:href="#DejaVuSans-117"/>
      <use x="1241.060547" xlink:href="#DejaVuSans-112"/>
      <use x="1304.537109" xlink:href="#DejaVuSans-114"/>
      <use x="1343.400391" xlink:href="#DejaVuSans-99"/>
      <use x="1398.380859" xlink:href="#DejaVuSans-61"/>
      <use x="1482.169922" xlink:href="#DejaVuSans-48"/>
      <use x="1545.792969" xlink:href="#DejaVuSans-46"/>
      <use x="1577.580078" xlink:href="#DejaVuSans-56"/>
      <use x="1641.203125" xlink:href="#DejaVuSans-56"/>
      <use x="1704.826172" xlink:href="#DejaVuSans-55"/>
     </g>
    </g>
    <g id="line2d_44">
     <path d="M 514.335 721.2575 
L 546.335 721.2575 
" style="fill:none;stroke:#e377c2;stroke-linecap:square;stroke-width:1.5;"/>
    </g>
    <g id="line2d_45"/>
    <g id="text_31">
     <!-- RandomForestClassifier, f1_score=0.804, auprc=0.916 -->
     <g transform="translate(559.135 726.8575)scale(0.16 -0.16)">
      <defs>
       <path d="M 52 44.1875 
Q 55.375 50.25 60.0625 53.125 
Q 64.75 56 71.09375 56 
Q 79.640625 56 84.28125 50.015625 
Q 88.921875 44.046875 88.921875 33.015625 
L 88.921875 0 
L 79.890625 0 
L 79.890625 32.71875 
Q 79.890625 40.578125 77.09375 44.375 
Q 74.3125 48.1875 68.609375 48.1875 
Q 61.625 48.1875 57.5625 43.546875 
Q 53.515625 38.921875 53.515625 30.90625 
L 53.515625 0 
L 44.484375 0 
L 44.484375 32.71875 
Q 44.484375 40.625 41.703125 44.40625 
Q 38.921875 48.1875 33.109375 48.1875 
Q 26.21875 48.1875 22.15625 43.53125 
Q 18.109375 38.875 18.109375 30.90625 
L 18.109375 0 
L 9.078125 0 
L 9.078125 54.6875 
L 18.109375 54.6875 
L 18.109375 46.1875 
Q 21.1875 51.21875 25.484375 53.609375 
Q 29.78125 56 35.6875 56 
Q 41.65625 56 45.828125 52.96875 
Q 50 49.953125 52 44.1875 
z
" id="DejaVuSans-109"/>
       <path d="M 9.8125 72.90625 
L 51.703125 72.90625 
L 51.703125 64.59375 
L 19.671875 64.59375 
L 19.671875 43.109375 
L 48.578125 43.109375 
L 48.578125 34.8125 
L 19.671875 34.8125 
L 19.671875 0 
L 9.8125 0 
z
" id="DejaVuSans-70"/>
      </defs>
      <use xlink:href="#DejaVuSans-82"/>
      <use x="67.232422" xlink:href="#DejaVuSans-97"/>
      <use x="128.511719" xlink:href="#DejaVuSans-110"/>
      <use x="191.890625" xlink:href="#DejaVuSans-100"/>
      <use x="255.367188" xlink:href="#DejaVuSans-111"/>
      <use x="316.548828" xlink:href="#DejaVuSans-109"/>
      <use x="413.960938" xlink:href="#DejaVuSans-70"/>
      <use x="467.855469" xlink:href="#DejaVuSans-111"/>
      <use x="529.037109" xlink:href="#DejaVuSans-114"/>
      <use x="567.900391" xlink:href="#DejaVuSans-101"/>
      <use x="629.423828" xlink:href="#DejaVuSans-115"/>
      <use x="681.523438" xlink:href="#DejaVuSans-116"/>
      <use x="720.732422" xlink:href="#DejaVuSans-67"/>
      <use x="790.556641" xlink:href="#DejaVuSans-108"/>
      <use x="818.339844" xlink:href="#DejaVuSans-97"/>
      <use x="879.619141" xlink:href="#DejaVuSans-115"/>
      <use x="931.71875" xlink:href="#DejaVuSans-115"/>
      <use x="983.818359" xlink:href="#DejaVuSans-105"/>
      <use x="1011.601562" xlink:href="#DejaVuSans-102"/>
      <use x="1046.806641" xlink:href="#DejaVuSans-105"/>
      <use x="1074.589844" xlink:href="#DejaVuSans-101"/>
      <use x="1136.113281" xlink:href="#DejaVuSans-114"/>
      <use x="1177.226562" xlink:href="#DejaVuSans-44"/>
      <use x="1209.013672" xlink:href="#DejaVuSans-32"/>
      <use x="1240.800781" xlink:href="#DejaVuSans-102"/>
      <use x="1276.005859" xlink:href="#DejaVuSans-49"/>
      <use x="1339.628906" xlink:href="#DejaVuSans-95"/>
      <use x="1389.628906" xlink:href="#DejaVuSans-115"/>
      <use x="1441.728516" xlink:href="#DejaVuSans-99"/>
      <use x="1496.708984" xlink:href="#DejaVuSans-111"/>
      <use x="1557.890625" xlink:href="#DejaVuSans-114"/>
      <use x="1596.753906" xlink:href="#DejaVuSans-101"/>
      <use x="1658.277344" xlink:href="#DejaVuSans-61"/>
      <use x="1742.066406" xlink:href="#DejaVuSans-48"/>
      <use x="1805.689453" xlink:href="#DejaVuSans-46"/>
      <use x="1837.476562" xlink:href="#DejaVuSans-56"/>
      <use x="1901.099609" xlink:href="#DejaVuSans-48"/>
      <use x="1964.722656" xlink:href="#DejaVuSans-52"/>
      <use x="2028.345703" xlink:href="#DejaVuSans-44"/>
      <use x="2060.132812" xlink:href="#DejaVuSans-32"/>
      <use x="2091.919922" xlink:href="#DejaVuSans-97"/>
      <use x="2153.199219" xlink:href="#DejaVuSans-117"/>
      <use x="2216.578125" xlink:href="#DejaVuSans-112"/>
      <use x="2280.054688" xlink:href="#DejaVuSans-114"/>
      <use x="2318.917969" xlink:href="#DejaVuSans-99"/>
      <use x="2373.898438" xlink:href="#DejaVuSans-61"/>
      <use x="2457.6875" xlink:href="#DejaVuSans-48"/>
      <use x="2521.310547" xlink:href="#DejaVuSans-46"/>
      <use x="2553.097656" xlink:href="#DejaVuSans-57"/>
      <use x="2616.720703" xlink:href="#DejaVuSans-49"/>
      <use x="2680.34375" xlink:href="#DejaVuSans-54"/>
     </g>
    </g>
    <g id="line2d_46">
     <path d="M 514.335 745.1875 
L 546.335 745.1875 
" style="fill:none;stroke:#7f7f7f;stroke-linecap:square;stroke-width:1.5;"/>
    </g>
    <g id="line2d_47"/>
    <g id="text_32">
     <!-- LGBMClassifier, f1_score=0.800, auprc=0.887 -->
     <g transform="translate(559.135 750.7875)scale(0.16 -0.16)">
      <defs>
       <path d="M 9.8125 72.90625 
L 24.515625 72.90625 
L 43.109375 23.296875 
L 61.8125 72.90625 
L 76.515625 72.90625 
L 76.515625 0 
L 66.890625 0 
L 66.890625 64.015625 
L 48.09375 14.015625 
L 38.1875 14.015625 
L 19.390625 64.015625 
L 19.390625 0 
L 9.8125 0 
z
" id="DejaVuSans-77"/>
      </defs>
      <use xlink:href="#DejaVuSans-76"/>
      <use x="55.712891" xlink:href="#DejaVuSans-71"/>
      <use x="133.203125" xlink:href="#DejaVuSans-66"/>
      <use x="201.806641" xlink:href="#DejaVuSans-77"/>
      <use x="288.085938" xlink:href="#DejaVuSans-67"/>
      <use x="357.910156" xlink:href="#DejaVuSans-108"/>
      <use x="385.693359" xlink:href="#DejaVuSans-97"/>
      <use x="446.972656" xlink:href="#DejaVuSans-115"/>
      <use x="499.072266" xlink:href="#DejaVuSans-115"/>
      <use x="551.171875" xlink:href="#DejaVuSans-105"/>
      <use x="578.955078" xlink:href="#DejaVuSans-102"/>
      <use x="614.160156" xlink:href="#DejaVuSans-105"/>
      <use x="641.943359" xlink:href="#DejaVuSans-101"/>
      <use x="703.466797" xlink:href="#DejaVuSans-114"/>
      <use x="744.580078" xlink:href="#DejaVuSans-44"/>
      <use x="776.367188" xlink:href="#DejaVuSans-32"/>
      <use x="808.154297" xlink:href="#DejaVuSans-102"/>
      <use x="843.359375" xlink:href="#DejaVuSans-49"/>
      <use x="906.982422" xlink:href="#DejaVuSans-95"/>
      <use x="956.982422" xlink:href="#DejaVuSans-115"/>
      <use x="1009.082031" xlink:href="#DejaVuSans-99"/>
      <use x="1064.0625" xlink:href="#DejaVuSans-111"/>
      <use x="1125.244141" xlink:href="#DejaVuSans-114"/>
      <use x="1164.107422" xlink:href="#DejaVuSans-101"/>
      <use x="1225.630859" xlink:href="#DejaVuSans-61"/>
      <use x="1309.419922" xlink:href="#DejaVuSans-48"/>
      <use x="1373.042969" xlink:href="#DejaVuSans-46"/>
      <use x="1404.830078" xlink:href="#DejaVuSans-56"/>
      <use x="1468.453125" xlink:href="#DejaVuSans-48"/>
      <use x="1532.076172" xlink:href="#DejaVuSans-48"/>
      <use x="1595.699219" xlink:href="#DejaVuSans-44"/>
      <use x="1627.486328" xlink:href="#DejaVuSans-32"/>
      <use x="1659.273438" xlink:href="#DejaVuSans-97"/>
      <use x="1720.552734" xlink:href="#DejaVuSans-117"/>
      <use x="1783.931641" xlink:href="#DejaVuSans-112"/>
      <use x="1847.408203" xlink:href="#DejaVuSans-114"/>
      <use x="1886.271484" xlink:href="#DejaVuSans-99"/>
      <use x="1941.251953" xlink:href="#DejaVuSans-61"/>
      <use x="2025.041016" xlink:href="#DejaVuSans-48"/>
      <use x="2088.664062" xlink:href="#DejaVuSans-46"/>
      <use x="2120.451172" xlink:href="#DejaVuSans-56"/>
      <use x="2184.074219" xlink:href="#DejaVuSans-56"/>
      <use x="2247.697266" xlink:href="#DejaVuSans-55"/>
     </g>
    </g>
   </g>
  </g>
 </g>
 <defs>
  <clipPath id="p9b0ad0bdfd">
   <rect height="665.28" width="892.8" x="144" y="103.68"/>
  </clipPath>
 </defs>
</svg>
