<?xml version="1.0" encoding="UTF-8" standalone="no"?>
<!DOCTYPE svg PUBLIC "-//W3C//DTD SVG 1.1//EN"
 "http://www.w3.org/Graphics/SVG/1.1/DTD/svg11.dtd">
<!-- Generated by graphviz version 2.40.1 (20161225.0304)
 -->
<!-- Pages: 1 -->
<svg width="458pt" height="476pt"
 viewBox="0.00 0.00 458.00 476.00" xmlns="http://www.w3.org/2000/svg" xmlns:xlink="http://www.w3.org/1999/xlink">
<g id="graph0" class="graph" transform="scale(1 1) rotate(0) translate(4 472)">
<polygon fill="#ffffff" stroke="transparent" points="-4,4 -4,-472 454,-472 454,4 -4,4"/>
<!-- 0 -->
<g id="node1" class="node">
<title>0</title>
<ellipse fill="none" stroke="#000000" cx="315" cy="-450" rx="27" ry="18"/>
<text text-anchor="middle" x="315" y="-445.8" font-family="Times,serif" font-size="14.00" fill="#000000">sub</text>
</g>
<!-- 1 -->
<g id="node2" class="node">
<title>1</title>
<ellipse fill="none" stroke="#000000" cx="279" cy="-378" rx="27" ry="18"/>
<text text-anchor="middle" x="279" y="-373.8" font-family="Times,serif" font-size="14.00" fill="#000000">mul</text>
</g>
<!-- 0&#45;&#45;1 -->
<g id="edge1" class="edge">
<title>0&#45;&#45;1</title>
<path fill="none" stroke="#000000" d="M306.29,-432.57C300.63,-421.25 293.28,-406.56 287.63,-395.27"/>
</g>
<!-- 16 -->
<g id="node3" class="node">
<title>16</title>
<ellipse fill="none" stroke="#000000" cx="351" cy="-378" rx="27" ry="18"/>
<text text-anchor="middle" x="351" y="-373.8" font-family="Times,serif" font-size="14.00" fill="#000000">ne</text>
</g>
<!-- 0&#45;&#45;16 -->
<g id="edge2" class="edge">
<title>0&#45;&#45;16</title>
<path fill="none" stroke="#000000" d="M323.71,-432.57C329.37,-421.25 336.72,-406.56 342.37,-395.27"/>
</g>
<!-- 2 -->
<g id="node4" class="node">
<title>2</title>
<ellipse fill="none" stroke="#000000" cx="207" cy="-306" rx="41.1277" ry="18"/>
<text text-anchor="middle" x="207" y="-301.8" font-family="Times,serif" font-size="14.00" fill="#000000">safeDiv</text>
</g>
<!-- 1&#45;&#45;2 -->
<g id="edge3" class="edge">
<title>1&#45;&#45;2</title>
<path fill="none" stroke="#000000" d="M263.73,-362.73C251.51,-350.51 234.46,-333.46 222.25,-321.25"/>
</g>
<!-- 15 -->
<g id="node5" class="node">
<title>15</title>
<ellipse fill="none" stroke="#000000" cx="279" cy="-306" rx="27" ry="18"/>
<text text-anchor="middle" x="279" y="-301.8" font-family="Times,serif" font-size="14.00" fill="#000000">X6</text>
</g>
<!-- 1&#45;&#45;15 -->
<g id="edge4" class="edge">
<title>1&#45;&#45;15</title>
<path fill="none" stroke="#000000" d="M279,-359.83C279,-349 279,-335.29 279,-324.41"/>
</g>
<!-- 17 -->
<g id="node6" class="node">
<title>17</title>
<ellipse fill="none" stroke="#000000" cx="351" cy="-306" rx="27" ry="18"/>
<text text-anchor="middle" x="351" y="-301.8" font-family="Times,serif" font-size="14.00" fill="#000000">X1</text>
</g>
<!-- 16&#45;&#45;17 -->
<g id="edge5" class="edge">
<title>16&#45;&#45;17</title>
<path fill="none" stroke="#000000" d="M351,-359.83C351,-349 351,-335.29 351,-324.41"/>
</g>
<!-- 18 -->
<g id="node7" class="node">
<title>18</title>
<ellipse fill="none" stroke="#000000" cx="423" cy="-306" rx="27" ry="18"/>
<text text-anchor="middle" x="423" y="-301.8" font-family="Times,serif" font-size="14.00" fill="#000000">1.0</text>
</g>
<!-- 16&#45;&#45;18 -->
<g id="edge6" class="edge">
<title>16&#45;&#45;18</title>
<path fill="none" stroke="#000000" d="M366.27,-362.73C378.49,-350.51 395.54,-333.46 407.75,-321.25"/>
</g>
<!-- 3 -->
<g id="node8" class="node">
<title>3</title>
<ellipse fill="none" stroke="#000000" cx="171" cy="-234" rx="27" ry="18"/>
<text text-anchor="middle" x="171" y="-229.8" font-family="Times,serif" font-size="14.00" fill="#000000">ne</text>
</g>
<!-- 2&#45;&#45;3 -->
<g id="edge7" class="edge">
<title>2&#45;&#45;3</title>
<path fill="none" stroke="#000000" d="M198.29,-288.57C192.63,-277.25 185.28,-262.56 179.63,-251.27"/>
</g>
<!-- 12 -->
<g id="node9" class="node">
<title>12</title>
<ellipse fill="none" stroke="#000000" cx="243" cy="-234" rx="41.1277" ry="18"/>
<text text-anchor="middle" x="243" y="-229.8" font-family="Times,serif" font-size="14.00" fill="#000000">safeDiv</text>
</g>
<!-- 2&#45;&#45;12 -->
<g id="edge8" class="edge">
<title>2&#45;&#45;12</title>
<path fill="none" stroke="#000000" d="M215.71,-288.57C221.37,-277.25 228.72,-262.56 234.37,-251.27"/>
</g>
<!-- 4 -->
<g id="node10" class="node">
<title>4</title>
<ellipse fill="none" stroke="#000000" cx="99" cy="-162" rx="27.8286" ry="18"/>
<text text-anchor="middle" x="99" y="-157.8" font-family="Times,serif" font-size="14.00" fill="#000000">max</text>
</g>
<!-- 3&#45;&#45;4 -->
<g id="edge9" class="edge">
<title>3&#45;&#45;4</title>
<path fill="none" stroke="#000000" d="M155.73,-218.73C143.51,-206.51 126.46,-189.46 114.25,-177.25"/>
</g>
<!-- 7 -->
<g id="node11" class="node">
<title>7</title>
<ellipse fill="none" stroke="#000000" cx="171" cy="-162" rx="27" ry="18"/>
<text text-anchor="middle" x="171" y="-157.8" font-family="Times,serif" font-size="14.00" fill="#000000">eq</text>
</g>
<!-- 3&#45;&#45;7 -->
<g id="edge10" class="edge">
<title>3&#45;&#45;7</title>
<path fill="none" stroke="#000000" d="M171,-215.83C171,-205 171,-191.29 171,-180.41"/>
</g>
<!-- 13 -->
<g id="node12" class="node">
<title>13</title>
<ellipse fill="none" stroke="#000000" cx="243" cy="-162" rx="27" ry="18"/>
<text text-anchor="middle" x="243" y="-157.8" font-family="Times,serif" font-size="14.00" fill="#000000">X7</text>
</g>
<!-- 12&#45;&#45;13 -->
<g id="edge11" class="edge">
<title>12&#45;&#45;13</title>
<path fill="none" stroke="#000000" d="M243,-215.83C243,-205 243,-191.29 243,-180.41"/>
</g>
<!-- 14 -->
<g id="node13" class="node">
<title>14</title>
<ellipse fill="none" stroke="#000000" cx="315" cy="-162" rx="27" ry="18"/>
<text text-anchor="middle" x="315" y="-157.8" font-family="Times,serif" font-size="14.00" fill="#000000">X0</text>
</g>
<!-- 12&#45;&#45;14 -->
<g id="edge12" class="edge">
<title>12&#45;&#45;14</title>
<path fill="none" stroke="#000000" d="M258.27,-218.73C270.49,-206.51 287.54,-189.46 299.75,-177.25"/>
</g>
<!-- 5 -->
<g id="node14" class="node">
<title>5</title>
<ellipse fill="none" stroke="#000000" cx="27" cy="-90" rx="27" ry="18"/>
<text text-anchor="middle" x="27" y="-85.8" font-family="Times,serif" font-size="14.00" fill="#000000">X0</text>
</g>
<!-- 4&#45;&#45;5 -->
<g id="edge13" class="edge">
<title>4&#45;&#45;5</title>
<path fill="none" stroke="#000000" d="M83.731,-146.73C71.512,-134.51 54.46,-117.46 42.247,-105.25"/>
</g>
<!-- 6 -->
<g id="node15" class="node">
<title>6</title>
<ellipse fill="none" stroke="#000000" cx="99" cy="-90" rx="27" ry="18"/>
<text text-anchor="middle" x="99" y="-85.8" font-family="Times,serif" font-size="14.00" fill="#000000">X6</text>
</g>
<!-- 4&#45;&#45;6 -->
<g id="edge14" class="edge">
<title>4&#45;&#45;6</title>
<path fill="none" stroke="#000000" d="M99,-143.83C99,-133 99,-119.29 99,-108.41"/>
</g>
<!-- 8 -->
<g id="node16" class="node">
<title>8</title>
<ellipse fill="none" stroke="#000000" cx="171" cy="-90" rx="27" ry="18"/>
<text text-anchor="middle" x="171" y="-85.8" font-family="Times,serif" font-size="14.00" fill="#000000">X3</text>
</g>
<!-- 7&#45;&#45;8 -->
<g id="edge15" class="edge">
<title>7&#45;&#45;8</title>
<path fill="none" stroke="#000000" d="M171,-143.83C171,-133 171,-119.29 171,-108.41"/>
</g>
<!-- 9 -->
<g id="node17" class="node">
<title>9</title>
<ellipse fill="none" stroke="#000000" cx="243" cy="-90" rx="27" ry="18"/>
<text text-anchor="middle" x="243" y="-85.8" font-family="Times,serif" font-size="14.00" fill="#000000">eq</text>
</g>
<!-- 7&#45;&#45;9 -->
<g id="edge16" class="edge">
<title>7&#45;&#45;9</title>
<path fill="none" stroke="#000000" d="M186.27,-146.73C198.49,-134.51 215.54,-117.46 227.75,-105.25"/>
</g>
<!-- 10 -->
<g id="node18" class="node">
<title>10</title>
<ellipse fill="none" stroke="#000000" cx="207" cy="-18" rx="27" ry="18"/>
<text text-anchor="middle" x="207" y="-13.8" font-family="Times,serif" font-size="14.00" fill="#000000">0.0</text>
</g>
<!-- 9&#45;&#45;10 -->
<g id="edge17" class="edge">
<title>9&#45;&#45;10</title>
<path fill="none" stroke="#000000" d="M234.29,-72.571C228.63,-61.251 221.28,-46.557 215.63,-35.269"/>
</g>
<!-- 11 -->
<g id="node19" class="node">
<title>11</title>
<ellipse fill="none" stroke="#000000" cx="279" cy="-18" rx="27" ry="18"/>
<text text-anchor="middle" x="279" y="-13.8" font-family="Times,serif" font-size="14.00" fill="#000000">X8</text>
</g>
<!-- 9&#45;&#45;11 -->
<g id="edge18" class="edge">
<title>9&#45;&#45;11</title>
<path fill="none" stroke="#000000" d="M251.71,-72.571C257.37,-61.251 264.72,-46.557 270.37,-35.269"/>
</g>
</g>
</svg>
