<?xml version="1.0" encoding="utf-8" standalone="no"?>
<!DOCTYPE svg PUBLIC "-//W3C//DTD SVG 1.1//EN"
  "http://www.w3.org/Graphics/SVG/1.1/DTD/svg11.dtd">
<!-- Created with matplotlib (https://matplotlib.org/) -->
<svg height="864pt" version="1.1" viewBox="0 0 1152 864" width="1152pt" xmlns="http://www.w3.org/2000/svg" xmlns:xlink="http://www.w3.org/1999/xlink">
 <defs>
  <style type="text/css">
*{stroke-linecap:butt;stroke-linejoin:round;}
  </style>
 </defs>
 <g id="figure_1">
  <g id="patch_1">
   <path d="M 0 864 
L 1152 864 
L 1152 0 
L 0 0 
z
" style="fill:#ffffff;"/>
  </g>
  <g id="axes_1">
   <g id="patch_2">
    <path d="M 144 768.96 
L 1036.8 768.96 
L 1036.8 103.68 
L 144 103.68 
z
" style="fill:#ffffff;"/>
   </g>
   <g id="matplotlib.axis_1">
    <g id="xtick_1">
     <g id="line2d_1">
      <defs>
       <path d="M 0 0 
L 0 3.5 
" id="med27381e6b" style="stroke:#000000;stroke-width:0.8;"/>
      </defs>
      <g>
       <use style="stroke:#000000;stroke-width:0.8;" x="184.581818" xlink:href="#med27381e6b" y="768.96"/>
      </g>
     </g>
     <g id="text_1">
      <!-- 0.0 -->
      <defs>
       <path d="M 31.78125 66.40625 
Q 24.171875 66.40625 20.328125 58.90625 
Q 16.5 51.421875 16.5 36.375 
Q 16.5 21.390625 20.328125 13.890625 
Q 24.171875 6.390625 31.78125 6.390625 
Q 39.453125 6.390625 43.28125 13.890625 
Q 47.125 21.390625 47.125 36.375 
Q 47.125 51.421875 43.28125 58.90625 
Q 39.453125 66.40625 31.78125 66.40625 
z
M 31.78125 74.21875 
Q 44.046875 74.21875 50.515625 64.515625 
Q 56.984375 54.828125 56.984375 36.375 
Q 56.984375 17.96875 50.515625 8.265625 
Q 44.046875 -1.421875 31.78125 -1.421875 
Q 19.53125 -1.421875 13.0625 8.265625 
Q 6.59375 17.96875 6.59375 36.375 
Q 6.59375 54.828125 13.0625 64.515625 
Q 19.53125 74.21875 31.78125 74.21875 
z
" id="DejaVuSans-48"/>
       <path d="M 10.6875 12.40625 
L 21 12.40625 
L 21 0 
L 10.6875 0 
z
" id="DejaVuSans-46"/>
      </defs>
      <g transform="translate(170.269006 789.637187)scale(0.18 -0.18)">
       <use xlink:href="#DejaVuSans-48"/>
       <use x="63.623047" xlink:href="#DejaVuSans-46"/>
       <use x="95.410156" xlink:href="#DejaVuSans-48"/>
      </g>
     </g>
    </g>
    <g id="xtick_2">
     <g id="line2d_2">
      <g>
       <use style="stroke:#000000;stroke-width:0.8;" x="265.745455" xlink:href="#med27381e6b" y="768.96"/>
      </g>
     </g>
     <g id="text_2">
      <!-- 0.1 -->
      <defs>
       <path d="M 12.40625 8.296875 
L 28.515625 8.296875 
L 28.515625 63.921875 
L 10.984375 60.40625 
L 10.984375 69.390625 
L 28.421875 72.90625 
L 38.28125 72.90625 
L 38.28125 8.296875 
L 54.390625 8.296875 
L 54.390625 0 
L 12.40625 0 
z
" id="DejaVuSans-49"/>
      </defs>
      <g transform="translate(251.432642 789.637187)scale(0.18 -0.18)">
       <use xlink:href="#DejaVuSans-48"/>
       <use x="63.623047" xlink:href="#DejaVuSans-46"/>
       <use x="95.410156" xlink:href="#DejaVuSans-49"/>
      </g>
     </g>
    </g>
    <g id="xtick_3">
     <g id="line2d_3">
      <g>
       <use style="stroke:#000000;stroke-width:0.8;" x="346.909091" xlink:href="#med27381e6b" y="768.96"/>
      </g>
     </g>
     <g id="text_3">
      <!-- 0.2 -->
      <defs>
       <path d="M 19.1875 8.296875 
L 53.609375 8.296875 
L 53.609375 0 
L 7.328125 0 
L 7.328125 8.296875 
Q 12.9375 14.109375 22.625 23.890625 
Q 32.328125 33.6875 34.8125 36.53125 
Q 39.546875 41.84375 41.421875 45.53125 
Q 43.3125 49.21875 43.3125 52.78125 
Q 43.3125 58.59375 39.234375 62.25 
Q 35.15625 65.921875 28.609375 65.921875 
Q 23.96875 65.921875 18.8125 64.3125 
Q 13.671875 62.703125 7.8125 59.421875 
L 7.8125 69.390625 
Q 13.765625 71.78125 18.9375 73 
Q 24.125 74.21875 28.421875 74.21875 
Q 39.75 74.21875 46.484375 68.546875 
Q 53.21875 62.890625 53.21875 53.421875 
Q 53.21875 48.921875 51.53125 44.890625 
Q 49.859375 40.875 45.40625 35.40625 
Q 44.1875 33.984375 37.640625 27.21875 
Q 31.109375 20.453125 19.1875 8.296875 
z
" id="DejaVuSans-50"/>
      </defs>
      <g transform="translate(332.596278 789.637187)scale(0.18 -0.18)">
       <use xlink:href="#DejaVuSans-48"/>
       <use x="63.623047" xlink:href="#DejaVuSans-46"/>
       <use x="95.410156" xlink:href="#DejaVuSans-50"/>
      </g>
     </g>
    </g>
    <g id="xtick_4">
     <g id="line2d_4">
      <g>
       <use style="stroke:#000000;stroke-width:0.8;" x="428.072727" xlink:href="#med27381e6b" y="768.96"/>
      </g>
     </g>
     <g id="text_4">
      <!-- 0.3 -->
      <defs>
       <path d="M 40.578125 39.3125 
Q 47.65625 37.796875 51.625 33 
Q 55.609375 28.21875 55.609375 21.1875 
Q 55.609375 10.40625 48.1875 4.484375 
Q 40.765625 -1.421875 27.09375 -1.421875 
Q 22.515625 -1.421875 17.65625 -0.515625 
Q 12.796875 0.390625 7.625 2.203125 
L 7.625 11.71875 
Q 11.71875 9.328125 16.59375 8.109375 
Q 21.484375 6.890625 26.8125 6.890625 
Q 36.078125 6.890625 40.9375 10.546875 
Q 45.796875 14.203125 45.796875 21.1875 
Q 45.796875 27.640625 41.28125 31.265625 
Q 36.765625 34.90625 28.71875 34.90625 
L 20.21875 34.90625 
L 20.21875 43.015625 
L 29.109375 43.015625 
Q 36.375 43.015625 40.234375 45.921875 
Q 44.09375 48.828125 44.09375 54.296875 
Q 44.09375 59.90625 40.109375 62.90625 
Q 36.140625 65.921875 28.71875 65.921875 
Q 24.65625 65.921875 20.015625 65.03125 
Q 15.375 64.15625 9.8125 62.3125 
L 9.8125 71.09375 
Q 15.4375 72.65625 20.34375 73.4375 
Q 25.25 74.21875 29.59375 74.21875 
Q 40.828125 74.21875 47.359375 69.109375 
Q 53.90625 64.015625 53.90625 55.328125 
Q 53.90625 49.265625 50.4375 45.09375 
Q 46.96875 40.921875 40.578125 39.3125 
z
" id="DejaVuSans-51"/>
      </defs>
      <g transform="translate(413.759915 789.637187)scale(0.18 -0.18)">
       <use xlink:href="#DejaVuSans-48"/>
       <use x="63.623047" xlink:href="#DejaVuSans-46"/>
       <use x="95.410156" xlink:href="#DejaVuSans-51"/>
      </g>
     </g>
    </g>
    <g id="xtick_5">
     <g id="line2d_5">
      <g>
       <use style="stroke:#000000;stroke-width:0.8;" x="509.236364" xlink:href="#med27381e6b" y="768.96"/>
      </g>
     </g>
     <g id="text_5">
      <!-- 0.4 -->
      <defs>
       <path d="M 37.796875 64.3125 
L 12.890625 25.390625 
L 37.796875 25.390625 
z
M 35.203125 72.90625 
L 47.609375 72.90625 
L 47.609375 25.390625 
L 58.015625 25.390625 
L 58.015625 17.1875 
L 47.609375 17.1875 
L 47.609375 0 
L 37.796875 0 
L 37.796875 17.1875 
L 4.890625 17.1875 
L 4.890625 26.703125 
z
" id="DejaVuSans-52"/>
      </defs>
      <g transform="translate(494.923551 789.637187)scale(0.18 -0.18)">
       <use xlink:href="#DejaVuSans-48"/>
       <use x="63.623047" xlink:href="#DejaVuSans-46"/>
       <use x="95.410156" xlink:href="#DejaVuSans-52"/>
      </g>
     </g>
    </g>
    <g id="xtick_6">
     <g id="line2d_6">
      <g>
       <use style="stroke:#000000;stroke-width:0.8;" x="590.4" xlink:href="#med27381e6b" y="768.96"/>
      </g>
     </g>
     <g id="text_6">
      <!-- 0.5 -->
      <defs>
       <path d="M 10.796875 72.90625 
L 49.515625 72.90625 
L 49.515625 64.59375 
L 19.828125 64.59375 
L 19.828125 46.734375 
Q 21.96875 47.46875 24.109375 47.828125 
Q 26.265625 48.1875 28.421875 48.1875 
Q 40.625 48.1875 47.75 41.5 
Q 54.890625 34.8125 54.890625 23.390625 
Q 54.890625 11.625 47.5625 5.09375 
Q 40.234375 -1.421875 26.90625 -1.421875 
Q 22.3125 -1.421875 17.546875 -0.640625 
Q 12.796875 0.140625 7.71875 1.703125 
L 7.71875 11.625 
Q 12.109375 9.234375 16.796875 8.0625 
Q 21.484375 6.890625 26.703125 6.890625 
Q 35.15625 6.890625 40.078125 11.328125 
Q 45.015625 15.765625 45.015625 23.390625 
Q 45.015625 31 40.078125 35.4375 
Q 35.15625 39.890625 26.703125 39.890625 
Q 22.75 39.890625 18.8125 39.015625 
Q 14.890625 38.140625 10.796875 36.28125 
z
" id="DejaVuSans-53"/>
      </defs>
      <g transform="translate(576.087187 789.637187)scale(0.18 -0.18)">
       <use xlink:href="#DejaVuSans-48"/>
       <use x="63.623047" xlink:href="#DejaVuSans-46"/>
       <use x="95.410156" xlink:href="#DejaVuSans-53"/>
      </g>
     </g>
    </g>
    <g id="xtick_7">
     <g id="line2d_7">
      <g>
       <use style="stroke:#000000;stroke-width:0.8;" x="671.563636" xlink:href="#med27381e6b" y="768.96"/>
      </g>
     </g>
     <g id="text_7">
      <!-- 0.6 -->
      <defs>
       <path d="M 33.015625 40.375 
Q 26.375 40.375 22.484375 35.828125 
Q 18.609375 31.296875 18.609375 23.390625 
Q 18.609375 15.53125 22.484375 10.953125 
Q 26.375 6.390625 33.015625 6.390625 
Q 39.65625 6.390625 43.53125 10.953125 
Q 47.40625 15.53125 47.40625 23.390625 
Q 47.40625 31.296875 43.53125 35.828125 
Q 39.65625 40.375 33.015625 40.375 
z
M 52.59375 71.296875 
L 52.59375 62.3125 
Q 48.875 64.0625 45.09375 64.984375 
Q 41.3125 65.921875 37.59375 65.921875 
Q 27.828125 65.921875 22.671875 59.328125 
Q 17.53125 52.734375 16.796875 39.40625 
Q 19.671875 43.65625 24.015625 45.921875 
Q 28.375 48.1875 33.59375 48.1875 
Q 44.578125 48.1875 50.953125 41.515625 
Q 57.328125 34.859375 57.328125 23.390625 
Q 57.328125 12.15625 50.6875 5.359375 
Q 44.046875 -1.421875 33.015625 -1.421875 
Q 20.359375 -1.421875 13.671875 8.265625 
Q 6.984375 17.96875 6.984375 36.375 
Q 6.984375 53.65625 15.1875 63.9375 
Q 23.390625 74.21875 37.203125 74.21875 
Q 40.921875 74.21875 44.703125 73.484375 
Q 48.484375 72.75 52.59375 71.296875 
z
" id="DejaVuSans-54"/>
      </defs>
      <g transform="translate(657.250824 789.637187)scale(0.18 -0.18)">
       <use xlink:href="#DejaVuSans-48"/>
       <use x="63.623047" xlink:href="#DejaVuSans-46"/>
       <use x="95.410156" xlink:href="#DejaVuSans-54"/>
      </g>
     </g>
    </g>
    <g id="xtick_8">
     <g id="line2d_8">
      <g>
       <use style="stroke:#000000;stroke-width:0.8;" x="752.727273" xlink:href="#med27381e6b" y="768.96"/>
      </g>
     </g>
     <g id="text_8">
      <!-- 0.7 -->
      <defs>
       <path d="M 8.203125 72.90625 
L 55.078125 72.90625 
L 55.078125 68.703125 
L 28.609375 0 
L 18.3125 0 
L 43.21875 64.59375 
L 8.203125 64.59375 
z
" id="DejaVuSans-55"/>
      </defs>
      <g transform="translate(738.41446 789.637187)scale(0.18 -0.18)">
       <use xlink:href="#DejaVuSans-48"/>
       <use x="63.623047" xlink:href="#DejaVuSans-46"/>
       <use x="95.410156" xlink:href="#DejaVuSans-55"/>
      </g>
     </g>
    </g>
    <g id="xtick_9">
     <g id="line2d_9">
      <g>
       <use style="stroke:#000000;stroke-width:0.8;" x="833.890909" xlink:href="#med27381e6b" y="768.96"/>
      </g>
     </g>
     <g id="text_9">
      <!-- 0.8 -->
      <defs>
       <path d="M 31.78125 34.625 
Q 24.75 34.625 20.71875 30.859375 
Q 16.703125 27.09375 16.703125 20.515625 
Q 16.703125 13.921875 20.71875 10.15625 
Q 24.75 6.390625 31.78125 6.390625 
Q 38.8125 6.390625 42.859375 10.171875 
Q 46.921875 13.96875 46.921875 20.515625 
Q 46.921875 27.09375 42.890625 30.859375 
Q 38.875 34.625 31.78125 34.625 
z
M 21.921875 38.8125 
Q 15.578125 40.375 12.03125 44.71875 
Q 8.5 49.078125 8.5 55.328125 
Q 8.5 64.0625 14.71875 69.140625 
Q 20.953125 74.21875 31.78125 74.21875 
Q 42.671875 74.21875 48.875 69.140625 
Q 55.078125 64.0625 55.078125 55.328125 
Q 55.078125 49.078125 51.53125 44.71875 
Q 48 40.375 41.703125 38.8125 
Q 48.828125 37.15625 52.796875 32.3125 
Q 56.78125 27.484375 56.78125 20.515625 
Q 56.78125 9.90625 50.3125 4.234375 
Q 43.84375 -1.421875 31.78125 -1.421875 
Q 19.734375 -1.421875 13.25 4.234375 
Q 6.78125 9.90625 6.78125 20.515625 
Q 6.78125 27.484375 10.78125 32.3125 
Q 14.796875 37.15625 21.921875 38.8125 
z
M 18.3125 54.390625 
Q 18.3125 48.734375 21.84375 45.5625 
Q 25.390625 42.390625 31.78125 42.390625 
Q 38.140625 42.390625 41.71875 45.5625 
Q 45.3125 48.734375 45.3125 54.390625 
Q 45.3125 60.0625 41.71875 63.234375 
Q 38.140625 66.40625 31.78125 66.40625 
Q 25.390625 66.40625 21.84375 63.234375 
Q 18.3125 60.0625 18.3125 54.390625 
z
" id="DejaVuSans-56"/>
      </defs>
      <g transform="translate(819.578097 789.637187)scale(0.18 -0.18)">
       <use xlink:href="#DejaVuSans-48"/>
       <use x="63.623047" xlink:href="#DejaVuSans-46"/>
       <use x="95.410156" xlink:href="#DejaVuSans-56"/>
      </g>
     </g>
    </g>
    <g id="xtick_10">
     <g id="line2d_10">
      <g>
       <use style="stroke:#000000;stroke-width:0.8;" x="915.054545" xlink:href="#med27381e6b" y="768.96"/>
      </g>
     </g>
     <g id="text_10">
      <!-- 0.9 -->
      <defs>
       <path d="M 10.984375 1.515625 
L 10.984375 10.5 
Q 14.703125 8.734375 18.5 7.8125 
Q 22.3125 6.890625 25.984375 6.890625 
Q 35.75 6.890625 40.890625 13.453125 
Q 46.046875 20.015625 46.78125 33.40625 
Q 43.953125 29.203125 39.59375 26.953125 
Q 35.25 24.703125 29.984375 24.703125 
Q 19.046875 24.703125 12.671875 31.3125 
Q 6.296875 37.9375 6.296875 49.421875 
Q 6.296875 60.640625 12.9375 67.421875 
Q 19.578125 74.21875 30.609375 74.21875 
Q 43.265625 74.21875 49.921875 64.515625 
Q 56.59375 54.828125 56.59375 36.375 
Q 56.59375 19.140625 48.40625 8.859375 
Q 40.234375 -1.421875 26.421875 -1.421875 
Q 22.703125 -1.421875 18.890625 -0.6875 
Q 15.09375 0.046875 10.984375 1.515625 
z
M 30.609375 32.421875 
Q 37.25 32.421875 41.125 36.953125 
Q 45.015625 41.5 45.015625 49.421875 
Q 45.015625 57.28125 41.125 61.84375 
Q 37.25 66.40625 30.609375 66.40625 
Q 23.96875 66.40625 20.09375 61.84375 
Q 16.21875 57.28125 16.21875 49.421875 
Q 16.21875 41.5 20.09375 36.953125 
Q 23.96875 32.421875 30.609375 32.421875 
z
" id="DejaVuSans-57"/>
      </defs>
      <g transform="translate(900.741733 789.637187)scale(0.18 -0.18)">
       <use xlink:href="#DejaVuSans-48"/>
       <use x="63.623047" xlink:href="#DejaVuSans-46"/>
       <use x="95.410156" xlink:href="#DejaVuSans-57"/>
      </g>
     </g>
    </g>
    <g id="xtick_11">
     <g id="line2d_11">
      <g>
       <use style="stroke:#000000;stroke-width:0.8;" x="996.218182" xlink:href="#med27381e6b" y="768.96"/>
      </g>
     </g>
     <g id="text_11">
      <!-- 1.0 -->
      <g transform="translate(981.905369 789.637187)scale(0.18 -0.18)">
       <use xlink:href="#DejaVuSans-49"/>
       <use x="63.623047" xlink:href="#DejaVuSans-46"/>
       <use x="95.410156" xlink:href="#DejaVuSans-48"/>
      </g>
     </g>
    </g>
    <g id="text_12">
     <!-- Recall -->
     <defs>
      <path d="M 44.390625 34.1875 
Q 47.5625 33.109375 50.5625 29.59375 
Q 53.5625 26.078125 56.59375 19.921875 
L 66.609375 0 
L 56 0 
L 46.6875 18.703125 
Q 43.0625 26.03125 39.671875 28.421875 
Q 36.28125 30.8125 30.421875 30.8125 
L 19.671875 30.8125 
L 19.671875 0 
L 9.8125 0 
L 9.8125 72.90625 
L 32.078125 72.90625 
Q 44.578125 72.90625 50.734375 67.671875 
Q 56.890625 62.453125 56.890625 51.90625 
Q 56.890625 45.015625 53.6875 40.46875 
Q 50.484375 35.9375 44.390625 34.1875 
z
M 19.671875 64.796875 
L 19.671875 38.921875 
L 32.078125 38.921875 
Q 39.203125 38.921875 42.84375 42.21875 
Q 46.484375 45.515625 46.484375 51.90625 
Q 46.484375 58.296875 42.84375 61.546875 
Q 39.203125 64.796875 32.078125 64.796875 
z
" id="DejaVuSans-82"/>
      <path d="M 56.203125 29.59375 
L 56.203125 25.203125 
L 14.890625 25.203125 
Q 15.484375 15.921875 20.484375 11.0625 
Q 25.484375 6.203125 34.421875 6.203125 
Q 39.59375 6.203125 44.453125 7.46875 
Q 49.3125 8.734375 54.109375 11.28125 
L 54.109375 2.78125 
Q 49.265625 0.734375 44.1875 -0.34375 
Q 39.109375 -1.421875 33.890625 -1.421875 
Q 20.796875 -1.421875 13.15625 6.1875 
Q 5.515625 13.8125 5.515625 26.8125 
Q 5.515625 40.234375 12.765625 48.109375 
Q 20.015625 56 32.328125 56 
Q 43.359375 56 49.78125 48.890625 
Q 56.203125 41.796875 56.203125 29.59375 
z
M 47.21875 32.234375 
Q 47.125 39.59375 43.09375 43.984375 
Q 39.0625 48.390625 32.421875 48.390625 
Q 24.90625 48.390625 20.390625 44.140625 
Q 15.875 39.890625 15.1875 32.171875 
z
" id="DejaVuSans-101"/>
      <path d="M 48.78125 52.59375 
L 48.78125 44.1875 
Q 44.96875 46.296875 41.140625 47.34375 
Q 37.3125 48.390625 33.40625 48.390625 
Q 24.65625 48.390625 19.8125 42.84375 
Q 14.984375 37.3125 14.984375 27.296875 
Q 14.984375 17.28125 19.8125 11.734375 
Q 24.65625 6.203125 33.40625 6.203125 
Q 37.3125 6.203125 41.140625 7.25 
Q 44.96875 8.296875 48.78125 10.40625 
L 48.78125 2.09375 
Q 45.015625 0.34375 40.984375 -0.53125 
Q 36.96875 -1.421875 32.421875 -1.421875 
Q 20.0625 -1.421875 12.78125 6.34375 
Q 5.515625 14.109375 5.515625 27.296875 
Q 5.515625 40.671875 12.859375 48.328125 
Q 20.21875 56 33.015625 56 
Q 37.15625 56 41.109375 55.140625 
Q 45.0625 54.296875 48.78125 52.59375 
z
" id="DejaVuSans-99"/>
      <path d="M 34.28125 27.484375 
Q 23.390625 27.484375 19.1875 25 
Q 14.984375 22.515625 14.984375 16.5 
Q 14.984375 11.71875 18.140625 8.90625 
Q 21.296875 6.109375 26.703125 6.109375 
Q 34.1875 6.109375 38.703125 11.40625 
Q 43.21875 16.703125 43.21875 25.484375 
L 43.21875 27.484375 
z
M 52.203125 31.203125 
L 52.203125 0 
L 43.21875 0 
L 43.21875 8.296875 
Q 40.140625 3.328125 35.546875 0.953125 
Q 30.953125 -1.421875 24.3125 -1.421875 
Q 15.921875 -1.421875 10.953125 3.296875 
Q 6 8.015625 6 15.921875 
Q 6 25.140625 12.171875 29.828125 
Q 18.359375 34.515625 30.609375 34.515625 
L 43.21875 34.515625 
L 43.21875 35.40625 
Q 43.21875 41.609375 39.140625 45 
Q 35.0625 48.390625 27.6875 48.390625 
Q 23 48.390625 18.546875 47.265625 
Q 14.109375 46.140625 10.015625 43.890625 
L 10.015625 52.203125 
Q 14.9375 54.109375 19.578125 55.046875 
Q 24.21875 56 28.609375 56 
Q 40.484375 56 46.34375 49.84375 
Q 52.203125 43.703125 52.203125 31.203125 
z
" id="DejaVuSans-97"/>
      <path d="M 9.421875 75.984375 
L 18.40625 75.984375 
L 18.40625 0 
L 9.421875 0 
z
" id="DejaVuSans-108"/>
     </defs>
     <g transform="translate(554.06625 815.616875)scale(0.24 -0.24)">
      <use xlink:href="#DejaVuSans-82"/>
      <use x="69.419922" xlink:href="#DejaVuSans-101"/>
      <use x="130.943359" xlink:href="#DejaVuSans-99"/>
      <use x="185.923828" xlink:href="#DejaVuSans-97"/>
      <use x="247.203125" xlink:href="#DejaVuSans-108"/>
      <use x="274.986328" xlink:href="#DejaVuSans-108"/>
     </g>
    </g>
   </g>
   <g id="matplotlib.axis_2">
    <g id="ytick_1">
     <g id="line2d_12">
      <defs>
       <path d="M 0 0 
L -3.5 0 
" id="m74a0feb753" style="stroke:#000000;stroke-width:0.8;"/>
      </defs>
      <g>
       <use style="stroke:#000000;stroke-width:0.8;" x="144" xlink:href="#m74a0feb753" y="768.96"/>
      </g>
     </g>
     <g id="text_13">
      <!-- 0.0 -->
      <g transform="translate(108.374375 775.798594)scale(0.18 -0.18)">
       <use xlink:href="#DejaVuSans-48"/>
       <use x="63.623047" xlink:href="#DejaVuSans-46"/>
       <use x="95.410156" xlink:href="#DejaVuSans-48"/>
      </g>
     </g>
    </g>
    <g id="ytick_2">
     <g id="line2d_13">
      <g>
       <use style="stroke:#000000;stroke-width:0.8;" x="144" xlink:href="#m74a0feb753" y="704.990769"/>
      </g>
     </g>
     <g id="text_14">
      <!-- 0.1 -->
      <g transform="translate(108.374375 711.829363)scale(0.18 -0.18)">
       <use xlink:href="#DejaVuSans-48"/>
       <use x="63.623047" xlink:href="#DejaVuSans-46"/>
       <use x="95.410156" xlink:href="#DejaVuSans-49"/>
      </g>
     </g>
    </g>
    <g id="ytick_3">
     <g id="line2d_14">
      <g>
       <use style="stroke:#000000;stroke-width:0.8;" x="144" xlink:href="#m74a0feb753" y="641.021538"/>
      </g>
     </g>
     <g id="text_15">
      <!-- 0.2 -->
      <g transform="translate(108.374375 647.860132)scale(0.18 -0.18)">
       <use xlink:href="#DejaVuSans-48"/>
       <use x="63.623047" xlink:href="#DejaVuSans-46"/>
       <use x="95.410156" xlink:href="#DejaVuSans-50"/>
      </g>
     </g>
    </g>
    <g id="ytick_4">
     <g id="line2d_15">
      <g>
       <use style="stroke:#000000;stroke-width:0.8;" x="144" xlink:href="#m74a0feb753" y="577.052308"/>
      </g>
     </g>
     <g id="text_16">
      <!-- 0.3 -->
      <g transform="translate(108.374375 583.890901)scale(0.18 -0.18)">
       <use xlink:href="#DejaVuSans-48"/>
       <use x="63.623047" xlink:href="#DejaVuSans-46"/>
       <use x="95.410156" xlink:href="#DejaVuSans-51"/>
      </g>
     </g>
    </g>
    <g id="ytick_5">
     <g id="line2d_16">
      <g>
       <use style="stroke:#000000;stroke-width:0.8;" x="144" xlink:href="#m74a0feb753" y="513.083077"/>
      </g>
     </g>
     <g id="text_17">
      <!-- 0.4 -->
      <g transform="translate(108.374375 519.921671)scale(0.18 -0.18)">
       <use xlink:href="#DejaVuSans-48"/>
       <use x="63.623047" xlink:href="#DejaVuSans-46"/>
       <use x="95.410156" xlink:href="#DejaVuSans-52"/>
      </g>
     </g>
    </g>
    <g id="ytick_6">
     <g id="line2d_17">
      <g>
       <use style="stroke:#000000;stroke-width:0.8;" x="144" xlink:href="#m74a0feb753" y="449.113846"/>
      </g>
     </g>
     <g id="text_18">
      <!-- 0.5 -->
      <g transform="translate(108.374375 455.95244)scale(0.18 -0.18)">
       <use xlink:href="#DejaVuSans-48"/>
       <use x="63.623047" xlink:href="#DejaVuSans-46"/>
       <use x="95.410156" xlink:href="#DejaVuSans-53"/>
      </g>
     </g>
    </g>
    <g id="ytick_7">
     <g id="line2d_18">
      <g>
       <use style="stroke:#000000;stroke-width:0.8;" x="144" xlink:href="#m74a0feb753" y="385.144615"/>
      </g>
     </g>
     <g id="text_19">
      <!-- 0.6 -->
      <g transform="translate(108.374375 391.983209)scale(0.18 -0.18)">
       <use xlink:href="#DejaVuSans-48"/>
       <use x="63.623047" xlink:href="#DejaVuSans-46"/>
       <use x="95.410156" xlink:href="#DejaVuSans-54"/>
      </g>
     </g>
    </g>
    <g id="ytick_8">
     <g id="line2d_19">
      <g>
       <use style="stroke:#000000;stroke-width:0.8;" x="144" xlink:href="#m74a0feb753" y="321.175385"/>
      </g>
     </g>
     <g id="text_20">
      <!-- 0.7 -->
      <g transform="translate(108.374375 328.013978)scale(0.18 -0.18)">
       <use xlink:href="#DejaVuSans-48"/>
       <use x="63.623047" xlink:href="#DejaVuSans-46"/>
       <use x="95.410156" xlink:href="#DejaVuSans-55"/>
      </g>
     </g>
    </g>
    <g id="ytick_9">
     <g id="line2d_20">
      <g>
       <use style="stroke:#000000;stroke-width:0.8;" x="144" xlink:href="#m74a0feb753" y="257.206154"/>
      </g>
     </g>
     <g id="text_21">
      <!-- 0.8 -->
      <g transform="translate(108.374375 264.044748)scale(0.18 -0.18)">
       <use xlink:href="#DejaVuSans-48"/>
       <use x="63.623047" xlink:href="#DejaVuSans-46"/>
       <use x="95.410156" xlink:href="#DejaVuSans-56"/>
      </g>
     </g>
    </g>
    <g id="ytick_10">
     <g id="line2d_21">
      <g>
       <use style="stroke:#000000;stroke-width:0.8;" x="144" xlink:href="#m74a0feb753" y="193.236923"/>
      </g>
     </g>
     <g id="text_22">
      <!-- 0.9 -->
      <g transform="translate(108.374375 200.075517)scale(0.18 -0.18)">
       <use xlink:href="#DejaVuSans-48"/>
       <use x="63.623047" xlink:href="#DejaVuSans-46"/>
       <use x="95.410156" xlink:href="#DejaVuSans-57"/>
      </g>
     </g>
    </g>
    <g id="ytick_11">
     <g id="line2d_22">
      <g>
       <use style="stroke:#000000;stroke-width:0.8;" x="144" xlink:href="#m74a0feb753" y="129.267692"/>
      </g>
     </g>
     <g id="text_23">
      <!-- 1.0 -->
      <g transform="translate(108.374375 136.106286)scale(0.18 -0.18)">
       <use xlink:href="#DejaVuSans-49"/>
       <use x="63.623047" xlink:href="#DejaVuSans-46"/>
       <use x="95.410156" xlink:href="#DejaVuSans-48"/>
      </g>
     </g>
    </g>
    <g id="text_24">
     <!-- Precision -->
     <defs>
      <path d="M 19.671875 64.796875 
L 19.671875 37.40625 
L 32.078125 37.40625 
Q 38.96875 37.40625 42.71875 40.96875 
Q 46.484375 44.53125 46.484375 51.125 
Q 46.484375 57.671875 42.71875 61.234375 
Q 38.96875 64.796875 32.078125 64.796875 
z
M 9.8125 72.90625 
L 32.078125 72.90625 
Q 44.34375 72.90625 50.609375 67.359375 
Q 56.890625 61.8125 56.890625 51.125 
Q 56.890625 40.328125 50.609375 34.8125 
Q 44.34375 29.296875 32.078125 29.296875 
L 19.671875 29.296875 
L 19.671875 0 
L 9.8125 0 
z
" id="DejaVuSans-80"/>
      <path d="M 41.109375 46.296875 
Q 39.59375 47.171875 37.8125 47.578125 
Q 36.03125 48 33.890625 48 
Q 26.265625 48 22.1875 43.046875 
Q 18.109375 38.09375 18.109375 28.8125 
L 18.109375 0 
L 9.078125 0 
L 9.078125 54.6875 
L 18.109375 54.6875 
L 18.109375 46.1875 
Q 20.953125 51.171875 25.484375 53.578125 
Q 30.03125 56 36.53125 56 
Q 37.453125 56 38.578125 55.875 
Q 39.703125 55.765625 41.0625 55.515625 
z
" id="DejaVuSans-114"/>
      <path d="M 9.421875 54.6875 
L 18.40625 54.6875 
L 18.40625 0 
L 9.421875 0 
z
M 9.421875 75.984375 
L 18.40625 75.984375 
L 18.40625 64.59375 
L 9.421875 64.59375 
z
" id="DejaVuSans-105"/>
      <path d="M 44.28125 53.078125 
L 44.28125 44.578125 
Q 40.484375 46.53125 36.375 47.5 
Q 32.28125 48.484375 27.875 48.484375 
Q 21.1875 48.484375 17.84375 46.4375 
Q 14.5 44.390625 14.5 40.28125 
Q 14.5 37.15625 16.890625 35.375 
Q 19.28125 33.59375 26.515625 31.984375 
L 29.59375 31.296875 
Q 39.15625 29.25 43.1875 25.515625 
Q 47.21875 21.78125 47.21875 15.09375 
Q 47.21875 7.46875 41.1875 3.015625 
Q 35.15625 -1.421875 24.609375 -1.421875 
Q 20.21875 -1.421875 15.453125 -0.5625 
Q 10.6875 0.296875 5.421875 2 
L 5.421875 11.28125 
Q 10.40625 8.6875 15.234375 7.390625 
Q 20.0625 6.109375 24.8125 6.109375 
Q 31.15625 6.109375 34.5625 8.28125 
Q 37.984375 10.453125 37.984375 14.40625 
Q 37.984375 18.0625 35.515625 20.015625 
Q 33.0625 21.96875 24.703125 23.78125 
L 21.578125 24.515625 
Q 13.234375 26.265625 9.515625 29.90625 
Q 5.8125 33.546875 5.8125 39.890625 
Q 5.8125 47.609375 11.28125 51.796875 
Q 16.75 56 26.8125 56 
Q 31.78125 56 36.171875 55.265625 
Q 40.578125 54.546875 44.28125 53.078125 
z
" id="DejaVuSans-115"/>
      <path d="M 30.609375 48.390625 
Q 23.390625 48.390625 19.1875 42.75 
Q 14.984375 37.109375 14.984375 27.296875 
Q 14.984375 17.484375 19.15625 11.84375 
Q 23.34375 6.203125 30.609375 6.203125 
Q 37.796875 6.203125 41.984375 11.859375 
Q 46.1875 17.53125 46.1875 27.296875 
Q 46.1875 37.015625 41.984375 42.703125 
Q 37.796875 48.390625 30.609375 48.390625 
z
M 30.609375 56 
Q 42.328125 56 49.015625 48.375 
Q 55.71875 40.765625 55.71875 27.296875 
Q 55.71875 13.875 49.015625 6.21875 
Q 42.328125 -1.421875 30.609375 -1.421875 
Q 18.84375 -1.421875 12.171875 6.21875 
Q 5.515625 13.875 5.515625 27.296875 
Q 5.515625 40.765625 12.171875 48.375 
Q 18.84375 56 30.609375 56 
z
" id="DejaVuSans-111"/>
      <path d="M 54.890625 33.015625 
L 54.890625 0 
L 45.90625 0 
L 45.90625 32.71875 
Q 45.90625 40.484375 42.875 44.328125 
Q 39.84375 48.1875 33.796875 48.1875 
Q 26.515625 48.1875 22.3125 43.546875 
Q 18.109375 38.921875 18.109375 30.90625 
L 18.109375 0 
L 9.078125 0 
L 9.078125 54.6875 
L 18.109375 54.6875 
L 18.109375 46.1875 
Q 21.34375 51.125 25.703125 53.5625 
Q 30.078125 56 35.796875 56 
Q 45.21875 56 50.046875 50.171875 
Q 54.890625 44.34375 54.890625 33.015625 
z
" id="DejaVuSans-110"/>
     </defs>
     <g transform="translate(99.383125 490.33125)rotate(-90)scale(0.24 -0.24)">
      <use xlink:href="#DejaVuSans-80"/>
      <use x="60.287109" xlink:href="#DejaVuSans-114"/>
      <use x="101.369141" xlink:href="#DejaVuSans-101"/>
      <use x="162.892578" xlink:href="#DejaVuSans-99"/>
      <use x="217.873047" xlink:href="#DejaVuSans-105"/>
      <use x="245.65625" xlink:href="#DejaVuSans-115"/>
      <use x="297.755859" xlink:href="#DejaVuSans-105"/>
      <use x="325.539062" xlink:href="#DejaVuSans-111"/>
      <use x="386.720703" xlink:href="#DejaVuSans-110"/>
     </g>
    </g>
   </g>
   <g id="line2d_23">
    <path clip-path="url(#p5415def97d)" d="M 996.218182 197.806154 
L 988.101818 198.423617 
L 988.101818 193.236923 
L 988.101818 187.95506 
L 979.985455 188.498462 
L 979.985455 183.073587 
L 979.985455 177.546357 
L 979.985455 171.913846 
L 979.985455 166.173018 
L 979.985455 160.320717 
L 979.985455 154.353665 
L 979.985455 148.268454 
L 979.985455 142.061538 
L 979.985455 135.729231 
L 979.985455 129.267692 
L 971.869091 129.267692 
L 963.752727 129.267692 
L 955.636364 129.267692 
L 947.52 129.267692 
L 939.403636 129.267692 
L 931.287273 129.267692 
L 923.170909 129.267692 
L 915.054545 129.267692 
L 906.938182 129.267692 
L 898.821818 129.267692 
L 890.705455 129.267692 
L 882.589091 129.267692 
L 874.472727 129.267692 
L 866.356364 129.267692 
L 858.24 129.267692 
L 850.123636 129.267692 
L 842.007273 129.267692 
L 833.890909 129.267692 
L 825.774545 129.267692 
L 817.658182 129.267692 
L 809.541818 129.267692 
L 801.425455 129.267692 
L 793.309091 129.267692 
L 785.192727 129.267692 
L 777.076364 129.267692 
L 768.96 129.267692 
L 760.843636 129.267692 
L 752.727273 129.267692 
L 744.610909 129.267692 
L 736.494545 129.267692 
L 728.378182 129.267692 
L 720.261818 129.267692 
L 712.145455 129.267692 
L 704.029091 129.267692 
L 695.912727 129.267692 
L 687.796364 129.267692 
L 679.68 129.267692 
L 671.563636 129.267692 
L 663.447273 129.267692 
L 655.330909 129.267692 
L 647.214545 129.267692 
L 639.098182 129.267692 
L 630.981818 129.267692 
L 622.865455 129.267692 
L 614.749091 129.267692 
L 606.632727 129.267692 
L 598.516364 129.267692 
L 590.4 129.267692 
L 582.283636 129.267692 
L 574.167273 129.267692 
L 566.050909 129.267692 
L 557.934545 129.267692 
L 549.818182 129.267692 
L 541.701818 129.267692 
L 533.585455 129.267692 
L 525.469091 129.267692 
L 517.352727 129.267692 
L 509.236364 129.267692 
L 501.12 129.267692 
L 493.003636 129.267692 
L 484.887273 129.267692 
L 476.770909 129.267692 
L 468.654545 129.267692 
L 460.538182 129.267692 
L 452.421818 129.267692 
L 444.305455 129.267692 
L 436.189091 129.267692 
L 428.072727 129.267692 
L 419.956364 129.267692 
L 411.84 129.267692 
L 403.723636 129.267692 
L 395.607273 129.267692 
L 387.490909 129.267692 
L 379.374545 129.267692 
L 371.258182 129.267692 
L 363.141818 129.267692 
L 355.025455 129.267692 
L 346.909091 129.267692 
L 338.792727 129.267692 
L 330.676364 129.267692 
L 322.56 129.267692 
L 314.443636 129.267692 
L 306.327273 129.267692 
L 298.210909 129.267692 
L 290.094545 129.267692 
L 281.978182 129.267692 
L 273.861818 129.267692 
L 265.745455 129.267692 
L 257.629091 129.267692 
L 249.512727 129.267692 
L 241.396364 129.267692 
L 233.28 129.267692 
L 225.163636 129.267692 
L 217.047273 129.267692 
L 208.930909 129.267692 
L 200.814545 129.267692 
L 192.698182 129.267692 
L 184.581818 129.267692 
" style="fill:none;stroke:#1f77b4;stroke-linecap:square;stroke-width:1.5;"/>
   </g>
   <g id="line2d_24">
    <path clip-path="url(#p5415def97d)" d="M 996.218182 356.255285 
L 988.101818 357.729231 
L 988.101818 310.050301 
L 971.869091 312.708869 
L 971.869091 264.487205 
L 963.752727 265.595561 
L 963.752727 257.206154 
L 955.636364 258.281267 
L 955.636364 253.953481 
L 947.52 255.019172 
L 947.52 241.494413 
L 939.403636 242.48757 
L 939.403636 237.786923 
L 906.938182 241.806154 
L 906.938182 236.879482 
L 890.705455 238.929231 
L 890.705455 212.427692 
L 874.472727 214.124835 
L 874.472727 196.603725 
L 866.356364 197.320065 
L 866.356364 191.1734 
L 850.123636 192.533964 
L 850.123636 179.58057 
L 833.890909 180.737188 
L 833.890909 173.897388 
L 817.658182 174.96 
L 817.658182 145.26 
L 768.96 146.556674 
L 744.610909 147.287194 
L 744.610909 138.406154 
L 687.796364 139.421538 
L 671.563636 139.754451 
L 671.563636 129.267692 
L 184.581818 129.267692 
L 184.581818 129.267692 
" style="fill:none;stroke:#ff7f0e;stroke-linecap:square;stroke-width:1.5;"/>
   </g>
   <g id="line2d_25">
    <path clip-path="url(#p5415def97d)" d="M 996.218182 147.899507 
L 988.101818 148.082172 
L 979.985455 148.268454 
L 979.985455 142.061538 
L 971.869091 142.190769 
L 963.752727 142.322637 
L 955.636364 142.457224 
L 955.636364 135.931154 
L 955.636364 129.267692 
L 947.52 129.267692 
L 939.403636 129.267692 
L 931.287273 129.267692 
L 923.170909 129.267692 
L 915.054545 129.267692 
L 906.938182 129.267692 
L 898.821818 129.267692 
L 890.705455 129.267692 
L 882.589091 129.267692 
L 874.472727 129.267692 
L 866.356364 129.267692 
L 858.24 129.267692 
L 850.123636 129.267692 
L 842.007273 129.267692 
L 833.890909 129.267692 
L 825.774545 129.267692 
L 817.658182 129.267692 
L 809.541818 129.267692 
L 801.425455 129.267692 
L 793.309091 129.267692 
L 785.192727 129.267692 
L 777.076364 129.267692 
L 768.96 129.267692 
L 760.843636 129.267692 
L 752.727273 129.267692 
L 744.610909 129.267692 
L 736.494545 129.267692 
L 728.378182 129.267692 
L 720.261818 129.267692 
L 712.145455 129.267692 
L 704.029091 129.267692 
L 695.912727 129.267692 
L 687.796364 129.267692 
L 679.68 129.267692 
L 671.563636 129.267692 
L 663.447273 129.267692 
L 655.330909 129.267692 
L 647.214545 129.267692 
L 639.098182 129.267692 
L 630.981818 129.267692 
L 622.865455 129.267692 
L 614.749091 129.267692 
L 606.632727 129.267692 
L 598.516364 129.267692 
L 590.4 129.267692 
L 582.283636 129.267692 
L 574.167273 129.267692 
L 566.050909 129.267692 
L 557.934545 129.267692 
L 549.818182 129.267692 
L 541.701818 129.267692 
L 533.585455 129.267692 
L 525.469091 129.267692 
L 517.352727 129.267692 
L 509.236364 129.267692 
L 501.12 129.267692 
L 493.003636 129.267692 
L 484.887273 129.267692 
L 476.770909 129.267692 
L 468.654545 129.267692 
L 460.538182 129.267692 
L 452.421818 129.267692 
L 444.305455 129.267692 
L 436.189091 129.267692 
L 428.072727 129.267692 
L 419.956364 129.267692 
L 411.84 129.267692 
L 403.723636 129.267692 
L 395.607273 129.267692 
L 387.490909 129.267692 
L 379.374545 129.267692 
L 371.258182 129.267692 
L 363.141818 129.267692 
L 355.025455 129.267692 
L 346.909091 129.267692 
L 338.792727 129.267692 
L 330.676364 129.267692 
L 322.56 129.267692 
L 314.443636 129.267692 
L 306.327273 129.267692 
L 298.210909 129.267692 
L 290.094545 129.267692 
L 281.978182 129.267692 
L 273.861818 129.267692 
L 265.745455 129.267692 
L 257.629091 129.267692 
L 249.512727 129.267692 
L 241.396364 129.267692 
L 233.28 129.267692 
L 225.163636 129.267692 
L 217.047273 129.267692 
L 208.930909 129.267692 
L 200.814545 129.267692 
L 192.698182 129.267692 
L 184.581818 129.267692 
" style="fill:none;stroke:#2ca02c;stroke-linecap:square;stroke-width:1.5;"/>
   </g>
   <g id="line2d_26">
    <path clip-path="url(#p5415def97d)" d="M 996.218182 449.113846 
L 988.101818 447.490262 
L 923.170909 457.665882 
L 882.589091 459.895177 
L 833.890909 453.062564 
L 833.890909 449.113846 
L 785.192727 449.113846 
L 647.214545 467.617343 
L 630.981818 463.020201 
L 598.516364 469.654425 
L 574.167273 473.717396 
L 541.701818 484.652308 
L 541.701818 472.681457 
L 533.585455 469.973378 
L 257.629091 529.075385 
L 241.396364 520.190769 
L 200.814545 626.806154 
L 192.698182 641.021538 
L 184.581818 129.267692 
" style="fill:none;stroke:#d62728;stroke-linecap:square;stroke-width:1.5;"/>
   </g>
   <g id="line2d_27">
    <path clip-path="url(#p5415def97d)" d="M 996.218182 449.113846 
L 979.985455 452.344615 
L 979.985455 450.737431 
L 971.869091 452.377582 
L 971.869091 450.754083 
L 963.752727 452.411229 
L 963.752727 449.113846 
L 947.52 452.480648 
L 947.52 449.113846 
L 923.170909 454.300541 
L 923.170909 452.590435 
L 915.054545 454.357226 
L 915.054545 452.628639 
L 906.938182 454.415164 
L 906.938182 452.667692 
L 890.705455 456.3014 
L 890.705455 452.748462 
L 882.589091 454.596923 
L 882.589091 452.790239 
L 858.24 458.466073 
L 850.123636 460.402534 
L 850.123636 452.967414 
L 842.007273 454.929231 
L 842.007273 453.014409 
L 833.890909 455.000585 
L 833.890909 451.100468 
L 809.541818 457.211217 
L 801.425455 459.300029 
L 801.425455 457.31503 
L 777.076364 463.74733 
L 768.96 465.947854 
L 768.96 463.941151 
L 744.610909 470.725073 
L 744.610909 468.696264 
L 736.494545 471.021117 
L 736.494545 466.883077 
L 728.378182 469.244024 
L 728.378182 467.133348 
L 712.145455 471.96 
L 712.145455 465.45635 
L 704.029091 467.928326 
L 704.029091 463.435316 
L 687.796364 468.498462 
L 687.796364 463.875976 
L 679.68 466.469839 
L 679.68 461.706214 
L 663.447273 467.025231 
L 663.447273 464.590273 
L 655.330909 467.316473 
L 655.330909 464.843985 
L 647.214545 467.617343 
L 647.214545 465.106154 
L 639.098182 467.928326 
L 639.098182 460.143024 
L 630.981818 463.020201 
L 630.981818 460.336518 
L 614.749091 466.248462 
L 614.749091 460.744615 
L 598.516364 466.883077 
L 590.4 470.038361 
L 590.4 461.415621 
L 574.167273 467.928326 
L 557.934545 474.701538 
L 557.934545 471.729231 
L 549.818182 475.223736 
L 549.818182 465.947854 
L 533.585455 473.188288 
L 525.469091 476.926555 
L 525.469091 452.876742 
L 517.352727 456.729231 
L 517.352727 449.113846 
L 501.12 457.11 
L 493.003636 461.259903 
L 493.003636 457.31503 
L 484.887273 461.575385 
L 484.887273 453.378462 
L 476.770909 457.758337 
L 476.770909 453.4953 
L 468.654545 457.998462 
L 468.654545 453.618722 
L 460.538182 458.252308 
L 452.421818 463.020201 
L 452.421818 449.113846 
L 444.305455 454.034556 
L 436.189091 459.109038 
L 428.072727 464.344615 
L 419.956364 469.749082 
L 411.84 475.330744 
L 403.723636 481.098462 
L 395.607273 487.061695 
L 395.607273 471.96 
L 387.490909 478.190769 
L 387.490909 472.806154 
L 379.374545 479.288012 
L 379.374545 473.717396 
L 371.258182 480.471312 
L 363.141818 487.495385 
L 355.025455 494.806154 
L 346.909091 502.421538 
L 346.909091 484.652308 
L 338.792727 492.729231 
L 338.792727 486.305259 
L 330.676364 494.806154 
L 330.676364 488.119475 
L 322.56 497.090769 
L 322.56 475.047318 
L 314.443636 484.652308 
L 314.443636 476.529231 
L 306.327273 486.742805 
L 298.210909 497.575385 
L 298.210909 489.094615 
L 290.094545 500.701935 
L 281.978182 513.083077 
L 281.978182 494.806154 
L 273.861818 508.344615 
L 273.861818 433.883077 
L 265.745455 449.113846 
L 257.629091 465.947854 
L 249.512727 484.652308 
L 249.512727 427.790769 
L 241.396364 449.113846 
L 241.396364 395.806154 
L 233.28 420.036923 
L 225.163636 449.113846 
L 217.047273 484.652308 
L 217.047273 342.498462 
L 208.930909 385.144615 
L 208.930909 289.190769 
L 200.814545 342.498462 
L 200.814545 129.267692 
L 184.581818 129.267692 
L 184.581818 129.267692 
" style="fill:none;stroke:#9467bd;stroke-linecap:square;stroke-width:1.5;"/>
   </g>
   <g id="line2d_28">
    <path clip-path="url(#p5415def97d)" d="M 996.218182 442.586374 
L 979.985455 445.816463 
L 979.985455 440.74091 
L 971.869091 442.380243 
L 971.869091 426.14147 
L 963.752727 427.790769 
L 963.752727 413.986234 
L 955.636364 415.641574 
L 955.636364 407.229231 
L 947.52 408.893671 
L 947.52 406.724597 
L 923.170909 411.831166 
L 915.054545 413.575385 
L 915.054545 411.368027 
L 890.705455 416.724362 
L 890.705455 412.208521 
L 882.589091 414.033945 
L 882.589091 411.729231 
L 874.472727 413.575385 
L 874.472727 411.237328 
L 858.24 414.996923 
L 858.24 412.621332 
L 850.123636 414.535884 
L 850.123636 412.124835 
L 842.007273 414.062213 
L 842.007273 406.616805 
L 833.890909 408.569967 
L 833.890909 400.791765 
L 825.774545 402.759331 
L 825.774545 400.086334 
L 809.541818 404.098462 
L 809.541818 398.611822 
L 801.425455 400.652308 
L 801.425455 397.840799 
L 785.192727 402.004723 
L 785.192727 399.137885 
L 777.076364 401.262847 
L 777.076364 389.305216 
L 752.727273 395.806154 
L 744.610909 398.045973 
L 744.610909 391.705562 
L 736.494545 393.967958 
L 736.494545 387.38915 
L 720.261818 391.998462 
L 720.261818 388.602412 
L 712.145455 390.96 
L 712.145455 387.49211 
L 695.912727 392.318735 
L 695.912727 381.454083 
L 679.68 386.398914 
L 679.68 382.611181 
L 663.447273 387.729231 
L 663.447273 383.839121 
L 655.330909 386.463569 
L 655.330909 382.479231 
L 647.214545 385.144615 
L 647.214545 381.061473 
L 630.981818 386.535251 
L 630.981818 373.644529 
L 622.865455 376.421538 
L 622.865455 367.292737 
L 606.632727 372.96 
L 590.4 378.903715 
L 590.4 364.091451 
L 582.283636 367.102012 
L 582.283636 361.883077 
L 574.167273 364.943806 
L 574.167273 359.556923 
L 566.050909 362.66894 
L 566.050909 357.103309 
L 557.934545 360.267692 
L 557.934545 354.511463 
L 549.818182 357.729231 
L 549.818182 332.806154 
L 533.585455 339.166731 
L 533.585455 332.344615 
L 525.469091 335.62005 
L 525.469091 328.516116 
L 517.352727 331.836923 
L 517.352727 316.763714 
L 509.236364 320.053117 
L 509.236364 312.036923 
L 501.12 315.36 
L 501.12 298.243019 
L 493.003636 301.492544 
L 493.003636 292.326516 
L 484.887273 295.587692 
L 484.887273 285.927033 
L 476.770909 289.190769 
L 476.770909 278.982913 
L 468.654545 282.237592 
L 460.538182 285.636923 
L 460.538182 274.652308 
L 452.421818 278.033345 
L 444.305455 281.575385 
L 436.189091 285.290206 
L 428.072727 289.190769 
L 419.956364 293.291361 
L 411.84 297.607773 
L 403.723636 302.157505 
L 395.607273 306.96 
L 387.490909 312.036923 
L 379.374545 317.412489 
L 371.258182 323.113846 
L 371.258182 261.617825 
L 363.141818 266.344615 
L 355.025455 271.421538 
L 346.909091 276.888994 
L 338.792727 282.793846 
L 338.792727 262.536923 
L 330.676364 268.331237 
L 330.676364 245.575385 
L 322.56 251.113846 
L 322.56 225.221538 
L 314.443636 230.271741 
L 314.443636 200.344615 
L 306.327273 204.525611 
L 298.210909 209.229231 
L 290.094545 214.56 
L 290.094545 174.96 
L 281.978182 178.474793 
L 273.861818 182.575385 
L 265.745455 187.421538 
L 265.745455 129.267692 
L 184.581818 129.267692 
L 184.581818 129.267692 
" style="fill:none;stroke:#8c564b;stroke-linecap:square;stroke-width:1.5;"/>
   </g>
   <g id="line2d_29">
    <path clip-path="url(#p5415def97d)" d="M 996.218182 432.279838 
L 988.101818 433.883077 
L 988.101818 430.299367 
L 979.985455 431.917816 
L 979.985455 426.392535 
L 963.752727 429.675682 
L 963.752727 425.884796 
L 955.636364 427.551184 
L 955.636364 417.683877 
L 939.403636 421.057166 
L 939.403636 387.60497 
L 915.054545 392.670407 
L 906.938182 394.40332 
L 906.938182 379.01058 
L 898.821818 380.732944 
L 898.821818 372.530964 
L 874.472727 377.781251 
L 866.356364 379.582074 
L 866.356364 376.739899 
L 858.24 378.559548 
L 858.24 372.732675 
L 850.123636 374.563239 
L 850.123636 365.461775 
L 825.774545 371.041163 
L 817.658182 372.96 
L 817.658182 369.792 
L 809.541818 371.731712 
L 809.541818 365.219773 
L 801.425455 367.16979 
L 801.425455 363.821538 
L 785.192727 367.797027 
L 785.192727 353.721134 
L 777.076364 355.707447 
L 777.076364 344.436923 
L 760.843636 348.421538 
L 760.843636 336.406154 
L 744.610909 340.42826 
L 744.610909 331.942483 
L 728.378182 336.036923 
L 728.378182 331.619341 
L 720.261818 333.70544 
L 720.261818 324.542186 
L 712.145455 326.619574 
L 712.145455 321.863226 
L 704.029091 323.956656 
L 704.029091 319.066509 
L 695.912727 321.175385 
L 695.912727 316.144097 
L 679.68 320.440106 
L 663.447273 324.938281 
L 647.214545 329.653234 
L 647.214545 324.295835 
L 639.098182 326.70359 
L 639.098182 315.507225 
L 630.981818 317.894911 
L 630.981818 312.036923 
L 622.865455 314.441781 
L 622.865455 308.381538 
L 606.632727 313.288767 
L 590.4 318.472459 
L 590.4 312.036923 
L 574.167273 317.412489 
L 566.050909 320.22062 
L 566.050909 306.413254 
L 557.934545 309.181154 
L 557.934545 278.529231 
L 549.818182 281.059087 
L 549.818182 272.647003 
L 533.585455 277.767692 
L 533.585455 268.836923 
L 517.352727 274.103687 
L 501.12 279.783529 
L 501.12 270 
L 493.003636 272.872088 
L 484.887273 275.863846 
L 484.887273 265.372439 
L 476.770909 268.331237 
L 468.654545 271.421538 
L 468.654545 248.280215 
L 460.538182 251.113846 
L 452.421818 254.085704 
L 452.421818 227.681893 
L 444.305455 230.271741 
L 436.189091 233.00158 
L 428.072727 235.883077 
L 419.956364 238.929231 
L 419.956364 223.34009 
L 411.84 226.190769 
L 403.723636 229.219615 
L 395.607273 232.443871 
L 387.490909 235.883077 
L 379.374545 239.559469 
L 379.374545 220.652308 
L 371.258182 224.036923 
L 363.141818 227.681893 
L 355.025455 231.618462 
L 346.909091 235.883077 
L 338.792727 240.518528 
L 330.676364 245.575385 
L 322.56 251.113846 
L 314.443636 257.206154 
L 314.443636 230.271741 
L 306.327273 235.883077 
L 298.210909 242.15457 
L 290.094545 249.21 
L 281.978182 257.206154 
L 273.861818 266.344615 
L 265.745455 276.888994 
L 265.745455 235.883077 
L 257.629091 245.575385 
L 249.512727 257.206154 
L 241.396364 271.421538 
L 233.28 289.190769 
L 233.28 220.652308 
L 225.163636 235.883077 
L 217.047273 257.206154 
L 208.930909 289.190769 
L 200.814545 342.498462 
L 192.698182 449.113846 
L 192.698182 129.267692 
L 184.581818 129.267692 
L 184.581818 129.267692 
" style="fill:none;stroke:#e377c2;stroke-linecap:square;stroke-width:1.5;"/>
   </g>
   <g id="line2d_30">
    <path clip-path="url(#p5415def97d)" d="M 996.218182 423.180374 
L 979.985455 426.392535 
L 979.985455 420.683077 
L 971.869091 422.311096 
L 971.869091 418.394159 
L 963.752727 420.036923 
L 963.752727 409.834494 
L 955.636364 411.484887 
L 955.636364 407.229231 
L 947.52 408.893671 
L 947.52 400.057688 
L 939.403636 401.729231 
L 939.403636 382.652308 
L 923.170909 385.986316 
L 923.170909 380.88 
L 915.054545 382.568673 
L 915.054545 369.152308 
L 906.938182 370.829822 
L 906.938182 365.182586 
L 898.821818 366.867692 
L 898.821818 361.040268 
L 890.705455 362.732038 
L 890.705455 359.745068 
L 882.589091 361.452308 
L 882.589091 349.009325 
L 874.472727 350.699645 
L 874.472727 347.457317 
L 866.356364 349.161923 
L 866.356364 342.498462 
L 858.24 344.204308 
L 858.24 340.778859 
L 850.123636 342.498462 
L 850.123636 324.428057 
L 842.007273 326.096095 
L 842.007273 314.441781 
L 817.658182 319.446486 
L 817.658182 315.36 
L 793.309091 320.577541 
L 793.309091 316.347518 
L 768.96 321.796445 
L 752.727273 316.652308 
L 736.494545 320.515908 
L 720.261818 324.542186 
L 720.261818 299.852308 
L 704.029091 303.729231 
L 695.912727 305.734536 
L 695.912727 289.190769 
L 679.68 293.091332 
L 671.563636 295.113846 
L 671.563636 289.190769 
L 655.330909 293.291361 
L 639.098182 297.607773 
L 622.865455 302.157505 
L 622.865455 289.190769 
L 606.632727 293.76 
L 606.632727 279.783529 
L 590.4 284.344615 
L 574.167273 289.190769 
L 557.934545 294.349578 
L 541.701818 299.852308 
L 541.701818 283.67618 
L 525.469091 289.190769 
L 517.352727 292.098462 
L 517.352727 283.267692 
L 501.12 289.190769 
L 501.12 270 
L 493.003636 272.872088 
L 484.887273 275.863846 
L 484.887273 265.372439 
L 476.770909 268.331237 
L 476.770909 233.403649 
L 468.654545 235.883077 
L 460.538182 238.483452 
L 452.421818 241.213846 
L 444.305455 244.08426 
L 436.189091 247.105749 
L 428.072727 250.290561 
L 419.956364 253.652308 
L 411.84 257.206154 
L 411.84 226.190769 
L 403.723636 229.219615 
L 395.607273 232.443871 
L 395.607273 195.442759 
L 387.490909 197.806154 
L 387.490909 176.652308 
L 379.374545 178.474793 
L 371.258182 180.443077 
L 363.141818 182.575385 
L 355.025455 184.89311 
L 355.025455 158.344615 
L 346.909091 159.729231 
L 338.792727 161.252308 
L 330.676364 162.935709 
L 330.676364 129.267692 
L 184.581818 129.267692 
L 184.581818 129.267692 
" style="fill:none;stroke:#7f7f7f;stroke-linecap:square;stroke-width:1.5;"/>
   </g>
   <g id="line2d_31">
    <path clip-path="url(#p5415def97d)" d="M 184.581818 449.113846 
L 996.218182 449.113846 
" style="fill:none;stroke:#000000;stroke-dasharray:5.55,2.4;stroke-dashoffset:0;stroke-width:1.5;"/>
   </g>
   <g id="patch_3">
    <path d="M 144 768.96 
L 144 103.68 
" style="fill:none;stroke:#000000;stroke-linecap:square;stroke-linejoin:miter;stroke-width:0.8;"/>
   </g>
   <g id="patch_4">
    <path d="M 1036.8 768.96 
L 1036.8 103.68 
" style="fill:none;stroke:#000000;stroke-linecap:square;stroke-linejoin:miter;stroke-width:0.8;"/>
   </g>
   <g id="patch_5">
    <path d="M 144 768.96 
L 1036.8 768.96 
" style="fill:none;stroke:#000000;stroke-linecap:square;stroke-linejoin:miter;stroke-width:0.8;"/>
   </g>
   <g id="patch_6">
    <path d="M 144 103.68 
L 1036.8 103.68 
" style="fill:none;stroke:#000000;stroke-linecap:square;stroke-linejoin:miter;stroke-width:0.8;"/>
   </g>
   <g id="legend_1">
    <g id="patch_7">
     <path d="M 510.425 760.96 
L 1025.6 760.96 
Q 1028.8 760.96 1028.8 757.76 
L 1028.8 567.92 
Q 1028.8 564.72 1025.6 564.72 
L 510.425 564.72 
Q 507.225 564.72 507.225 567.92 
L 507.225 757.76 
Q 507.225 760.96 510.425 760.96 
z
" style="fill:#ffffff;opacity:0.8;stroke:#cccccc;stroke-linejoin:miter;"/>
    </g>
    <g id="line2d_32">
     <path d="M 513.625 577.6775 
L 545.625 577.6775 
" style="fill:none;stroke:#1f77b4;stroke-linecap:square;stroke-width:1.5;"/>
    </g>
    <g id="line2d_33"/>
    <g id="text_25">
     <!-- GradientBoostingClassifier, f1_score=0.990, auprc=0.998 -->
     <defs>
      <path d="M 59.515625 10.40625 
L 59.515625 29.984375 
L 43.40625 29.984375 
L 43.40625 38.09375 
L 69.28125 38.09375 
L 69.28125 6.78125 
Q 63.578125 2.734375 56.6875 0.65625 
Q 49.8125 -1.421875 42 -1.421875 
Q 24.90625 -1.421875 15.25 8.5625 
Q 5.609375 18.5625 5.609375 36.375 
Q 5.609375 54.25 15.25 64.234375 
Q 24.90625 74.21875 42 74.21875 
Q 49.125 74.21875 55.546875 72.453125 
Q 61.96875 70.703125 67.390625 67.28125 
L 67.390625 56.78125 
Q 61.921875 61.421875 55.765625 63.765625 
Q 49.609375 66.109375 42.828125 66.109375 
Q 29.4375 66.109375 22.71875 58.640625 
Q 16.015625 51.171875 16.015625 36.375 
Q 16.015625 21.625 22.71875 14.15625 
Q 29.4375 6.6875 42.828125 6.6875 
Q 48.046875 6.6875 52.140625 7.59375 
Q 56.25 8.5 59.515625 10.40625 
z
" id="DejaVuSans-71"/>
      <path d="M 45.40625 46.390625 
L 45.40625 75.984375 
L 54.390625 75.984375 
L 54.390625 0 
L 45.40625 0 
L 45.40625 8.203125 
Q 42.578125 3.328125 38.25 0.953125 
Q 33.9375 -1.421875 27.875 -1.421875 
Q 17.96875 -1.421875 11.734375 6.484375 
Q 5.515625 14.40625 5.515625 27.296875 
Q 5.515625 40.1875 11.734375 48.09375 
Q 17.96875 56 27.875 56 
Q 33.9375 56 38.25 53.625 
Q 42.578125 51.265625 45.40625 46.390625 
z
M 14.796875 27.296875 
Q 14.796875 17.390625 18.875 11.75 
Q 22.953125 6.109375 30.078125 6.109375 
Q 37.203125 6.109375 41.296875 11.75 
Q 45.40625 17.390625 45.40625 27.296875 
Q 45.40625 37.203125 41.296875 42.84375 
Q 37.203125 48.484375 30.078125 48.484375 
Q 22.953125 48.484375 18.875 42.84375 
Q 14.796875 37.203125 14.796875 27.296875 
z
" id="DejaVuSans-100"/>
      <path d="M 18.3125 70.21875 
L 18.3125 54.6875 
L 36.8125 54.6875 
L 36.8125 47.703125 
L 18.3125 47.703125 
L 18.3125 18.015625 
Q 18.3125 11.328125 20.140625 9.421875 
Q 21.96875 7.515625 27.59375 7.515625 
L 36.8125 7.515625 
L 36.8125 0 
L 27.59375 0 
Q 17.1875 0 13.234375 3.875 
Q 9.28125 7.765625 9.28125 18.015625 
L 9.28125 47.703125 
L 2.6875 47.703125 
L 2.6875 54.6875 
L 9.28125 54.6875 
L 9.28125 70.21875 
z
" id="DejaVuSans-116"/>
      <path d="M 19.671875 34.8125 
L 19.671875 8.109375 
L 35.5 8.109375 
Q 43.453125 8.109375 47.28125 11.40625 
Q 51.125 14.703125 51.125 21.484375 
Q 51.125 28.328125 47.28125 31.5625 
Q 43.453125 34.8125 35.5 34.8125 
z
M 19.671875 64.796875 
L 19.671875 42.828125 
L 34.28125 42.828125 
Q 41.5 42.828125 45.03125 45.53125 
Q 48.578125 48.25 48.578125 53.8125 
Q 48.578125 59.328125 45.03125 62.0625 
Q 41.5 64.796875 34.28125 64.796875 
z
M 9.8125 72.90625 
L 35.015625 72.90625 
Q 46.296875 72.90625 52.390625 68.21875 
Q 58.5 63.53125 58.5 54.890625 
Q 58.5 48.1875 55.375 44.234375 
Q 52.25 40.28125 46.1875 39.3125 
Q 53.46875 37.75 57.5 32.78125 
Q 61.53125 27.828125 61.53125 20.40625 
Q 61.53125 10.640625 54.890625 5.3125 
Q 48.25 0 35.984375 0 
L 9.8125 0 
z
" id="DejaVuSans-66"/>
      <path d="M 45.40625 27.984375 
Q 45.40625 37.75 41.375 43.109375 
Q 37.359375 48.484375 30.078125 48.484375 
Q 22.859375 48.484375 18.828125 43.109375 
Q 14.796875 37.75 14.796875 27.984375 
Q 14.796875 18.265625 18.828125 12.890625 
Q 22.859375 7.515625 30.078125 7.515625 
Q 37.359375 7.515625 41.375 12.890625 
Q 45.40625 18.265625 45.40625 27.984375 
z
M 54.390625 6.78125 
Q 54.390625 -7.171875 48.1875 -13.984375 
Q 42 -20.796875 29.203125 -20.796875 
Q 24.46875 -20.796875 20.265625 -20.09375 
Q 16.0625 -19.390625 12.109375 -17.921875 
L 12.109375 -9.1875 
Q 16.0625 -11.328125 19.921875 -12.34375 
Q 23.78125 -13.375 27.78125 -13.375 
Q 36.625 -13.375 41.015625 -8.765625 
Q 45.40625 -4.15625 45.40625 5.171875 
L 45.40625 9.625 
Q 42.625 4.78125 38.28125 2.390625 
Q 33.9375 0 27.875 0 
Q 17.828125 0 11.671875 7.65625 
Q 5.515625 15.328125 5.515625 27.984375 
Q 5.515625 40.671875 11.671875 48.328125 
Q 17.828125 56 27.875 56 
Q 33.9375 56 38.28125 53.609375 
Q 42.625 51.21875 45.40625 46.390625 
L 45.40625 54.6875 
L 54.390625 54.6875 
z
" id="DejaVuSans-103"/>
      <path d="M 64.40625 67.28125 
L 64.40625 56.890625 
Q 59.421875 61.53125 53.78125 63.8125 
Q 48.140625 66.109375 41.796875 66.109375 
Q 29.296875 66.109375 22.65625 58.46875 
Q 16.015625 50.828125 16.015625 36.375 
Q 16.015625 21.96875 22.65625 14.328125 
Q 29.296875 6.6875 41.796875 6.6875 
Q 48.140625 6.6875 53.78125 8.984375 
Q 59.421875 11.28125 64.40625 15.921875 
L 64.40625 5.609375 
Q 59.234375 2.09375 53.4375 0.328125 
Q 47.65625 -1.421875 41.21875 -1.421875 
Q 24.65625 -1.421875 15.125 8.703125 
Q 5.609375 18.84375 5.609375 36.375 
Q 5.609375 53.953125 15.125 64.078125 
Q 24.65625 74.21875 41.21875 74.21875 
Q 47.75 74.21875 53.53125 72.484375 
Q 59.328125 70.75 64.40625 67.28125 
z
" id="DejaVuSans-67"/>
      <path d="M 37.109375 75.984375 
L 37.109375 68.5 
L 28.515625 68.5 
Q 23.6875 68.5 21.796875 66.546875 
Q 19.921875 64.59375 19.921875 59.515625 
L 19.921875 54.6875 
L 34.71875 54.6875 
L 34.71875 47.703125 
L 19.921875 47.703125 
L 19.921875 0 
L 10.890625 0 
L 10.890625 47.703125 
L 2.296875 47.703125 
L 2.296875 54.6875 
L 10.890625 54.6875 
L 10.890625 58.5 
Q 10.890625 67.625 15.140625 71.796875 
Q 19.390625 75.984375 28.609375 75.984375 
z
" id="DejaVuSans-102"/>
      <path d="M 11.71875 12.40625 
L 22.015625 12.40625 
L 22.015625 4 
L 14.015625 -11.625 
L 7.71875 -11.625 
L 11.71875 4 
z
" id="DejaVuSans-44"/>
      <path id="DejaVuSans-32"/>
      <path d="M 50.984375 -16.609375 
L 50.984375 -23.578125 
L -0.984375 -23.578125 
L -0.984375 -16.609375 
z
" id="DejaVuSans-95"/>
      <path d="M 10.59375 45.40625 
L 73.1875 45.40625 
L 73.1875 37.203125 
L 10.59375 37.203125 
z
M 10.59375 25.484375 
L 73.1875 25.484375 
L 73.1875 17.1875 
L 10.59375 17.1875 
z
" id="DejaVuSans-61"/>
      <path d="M 8.5 21.578125 
L 8.5 54.6875 
L 17.484375 54.6875 
L 17.484375 21.921875 
Q 17.484375 14.15625 20.5 10.265625 
Q 23.53125 6.390625 29.59375 6.390625 
Q 36.859375 6.390625 41.078125 11.03125 
Q 45.3125 15.671875 45.3125 23.6875 
L 45.3125 54.6875 
L 54.296875 54.6875 
L 54.296875 0 
L 45.3125 0 
L 45.3125 8.40625 
Q 42.046875 3.421875 37.71875 1 
Q 33.40625 -1.421875 27.6875 -1.421875 
Q 18.265625 -1.421875 13.375 4.4375 
Q 8.5 10.296875 8.5 21.578125 
z
M 31.109375 56 
z
" id="DejaVuSans-117"/>
      <path d="M 18.109375 8.203125 
L 18.109375 -20.796875 
L 9.078125 -20.796875 
L 9.078125 54.6875 
L 18.109375 54.6875 
L 18.109375 46.390625 
Q 20.953125 51.265625 25.265625 53.625 
Q 29.59375 56 35.59375 56 
Q 45.5625 56 51.78125 48.09375 
Q 58.015625 40.1875 58.015625 27.296875 
Q 58.015625 14.40625 51.78125 6.484375 
Q 45.5625 -1.421875 35.59375 -1.421875 
Q 29.59375 -1.421875 25.265625 0.953125 
Q 20.953125 3.328125 18.109375 8.203125 
z
M 48.6875 27.296875 
Q 48.6875 37.203125 44.609375 42.84375 
Q 40.53125 48.484375 33.40625 48.484375 
Q 26.265625 48.484375 22.1875 42.84375 
Q 18.109375 37.203125 18.109375 27.296875 
Q 18.109375 17.390625 22.1875 11.75 
Q 26.265625 6.109375 33.40625 6.109375 
Q 40.53125 6.109375 44.609375 11.75 
Q 48.6875 17.390625 48.6875 27.296875 
z
" id="DejaVuSans-112"/>
     </defs>
     <g transform="translate(558.425 583.2775)scale(0.16 -0.16)">
      <use xlink:href="#DejaVuSans-71"/>
      <use x="77.490234" xlink:href="#DejaVuSans-114"/>
      <use x="118.603516" xlink:href="#DejaVuSans-97"/>
      <use x="179.882812" xlink:href="#DejaVuSans-100"/>
      <use x="243.359375" xlink:href="#DejaVuSans-105"/>
      <use x="271.142578" xlink:href="#DejaVuSans-101"/>
      <use x="332.666016" xlink:href="#DejaVuSans-110"/>
      <use x="396.044922" xlink:href="#DejaVuSans-116"/>
      <use x="435.253906" xlink:href="#DejaVuSans-66"/>
      <use x="503.857422" xlink:href="#DejaVuSans-111"/>
      <use x="565.039062" xlink:href="#DejaVuSans-111"/>
      <use x="626.220703" xlink:href="#DejaVuSans-115"/>
      <use x="678.320312" xlink:href="#DejaVuSans-116"/>
      <use x="717.529297" xlink:href="#DejaVuSans-105"/>
      <use x="745.3125" xlink:href="#DejaVuSans-110"/>
      <use x="808.691406" xlink:href="#DejaVuSans-103"/>
      <use x="872.167969" xlink:href="#DejaVuSans-67"/>
      <use x="941.992188" xlink:href="#DejaVuSans-108"/>
      <use x="969.775391" xlink:href="#DejaVuSans-97"/>
      <use x="1031.054688" xlink:href="#DejaVuSans-115"/>
      <use x="1083.154297" xlink:href="#DejaVuSans-115"/>
      <use x="1135.253906" xlink:href="#DejaVuSans-105"/>
      <use x="1163.037109" xlink:href="#DejaVuSans-102"/>
      <use x="1198.242188" xlink:href="#DejaVuSans-105"/>
      <use x="1226.025391" xlink:href="#DejaVuSans-101"/>
      <use x="1287.548828" xlink:href="#DejaVuSans-114"/>
      <use x="1328.662109" xlink:href="#DejaVuSans-44"/>
      <use x="1360.449219" xlink:href="#DejaVuSans-32"/>
      <use x="1392.236328" xlink:href="#DejaVuSans-102"/>
      <use x="1427.441406" xlink:href="#DejaVuSans-49"/>
      <use x="1491.064453" xlink:href="#DejaVuSans-95"/>
      <use x="1541.064453" xlink:href="#DejaVuSans-115"/>
      <use x="1593.164062" xlink:href="#DejaVuSans-99"/>
      <use x="1648.144531" xlink:href="#DejaVuSans-111"/>
      <use x="1709.326172" xlink:href="#DejaVuSans-114"/>
      <use x="1750.408203" xlink:href="#DejaVuSans-101"/>
      <use x="1811.931641" xlink:href="#DejaVuSans-61"/>
      <use x="1895.720703" xlink:href="#DejaVuSans-48"/>
      <use x="1959.34375" xlink:href="#DejaVuSans-46"/>
      <use x="1991.130859" xlink:href="#DejaVuSans-57"/>
      <use x="2054.753906" xlink:href="#DejaVuSans-57"/>
      <use x="2118.376953" xlink:href="#DejaVuSans-48"/>
      <use x="2182" xlink:href="#DejaVuSans-44"/>
      <use x="2213.787109" xlink:href="#DejaVuSans-32"/>
      <use x="2245.574219" xlink:href="#DejaVuSans-97"/>
      <use x="2306.853516" xlink:href="#DejaVuSans-117"/>
      <use x="2370.232422" xlink:href="#DejaVuSans-112"/>
      <use x="2433.708984" xlink:href="#DejaVuSans-114"/>
      <use x="2474.791016" xlink:href="#DejaVuSans-99"/>
      <use x="2529.771484" xlink:href="#DejaVuSans-61"/>
      <use x="2613.560547" xlink:href="#DejaVuSans-48"/>
      <use x="2677.183594" xlink:href="#DejaVuSans-46"/>
      <use x="2708.970703" xlink:href="#DejaVuSans-57"/>
      <use x="2772.59375" xlink:href="#DejaVuSans-57"/>
      <use x="2836.216797" xlink:href="#DejaVuSans-56"/>
     </g>
    </g>
    <g id="line2d_34">
     <path d="M 513.625 601.6075 
L 545.625 601.6075 
" style="fill:none;stroke:#ff7f0e;stroke-linecap:square;stroke-width:1.5;"/>
    </g>
    <g id="line2d_35"/>
    <g id="text_26">
     <!-- LGBMClassifier, f1_score=0.853, auprc=0.960 -->
     <defs>
      <path d="M 9.8125 72.90625 
L 19.671875 72.90625 
L 19.671875 8.296875 
L 55.171875 8.296875 
L 55.171875 0 
L 9.8125 0 
z
" id="DejaVuSans-76"/>
      <path d="M 9.8125 72.90625 
L 24.515625 72.90625 
L 43.109375 23.296875 
L 61.8125 72.90625 
L 76.515625 72.90625 
L 76.515625 0 
L 66.890625 0 
L 66.890625 64.015625 
L 48.09375 14.015625 
L 38.1875 14.015625 
L 19.390625 64.015625 
L 19.390625 0 
L 9.8125 0 
z
" id="DejaVuSans-77"/>
     </defs>
     <g transform="translate(558.425 607.2075)scale(0.16 -0.16)">
      <use xlink:href="#DejaVuSans-76"/>
      <use x="55.712891" xlink:href="#DejaVuSans-71"/>
      <use x="133.203125" xlink:href="#DejaVuSans-66"/>
      <use x="201.806641" xlink:href="#DejaVuSans-77"/>
      <use x="288.085938" xlink:href="#DejaVuSans-67"/>
      <use x="357.910156" xlink:href="#DejaVuSans-108"/>
      <use x="385.693359" xlink:href="#DejaVuSans-97"/>
      <use x="446.972656" xlink:href="#DejaVuSans-115"/>
      <use x="499.072266" xlink:href="#DejaVuSans-115"/>
      <use x="551.171875" xlink:href="#DejaVuSans-105"/>
      <use x="578.955078" xlink:href="#DejaVuSans-102"/>
      <use x="614.160156" xlink:href="#DejaVuSans-105"/>
      <use x="641.943359" xlink:href="#DejaVuSans-101"/>
      <use x="703.466797" xlink:href="#DejaVuSans-114"/>
      <use x="744.580078" xlink:href="#DejaVuSans-44"/>
      <use x="776.367188" xlink:href="#DejaVuSans-32"/>
      <use x="808.154297" xlink:href="#DejaVuSans-102"/>
      <use x="843.359375" xlink:href="#DejaVuSans-49"/>
      <use x="906.982422" xlink:href="#DejaVuSans-95"/>
      <use x="956.982422" xlink:href="#DejaVuSans-115"/>
      <use x="1009.082031" xlink:href="#DejaVuSans-99"/>
      <use x="1064.0625" xlink:href="#DejaVuSans-111"/>
      <use x="1125.244141" xlink:href="#DejaVuSans-114"/>
      <use x="1166.326172" xlink:href="#DejaVuSans-101"/>
      <use x="1227.849609" xlink:href="#DejaVuSans-61"/>
      <use x="1311.638672" xlink:href="#DejaVuSans-48"/>
      <use x="1375.261719" xlink:href="#DejaVuSans-46"/>
      <use x="1407.048828" xlink:href="#DejaVuSans-56"/>
      <use x="1470.671875" xlink:href="#DejaVuSans-53"/>
      <use x="1534.294922" xlink:href="#DejaVuSans-51"/>
      <use x="1597.917969" xlink:href="#DejaVuSans-44"/>
      <use x="1629.705078" xlink:href="#DejaVuSans-32"/>
      <use x="1661.492188" xlink:href="#DejaVuSans-97"/>
      <use x="1722.771484" xlink:href="#DejaVuSans-117"/>
      <use x="1786.150391" xlink:href="#DejaVuSans-112"/>
      <use x="1849.626953" xlink:href="#DejaVuSans-114"/>
      <use x="1890.708984" xlink:href="#DejaVuSans-99"/>
      <use x="1945.689453" xlink:href="#DejaVuSans-61"/>
      <use x="2029.478516" xlink:href="#DejaVuSans-48"/>
      <use x="2093.101562" xlink:href="#DejaVuSans-46"/>
      <use x="2124.888672" xlink:href="#DejaVuSans-57"/>
      <use x="2188.511719" xlink:href="#DejaVuSans-54"/>
      <use x="2252.134766" xlink:href="#DejaVuSans-48"/>
     </g>
    </g>
    <g id="line2d_36">
     <path d="M 513.625 625.5375 
L 545.625 625.5375 
" style="fill:none;stroke:#2ca02c;stroke-linecap:square;stroke-width:1.5;"/>
    </g>
    <g id="line2d_37"/>
    <g id="text_27">
     <!-- XGBClassifier, f1_score=0.964, auprc=0.999 -->
     <defs>
      <path d="M 6.296875 72.90625 
L 16.890625 72.90625 
L 35.015625 45.796875 
L 53.21875 72.90625 
L 63.8125 72.90625 
L 40.375 37.890625 
L 65.375 0 
L 54.78125 0 
L 34.28125 31 
L 13.625 0 
L 2.984375 0 
L 29 38.921875 
z
" id="DejaVuSans-88"/>
     </defs>
     <g transform="translate(558.425 631.1375)scale(0.16 -0.16)">
      <use xlink:href="#DejaVuSans-88"/>
      <use x="68.505859" xlink:href="#DejaVuSans-71"/>
      <use x="145.996094" xlink:href="#DejaVuSans-66"/>
      <use x="214.583984" xlink:href="#DejaVuSans-67"/>
      <use x="284.408203" xlink:href="#DejaVuSans-108"/>
      <use x="312.191406" xlink:href="#DejaVuSans-97"/>
      <use x="373.470703" xlink:href="#DejaVuSans-115"/>
      <use x="425.570312" xlink:href="#DejaVuSans-115"/>
      <use x="477.669922" xlink:href="#DejaVuSans-105"/>
      <use x="505.453125" xlink:href="#DejaVuSans-102"/>
      <use x="540.658203" xlink:href="#DejaVuSans-105"/>
      <use x="568.441406" xlink:href="#DejaVuSans-101"/>
      <use x="629.964844" xlink:href="#DejaVuSans-114"/>
      <use x="671.078125" xlink:href="#DejaVuSans-44"/>
      <use x="702.865234" xlink:href="#DejaVuSans-32"/>
      <use x="734.652344" xlink:href="#DejaVuSans-102"/>
      <use x="769.857422" xlink:href="#DejaVuSans-49"/>
      <use x="833.480469" xlink:href="#DejaVuSans-95"/>
      <use x="883.480469" xlink:href="#DejaVuSans-115"/>
      <use x="935.580078" xlink:href="#DejaVuSans-99"/>
      <use x="990.560547" xlink:href="#DejaVuSans-111"/>
      <use x="1051.742188" xlink:href="#DejaVuSans-114"/>
      <use x="1092.824219" xlink:href="#DejaVuSans-101"/>
      <use x="1154.347656" xlink:href="#DejaVuSans-61"/>
      <use x="1238.136719" xlink:href="#DejaVuSans-48"/>
      <use x="1301.759766" xlink:href="#DejaVuSans-46"/>
      <use x="1333.546875" xlink:href="#DejaVuSans-57"/>
      <use x="1397.169922" xlink:href="#DejaVuSans-54"/>
      <use x="1460.792969" xlink:href="#DejaVuSans-52"/>
      <use x="1524.416016" xlink:href="#DejaVuSans-44"/>
      <use x="1556.203125" xlink:href="#DejaVuSans-32"/>
      <use x="1587.990234" xlink:href="#DejaVuSans-97"/>
      <use x="1649.269531" xlink:href="#DejaVuSans-117"/>
      <use x="1712.648438" xlink:href="#DejaVuSans-112"/>
      <use x="1776.125" xlink:href="#DejaVuSans-114"/>
      <use x="1817.207031" xlink:href="#DejaVuSans-99"/>
      <use x="1872.1875" xlink:href="#DejaVuSans-61"/>
      <use x="1955.976562" xlink:href="#DejaVuSans-48"/>
      <use x="2019.599609" xlink:href="#DejaVuSans-46"/>
      <use x="2051.386719" xlink:href="#DejaVuSans-57"/>
      <use x="2115.009766" xlink:href="#DejaVuSans-57"/>
      <use x="2178.632812" xlink:href="#DejaVuSans-57"/>
     </g>
    </g>
    <g id="line2d_38">
     <path d="M 513.625 649.4675 
L 545.625 649.4675 
" style="fill:none;stroke:#d62728;stroke-linecap:square;stroke-width:1.5;"/>
    </g>
    <g id="line2d_39"/>
    <g id="text_28">
     <!-- DecisionTreeClassifier, f1_score=0.471, auprc=0.450 -->
     <defs>
      <path d="M 19.671875 64.796875 
L 19.671875 8.109375 
L 31.59375 8.109375 
Q 46.6875 8.109375 53.6875 14.9375 
Q 60.6875 21.78125 60.6875 36.53125 
Q 60.6875 51.171875 53.6875 57.984375 
Q 46.6875 64.796875 31.59375 64.796875 
z
M 9.8125 72.90625 
L 30.078125 72.90625 
Q 51.265625 72.90625 61.171875 64.09375 
Q 71.09375 55.28125 71.09375 36.53125 
Q 71.09375 17.671875 61.125 8.828125 
Q 51.171875 0 30.078125 0 
L 9.8125 0 
z
" id="DejaVuSans-68"/>
      <path d="M -0.296875 72.90625 
L 61.375 72.90625 
L 61.375 64.59375 
L 35.5 64.59375 
L 35.5 0 
L 25.59375 0 
L 25.59375 64.59375 
L -0.296875 64.59375 
z
" id="DejaVuSans-84"/>
     </defs>
     <g transform="translate(558.425 655.0675)scale(0.16 -0.16)">
      <use xlink:href="#DejaVuSans-68"/>
      <use x="77.001953" xlink:href="#DejaVuSans-101"/>
      <use x="138.525391" xlink:href="#DejaVuSans-99"/>
      <use x="193.505859" xlink:href="#DejaVuSans-105"/>
      <use x="221.289062" xlink:href="#DejaVuSans-115"/>
      <use x="273.388672" xlink:href="#DejaVuSans-105"/>
      <use x="301.171875" xlink:href="#DejaVuSans-111"/>
      <use x="362.353516" xlink:href="#DejaVuSans-110"/>
      <use x="425.732422" xlink:href="#DejaVuSans-84"/>
      <use x="486.597656" xlink:href="#DejaVuSans-114"/>
      <use x="527.679688" xlink:href="#DejaVuSans-101"/>
      <use x="589.203125" xlink:href="#DejaVuSans-101"/>
      <use x="650.726562" xlink:href="#DejaVuSans-67"/>
      <use x="720.550781" xlink:href="#DejaVuSans-108"/>
      <use x="748.333984" xlink:href="#DejaVuSans-97"/>
      <use x="809.613281" xlink:href="#DejaVuSans-115"/>
      <use x="861.712891" xlink:href="#DejaVuSans-115"/>
      <use x="913.8125" xlink:href="#DejaVuSans-105"/>
      <use x="941.595703" xlink:href="#DejaVuSans-102"/>
      <use x="976.800781" xlink:href="#DejaVuSans-105"/>
      <use x="1004.583984" xlink:href="#DejaVuSans-101"/>
      <use x="1066.107422" xlink:href="#DejaVuSans-114"/>
      <use x="1107.220703" xlink:href="#DejaVuSans-44"/>
      <use x="1139.007812" xlink:href="#DejaVuSans-32"/>
      <use x="1170.794922" xlink:href="#DejaVuSans-102"/>
      <use x="1206" xlink:href="#DejaVuSans-49"/>
      <use x="1269.623047" xlink:href="#DejaVuSans-95"/>
      <use x="1319.623047" xlink:href="#DejaVuSans-115"/>
      <use x="1371.722656" xlink:href="#DejaVuSans-99"/>
      <use x="1426.703125" xlink:href="#DejaVuSans-111"/>
      <use x="1487.884766" xlink:href="#DejaVuSans-114"/>
      <use x="1528.966797" xlink:href="#DejaVuSans-101"/>
      <use x="1590.490234" xlink:href="#DejaVuSans-61"/>
      <use x="1674.279297" xlink:href="#DejaVuSans-48"/>
      <use x="1737.902344" xlink:href="#DejaVuSans-46"/>
      <use x="1769.689453" xlink:href="#DejaVuSans-52"/>
      <use x="1833.3125" xlink:href="#DejaVuSans-55"/>
      <use x="1896.935547" xlink:href="#DejaVuSans-49"/>
      <use x="1960.558594" xlink:href="#DejaVuSans-44"/>
      <use x="1992.345703" xlink:href="#DejaVuSans-32"/>
      <use x="2024.132812" xlink:href="#DejaVuSans-97"/>
      <use x="2085.412109" xlink:href="#DejaVuSans-117"/>
      <use x="2148.791016" xlink:href="#DejaVuSans-112"/>
      <use x="2212.267578" xlink:href="#DejaVuSans-114"/>
      <use x="2253.349609" xlink:href="#DejaVuSans-99"/>
      <use x="2308.330078" xlink:href="#DejaVuSans-61"/>
      <use x="2392.119141" xlink:href="#DejaVuSans-48"/>
      <use x="2455.742188" xlink:href="#DejaVuSans-46"/>
      <use x="2487.529297" xlink:href="#DejaVuSans-52"/>
      <use x="2551.152344" xlink:href="#DejaVuSans-53"/>
      <use x="2614.775391" xlink:href="#DejaVuSans-48"/>
     </g>
    </g>
    <g id="line2d_40">
     <path d="M 513.625 673.3975 
L 545.625 673.3975 
" style="fill:none;stroke:#9467bd;stroke-linecap:square;stroke-width:1.5;"/>
    </g>
    <g id="line2d_41"/>
    <g id="text_29">
     <!-- LogisticRegression, f1_score=0.446, auprc=0.491 -->
     <g transform="translate(558.425 678.9975)scale(0.16 -0.16)">
      <use xlink:href="#DejaVuSans-76"/>
      <use x="55.697266" xlink:href="#DejaVuSans-111"/>
      <use x="116.878906" xlink:href="#DejaVuSans-103"/>
      <use x="180.355469" xlink:href="#DejaVuSans-105"/>
      <use x="208.138672" xlink:href="#DejaVuSans-115"/>
      <use x="260.238281" xlink:href="#DejaVuSans-116"/>
      <use x="299.447266" xlink:href="#DejaVuSans-105"/>
      <use x="327.230469" xlink:href="#DejaVuSans-99"/>
      <use x="382.210938" xlink:href="#DejaVuSans-82"/>
      <use x="451.630859" xlink:href="#DejaVuSans-101"/>
      <use x="513.154297" xlink:href="#DejaVuSans-103"/>
      <use x="576.630859" xlink:href="#DejaVuSans-114"/>
      <use x="617.712891" xlink:href="#DejaVuSans-101"/>
      <use x="679.236328" xlink:href="#DejaVuSans-115"/>
      <use x="731.335938" xlink:href="#DejaVuSans-115"/>
      <use x="783.435547" xlink:href="#DejaVuSans-105"/>
      <use x="811.21875" xlink:href="#DejaVuSans-111"/>
      <use x="872.400391" xlink:href="#DejaVuSans-110"/>
      <use x="935.779297" xlink:href="#DejaVuSans-44"/>
      <use x="967.566406" xlink:href="#DejaVuSans-32"/>
      <use x="999.353516" xlink:href="#DejaVuSans-102"/>
      <use x="1034.558594" xlink:href="#DejaVuSans-49"/>
      <use x="1098.181641" xlink:href="#DejaVuSans-95"/>
      <use x="1148.181641" xlink:href="#DejaVuSans-115"/>
      <use x="1200.28125" xlink:href="#DejaVuSans-99"/>
      <use x="1255.261719" xlink:href="#DejaVuSans-111"/>
      <use x="1316.443359" xlink:href="#DejaVuSans-114"/>
      <use x="1357.525391" xlink:href="#DejaVuSans-101"/>
      <use x="1419.048828" xlink:href="#DejaVuSans-61"/>
      <use x="1502.837891" xlink:href="#DejaVuSans-48"/>
      <use x="1566.460938" xlink:href="#DejaVuSans-46"/>
      <use x="1598.248047" xlink:href="#DejaVuSans-52"/>
      <use x="1661.871094" xlink:href="#DejaVuSans-52"/>
      <use x="1725.494141" xlink:href="#DejaVuSans-54"/>
      <use x="1789.117188" xlink:href="#DejaVuSans-44"/>
      <use x="1820.904297" xlink:href="#DejaVuSans-32"/>
      <use x="1852.691406" xlink:href="#DejaVuSans-97"/>
      <use x="1913.970703" xlink:href="#DejaVuSans-117"/>
      <use x="1977.349609" xlink:href="#DejaVuSans-112"/>
      <use x="2040.826172" xlink:href="#DejaVuSans-114"/>
      <use x="2081.908203" xlink:href="#DejaVuSans-99"/>
      <use x="2136.888672" xlink:href="#DejaVuSans-61"/>
      <use x="2220.677734" xlink:href="#DejaVuSans-48"/>
      <use x="2284.300781" xlink:href="#DejaVuSans-46"/>
      <use x="2316.087891" xlink:href="#DejaVuSans-52"/>
      <use x="2379.710938" xlink:href="#DejaVuSans-57"/>
      <use x="2443.333984" xlink:href="#DejaVuSans-49"/>
     </g>
    </g>
    <g id="line2d_42">
     <path d="M 513.625 697.3275 
L 545.625 697.3275 
" style="fill:none;stroke:#8c564b;stroke-linecap:square;stroke-width:1.5;"/>
    </g>
    <g id="line2d_43"/>
    <g id="text_30">
     <!-- KNeighborsClassifier, f1_score=0.581, auprc=0.690 -->
     <defs>
      <path d="M 9.8125 72.90625 
L 19.671875 72.90625 
L 19.671875 42.09375 
L 52.390625 72.90625 
L 65.09375 72.90625 
L 28.90625 38.921875 
L 67.671875 0 
L 54.6875 0 
L 19.671875 35.109375 
L 19.671875 0 
L 9.8125 0 
z
" id="DejaVuSans-75"/>
      <path d="M 9.8125 72.90625 
L 23.09375 72.90625 
L 55.421875 11.921875 
L 55.421875 72.90625 
L 64.984375 72.90625 
L 64.984375 0 
L 51.703125 0 
L 19.390625 60.984375 
L 19.390625 0 
L 9.8125 0 
z
" id="DejaVuSans-78"/>
      <path d="M 54.890625 33.015625 
L 54.890625 0 
L 45.90625 0 
L 45.90625 32.71875 
Q 45.90625 40.484375 42.875 44.328125 
Q 39.84375 48.1875 33.796875 48.1875 
Q 26.515625 48.1875 22.3125 43.546875 
Q 18.109375 38.921875 18.109375 30.90625 
L 18.109375 0 
L 9.078125 0 
L 9.078125 75.984375 
L 18.109375 75.984375 
L 18.109375 46.1875 
Q 21.34375 51.125 25.703125 53.5625 
Q 30.078125 56 35.796875 56 
Q 45.21875 56 50.046875 50.171875 
Q 54.890625 44.34375 54.890625 33.015625 
z
" id="DejaVuSans-104"/>
      <path d="M 48.6875 27.296875 
Q 48.6875 37.203125 44.609375 42.84375 
Q 40.53125 48.484375 33.40625 48.484375 
Q 26.265625 48.484375 22.1875 42.84375 
Q 18.109375 37.203125 18.109375 27.296875 
Q 18.109375 17.390625 22.1875 11.75 
Q 26.265625 6.109375 33.40625 6.109375 
Q 40.53125 6.109375 44.609375 11.75 
Q 48.6875 17.390625 48.6875 27.296875 
z
M 18.109375 46.390625 
Q 20.953125 51.265625 25.265625 53.625 
Q 29.59375 56 35.59375 56 
Q 45.5625 56 51.78125 48.09375 
Q 58.015625 40.1875 58.015625 27.296875 
Q 58.015625 14.40625 51.78125 6.484375 
Q 45.5625 -1.421875 35.59375 -1.421875 
Q 29.59375 -1.421875 25.265625 0.953125 
Q 20.953125 3.328125 18.109375 8.203125 
L 18.109375 0 
L 9.078125 0 
L 9.078125 75.984375 
L 18.109375 75.984375 
z
" id="DejaVuSans-98"/>
     </defs>
     <g transform="translate(558.425 702.9275)scale(0.16 -0.16)">
      <use xlink:href="#DejaVuSans-75"/>
      <use x="65.576172" xlink:href="#DejaVuSans-78"/>
      <use x="140.380859" xlink:href="#DejaVuSans-101"/>
      <use x="201.904297" xlink:href="#DejaVuSans-105"/>
      <use x="229.6875" xlink:href="#DejaVuSans-103"/>
      <use x="293.164062" xlink:href="#DejaVuSans-104"/>
      <use x="356.542969" xlink:href="#DejaVuSans-98"/>
      <use x="420.019531" xlink:href="#DejaVuSans-111"/>
      <use x="481.201172" xlink:href="#DejaVuSans-114"/>
      <use x="522.314453" xlink:href="#DejaVuSans-115"/>
      <use x="574.414062" xlink:href="#DejaVuSans-67"/>
      <use x="644.238281" xlink:href="#DejaVuSans-108"/>
      <use x="672.021484" xlink:href="#DejaVuSans-97"/>
      <use x="733.300781" xlink:href="#DejaVuSans-115"/>
      <use x="785.400391" xlink:href="#DejaVuSans-115"/>
      <use x="837.5" xlink:href="#DejaVuSans-105"/>
      <use x="865.283203" xlink:href="#DejaVuSans-102"/>
      <use x="900.488281" xlink:href="#DejaVuSans-105"/>
      <use x="928.271484" xlink:href="#DejaVuSans-101"/>
      <use x="989.794922" xlink:href="#DejaVuSans-114"/>
      <use x="1030.908203" xlink:href="#DejaVuSans-44"/>
      <use x="1062.695312" xlink:href="#DejaVuSans-32"/>
      <use x="1094.482422" xlink:href="#DejaVuSans-102"/>
      <use x="1129.6875" xlink:href="#DejaVuSans-49"/>
      <use x="1193.310547" xlink:href="#DejaVuSans-95"/>
      <use x="1243.310547" xlink:href="#DejaVuSans-115"/>
      <use x="1295.410156" xlink:href="#DejaVuSans-99"/>
      <use x="1350.390625" xlink:href="#DejaVuSans-111"/>
      <use x="1411.572266" xlink:href="#DejaVuSans-114"/>
      <use x="1452.654297" xlink:href="#DejaVuSans-101"/>
      <use x="1514.177734" xlink:href="#DejaVuSans-61"/>
      <use x="1597.966797" xlink:href="#DejaVuSans-48"/>
      <use x="1661.589844" xlink:href="#DejaVuSans-46"/>
      <use x="1693.376953" xlink:href="#DejaVuSans-53"/>
      <use x="1757" xlink:href="#DejaVuSans-56"/>
      <use x="1820.623047" xlink:href="#DejaVuSans-49"/>
      <use x="1884.246094" xlink:href="#DejaVuSans-44"/>
      <use x="1916.033203" xlink:href="#DejaVuSans-32"/>
      <use x="1947.820312" xlink:href="#DejaVuSans-97"/>
      <use x="2009.099609" xlink:href="#DejaVuSans-117"/>
      <use x="2072.478516" xlink:href="#DejaVuSans-112"/>
      <use x="2135.955078" xlink:href="#DejaVuSans-114"/>
      <use x="2177.037109" xlink:href="#DejaVuSans-99"/>
      <use x="2232.017578" xlink:href="#DejaVuSans-61"/>
      <use x="2315.806641" xlink:href="#DejaVuSans-48"/>
      <use x="2379.429688" xlink:href="#DejaVuSans-46"/>
      <use x="2411.216797" xlink:href="#DejaVuSans-54"/>
      <use x="2474.839844" xlink:href="#DejaVuSans-57"/>
      <use x="2538.462891" xlink:href="#DejaVuSans-48"/>
     </g>
    </g>
    <g id="line2d_44">
     <path d="M 513.625 721.2575 
L 545.625 721.2575 
" style="fill:none;stroke:#e377c2;stroke-linecap:square;stroke-width:1.5;"/>
    </g>
    <g id="line2d_45"/>
    <g id="text_31">
     <!-- RandomForestClassifier, f1_score=0.683, auprc=0.720 -->
     <defs>
      <path d="M 52 44.1875 
Q 55.375 50.25 60.0625 53.125 
Q 64.75 56 71.09375 56 
Q 79.640625 56 84.28125 50.015625 
Q 88.921875 44.046875 88.921875 33.015625 
L 88.921875 0 
L 79.890625 0 
L 79.890625 32.71875 
Q 79.890625 40.578125 77.09375 44.375 
Q 74.3125 48.1875 68.609375 48.1875 
Q 61.625 48.1875 57.5625 43.546875 
Q 53.515625 38.921875 53.515625 30.90625 
L 53.515625 0 
L 44.484375 0 
L 44.484375 32.71875 
Q 44.484375 40.625 41.703125 44.40625 
Q 38.921875 48.1875 33.109375 48.1875 
Q 26.21875 48.1875 22.15625 43.53125 
Q 18.109375 38.875 18.109375 30.90625 
L 18.109375 0 
L 9.078125 0 
L 9.078125 54.6875 
L 18.109375 54.6875 
L 18.109375 46.1875 
Q 21.1875 51.21875 25.484375 53.609375 
Q 29.78125 56 35.6875 56 
Q 41.65625 56 45.828125 52.96875 
Q 50 49.953125 52 44.1875 
z
" id="DejaVuSans-109"/>
      <path d="M 9.8125 72.90625 
L 51.703125 72.90625 
L 51.703125 64.59375 
L 19.671875 64.59375 
L 19.671875 43.109375 
L 48.578125 43.109375 
L 48.578125 34.8125 
L 19.671875 34.8125 
L 19.671875 0 
L 9.8125 0 
z
" id="DejaVuSans-70"/>
     </defs>
     <g transform="translate(558.425 726.8575)scale(0.16 -0.16)">
      <use xlink:href="#DejaVuSans-82"/>
      <use x="69.451172" xlink:href="#DejaVuSans-97"/>
      <use x="130.730469" xlink:href="#DejaVuSans-110"/>
      <use x="194.109375" xlink:href="#DejaVuSans-100"/>
      <use x="257.585938" xlink:href="#DejaVuSans-111"/>
      <use x="318.767578" xlink:href="#DejaVuSans-109"/>
      <use x="416.179688" xlink:href="#DejaVuSans-70"/>
      <use x="473.652344" xlink:href="#DejaVuSans-111"/>
      <use x="534.833984" xlink:href="#DejaVuSans-114"/>
      <use x="575.916016" xlink:href="#DejaVuSans-101"/>
      <use x="637.439453" xlink:href="#DejaVuSans-115"/>
      <use x="689.539062" xlink:href="#DejaVuSans-116"/>
      <use x="728.748047" xlink:href="#DejaVuSans-67"/>
      <use x="798.572266" xlink:href="#DejaVuSans-108"/>
      <use x="826.355469" xlink:href="#DejaVuSans-97"/>
      <use x="887.634766" xlink:href="#DejaVuSans-115"/>
      <use x="939.734375" xlink:href="#DejaVuSans-115"/>
      <use x="991.833984" xlink:href="#DejaVuSans-105"/>
      <use x="1019.617188" xlink:href="#DejaVuSans-102"/>
      <use x="1054.822266" xlink:href="#DejaVuSans-105"/>
      <use x="1082.605469" xlink:href="#DejaVuSans-101"/>
      <use x="1144.128906" xlink:href="#DejaVuSans-114"/>
      <use x="1185.242188" xlink:href="#DejaVuSans-44"/>
      <use x="1217.029297" xlink:href="#DejaVuSans-32"/>
      <use x="1248.816406" xlink:href="#DejaVuSans-102"/>
      <use x="1284.021484" xlink:href="#DejaVuSans-49"/>
      <use x="1347.644531" xlink:href="#DejaVuSans-95"/>
      <use x="1397.644531" xlink:href="#DejaVuSans-115"/>
      <use x="1449.744141" xlink:href="#DejaVuSans-99"/>
      <use x="1504.724609" xlink:href="#DejaVuSans-111"/>
      <use x="1565.90625" xlink:href="#DejaVuSans-114"/>
      <use x="1606.988281" xlink:href="#DejaVuSans-101"/>
      <use x="1668.511719" xlink:href="#DejaVuSans-61"/>
      <use x="1752.300781" xlink:href="#DejaVuSans-48"/>
      <use x="1815.923828" xlink:href="#DejaVuSans-46"/>
      <use x="1847.710938" xlink:href="#DejaVuSans-54"/>
      <use x="1911.333984" xlink:href="#DejaVuSans-56"/>
      <use x="1974.957031" xlink:href="#DejaVuSans-51"/>
      <use x="2038.580078" xlink:href="#DejaVuSans-44"/>
      <use x="2070.367188" xlink:href="#DejaVuSans-32"/>
      <use x="2102.154297" xlink:href="#DejaVuSans-97"/>
      <use x="2163.433594" xlink:href="#DejaVuSans-117"/>
      <use x="2226.8125" xlink:href="#DejaVuSans-112"/>
      <use x="2290.289062" xlink:href="#DejaVuSans-114"/>
      <use x="2331.371094" xlink:href="#DejaVuSans-99"/>
      <use x="2386.351562" xlink:href="#DejaVuSans-61"/>
      <use x="2470.140625" xlink:href="#DejaVuSans-48"/>
      <use x="2533.763672" xlink:href="#DejaVuSans-46"/>
      <use x="2565.550781" xlink:href="#DejaVuSans-55"/>
      <use x="2629.173828" xlink:href="#DejaVuSans-50"/>
      <use x="2692.796875" xlink:href="#DejaVuSans-48"/>
     </g>
    </g>
    <g id="line2d_46">
     <path d="M 513.625 745.1875 
L 545.625 745.1875 
" style="fill:none;stroke:#7f7f7f;stroke-linecap:square;stroke-width:1.5;"/>
    </g>
    <g id="line2d_47"/>
    <g id="text_32">
     <!-- SVC, f1_score=0.704, auprc=0.782 -->
     <defs>
      <path d="M 53.515625 70.515625 
L 53.515625 60.890625 
Q 47.90625 63.578125 42.921875 64.890625 
Q 37.9375 66.21875 33.296875 66.21875 
Q 25.25 66.21875 20.875 63.09375 
Q 16.5 59.96875 16.5 54.203125 
Q 16.5 49.359375 19.40625 46.890625 
Q 22.3125 44.4375 30.421875 42.921875 
L 36.375 41.703125 
Q 47.40625 39.59375 52.65625 34.296875 
Q 57.90625 29 57.90625 20.125 
Q 57.90625 9.515625 50.796875 4.046875 
Q 43.703125 -1.421875 29.984375 -1.421875 
Q 24.8125 -1.421875 18.96875 -0.25 
Q 13.140625 0.921875 6.890625 3.21875 
L 6.890625 13.375 
Q 12.890625 10.015625 18.65625 8.296875 
Q 24.421875 6.59375 29.984375 6.59375 
Q 38.421875 6.59375 43.015625 9.90625 
Q 47.609375 13.234375 47.609375 19.390625 
Q 47.609375 24.75 44.3125 27.78125 
Q 41.015625 30.8125 33.5 32.328125 
L 27.484375 33.5 
Q 16.453125 35.6875 11.515625 40.375 
Q 6.59375 45.0625 6.59375 53.421875 
Q 6.59375 63.09375 13.40625 68.65625 
Q 20.21875 74.21875 32.171875 74.21875 
Q 37.3125 74.21875 42.625 73.28125 
Q 47.953125 72.359375 53.515625 70.515625 
z
" id="DejaVuSans-83"/>
      <path d="M 28.609375 0 
L 0.78125 72.90625 
L 11.078125 72.90625 
L 34.1875 11.53125 
L 57.328125 72.90625 
L 67.578125 72.90625 
L 39.796875 0 
z
" id="DejaVuSans-86"/>
     </defs>
     <g transform="translate(558.425 750.7875)scale(0.16 -0.16)">
      <use xlink:href="#DejaVuSans-83"/>
      <use x="63.476562" xlink:href="#DejaVuSans-86"/>
      <use x="131.884766" xlink:href="#DejaVuSans-67"/>
      <use x="201.708984" xlink:href="#DejaVuSans-44"/>
      <use x="233.496094" xlink:href="#DejaVuSans-32"/>
      <use x="265.283203" xlink:href="#DejaVuSans-102"/>
      <use x="300.488281" xlink:href="#DejaVuSans-49"/>
      <use x="364.111328" xlink:href="#DejaVuSans-95"/>
      <use x="414.111328" xlink:href="#DejaVuSans-115"/>
      <use x="466.210938" xlink:href="#DejaVuSans-99"/>
      <use x="521.191406" xlink:href="#DejaVuSans-111"/>
      <use x="582.373047" xlink:href="#DejaVuSans-114"/>
      <use x="623.455078" xlink:href="#DejaVuSans-101"/>
      <use x="684.978516" xlink:href="#DejaVuSans-61"/>
      <use x="768.767578" xlink:href="#DejaVuSans-48"/>
      <use x="832.390625" xlink:href="#DejaVuSans-46"/>
      <use x="864.177734" xlink:href="#DejaVuSans-55"/>
      <use x="927.800781" xlink:href="#DejaVuSans-48"/>
      <use x="991.423828" xlink:href="#DejaVuSans-52"/>
      <use x="1055.046875" xlink:href="#DejaVuSans-44"/>
      <use x="1086.833984" xlink:href="#DejaVuSans-32"/>
      <use x="1118.621094" xlink:href="#DejaVuSans-97"/>
      <use x="1179.900391" xlink:href="#DejaVuSans-117"/>
      <use x="1243.279297" xlink:href="#DejaVuSans-112"/>
      <use x="1306.755859" xlink:href="#DejaVuSans-114"/>
      <use x="1347.837891" xlink:href="#DejaVuSans-99"/>
      <use x="1402.818359" xlink:href="#DejaVuSans-61"/>
      <use x="1486.607422" xlink:href="#DejaVuSans-48"/>
      <use x="1550.230469" xlink:href="#DejaVuSans-46"/>
      <use x="1582.017578" xlink:href="#DejaVuSans-55"/>
      <use x="1645.640625" xlink:href="#DejaVuSans-56"/>
      <use x="1709.263672" xlink:href="#DejaVuSans-50"/>
     </g>
    </g>
   </g>
  </g>
 </g>
 <defs>
  <clipPath id="p5415def97d">
   <rect height="665.28" width="892.8" x="144" y="103.68"/>
  </clipPath>
 </defs>
</svg>
